<?xml version="1.0" standalone="no"?>
<!DOCTYPE svg PUBLIC "-//W3C//DTD SVG 1.1//EN" "http://www.w3.org/Graphics/SVG/1.1/DTD/svg11.dtd">
<svg xmlns="http://www.w3.org/2000/svg">
<metadata>Copyright (C) 2015 by original authors @ fontello.com</metadata>
<defs>
<font id="fontello" horiz-adv-x="1000" >
<font-face font-family="fontello" font-weight="400" font-stretch="normal" units-per-em="1000" ascent="850" descent="-150" />
<missing-glyph horiz-adv-x="1000" />
<glyph glyph-name="cancel" unicode="&#xe800;" d="m724 112q0-22-15-38l-76-76q-16-15-38-15t-38 15l-164 165-164-165q-16-15-38-15t-38 15l-76 76q-16 16-16 38t16 38l164 164-164 164q-16 16-16 38t16 38l76 76q16 16 38 16t38-16l164-164 164 164q16 16 38 16t38-16l76-76q15-15 15-38t-15-38l-164-164 164-164q15-15 15-38z" horiz-adv-x="785.7" />
<glyph glyph-name="glyph" unicode="&#xe801;" d="m471 133l254 254c7 8 11 16 11 26 0 9-4 17-11 25l-254 254c-6 6-14 10-24 10-9 0-19-4-25-10l-57-59c-8-6-11-13-11-23 0-10 3-20 11-26l170-171-170-172c-8-6-11-16-11-26 0-9 3-17 11-23l57-59c6-6 16-10 25-10 10 0 18 4 24 10z m457 280c0-79-18-151-57-215-39-67-90-117-156-157-65-39-137-56-215-56-78 0-150 17-215 56-66 40-117 90-156 157-39 64-57 136-57 215 0 78 18 150 57 214 39 67 90 118 156 157 65 39 137 56 215 56 78 0 150-17 215-56 66-39 117-90 156-157 39-64 57-136 57-214z" horiz-adv-x="1000" />
<glyph glyph-name="glyph-1" unicode="&#xe802;" d="m578 133l57 59c8 6 12 14 12 23 0 10-4 20-12 26l-170 172 170 171c8 6 12 16 12 26 0 10-4 17-12 23l-57 59c-6 6-15 10-25 10-10 0-18-4-24-10l-254-254c-7-8-11-16-11-25 0-10 4-18 11-26l254-254c6-6 14-10 24-10 10 0 19 4 25 10z m350 280c0-79-18-151-57-215-39-67-90-117-156-157-65-39-137-56-215-56-78 0-150 17-215 56-66 40-117 90-156 157-39 64-57 136-57 215 0 78 18 150 57 214 39 67 90 118 156 157 65 39 137 56 215 56 78 0 150-17 215-56 66-39 117-90 156-157 39-64 57-136 57-214z" horiz-adv-x="1000" />
<glyph glyph-name="glyph-2" unicode="&#xe803;" d="m928 413c0-79-18-151-57-215-39-67-90-117-156-157-65-39-137-56-215-56-78 0-150 17-215 56-66 40-117 90-156 157-39 64-57 136-57 215 0 78 18 150 57 214 39 67 90 118 156 157 65 39 137 56 215 56 78 0 150-17 215-56 66-39 117-90 156-157 39-64 57-136 57-214z" horiz-adv-x="1000" />
<glyph glyph-name="glyph-3" unicode="&#xe804;" d="m928 770l0-250c0-10-2-18-10-25-8-8-16-10-25-10l-250 0c-16 0-26 6-34 21-5 14-3 28 8 39l78 77c-54 50-121 76-195 76-39 0-76-8-111-22-35-15-65-35-90-62-27-26-47-55-63-90-13-35-21-72-21-111 0-40 8-77 21-112 16-35 36-64 63-90 25-27 55-46 90-62 35-14 72-22 111-22 45 0 86 10 125 30 39 17 74 45 100 82 4 2 7 6 13 6 6 0 10-2 14-6l76-76c4-4 6-6 6-12 0-4-2-8-4-12-41-49-90-88-148-115-57-28-117-39-182-39-59 0-113 9-166 33-53 23-100 53-137 92-39 37-68 84-91 137-24 52-34 107-34 166 0 58 10 113 34 166 23 52 52 99 91 136 37 39 84 69 137 92 53 24 107 33 166 33 55 0 107-9 158-29 51-21 98-51 137-88l72 72c12 12 24 14 39 8 16-8 22-17 22-33z" horiz-adv-x="1000" />
<glyph glyph-name="i-close" unicode="&#xe805;" d="m530 518l194-182-34-37-197 183-196-183-33 37 193 180-193 182 33 37 196-184 196 185 34-37-193-181z m-282-510c2 0 3 0 4-1l10-12c-7-8-16-16-27-20-12-5-24-7-39-7-14 0-25 2-37 7s-20 12-27 20c-8 9-14 19-18 31-4 11-6 25-6 39 0 13 2 26 6 39 5 11 12 21 19 30 9 8 18 15 30 20 11 5 24 7 38 7 14 0 25-2 35-6 10-4 19-10 26-18l-8-11c0-1-2-1-3-2-1 0-3-2-4-2-1 0-2 0-4 2-1 1-2 1-5 2-1 1-3 3-6 4-2 1-5 2-9 4s-7 2-11 2c-4 1-9 1-15 1-10 0-19-1-28-5-8-3-15-8-21-15-6-6-10-13-14-22-3-9-5-19-5-30 0-12 2-23 5-32 4-9 8-16 14-22 6-7 13-12 20-14s16-5 25-5c5 0 10 0 15 1 5 1 9 1 13 2s7 4 10 6c4 2 6 5 10 7 5 0 6 0 7 0z m78-15h76v-25h-101v188h25v-163z m265 70c0-13-2-26-6-39s-12-21-19-30c-8-9-18-15-29-20-11-5-24-7-38-7-13 0-26 2-37 7-12 5-22 11-29 20-8 9-14 19-19 30s-6 26-6 39c0 14 2 27 6 39s11 22 19 30 17 15 29 20c11 5 24 8 37 8 14 0 27-3 38-8 11-5 21-11 29-20s14-18 19-30 6-25 6-39z m-25 0c0 12-1 22-5 32-3 9-8 16-14 22-6 7-12 12-21 15s-18 5-28 5c-10 0-19-1-27-5s-15-8-22-15c-6-6-10-13-14-22s-5-19-5-32 2-21 5-31c3-9 8-16 14-23s13-11 22-15c7-4 17-5 27-5 10 0 19 1 28 5 7 4 15 8 21 15 6 7 10 14 14 23 4 10 5 20 5 31z m156 64c-2-1-2-2-3-2-1-1-3-1-4-1-1 0-4 1-5 2-2 1-5 3-7 5s-7 4-12 5-8 3-15 3c-5 0-10-2-15-3-3-1-7-4-11-6-3-3-5-6-6-9-2-4-3-7-3-11 0-5 1-10 4-13 2-4 6-6 10-9s9-5 14-6 11-4 16-5c5-2 11-4 16-6 5-3 10-5 14-9 4-4 8-7 10-14 3-5 4-11 4-20 0-7-1-16-4-22-2-8-6-14-12-19-5-5-12-10-20-13-8-2-17-5-27-5-12 0-22 3-32 6-10 4-19 10-25 18l7 13c1 1 1 1 3 2 1 1 2 1 3 1 2 0 4-1 7-2 2-3 5-4 8-6s8-6 13-7 11-2 19-2c6 0 11 1 16 2s9 4 11 8c4 2 7 6 8 11 1 4 2 9 2 14 0 5-1 10-3 14-3 4-7 6-10 9-4 2-9 5-14 6-5 1-11 4-16 5-5 1-12 4-17 6-5 3-10 5-14 9-3 4-7 9-10 14-2 5-3 12-3 21 0 6 1 13 3 19 3 6 7 11 12 16 5 5 11 9 17 11 8 3 15 4 25 4 10 0 20-1 29-5 9-4 17-7 23-14l-6-15z m156 29v-25h-87v-63h75v-12h-75v-63h87v-25h-113v188h113z" horiz-adv-x="1004" />
<glyph glyph-name="i-menu" unicode="&#xe806;" d="m691 628h-426v89h426v-89z m0-67h-426v-89h426v89z m0-154h-426v-89h426v89z m-478-373l-69 123c-1 3-2 4-3 4-2 0-4 1-5 1h-22v-199h24v147c0 2 0 4 0 6 0 3 0 5 0 8l70-126c3-4 5-6 10-6h4c4 0 8 2 10 6l69 126c0-3 0-5 0-7 0-2 0-3 0-6v-147h24v198h-20c-3 0-4 0-5-1-1 0-3-1-4-4l-70-123c-1-2-3-5-4-7-1-3-2-5-2-8-2 3-2 5-3 8-2 4-2 6-4 7z m158 128v-199h123v21h-96v68h78v21h-78v67h96v22h-123z m176 0h-14v-199h24v142c0 1 0 4 0 6 0 3 0 5 0 6l116-150c1-2 2-3 3-4 2-1 4-1 5-1h14v200h-24v-141c0-3 0-4 0-7 0-2 0-5 0-7l-115 150c-1 2-3 3-4 4-1 1-2 1-5 1z m252-174c-6 2-12 6-16 11-5 5-8 12-10 18s-4 15-4 23v121h-26v-121c0-12 1-23 5-33 4-10 9-19 16-25 8-8 15-13 25-18 10-4 22-6 33-6 12 0 24 2 33 6 10 4 18 10 25 18s12 16 16 25c4 10 5 20 5 33v121h-26v-121c0-9-2-17-4-23-3-8-6-13-10-18-5-5-10-9-17-11-6-3-13-4-22-4-9 0-16 1-23 4z" horiz-adv-x="1004" />
<glyph glyph-name="a" unicode="&#xe807;" d="m925 784c12-7 22-14 30-20 8-5 12-10 12-14v-2c-19-22-37-47-56-77-18-29-36-61-53-95-17-34-33-70-49-107-15-38-28-76-39-113 4 3 9 6 12 8 4 3 7 4 8 4 3 0 7-3 14-8 6-5 13-12 20-19 6-6 12-13 17-20 6-6 8-10 8-12 0-3-2-5-7-9-5-3-11-6-17-10-7-4-14-7-20-11-7-3-13-5-16-7l-1-1-10-4 1 1c1 1 2 2 3 2-2-1-4-2-8-3-3-1-4-2-4-3l-5-3v1 3l-11-4 1-1 1-1h1l-3-2 1 3c-1-1-1-1-1-1 0 1-1 0-2 0l-2-2c-3 0-5-7-7-21-2-14-4-31-5-49-2-18-3-35-5-51-1-17-2-27-2-31l-1-5v-5-5-1c0-2 1-4 1-4v-7-4h-1l1-2h-1l1-17-1-1 1-3c1-6 2-13 2-20 0-7 0-14 1-20v-2l1-7h-1l1-1 1-4v-14l2-11c0-3 0-5 1-7v-7l2-4c1-10 3-20 6-31l-1 3-5 5v-2l-1 3v-1l-1 2c-2 2-3 6-4 10-1 4-1 8-2 12h1c-3 2-4 5-5 11-1 6-1 10-1 12v3c-1 5-2 10-3 14 0 5-1 10-2 15l1-2v1 1 2-2c-1 0-1 3-2 8 0 5-1 9-2 12h2c-1 3-2 7-2 15l2 2c-1 1-2 4-3 9v5c0 2 1 4 1 6 0 5-1 10-1 15v16c-1-9-1-16-1-24v-22c0-46 3-82 10-105 6-24 10-35 10-34 0 0-1-2-2-4 0-2-2-3-6-3-5 0-11 6-16 18-5 12-9 28-13 48-3 20-6 43-9 68-2 25-4 52-4 79 0 21 1 42 2 64 2 22 4 44 7 67h-18l-2 1h-4c-5 0-9 1-13 1s-8 2-12 2l1 1-2 1 6-1-4 2c-1 0-3 1-4 1l-1-1-1-1 2-1c-4 0-8 1-12 3-4 3-10 4-18 4v-1c-3 2-6 3-9 3-3 0-6 1-7 3 0-1 0-1-1-1 0 1 0 1 0 0-2 1-5 2-8 4-3 1-5 2-5 1v1c-3 0-6 1-8 2-3-3-6-7-9-13-4-6-8-11-11-17-3-5-8-12-13-20-3-5-7-11-11-18-5-7-10-13-14-19v3c-2-2-2-3-2-5 0-2-1-3-3-3 0 0 0-1-1-1 0-1 0-1 1-1v1c-4-6-8-13-13-20-4-7-9-14-15-20l-1 6c2 2 3 4 3 5-5-6-9-11-14-16-4-5-9-10-14-16l-2-3c-2 0-4-2-7-6-2-3-3-5-3-7l1-4 12 19-2-2 6 5c-2-1-1-1 2 2 4 3 5 6 5 8l14 9-5-6c-3-4-5-5-6-5l-1-3h1l-3-1v-1l-1-3-2-1-3-4-3-3c-2-3-4-5-6-8-2-2-4-4-6-6-12-16-25-32-41-48-15-16-32-31-50-44-18-13-38-24-58-32-21-8-42-12-64-12-6 0-11 0-15 2-4 1-7 2-10 2h-2v1h-7-2c-1 0-2 0-3 0-2 1-3 1-4 1l-9 4-6 1-5 1c-4 2-8 3-12 5-4 2-8 4-12 6l-5 3c-9 4-18 9-26 16-8 7-16 14-23 22l-3 2-7 8h1l-2 2-4 4v2l-12 17c-2 2-4 6-8 11-3 5-5 10-5 14h2l-4 10-4 7c-1 7-2 14-3 21-1 7-2 14-2 21 0 5 1 8 2 11l-2-5v-5l4-8v1l3-4-2 1 3-3h-1c1-5 2-11 3-17 1-6 3-11 5-15h-1c2-2 3-4 4-8 1-3 3-5 5-7 4-12 9-23 15-31 7-8 14-15 20-22h-2c1-1 2-1 1-1s1 0 2-1h-1c3 0 6-3 11-7 4-5 8-8 11-9v-1c3-2 6-5 10-8 4-3 8-6 11-7 2-1 10-5 25-12 15-7 32-10 49-10l1-2c2 0 4 0 6 0s5-1 6-1c7 0 13 1 20 1 6 1 12 2 17 4v-2c5 0 7 1 7 3 9 2 17 4 23 7 5 3 11 6 17 9l-1-1h1c-1 0 0 1 2 2 3 1 4 2 5 3l-2-4 13 8-1 1 4 1-4-1v1c6 3 12 8 19 12 7 5 12 10 17 15 0 0 1 0 0 0 0-1 0-1 1-1l1 1v1c0 1 1 3 4 5 2 2 5 4 9 7 4 3 7 6 10 8 3 3 5 5 6 6l19 20c-23-24-50-44-82-61-32-17-62-26-90-26-32 0-61 8-86 24-25 17-45 34-58 52-6 9-15 20-25 35-10 14-19 33-27 57v-6 2c0 1-1 2-2 3l-3 2c1 2 2 3 1 4 0 2 0 3 0 5-4 14-8 30-11 48s-5 35-5 54c0 31 5 64 16 100 10 36 27 69 50 100 23 30 52 55 88 75 36 20 78 30 128 30 22 0 44-3 67-10 22-7 42-17 60-31 19-13 34-30 45-50 12-20 17-44 17-71 0-4 0-8 0-12-1-4-1-8-2-12 9-7 18-13 26-19 9-6 19-12 29-17 19 39 38 78 56 115 18 37 37 72 56 106 17 32 35 61 53 86 18 25 35 47 51 64 16 18 29 32 41 42 11 9 19 14 23 14 4 0 9-2 14-5 4-4 11-11 18-23 7 11 13 20 18 26 4 7 9 11 14 11 6 0 14-3 24-10m-456-573c10 14 19 28 29 43 9 15 18 31 27 46l-7 4c-3 2-6 4-9 7-4 3-8 5-12 8h1c0 1 0 1-2 1-1 0-1 1-1 2h-2c0 0 1-1 2-1l-19 15c-2-3-5-6-7-9-3-2-5-5-6-7-6-7-15-15-28-26-13-10-33-16-61-16-10 0-20 1-30 4-10 2-20 6-28 12-9 6-16 14-22 24-5 9-8 21-8 35 0 12 2 23 7 33 5 11 12 21 20 29 9 9 19 16 31 21 11 5 24 8 38 8 9 0 19-1 28-3 9-2 17-5 24-8-9 26-24 47-46 62-21 15-52 23-91 23-3 0-9-1-15-2-7 0-15-1-23-3-7-1-15-2-21-4-7-2-11-4-12-6-2-2-3-3-4-3v2c-2-2-6-4-12-8-6-3-11-5-15-7l1 2-4-3h-1l-1-2h1c-4-3-8-6-12-10-4-4-8-8-11-12l-3 4c1 2 2 3 3 3 1 1 1 1 1 2v1 3l-3-3c-1-1-2-1-2 0s0-1-1-2l-1-2 6 7 1 2c-3-3-6-5-7-6l-1-2-2 1c0-1 0-1 0-1-1 0-1-1-1-2-17-13-32-28-43-46-12-18-22-37-29-57-8-19-13-39-16-58-4-19-5-36-5-51 0-29 3-55 9-78 6-23 15-43 25-60 0 7-2 15-8 24-5 10-9 17-10 23l2-1c-1 1-1 1 0 1 0 0 0 1-1 2v-1c-1 0-2 2-3 7-1 4-2 9-3 13h1c-2 2-2 7-2 15v2c-3 7-4 16-4 27v30l1 1c0 6 1 13 1 19 1 7 2 13 3 18l1-2c0 1 0 2 1 2 0 1 0 1 0 2 0 1 0 2-1 3 1 2 1 6 0 12-1 6 2 12 9 18l1 5 1-4 3 9-2 2 2 3-3-3c2 7 4 13 6 18 2 5 4 9 5 13 0 8 3 16 10 25 7 10 12 18 16 24l2-2c1 0 3 1 7 5l3 5-1 1-1 1-1 3-4-5-3-4 9 14c1 1 2 3 3 5 1 2 3 4 4 6 2 1 4 2 5 3 1 2 3 4 5 6 2 2 3 4 5 5l-2-7c-2 0-3-1-5-4-1-2-1-3-1-2l-4-6h-3l-2-4-3-5 2-1 1-4 7 14h-2l5 2 3 4c2 1 3 3 3 3l2 3 9 1-4-4c-1-1-3-2-5-2l-1-1-1-1v-2 2l-3-3-1-4-2-2c-19-28-34-57-46-88-11-31-18-62-21-94l-2-5c0-3 0-5 1-5l-1-5c1 1 1 1 1-1-1-2-1-4 0-5v-7-6 1l1-18v-4c1-7 2-13 4-20 1-7 2-14 4-20l1-7 1-3 2-2 1-2-1-1c0-4 2-8 3-13l5-9c0-2 1-4 3-8l2-6-1-1 3-5v1c7-15 14-27 23-34 11-12 26-23 45-33 19-11 37-16 55-16 20 0 40 5 61 15 21 9 41 23 61 39 20 17 40 37 59 59 20 22 37 45 54 70m-404-119c1 0 1-1 1-3v1-1l-1 3z m8 178l2-2v2h-2z m3-53v-1l1 1h-1z m0-147c0-1 0-2 1-2v-1l-1 3z m7 99v-2 1 1z m3-4l-2 2v1c0-1 1-2 2-3m0 5l1-2 2-3-2 5-1 1v-1z m3-24c0 0 0 1 0 2-1 0-1 1-1 1l-1 2 2-5z m4 190l1 4-2 2-3-6-1-6h4l2 6h-1z m-4-14v-1-7l2 6 1 1v8l-3-7z m8-196v-2c1 0 1 0 1 2h-1z m3-7c0 0 0 1-1 1v-1h1z m5-95l2 1-3 4-5 1 5-5 3-1h-2z m-3 7l2-2v2h-2z m9 368l-2-9h-2l-2-5c0-1-1-2-1-4 0-1 1-2 1-2l3 2 1 3 4 7h-3l3 1c0 0 0 0 2 2 1 2 2 4 3 6h-2v5h-2l-3-4c0-2 0-2-1-2v-2l1 2z m-3-371c0 1-1 2-3 2l3-2z m16 57l2-2 1-1-3 3z m18-86c0 0 1-1 1-1 1 0 2 0 3-1 0 2-1 2-4 2m4-1v1l-1 2 1-2v-1z m16-10c0 0 0-1 1-1v1h-1z m18 492l1-2v2h-1z m55-505l-1 1v-1h1z m85 16l-8-5c-1 0-2 0-3-1h-1l-6-4 8 2 4 3 6 5z m9 5l6 3-1 4-15-8 4-3 7 4h-1z m-3 382c0 1 1 3 3 5-2-2-3-4-3-5m3 5c3 4 7 8 11 11-4-3-8-7-11-11m38-69l1-1 3 1v-1c22 0 38 6 48 17 10 11 17 22 22 33-11 7-23 14-35 20-13 6-25 9-35 9-9 0-16-2-22-7-6-5-11-11-15-18l-3-3c0-1 0-1 0-2-1 0-1-1-1-2h1l-1-3v-1-3l1-5v-5 1-1c0-1 1-3 2-5 1-2 2-4 3-6l1-2v1c8-8 16-14 24-16l3-1h3z m-27 78c2 1 4 3 4 5l-4-3v-2z m10 8c0 1 1 1 2 1 0 0 1 0 1 1 0 1-1 0-3-2m12-5h1l5 2h-5l-5-3 4 1z m65-9c1-1 2-2 4-3 1 0 3-1 5-2-9 7-19 13-29 18-10 4-21 7-33 7-1-1-3-1-6-1h3 3l-2-3h6l2 1 2-1-2 3c6 0 10-1 13-3 0 1 0 1 0 1 1-1 1 0 1 0 2-1 5-2 7-3 2-1 4-2 5-3 0-1 1-1 1-1 1 0 1 0 1 1 0 0 0 0 1 0 4-1 7-3 9-5 3-2 5-4 8-6l-1 1h-2l2-1-7 3v2l-3 1c-1 0-2 1-2 1 0 0-1 1-2 1-2 0-2-1-2-2l2-2 1-1 6-4v2l2-1c0-1 1-3 2-3l3-2v2l3-2 2 3-3 2z m-53 13l4-2v4h-10l1-2h4l1-2v2z m35-336l-2 2-2-2-4-2-3-4h1l-8-8-7-5c-3-4-5-6-5-8h1c1 0 2 1 3 2l3 2 10 9h-3l3 2v-1c2 0 4 1 5 3 2 2 3 4 5 5h-2l3 4 2 1z m34 32l-1 4v1 1l-15-14 2-3c1 0 2 1 3 1 1 1 2 2 2 2 1 1 2 2 4 3l5 5z m38 248c-2-1-2-3-2-3 0-1 1-2 2-2l2 2-2 2v1z m1 2c-1 0-1-1-1-2l2-2 2-1 8-4 2-1c-2 1-4 3-7 5-2 1-4 3-6 5m14-15l8-11 7 3c-1 0-2 1-2 2l-6 2-7 4z m18-19c0 0 1-1 1-1l-1 1h1-1z m4-3l1-2v2l-1 1v-1z m1 8c0-1 1-1 1-1l-1 1z m76-44c-6 3-12 6-16 7v-1l1-1 3-1 2-3h3l1-1h4l-1 1h1c1 0 1-1 2-1m11-4l-5 3c1-1 2-1 3-1 1 0 1-1 2-2m113 99c12 54 26 106 44 156 17 51 36 95 54 135-36-41-70-90-101-147-32-57-66-116-102-176 10-4 21-6 32-7 10-1 20-2 29-2 11 0 20 1 25 3 5 1 9 4 11 8 2 3 3 8 4 12 0 5 2 11 4 18m-97-107l-2 2h-3-2l1 3 1 1c1-2 2-2 3-1 2 1 2 0 2-1v-4z m38-5v1h-5v-2l5 1h-1 1z m60-154c0 1-1 2-1 4v-4h1z m2 35c0 1 1 1 1 2l-1-2z m3-89v2l-1-2c0 0 0-1 1-1 0 0 0 0 0-1v2z m3-36c0 0-1 1-1 2v-1l1-1z m-1-14v-2c0-1 0-2 0-2 1-1 1-1 1-2l-1 6z m4 184l-2 1-1-12 3 1v5 5z m-2-164h-1v-4l2-2v6h-1z m0-37l-1 2v-1l1-1z m2 183v7l-1-7-1-8 2 7v1z m-1-192v-2l1 2h-1z m1-8v1 1-2z" horiz-adv-x="1000" />
<glyph glyph-name="s" unicode="&#xe808;" d="m625-65c-21-23-44-39-68-48-23-9-48-14-72-14-35 0-70 7-105 20-36 14-67 28-94 45-5 3-10 6-17 10-6 4-13 10-20 16-7 6-12 14-17 23-4 9-7 20-7 32 0 20 5 35 15 45 10 10 21 17 33 21 12 5 23 6 34 6 10 0 17-1 18-1 8 0 15 0 22-1 8-1 16-2 25-3 51-6 96-14 135-24 38-9 72-18 103-25v12l-2 1-1 7v-1 3l-2 1-4 12-2 7c-6 13-14 27-26 44-11 15-26 34-44 55-17 24-36 48-57 74-22 25-43 52-63 81-20 29-37 62-51 97-14 35-22 75-23 119 0 33 6 67 17 101 12 34 28 64 49 91 21 26 47 48 77 64 30 17 64 25 101 25 21 0 42-4 62-11 20-7 38-18 54-31 16-13 29-28 39-46 9-17 14-36 14-56 0-18-2-33-7-43-5-11-9-21-11-31 6 11 11 22 17 34 5 12 10 23 16 34 5 10 9 19 12 27 3 8 5 13 6 16 3 0 6-1 11-3 5-2 9-3 14-5l16-8c-5-11-14-26-27-44-13-19-26-37-39-54 0-2-1-3-2-3l1-1-1-1-2 1v-3l-3-2c0-1 1-2 2-3l-8-18c-2-3-4-6-5-9-2-3-3-6-5-8l-1-1h-2c0-1 1-1 2-1l-2 1v-1-2l-1-2h1-1l-3-5h2c-1-2-3-5-6-8l-1-1 1-2-1 2v-2-1l-2 1-2-5-2-1v1l-3-1-6-7 1 1-1 4v-1l-2 3-1 1h1l3 3-1 1c0-1 0 0 0 2 1 1 2 2 4 2l2 6 2-2h-2l2 2c-1 0-1 0-1 0 1 1 0 1-1 1 0 1 1 2 2 3l3 3h1l-1 1c-5-5-7-8-7-9s-2-2-6-2c-6 0-15 2-27 5-2-5-3-8-4-9l1 3 1 4v4c-15 0-28 3-39 9-11 7-17 11-17 14v1c6 19 13 40 22 64 9 25 14 43 14 56 0 13-7 24-22 34-15 10-30 17-45 19-8 0-15 0-22 0-7-1-13-2-18-4l1 2-5-2v2l9 1-7 1c0 0 0 0-1 0-1 1-2 1-4-1h-1 1l-3-1v-3l4 1c-4-4-10-7-18-9-7-2-13-4-19-7 0 1 0 1-1 1-2-2-4-3-6-3-1-1-2-1-2-2h1c-6-2-14-7-23-15-10-9-15-14-17-17v2h-1v-3-2c-9-9-17-20-24-35-7-14-13-29-17-45-4-16-7-32-9-49-3-17-4-33-4-49 0-4 0-7 1-11 0-4 1-7 1-11h1v-10-1-1l1 1v-5l3-5v-4c7-23 16-47 28-69 13-22 25-44 38-65 4-7 9-16 17-27 8-11 16-23 23-34 8-12 15-22 22-30 6-8 10-12 11-12h1l4-6h-1c1 0 2-1 3-2 1-2 2-3 4-3l5-8 3-4 18-22 3-5c6-7 12-14 17-22 5-8 10-16 15-24l2-3 5-8h-1l1-3 2-1 1-3 8-18 7-14c0 0 1-4 3-9v-2-1 1l1-11 3-6c1-4 1-8 1-11v-11-9c15-3 26-6 33-8 8-2 11-8 11-18 0-19-3-37-9-53-7-17-11-25-13-25-7 0-15 2-25 6-10 3-18 7-25 10v-1z m-293 88c-4 1-8 1-12 1h-11c-13 0-19-3-19-9 1-1 1-2 2-3 0-1 1-2 2-3 4 0 9 1 12 2 4 2 8 2 13 2 3 0 6 0 9 0 3-1 6-1 10-1l5-1c1 0 2-1 3-2 1 0 1 1 1 2l4-2h2 4l7-1 5-1v1l11-3 6-1h9l-6-2h1l-7-7 1-1 3-1h-5l-10 1c-5 0-9 1-14 1-4 1-9 2-13 2h-4v1h-22-10l1 2h-2l5 1-4 1-3 2-1-3-2-1h3c-1 0-1-1-1-2 25-25 55-44 92-59 38-16 72-23 104-23 21 0 39 2 53 7 14 4 27 13 39 24-20 7-41 14-63 22-22 9-44 17-67 24-23 8-46 15-68 20-22 6-43 9-63 10m-24-23l5 1-4 1c-1 1-2 2-3 2l-1-3-2-1h3 2z m-2-3l2-2 1 3-3-1z m15 7h-1-4l1-4 4 2v2z m0-2l-1 2h-4l1-4 2 1 2 1z m44-2l2 2-5 2-1-3 4-1z m2 2l-5-1h-1l6-1v2z m20-9l-3 1c0 0-1 1-1 1l7 7h-1l6 2 15-3-9-1 1-2-5-1h-10 6v-3h5l2 2c0 0 1-1 2-2l4-1v-2l-4-1-2-1c-1 0-2 0-3 1-1 0-2 1-2 1l-2 2 1-3-5 3h-2z m14 7l5 1 21-6 7-1 1-1h2 1l12-4 10-3 1-2 2 2 16-4c7-3 16-6 25-9 9-3 14-6 16-8h-4l-1 2h-4-3-10l3 1-4 1c-2-1-3-2-5-2-1 1-3 1-5 1l-13 4v7l-9-3-4-1-9 4 1-1h4 3l5 4-11 1h-5l-3-1c-3 0-4-1-5-2l-6 3 3 3-7 1-5 6-2-7 2-2 1-1-4 1h1c-1 0-1 1-1 1 0 1-1 1-1 1 0-1-1-1-2-1-1 1-2 0-3-1-1 2-6 3-12 3v2c-1 0-2-1-2-1 0-1-1-1-2-1-1 0-3 1-7 3l-1 3 2-2c0-1 1-1 2-1l3-1 2 1 4 1v2l-4 1c-1 1-2 1-2 1v-1h-7v3h-6 10l5 1-1 2z m8 457c0-4 1-7 2-8h1l-3 8z m0 0c0-4 1-7 2-8h1l-3 8z m7-32c0 2 0 4-1 5 0 1 0 3 0 5l-3 5c1-2 2-8 4-15m-1 10l-3 5c1-2 2-8 4-15 0 2 0 4-1 5 0 1 0 3 0 5m2-440h2l-2 2v-2z m18-13h-5l-4 3c-1 0-2 0-2 1l2 7 5-6 7-1-3-3v-1z m8 384c0 2 0 3-1 3l-1 4-4 11-2-4-1 4v1c0 1-1 3-2 4 0 2-1 4-1 6l-1-1-4 5c2-6 5-12 9-17 3-5 6-10 8-16m-2 7l-4 11-2-4-1 4v1c0 1-1 3-2 4 0 2-1 4-1 6l-1-1-4 5c2-6 5-12 9-17 3-5 6-10 8-16 0 2 0 3-1 3l-1 4z m11-394v-3l-14 2 3 2c1 1 2 2 5 2h3l3 1 13-1-5-3-3-1h-4-1v1z m-4 10l1-2c0 1 0 1-1 1 0-1 0 0 0 1m26-15v-2l-4-7-5 7-1 3 10 4v-5z m5 343l-4 5-3-1 9-13 1 2-4 5 1 2z m3-7l-4 5 1 2-4 5-3-1 9-13 1 2z m0 412l-1-2-6-5c1 2 2 3 3 3 1 1 2 2 4 4m-1-2l1 2c-2-2-3-3-4-4-1 0-2-1-3-3l6 5z m15-427l-5 9-6 7 4-9 2-2 5-5z m0 0l-5 5-2 2-4 9 4-6 2-3 5-7z m0 434l2 1c3 0 4 1 4 3h6l-4 4c0-1-1-1-3-1-2 0-4-1-5-3l-2-3v-1h2z m0 3v1c1 2 3 3 5 3 2 0 3 0 3 1l4-4h-6c0-2-1-3-4-3l-4-1v1l2 2z m2-763l3-2-5 2h2z m21-2h1l3-1 6-6-10 2c-1 0-2 0-4 1l-3-1-14 7h10 3 4l1-2h3z m21 779l6 1-4-4c-2 0-3-1-4-2h-1-3l1 3 5 2z m5 4l8 1-7 1h-2c-1 0-2 0-3-1h-1 1l-3-1v-3l4 1 2 2h1z m80-655c10-16 16-38 17-66 2 0 4 0 6-1l-1 1h1c0 4-1 9-1 15-1 7-3 12-5 15h2c-1 1-2 4-4 9-2 5-4 11-7 18-3 7-6 14-10 21-5 8-9 15-13 21l2-1-1 1v1 2-2c-2 0-5 3-8 9-4 6-7 10-9 12v1c-2 3-4 6-5 8-1 2-3 5-6 9-2 5-7 11-13 18-6 8-15 18-28 31 3-4 8-10 14-19 6-9 13-18 19-27s14-22 24-36c7-10 16-23 26-40m-69 659l1-2 2-1 2 1c2 0 3 1 3 1 0 1 1 1 2 1h-10z m3-2v-1l2 1c2 0 3 1 3 1 0 1 1 1 2 1h-10l1-2h2z m12-564h1l2-1v1h-3z m15-17c0 0 0 1-1 2s-2 1-2 2c2-2 3-4 3-4m-1 0c-1 0-2 1-2 2v-1l2-1z m25-36l1-3-1 3z m1 3l1-2 2-3 4-1-6 7-1-1z m1-2l2-3 4-1-6 7-1-1 1-2z m2-4h-2v1c0 0 1-1 2-1m12-26c-3 5-5 7-6 7l6-7z m11-25v-2c1 0 1 0 1 2h-1z m3-11v3-1l-2 1c0-1 1-2 2-3m9-7l2 2 1-3 1-5h-1l-3 6z m24 481l-2-4-7-7 5 14c0 1 0 3 1 5v1 3c2-1 4-1 5-1v-2l-1-2-1-7z m33-15v-2c-2 0-3 1-3 2v-2 2-2c-1 0-2 1-2 2v-2l-1 3 1-1c1 0 2 0 2 1v-1c-1 1-2 2-2 2l3-1 2-1z m0 1l1-3-3 3-3 1 2 3 1-1 2 1 1-4h-1z m8 6l1-2h-1l-2 2h2z m5 11l-1 2v-1l1-1z m-1 1l1-1-1 2v-1z m18 33h1l-1 1-2 2c0-1 0-2-1-3l3-2v2z m-2 3c0-1 0-2-1-3l3-1 1 1h-1l-2 3z m2-6v2-5l1 2-1 1z m1-1l-1 3v-5 2h1z m18 31h1-2 1z" horiz-adv-x="1000" />
<glyph glyph-name="star" unicode="&#xe809;" d="m440 285l148 343-73 222-120-380h-385l310-230-112-378 307 233 313-233-63 206-325 217z m295-132l-27 92-133 80 60 145-25 80-110-242 235-155z m65 155l-95 65 45 100h-57l-53-123 110-77 50 35z m53 165h-53l-30-83 75-52 45 35-62 32 25 68z m75-40l15 40h-40l-28-48 45-32 40 27-32 13z" horiz-adv-x="1000" />
<glyph glyph-name="heart" unicode="&#xe80a;" d="m500-79q-14 0-25 10l-348 336q-5 5-15 15t-31 36-38 55-30 67-13 77q0 123 71 192t196 70q34 0 70-12t67-33 54-38 42-38q20 20 42 38t54 38 67 33 70 12q125 0 196-70t71-192q0-123-128-251l-347-335q-10-10-25-10z" horiz-adv-x="1000" />
<glyph glyph-name="star-1" unicode="&#xe80b;" d="m929 489q0-12-15-27l-203-197 48-279q1-4 1-12 0-11-6-19t-17-9q-10 0-22 7l-251 132-250-132q-13-7-23-7-11 0-17 9t-6 19q0 4 1 12l48 279-203 197q-14 15-14 27 0 21 31 26l280 40 126 254q11 23 27 23t28-23l125-254 280-40q32-5 32-26z" horiz-adv-x="928.6" />
<glyph glyph-name="emo-grin" unicode="&#xe80c;" d="m197 801c-61 0-110-64-110-144 0-80 49-144 110-144s109 64 109 144c0 79-49 144-109 144z m476 0c-60 0-109-64-109-144 0-80 49-144 109-144 61 0 110 64 110 144 0 79-49 144-110 144z m144-480l-765 0c-29-1-52-25-52-54 3-200 238-351 422-354 186-3 442 156 448 355 0 29-24 53-53 53z m-700-106l634 0c-62-121-190-201-331-197-130 4-246 83-303 197z" horiz-adv-x="870" />
<glyph glyph-name="emo-laugh" unicode="&#xe80d;" d="m206 742c-77 0-151-39-196-103-17-24-11-57 13-74 24-17 58-12 75 13 43 61 127 74 186 31l0 0c4-2 8-5 11-9l1 0 1-1c3-4 7-7 10-11l1-1 0 0 0 0 1-1 0-1c20-22 54-23 76-4 22 20 24 54 4 76-45 53-112 84-183 84z m486 0c-78 0-152-39-197-103-17-24-11-57 13-74 24-17 58-12 75 13 43 61 127 74 186 31l0 0c4-2 8-5 12-9l0 0 1-1c4-4 7-7 10-11l1-1 0 0 0 0 1-1 1-1c19-22 53-23 75-4 22 20 24 54 5 76-46 53-113 84-183 84z m148-421l-765 0c-29 0-52-24-52-54 4-200 238-351 422-354 187-3 443 156 448 355 0 29-24 53-53 53z m-700-106l634 0c-61-121-190-201-330-197-130 4-247 83-304 197z" horiz-adv-x="893" />
<glyph glyph-name="emo-wink" unicode="&#xe80e;" d="m261 800c-60 0-109-65-109-144 0-80 49-145 109-145s110 65 110 145c0 79-49 144-110 144z m343-98c-29 0-54-24-54-54 0-30 25-54 54-54l267 0c30 0 54 24 54 54 0 30-24 54-54 54l-267 0z m342-501c-13 0-27-5-37-16-4-4-8-8-12-12-111-109-253-164-396-165-142-2-285 50-396 155l-3 3-12 12c-21 21-54 20-75-1-20-21-20-55 1-76 3-4 8-9 14-14l3-3c132-124 301-186 469-184 169 1 337 67 468 195 5 5 9 9 14 14 20 22 20 56-1 77-10 10-23 15-37 15z" horiz-adv-x="999" />
<glyph glyph-name="search" unicode="&#xe80f;" d="m643 386q0 103-74 176t-176 74-177-74-73-176 73-177 177-73 176 73 74 177z m286-465q0-29-22-50t-50-21q-30 0-50 21l-191 191q-100-69-223-69-80 0-153 31t-125 84-84 125-31 153 31 152 84 126 125 84 153 31 152-31 126-84 84-126 31-152q0-123-69-223l191-191q21-21 21-51z" horiz-adv-x="928.6" />
<glyph glyph-name="mail-alt" unicode="&#xe810;" d="m1000 454v-443q0-37-26-63t-63-27h-822q-36 0-63 27t-26 63v443q25-28 56-49 202-137 278-192 32-24 51-37t53-27 61-13h2q28 0 61 13t53 27 51 37q95 68 278 192 32 22 56 49z m0 164q0-44-27-84t-68-69q-210-146-262-181-5-4-23-17t-30-22-29-18-33-15-27-5h-2q-12 0-27 5t-33 15-29 18-30 22-23 17q-51 35-147 101t-114 80q-35 23-65 64t-31 77q0 43 23 72t66 29h822q36 0 62-26t27-63z" horiz-adv-x="1000" />
<glyph glyph-name="comment" unicode="&#xe811;" d="m1000 350q0-97-67-179t-182-130-251-48q-39 0-81 4-110-97-257-135-27-8-63-12-10-1-17 5t-10 16v1q-2 2 0 6t1 6 2 5l4 5t4 5 4 5q4 5 17 19t20 22 17 22 18 28 15 33 15 42q-88 50-138 123t-51 157q0 73 40 139t106 114 160 76 194 28q136 0 251-48t182-130 67-179z" horiz-adv-x="1000" />
<glyph glyph-name="quote-right" unicode="&#xe812;" d="m429 671v-392q0-58-23-111t-61-91-91-62-111-22h-36q-14 0-25 10t-11 26v71q0 15 11 25t25 11h36q59 0 101 42t42 101v17q0 23-16 38t-38 16h-125q-44 0-76 31t-31 76v214q0 45 31 76t76 32h214q45 0 76-32t32-76z m500 0v-392q0-58-23-111t-61-91-91-62-111-22h-36q-14 0-25 10t-11 26v71q0 15 11 25t25 11h36q59 0 101 42t42 101v17q0 23-16 38t-38 16h-125q-44 0-76 31t-31 76v214q0 45 31 76t76 32h214q45 0 76-32t32-76z" horiz-adv-x="928.6" />
<glyph glyph-name="quote-left" unicode="&#xe813;" d="m429 314v-214q0-45-32-76t-76-31h-214q-44 0-76 31t-31 76v393q0 58 23 111t61 91 91 61 111 23h35q15 0 26-11t10-25v-72q0-14-10-25t-26-10h-35q-59 0-101-42t-42-101v-18q0-22 16-38t37-16h125q45 0 76-31t32-76z m500 0v-214q0-45-32-76t-76-31h-214q-44 0-76 31t-31 76v393q0 58 23 111t61 91 91 61 111 23h35q15 0 26-11t10-25v-72q0-14-10-25t-26-10h-35q-59 0-101-42t-42-101v-18q0-22 15-38t38-16h125q45 0 76-31t32-76z" horiz-adv-x="928.6" />
<glyph glyph-name="forward" unicode="&#xe814;" d="m1000 493q0-15-11-25l-285-286q-11-11-25-11t-26 11-10 25v143h-125q-55 0-98-3t-86-12-74-24-59-39-45-56-27-77-10-101q0-31 3-69 0-4 2-13t1-15q0-8-5-14t-13-6q-9 0-15 10-4 5-8 12t-7 17-6 13q-71 159-71 252 0 111 30 186 90 225 488 225h125v143q0 14 10 25t26 10 25-10l285-286q11-11 11-25z" horiz-adv-x="1000" />
<glyph glyph-name="reply" unicode="&#xe815;" d="m1000 225q0-93-71-252-2-4-6-13t-7-17-8-12q-6-10-15-10-9 0-13 6t-5 14q0 5 1 15t2 13q3 38 3 69 0 56-10 101t-27 77-45 56-59 39-74 24-86 12-98 3h-125v-143q0-14-10-25t-26-11-25 11l-285 286q-11 10-11 25t11 25l285 286q11 10 25 10t26-10 10-25v-143h125q398 0 488-225 30-75 30-186z" horiz-adv-x="1000" />
<glyph glyph-name="thumbs-up-alt" unicode="&#xe816;" d="m143 100q0 15-11 25t-25 11q-15 0-25-11t-11-25q0-15 11-25t25-11q15 0 25 11t11 25z m89 286v-357q0-15-10-25t-26-11h-160q-15 0-25 11t-11 25v357q0 14 11 25t25 10h160q15 0 26-10t10-25z m661 0q0-48-31-83 9-25 9-43 1-42-24-76 9-32 0-66-9-31-31-52 5-63-27-101-36-43-110-44h-72q-37 0-80 9t-68 16-67 22q-69 24-88 25-15 0-26 11t-10 25v357q0 14 10 25t24 11q13 1 42 33t57 67q38 49 56 67 10 10 17 27t10 27 8 34q4 22 7 34t11 29 18 28q11 11 26 11 25 0 46-6t33-15 22-22 14-26 7-27 2-26 1-21q0-21-6-43t-10-33-16-31q-1-4-5-10t-6-13-5-13h155q43 0 75-32t32-75z" horiz-adv-x="928.6" />
<glyph glyph-name="bookmark" unicode="&#xe817;" d="m650 779q12 0 24-5 19-8 29-23t11-35v-719q0-19-11-35t-29-23q-10-4-24-4-27 0-47 18l-246 236-246-236q-20-19-46-19-13 0-25 5-18 7-29 23t-11 35v719q0 19 11 35t29 23q12 5 25 5h585z" horiz-adv-x="714.3" />
<glyph glyph-name="pin" unicode="&#xe818;" d="m268 368v250q0 8-5 13t-13 5-13-5-5-13v-250q0-8 5-13t13-5 13 5 5 13z m375-197q0-14-11-25t-25-10h-239l-29-270q-1-7-6-11t-11-5h-1q-15 0-17 15l-43 271h-225q-15 0-25 10t-11 25q0 69 44 124t99 55v286q-29 0-50 21t-22 50 22 50 50 22h357q29 0 50-22t21-50-21-50-50-21v-286q55 0 99-55t44-124z" horiz-adv-x="642.9" />
<glyph glyph-name="lock" unicode="&#xe819;" d="m179 421h285v108q0 59-42 101t-101 41-101-41-41-101v-108z m464-53v-322q0-22-16-37t-38-16h-535q-23 0-38 16t-16 37v322q0 22 16 38t38 15h17v108q0 102 74 176t176 74 177-74 73-176v-108h18q23 0 38-15t16-38z" horiz-adv-x="642.9" />
<glyph glyph-name="link" unicode="&#xe81a;" d="m812 171q0 23-15 38l-116 116q-16 16-38 16-24 0-40-18 1-1 10-10t12-12 9-11 7-14 2-15q0-23-16-38t-38-16q-8 0-15 2t-14 7-11 9-12 12-10 10q-19-17-19-40 0-23 16-38l115-116q15-15 38-15 22 0 38 15l82 81q15 16 15 37z m-392 394q0 22-15 38l-115 115q-16 16-38 16-22 0-38-15l-82-82q-16-15-16-37 0-22 16-38l116-116q15-15 38-15 23 0 40 17-2 2-11 11t-12 12-8 10-7 14-2 16q0 22 15 38t38 15q9 0 16-2t14-7 10-8 12-12 11-11q18 17 18 41z m500-394q0-67-48-113l-82-81q-46-47-113-47-68 0-114 48l-115 115q-46 47-46 114 0 68 49 116l-49 49q-48-49-116-49-67 0-114 47l-116 116q-47 47-47 114t47 113l82 82q47 46 114 46 67 0 114-47l114-116q47-46 47-113 0-69-49-117l49-49q48 49 116 49 67 0 114-47l116-116q47-47 47-114z" horiz-adv-x="928.6" />
<glyph glyph-name="info-circled" unicode="&#xe81b;" d="m571 82v89q0 8-5 13t-12 5h-54v286q0 8-5 13t-13 5h-178q-8 0-13-5t-5-13v-89q0-8 5-13t13-5h53v-179h-53q-8 0-13-5t-5-13v-89q0-8 5-13t13-5h250q7 0 12 5t5 13z m-71 500v89q0 8-5 13t-13 5h-107q-8 0-13-5t-5-13v-89q0-8 5-13t13-5h107q8 0 13 5t5 13z m357-232q0-117-57-215t-156-156-215-58-216 58-155 156-58 215 58 215 155 156 216 58 215-58 156-156 57-215z" horiz-adv-x="857.1" />
<glyph glyph-name="help-circled" unicode="&#xe81c;" d="m500 82v107q0 8-5 13t-13 5h-107q-8 0-13-5t-5-13v-107q0-8 5-13t13-5h107q8 0 13 5t5 13z m143 375q0 49-31 91t-77 65-95 23q-136 0-207-119-9-14 4-24l74-55q4-4 10-4 9 0 14 7 30 38 48 51 19 14 48 14 27 0 48-15t21-33q0-21-11-34t-38-25q-35-16-65-48t-29-70v-20q0-8 5-13t13-5h107q8 0 13 5t5 13q0 10 12 27t30 28q18 10 28 16t25 19 25 27 16 34 7 45z m214-107q0-117-57-215t-156-156-215-58-216 58-155 156-58 215 58 215 155 156 216 58 215-58 156-156 57-215z" horiz-adv-x="857.1" />
<glyph glyph-name="minus-circled" unicode="&#xe81d;" d="m679 314v72q0 14-11 25t-25 10h-429q-14 0-25-10t-10-25v-72q0-14 10-25t25-10h429q14 0 25 10t11 25z m178 36q0-117-57-215t-156-156-215-58-216 58-155 156-58 215 58 215 155 156 216 58 215-58 156-156 57-215z" horiz-adv-x="857.1" />
<glyph glyph-name="plus-circled" unicode="&#xe81e;" d="m679 314v72q0 14-11 25t-25 10h-143v143q0 15-11 25t-25 11h-71q-15 0-25-11t-11-25v-143h-143q-14 0-25-10t-10-25v-72q0-14 10-25t25-11h143v-142q0-15 11-25t25-11h71q15 0 25 11t11 25v142h143q14 0 25 11t11 25z m178 36q0-117-57-215t-156-156-215-58-216 58-155 156-58 215 58 215 155 156 216 58 215-58 156-156 57-215z" horiz-adv-x="857.1" />
<glyph glyph-name="cancel-1" unicode="&#xe81f;" d="m724 112q0-22-15-38l-76-76q-16-15-38-15t-38 15l-164 165-164-165q-16-15-38-15t-38 15l-76 76q-16 16-16 38t16 38l164 164-164 164q-16 16-16 38t16 38l76 76q16 16 38 16t38-16l164-164 164 164q16 16 38 16t38-16l76-76q15-15 15-38t-15-38l-164-164 164-164q15-15 15-38z" horiz-adv-x="785.7" />
<glyph glyph-name="ok-circled" unicode="&#xe820;" d="m717 440q0 16-11 26l-50 50q-11 11-25 11t-26-11l-227-227-126 126q-11 11-25 11t-26-11l-50-50q-10-10-10-26 0-15 10-25l202-202q10-10 25-10 15 0 25 10l303 303q11 10 11 25z m140-90q0-117-57-215t-156-156-215-58-216 58-155 156-58 215 58 215 155 156 216 58 215-58 156-156 57-215z" horiz-adv-x="857.1" />
<glyph glyph-name="trash" unicode="&#xe821;" d="m286 82v393q0 8-5 13t-13 5h-36q-8 0-13-5t-5-13v-393q0-8 5-13t13-5h36q8 0 13 5t5 13z m143 0v393q0 8-5 13t-13 5h-36q-8 0-13-5t-5-13v-393q0-8 5-13t13-5h36q8 0 13 5t5 13z m142 0v393q0 8-5 13t-12 5h-36q-8 0-13-5t-5-13v-393q0-8 5-13t13-5h36q7 0 12 5t5 13z m-303 554h250l-27 65q-4 5-9 6h-177q-6-1-10-6z m518-18v-36q0-8-5-13t-13-5h-54v-529q0-46-26-80t-63-34h-464q-37 0-63 33t-27 79v531h-53q-8 0-13 5t-5 13v36q0 8 5 13t13 5h172l39 93q9 21 31 35t44 15h178q22 0 44-15t30-35l39-93h173q8 0 13-5t5-13z" horiz-adv-x="785.7" />
<glyph glyph-name="mic" unicode="&#xe822;" d="m643 457v-71q0-124-82-215t-204-104v-74h143q15 0 25-11t11-25-11-25-25-11h-357q-15 0-25 11t-11 25 11 25 25 11h143v74q-121 13-204 104t-82 215v71q0 15 11 25t25 11 25-11 10-25v-71q0-104 74-177t176-73 177 73 73 177v71q0 15 11 25t25 11 25-11 11-25z m-143 214v-285q0-74-52-126t-127-53-126 53-52 126v285q0 74 52 127t126 52 127-52 52-127z" horiz-adv-x="642.9" />
<glyph glyph-name="angle-circled-up" unicode="&#xe823;" d="m650 214l57 57q11 11 11 25t-11 26l-253 253q-11 10-25 10t-26-10l-253-254q-10-10-10-25t10-25l57-57q11-10 25-10t25 10l172 172 171-172q11-10 25-10t25 10z m207 136q0-117-57-215t-156-156-215-58-216 58-155 156-58 215 58 215 155 156 216 58 215-58 156-156 57-215z" horiz-adv-x="857.1" />
<glyph glyph-name="angle-circled-down" unicode="&#xe824;" d="m454 125l253 253q11 11 11 26t-11 25l-57 57q-10 10-25 10t-25-10l-171-172-172 172q-10 10-25 10t-25-10l-57-57q-10-11-10-25t10-26l253-253q11-10 26-10t25 10z m403 225q0-117-57-215t-156-156-215-58-216 58-155 156-58 215 58 215 155 156 216 58 215-58 156-156 57-215z" horiz-adv-x="857.1" />
<glyph glyph-name="play-circled" unicode="&#xe825;" d="m429 779q116 0 215-58t156-156 57-215-57-215-156-156-215-58-216 58-155 156-58 215 58 215 155 156 216 58z m214-460q18 10 18 31t-18 31l-304 178q-17 11-35 1-18-11-18-31v-358q0-20 18-31 9-4 17-4 10 0 18 5z" horiz-adv-x="857.1" />
<glyph glyph-name="facebook-squared" unicode="&#xe826;" d="m857 82q0-66-47-113t-114-48h-107v340h114l16 125h-130v80q0 30 16 46t53 16l74 1v115q-53 5-100 5-76 0-122-45t-46-126v-92h-125v-125h125v-340h-303q-67 0-114 48t-47 113v536q0 66 47 113t114 48h535q67 0 114-48t47-113v-536z" horiz-adv-x="857.1" />
<glyph glyph-name="vine" unicode="&#xe827;" d="m835 389v-111q-56-13-110-13-36-76-92-151t-102-120-71-60q-45-25-91 2-15 9-33 24t-48 47-57 72-60 102-59 136-51 176-39 217h158q14-121 39-222t58-177 68-131 78-109q94 94 160 227-79 40-124 122t-45 186q0 107 58 176t158 68q99 0 152-59t53-166q0-89-32-159-4-1-11-2t-26-1-35 3-34 14-28 29q17 58 17 103 0 48-16 73t-44 25q-30 0-48-27t-18-79q0-103 59-163t149-60q34 0 67 8z" horiz-adv-x="857.1" />
<glyph glyph-name="vimeo-squared" unicode="&#xe828;" d="m700 495q9 47-12 73-29 36-104 25-10-1-23-7t-32-17-36-27-33-39-25-51q44 4 63-9t15-55q-3-29-29-80-24-43-40-55-24-18-48 8-13 13-21 36t-11 40-5 47-5 40q-13 72-19 92-7 20-20 38t-28 23q-32 8-71-14-30-18-76-60t-69-56v-4q9-5 15-15t12-11q11-2 30 5t32 6 24-17q6-10 10-22t8-26 7-23q10-26 30-104 20-82 32-110 23-56 57-70 24-7 48-1t42 18q73 43 139 132 59 77 97 163t46 127z m157 123v-536q0-66-47-113t-114-48h-535q-67 0-114 48t-47 113v536q0 66 47 113t114 48h535q67 0 114-48t47-113z" horiz-adv-x="857.1" />
<glyph glyph-name="tumblr-squared" unicode="&#xe829;" d="m634 35l-35 102q-24-12-57-12-20-1-35 5t-21 18-10 23-3 24v222h144v108h-143v182h-105q-5 0-5-5-3-25-10-49t-22-53-43-53-66-38v-92h73v-233q0-32 12-64t36-62 68-48 98-17q39 0 76 14t48 28z m223 583v-536q0-66-47-113t-114-48h-535q-67 0-114 48t-47 113v536q0 66 47 113t114 48h535q67 0 114-48t47-113z" horiz-adv-x="857.1" />
<glyph glyph-name="facebook" unicode="&#xe82a;" d="m535 843v-147h-87q-48 0-65-20t-17-60v-106h164l-22-165h-142v-424h-171v424h-142v165h142v122q0 104 58 161t155 57q82 0 127-7z" horiz-adv-x="571.4" />
<glyph glyph-name="twitter" unicode="&#xe82b;" d="m904 622q-37-54-90-93 0-8 0-23 0-73-21-145t-64-139-103-117-144-82-181-30q-151 0-276 81 19-3 43-3 126 0 224 77-59 2-105 36t-64 89q19-2 34-2 24 0 48 6-63 13-104 62t-41 115v2q38-21 82-23-37 25-59 64t-22 86q0 49 25 91 68-83 164-133t208-55q-5 21-5 41 0 75 53 127t127 53q79 0 132-57 61 12 114 44-20-64-79-100 52 6 104 28z" horiz-adv-x="928.6" />
<glyph glyph-name="youtube-squared" unicode="&#xe82c;" d="m513 123v88q0 27-16 27-10 0-19-9v-125q9-8 19-8 16 0 16 27z m103 68h36v19q0 28-18 28t-18-28v-19z m-319 148v-39h-45v-236h-41v236h-44v39h130z m112-70v-205h-37v23q-22-25-43-25-18 0-23 15-4 9-4 30v162h37v-151q0-13 1-14 0-8 8-8 11 0 24 17v156h37z m141-62v-81q0-29-4-41-7-23-30-23-19 0-38 22v-20h-37v275h37v-89q18 22 38 22 23 0 30-24 4-11 4-41z m140-72v-5q0-16-1-24-2-12-9-22-15-22-44-22-29 0-46 21-11 15-11 48v72q0 33 11 48 16 21 44 21t44-21q12-16 12-48v-43h-74v-36q0-28 18-28 14 0 17 14 0 1 1 4t0 9v12h38z m-252 460v-87q0-29-18-29t-18 29v87q0 29 18 29t18-29z m297-398q0 99-10 145-6 25-24 41t-43 19q-75 9-229 9-154 0-230-9-24-2-42-19t-24-41q-11-48-11-145 0-98 11-145 5-24 24-41t42-19q76-9 230-9t229 9q24 2 43 19t23 41q11 47 11 145z m-421 363l50 166h-41l-29-109-29 109h-44l13-39t13-38q20-58 26-89v-112h41v112z m161-45v73q0 32-11 48-16 21-44 21-28 0-43-21-12-16-12-48v-73q0-32 12-48 15-22 43-22 28 0 44 22 11 15 11 48z m101-67h38v207h-38v-158q-12-18-23-18-8 0-9 9 0 1 0 15v152h-38v-164q0-21 4-31 6-15 23-15 21 0 43 25v-22z m281 170v-536q0-66-47-113t-114-48h-535q-67 0-114 48t-47 113v536q0 66 47 113t114 48h535q67 0 114-48t47-113z" horiz-adv-x="857.1" />
<glyph glyph-name="youtube" unicode="&#xe82d;" d="m542 156v-118q0-37-22-37-13 0-25 12v168q12 12 25 12 22 0 22-37z m188-1v-25h-50v25q0 38 25 38t25-38z m-539 122h60v52h-174v-52h59v-318h55v318z m161-318h50v276h-50v-211q-17-23-32-23-10 0-11 11-1 2-1 20v203h-50v-218q0-28 5-41 7-21 32-21 27 0 57 34v-30z m240 83v110q0 41-5 55-10 31-40 31-28 0-52-30v121h-50v-370h50v27q25-31 52-31 30 0 40 31 5 15 5 56z m188 6v7h-51q0-29-1-34-4-20-22-20-26 0-26 38v49h100v57q0 44-15 65-22 28-59 28-38 0-60-28-15-21-15-65v-96q0-44 16-65 22-29 60-29 40 0 60 30 10 15 12 30 1 5 1 33z m-339 509v117q0 39-24 39t-24-39v-117q0-39 24-39t24 39z m401-419q0-131-14-195-8-33-33-56t-57-25q-102-12-309-12t-310 12q-32 3-57 25t-32 56q-15 62-15 195 0 131 15 195 7 33 32 56t57 26q103 11 310 11t309-11q33-4 57-26t33-56q14-62 14-195z m-557 712h57l-67-223v-151h-56v151q-8 42-34 119-21 57-37 104h60l39-147z m207-186v-97q0-46-16-66-21-29-59-29-38 0-59 29-15 21-15 66v97q0 45 15 65 21 29 59 29 38 0 59-29 16-20 16-65z m187 91v-279h-51v31q-30-35-58-35-25 0-33 21-4 13-4 42v220h51v-205q0-19 0-20 2-12 12-12 15 0 32 24v213h51z" horiz-adv-x="857.1" />
<glyph glyph-name="camera" unicode="&#xe82e;" d="m885 663q65 0 111-46t45-110l0-417q0-65-45-110t-111-46l-729 0q-65 0-110 46t-46 110l0 417q0 65 46 110t110 46l83 0 52 52q23 23 58 37t67 15l209 0q33 0 68-15t58-37l52-52 82 0z m-364-521q75 0 128 53t54 129q0 76-53 129t-129 54-129-54-53-129q0-75 53-129t129-53z m313 245q29 0 48 19t19 48-20 49-47 20q-29 0-49-20t-20-49q0-27 20-47t49-20z" horiz-adv-x="1041" />
<glyph glyph-name="comment-inv-alt2" unicode="&#xe82f;" d="m409 797q162 0 276-114t114-276-114-277-276-114q-42 0-92 12l-187-125 1 229q-113 115-113 275 0 162 115 276t276 114z" horiz-adv-x="817" />
<glyph glyph-name="user-pair" unicode="&#xe830;" d="m903 186c0 32-25 68-25 68s-3-13-18-7c-14 7-27 26-31 42-1 15-14 43-19 49-5 10-1 30 23 33 0 0-9 18-2 27 0 0-25-1-13 21 0 0-52 18-9 59 0 0-28 29 5 34 0 0-48 54 16 76 0 0-57 141 48 148 55 7 92-27 142-48 0 0 69 56 108 49 68-14 88-81 48-140 43 11 58-55 24-80 0 0 20-23 0-48 0 0 30-42-7-60 0 0-7-25-15-36 0 0 16 3 21-10 6-15 9-27-4-47-12-19-15-32-20-43-4-10-7-41-35-24-37-46-50-120-25-185l6-11c87-17 192-36 242-57l0-58-700 0 0 3-663 0s5 62 58 88c53 27 255 84 270 90l1 47 20 5s6 75 6 85c0 0-29 60-36 92 0 0-25 0-29 28-2 26 0 42-5 61-4 19 10 39 23 35 0 0-27 134 0 172 18 27 73 93 206 117 0 0 32 2 44-2 8-2 7-5-10-22 0 0 68-43 90-110 15-41 8-131 0-155 0 0 21 4 18-21-3-40-6-115-33-103 0 0-2-81-28-99 0 0-6-66 5-68l16 0s8-54 20-68c0 0 62-25 132-41 30-8 67-10 106-9 12 34 30 41 29 123z" horiz-adv-x="1363" />
<glyph glyph-name="pencil" unicode="&#xe831;" d="m795 731c50-46 44-118-4-165l-46-46s35 53-37 123c-64 64-124 37-124 37l49 48c43 45 120 45 162 3z m-89-250l-492-493-210-51-4 4 55 210 493 490c8 2 30 9 60 2l-523-522-15-55 60-60 56 15 25 24 3 56-40 40 479 479c7-7 7-7 15-15 71-70 38-124 38-124z" horiz-adv-x="830" />
<glyph glyph-name="art-gallery" unicode="&#xe832;" d="m400 725c-250 0-400-200-400-300s50-175 150-175 150-25 150-100c0-100 75-175 175-175 325 0 475 175 475 350 0 300-250 400-550 400z m-62-100c34 0 62-28 62-62 0-35-28-63-62-63-35 0-63 28-63 63 0 34 28 62 63 62z m200 0c34 0 62-28 62-62 0-35-28-63-62-63-35 0-63 28-63 63 0 34 28 62 63 62z m200-100c34 0 62-28 62-62 0-35-28-63-62-63-35 0-63 28-63 63 0 34 28 62 63 62z m-575-50c34 0 62-28 62-62 0-35-28-63-62-63-35 0-63 28-63 63 0 34 28 62 63 62z m312-250c41 0 75-34 75-75s-34-75-75-75-75 34-75 75 34 75 75 75z" horiz-adv-x="950" />
<glyph glyph-name="lightbulb" unicode="&#xe833;" d="m1 309q-2 12 7 22t22 11l90 16q14 2 26-5t13-20-7-23-24-13l-88-13q-14-2-25 5t-14 20z m2 251q-6 13 0 24t19 16 26-4l82-35q14-6 19-18t0-23-18-16-26 0l-82 39q-14 4-20 17z m160 207q2 13 14 21 10 5 22 2t21-16l49-76q7-12 5-26t-11-19-23-3-20 15l-51 76q-8 13-6 26z m57-241q17 39 49 66t75 41 94 14l4 0q51 0 94-14t75-41 50-66q43-104-15-227-22-43-47-92-14-25-25-73t-16-61q-4-12-16-14l-203 0q-12 2-18 14-29 111-39 134-25 49-47 92-58 131-15 227z m99-623q0 8 5 12t13 5l209 0q6 0 11-5t5-12l0-35q0-8-5-13t-11-5l-209 0q-18 0-18 18l0 35z m0 68l0 35q0 18 18 18l209 0q6 0 11-5t5-13l0-35q0-8-5-13t-11-4l-209 0q-8 0-13 4t-5 13z m94 754l0 90q0 16 8 25t21 10q12 0 21-10t9-25l0-90q0-14-9-23t-21-10q-13 0-21 10t-8 23z m193-53q-1 14 6 26l49 76q10 12 22 16t23-2q10-8 12-21t-6-26l-49-76q-10-12-21-15t-23 3-13 19z m118-339q2 13 12 20t25 5l90-16q13-2 22-12t7-21q-2-14-13-21t-26-4l-90 13q-14 2-22 13t-5 23z m8 187q-4 12 1 23t18 18l84 35q12 8 24 4t19-16 0-24-20-17l-82-39q-13-4-26 0t-18 16z" horiz-adv-x="881" />
<glyph glyph-name="chat" unicode="&#xe834;" d="m1179 385q0-126-79-233t-215-170-296-62q-122 0-234 39l2-3-357-107q44 59 71 126t31 106l4 38q-106 120-106 266 0 126 79 233t215 169 295 62 296-62 215-169 79-233z m-250 0q0 29-21 50t-51 21q-29 0-50-21t-21-50q0-30 21-51t50-21q30 0 51 21t21 51z m-250 0q0 29-21 50t-51 21q-29 0-50-21t-21-50q0-30 21-51t50-21q30 0 51 21t21 51z m-250 0q0 29-21 50t-51 21q-29 0-50-21t-21-50q0-30 21-51t50-21q30 0 51 21t21 51z" horiz-adv-x="1179" />
</font>
</defs>
</svg>
