<?xml version="1.0" encoding="utf-8"?>
<!-- Generator: Adobe Illustrator 18.1.1, SVG Export Plug-In . SVG Version: 6.00 Build 0)  -->
<svg version="1.1" id="Layer_1" xmlns="http://www.w3.org/2000/svg" xmlns:xlink="http://www.w3.org/1999/xlink" x="0px" y="0px"
	 viewBox="0 99 144 54" enable-background="new 0 99 144 54" xml:space="preserve">
<g>
	<path fill="#8969AF" d="M54.6,105.4c0.5,0.3,1,0.6,1.4,0.9s0.6,0.5,0.6,0.7v0c-0.9,1.1-1.8,2.3-2.7,3.7s-1.7,2.9-2.5,4.5
		s-1.6,3.3-2.3,5.1c-0.7,1.8-1.3,3.6-1.9,5.4c0.2-0.2,0.5-0.3,0.6-0.4c0.2-0.1,0.3-0.2,0.4-0.2c0.1,0,0.3,0.1,0.7,0.4
		c0.3,0.2,0.6,0.5,0.9,0.9c0.3,0.3,0.6,0.7,0.8,1c0.2,0.3,0.4,0.5,0.4,0.6c0,0.1-0.1,0.2-0.3,0.4c-0.2,0.1-0.5,0.3-0.8,0.5
		c-0.3,0.2-0.6,0.3-1,0.5c-0.3,0.1-0.6,0.3-0.7,0.3l0,0.1l-0.5,0.2l0,0c0-0.1,0.1-0.1,0.1-0.1c-0.1,0.1-0.2,0.1-0.3,0.1
		c-0.2,0.1-0.2,0.1-0.2,0.2l-0.2,0.1v-0.1v-0.1l-0.5,0.2l0,0l0,0.1h0l-0.2,0.1l0-0.1c0,0.1,0,0.1,0,0c0,0,0,0,0,0l-0.1,0.1
		c-0.1,0-0.2,0.3-0.3,1c-0.1,0.7-0.2,1.5-0.3,2.3c-0.1,0.8-0.2,1.7-0.2,2.4c0,0.8-0.1,1.3-0.1,1.5l0,0.2v0.2v0.2c0-0.1,0-0.1,0,0.1
		c0,0.1,0,0.2,0,0.2v0.3v0.2h0l0,0.1h0l0,0.8l0,0.1l0,0.1c0,0.3,0,0.6,0,1c0,0.3,0,0.7,0,1v0.1l0,0.3h0l0,0.1l0,0.2v0.7l0,0.5
		c0,0.1,0,0.3,0,0.3v0.3l0.1,0.2c0,0.5,0.1,0.9,0.3,1.4l0-0.1l-0.2-0.2v0.1l0-0.1v0l0-0.1c-0.1-0.1-0.1-0.3-0.2-0.5
		s-0.1-0.4-0.1-0.6h0c-0.1-0.1-0.2-0.2-0.2-0.5c0-0.3,0-0.5,0-0.6v-0.1c0-0.2-0.1-0.4-0.1-0.7c0-0.2-0.1-0.4-0.1-0.7l0,0.1v0v-0.1v0
		v0c0,0-0.1-0.1-0.1-0.3c0-0.2,0-0.4-0.1-0.6h0c0-0.1,0-0.4,0-0.7l0-0.1c0,0-0.1-0.2-0.1-0.4c0-0.1,0-0.2,0-0.3c0-0.1,0-0.2,0-0.3
		c0-0.2,0-0.5,0-0.7c0-0.2,0-0.5,0-0.8c0,0.4,0,0.8,0,1.1s0,0.7,0,1.1c0,2.2,0.2,3.9,0.5,5c0.3,1.1,0.5,1.7,0.5,1.6c0,0,0,0.1,0,0.2
		c0,0.1-0.1,0.1-0.3,0.1c-0.3,0-0.5-0.3-0.8-0.8c-0.2-0.6-0.5-1.3-0.6-2.3s-0.3-2-0.5-3.2c-0.1-1.2-0.2-2.4-0.2-3.7c0-1,0-2,0.1-3.1
		c0-1,0.2-2.1,0.3-3.2h-0.9l0-0.1h-0.2c-0.2,0-0.4,0-0.6-0.1c-0.2,0-0.4,0-0.6,0l0-0.1l-0.1-0.1l0.3,0.1l-0.2-0.1
		c-0.1,0-0.1,0-0.2-0.1l0,0.1l0,0.1l0.1,0c-0.2,0-0.4,0-0.6-0.2c-0.2-0.1-0.5-0.2-0.9-0.2v0.1c-0.1-0.1-0.2-0.1-0.4-0.2
		s-0.3-0.1-0.3-0.2c0,0.1,0,0.1,0,0c0,0,0,0,0,0c-0.1-0.1-0.2-0.1-0.3-0.2c-0.2-0.1-0.2-0.1-0.2-0.1v-0.1c-0.2,0-0.3-0.1-0.4-0.1
		c-0.1,0.2-0.3,0.4-0.5,0.7c-0.2,0.3-0.3,0.5-0.5,0.8c-0.2,0.2-0.4,0.6-0.7,1c-0.1,0.2-0.3,0.5-0.5,0.8c-0.2,0.3-0.5,0.6-0.7,0.9
		v-0.1c-0.1,0.1-0.1,0.1-0.1,0.2s0,0.1-0.1,0.1c0,0.1,0,0.1,0,0.1c0,0.1,0,0.1,0,0.1V134c-0.2,0.3-0.4,0.6-0.6,1
		c-0.2,0.3-0.5,0.6-0.7,1l0-0.3c0.1-0.1,0.2-0.2,0.2-0.2c-0.2,0.3-0.5,0.5-0.7,0.8c-0.2,0.2-0.5,0.5-0.7,0.8l-0.1,0.1
		c-0.1,0.1-0.2,0.1-0.3,0.3c-0.1,0.1-0.2,0.3-0.2,0.3l0,0.2l0.6-0.9l-0.1,0l0.3-0.2c-0.1,0.1,0,0.1,0.1-0.1c0.2-0.1,0.2-0.3,0.2-0.4
		l0.7-0.4l-0.2,0.3c-0.1,0.1-0.2,0.2-0.3,0.2l0,0.1h0l-0.1,0v0.1l0,0.1l-0.1,0.1l-0.1,0.2l-0.2,0.2c-0.1,0.1-0.2,0.2-0.3,0.4
		c-0.1,0.1-0.2,0.2-0.3,0.3c-0.6,0.8-1.2,1.5-2,2.3s-1.5,1.5-2.4,2.1s-1.8,1.1-2.8,1.5s-2,0.6-3,0.6c-0.3,0-0.5,0-0.7-0.1
		s-0.4-0.1-0.5-0.1h-0.1v0h-0.4h0c0,0-0.1,0-0.2,0c-0.1,0-0.1,0-0.2,0l-0.4-0.2l-0.3-0.1l-0.2-0.1c-0.2-0.1-0.4-0.1-0.6-0.2
		c-0.2-0.1-0.4-0.2-0.6-0.3l-0.2-0.1c-0.4-0.2-0.8-0.4-1.2-0.8c-0.4-0.3-0.8-0.7-1.1-1l-0.1-0.1l-0.4-0.3h0.1l-0.1-0.1l-0.2-0.2
		v-0.1l-0.6-0.8c-0.1-0.1-0.2-0.2-0.4-0.5c-0.1-0.2-0.2-0.5-0.2-0.7h0.1l-0.2-0.5l-0.2-0.4c-0.1-0.3-0.1-0.6-0.1-1
		c-0.1-0.4-0.1-0.7-0.1-1c0-0.2,0-0.4,0.1-0.5l-0.1,0.2v0.2l0.2,0.4l0,0l0.1,0.2l-0.1-0.1l0.1,0.2h-0.1c0.1,0.2,0.1,0.5,0.2,0.8
		c0.1,0.3,0.1,0.5,0.2,0.7h-0.1c0.1,0.1,0.1,0.2,0.2,0.4c0.1,0.1,0.1,0.3,0.2,0.3c0.2,0.6,0.4,1.1,0.8,1.4c0.3,0.4,0.6,0.8,0.9,1.1
		h-0.1c0.1,0.1,0.1,0.1,0.1,0.1c0,0,0,0,0.1,0h-0.1c0.1,0,0.3,0.1,0.5,0.3c0.2,0.2,0.4,0.3,0.6,0.4v0.1c0.1,0.1,0.3,0.2,0.5,0.3
		c0.2,0.2,0.4,0.3,0.5,0.4c0.1,0.1,0.5,0.2,1.2,0.6c0.7,0.3,1.5,0.5,2.3,0.5l0,0c0.1,0,0.2,0,0.3,0c0.1,0,0.2,0,0.3,0
		c0.3,0,0.6,0,0.9-0.1c0.3,0,0.6-0.1,0.8-0.2v0.1c0.2,0,0.4-0.1,0.4-0.2c0.4-0.1,0.8-0.2,1-0.3c0.3-0.1,0.5-0.3,0.8-0.5l0,0.1h0
		c0,0,0,0,0.1-0.1s0.2-0.1,0.2-0.1l-0.1,0.2l0.6-0.3l0-0.1l0.2-0.1l-0.2,0.1v-0.1c0.3-0.1,0.6-0.3,0.9-0.6c0.3-0.2,0.6-0.5,0.8-0.7
		c0,0,0,0,0,0c0,0,0,0,0,0l0-0.1v-0.1c0,0,0-0.1,0.2-0.2c0.1-0.1,0.3-0.2,0.4-0.3c0.2-0.1,0.3-0.3,0.5-0.4c0.1-0.1,0.2-0.2,0.3-0.3
		l0.9-0.9c-1.1,1.1-2.4,2.1-3.9,2.9c-1.5,0.8-2.9,1.2-4.2,1.2c-1.5,0-2.9-0.4-4.1-1.2c-1.2-0.8-2.1-1.6-2.8-2.5
		c-0.3-0.4-0.7-1-1.2-1.7c-0.5-0.7-0.9-1.6-1.3-2.7v0.3v-0.1c0-0.1,0-0.1-0.1-0.1l-0.2-0.1c0.1-0.1,0.1-0.2,0.1-0.2
		c0-0.1,0-0.1,0-0.2c-0.2-0.7-0.4-1.4-0.5-2.3s-0.2-1.7-0.2-2.6c0-1.5,0.2-3.1,0.8-4.8c0.5-1.7,1.3-3.3,2.4-4.7
		c1.1-1.5,2.5-2.6,4.2-3.6c1.7-0.9,3.7-1.4,6.1-1.4c1,0,2.1,0.2,3.1,0.5c1,0.3,2,0.8,2.9,1.4c0.9,0.7,1.6,1.5,2.1,2.4
		s0.8,2.1,0.8,3.3c0,0.2,0,0.4,0,0.6c0,0.2,0,0.4-0.1,0.6c0.4,0.3,0.8,0.6,1.2,0.9s0.9,0.5,1.4,0.8c0.9-1.9,1.8-3.7,2.7-5.4
		s1.8-3.4,2.7-5.1c0.8-1.5,1.7-2.9,2.5-4.1s1.7-2.2,2.4-3.1c0.8-0.8,1.4-1.5,2-2c0.5-0.5,0.9-0.7,1.1-0.7c0.2,0,0.4,0.1,0.7,0.3
		c0.2,0.2,0.5,0.5,0.9,1.1c0.3-0.5,0.6-0.9,0.8-1.2s0.5-0.5,0.7-0.5C53.7,104.9,54.1,105.1,54.6,105.4z M32.9,132.6
		c0.5-0.7,0.9-1.4,1.4-2.1c0.5-0.7,0.9-1.4,1.3-2.2l-0.3-0.2c-0.1-0.1-0.3-0.2-0.5-0.3c-0.2-0.1-0.3-0.3-0.5-0.4h0c0,0,0,0-0.1,0
		s-0.1,0-0.1-0.1h0c0,0,0,0,0,0l-0.9-0.7c-0.1,0.2-0.2,0.3-0.3,0.4c-0.1,0.1-0.2,0.2-0.3,0.3c-0.3,0.3-0.7,0.7-1.3,1.2
		c-0.6,0.5-1.6,0.8-2.9,0.8c-0.5,0-1-0.1-1.4-0.2c-0.5-0.1-0.9-0.3-1.4-0.6c-0.4-0.3-0.8-0.7-1-1.1c-0.3-0.5-0.4-1-0.4-1.7
		c0-0.5,0.1-1.1,0.4-1.6s0.5-1,1-1.4c0.4-0.4,0.9-0.8,1.4-1s1.1-0.4,1.8-0.4c0.5,0,0.9,0,1.4,0.2c0.4,0.1,0.8,0.2,1.2,0.4
		c-0.4-1.2-1.1-2.2-2.2-3c-1-0.7-2.5-1.1-4.4-1.1c-0.1,0-0.4,0-0.7,0.1c-0.3,0.1-0.7,0.1-1,0.2c-0.4,0-0.7,0.1-1,0.2
		c-0.3,0.1-0.5,0.2-0.6,0.3c-0.1,0.1-0.1,0.1-0.2,0.1v-0.1c-0.1,0.1-0.3,0.2-0.5,0.3c-0.3,0.2-0.5,0.3-0.7,0.4l0-0.1l-0.2,0.2h0
		l0,0.1h0c-0.2,0.2-0.4,0.3-0.6,0.5c-0.2,0.2-0.4,0.3-0.5,0.5l-0.1-0.2c0-0.1,0.1-0.1,0.1-0.2s0-0.1,0-0.1v-0.1v-0.1l-0.2,0.1
		c0,0.1,0,0.1,0,0s0,0,0,0.1l0,0.1l0.3-0.3l0-0.1c-0.1,0.2-0.3,0.2-0.4,0.3l0,0.1l0-0.1c0,0.1,0,0.1,0,0.1s0,0,0,0
		c-0.8,0.6-1.5,1.4-2.1,2.2c-0.6,0.8-1,1.8-1.4,2.7s-0.6,1.8-0.8,2.8s-0.2,1.7-0.2,2.4c0,1.3,0.1,2.6,0.4,3.7
		c0.3,1.1,0.7,2.1,1.2,2.8c0-0.3-0.1-0.7-0.4-1.1c-0.2-0.5-0.4-0.8-0.5-1.1l0.1,0.1c-0.1-0.1-0.1-0.1,0-0.1c0,0,0,0,0-0.1v0.1
		c-0.1,0-0.1-0.1-0.1-0.3c-0.1-0.2-0.1-0.4-0.1-0.6h0.1c-0.1-0.1-0.1-0.3-0.1-0.7V133c-0.1-0.3-0.2-0.8-0.2-1.2c0-0.5,0-1,0-1.4
		l0.1,0c0-0.3,0-0.6,0.1-0.9c0.1-0.3,0.1-0.6,0.1-0.8l0.1,0c0,0,0-0.1,0-0.1c0,0,0-0.1,0-0.1c0-0.1,0-0.1-0.1-0.1
		c0.1-0.1,0.1-0.3,0-0.6s0.1-0.6,0.4-0.9l0.1-0.2l0.1,0.2l0.1-0.4l-0.1-0.1l0.1-0.1l-0.1,0.1c0.1-0.3,0.2-0.6,0.3-0.8
		c0.1-0.2,0.2-0.5,0.3-0.7c0-0.3,0.1-0.8,0.5-1.2c0.3-0.4,0.6-0.8,0.8-1.1l0.1,0.1c0,0,0.1-0.1,0.3-0.2l0.2-0.2l0,0l-0.1,0l0-0.1
		l-0.2,0.2l-0.1,0.2l0.4-0.6c0-0.1,0.1-0.2,0.1-0.3c0-0.1,0.1-0.2,0.2-0.3c0.1-0.1,0.1-0.1,0.2-0.2c0-0.1,0.1-0.2,0.2-0.3
		c0.1-0.1,0.2-0.2,0.3-0.3l-0.1,0.4c-0.1,0-0.1,0.1-0.2,0.2c0,0.1-0.1,0.2-0.1,0.1l-0.2,0.3h-0.1l-0.1,0.2l-0.1,0.2l0,0.1l0,0.2
		l0.4-0.7h-0.1l0.2-0.1l0.2-0.2c0.1-0.1,0.1-0.1,0.1-0.2l0.1-0.1l0.4-0.1l-0.2,0.2c-0.1,0.1-0.1,0.1-0.2,0.1l0,0l0,0v0.1v-0.1
		l-0.1,0.1l0,0.2l-0.1,0.1c-0.9,1.3-1.6,2.7-2.1,4.2c-0.6,1.4-0.9,2.9-1,4.5l-0.1,0.2c0,0.1,0,0.2,0.1,0.2l-0.1,0.2
		c0.1-0.1,0.1,0,0,0.1c0,0.1,0,0.2,0,0.2v0.3v0.3v-0.1l0.1,0.9v0.2c0.1,0.3,0.1,0.6,0.1,1c0.1,0.3,0.1,0.7,0.2,1l0.1,0.3l0.1,0.2
		l0.1,0.1l0.1,0.1l-0.1,0.1c0.1,0.1,0.1,0.3,0.2,0.6l0.2,0.5c0,0.1,0.1,0.2,0.1,0.4l0.1,0.3l-0.1,0.1l0.2,0.2v-0.1
		c0.3,0.8,0.6,1.3,1,1.6c0.5,0.6,1.3,1.1,2.1,1.6c0.9,0.5,1.8,0.8,2.6,0.8c0.9,0,1.9-0.2,2.9-0.7c1-0.5,2-1.1,2.9-1.9
		c1-0.8,1.9-1.7,2.8-2.8C31.2,134.9,32.1,133.8,32.9,132.6z M13.7,138.3c0.1,0,0.1,0.1,0.1,0.1L13.7,138.3l0.1,0.1L13.7,138.3z
		 M14.1,129.8L14.1,129.8L14.1,129.8L14.1,129.8z M14.2,132.3L14.2,132.3L14.2,132.3L14.2,132.3z M14.2,139.3
		C14.2,139.4,14.2,139.4,14.2,139.3L14.2,139.3L14.2,139.3z M14.6,134.6v0.1V134.6L14.6,134.6z M14.7,134.8L14.7,134.8L14.7,134.8
		C14.6,134.7,14.6,134.8,14.7,134.8z M14.7,134.5l0.1,0.1l0.1,0.1L14.7,134.5L14.7,134.5L14.7,134.5z M14.9,135.7
		C14.9,135.7,14.9,135.6,14.9,135.7c0-0.1,0-0.1,0-0.2l-0.1-0.1L14.9,135.7z M15,126.7l0.1-0.2l-0.1-0.1l-0.1,0.3l-0.1,0.3h0.2
		L15,126.7L15,126.7z M14.9,127.3L14.9,127.3v0.4V127.3l0.1,0.1V127L14.9,127.3z M15.2,136.6v0.1C15.2,136.8,15.2,136.7,15.2,136.6
		L15.2,136.6z M15.4,137C15.4,136.9,15.4,136.9,15.4,137L15.4,137L15.4,137z M15.6,141.5L15.6,141.5l-0.1-0.2l-0.2,0L15.6,141.5
		L15.6,141.5L15.6,141.5z M15.4,141.1l0.1,0.1v-0.1H15.4z M15.9,123.7l-0.1,0.4h-0.1l-0.1,0.2c-0.1,0.1-0.1,0.1-0.1,0.2
		c0,0.1,0,0.1,0.1,0.1l0.1-0.1l0.1-0.1l0.2-0.4h-0.1l0.1,0c0,0,0,0,0.1-0.1c0-0.1,0.1-0.2,0.1-0.3h0v-0.2H16l-0.1,0.2
		C15.9,123.6,15.9,123.7,15.9,123.7L15.9,123.7L15.9,123.7z M15.7,141.3c0-0.1-0.1-0.1-0.1-0.1L15.7,141.3z M16.5,138.6l0.1,0.1
		l0,0.1L16.5,138.6z M17.4,142.6C17.4,142.7,17.4,142.7,17.4,142.6c0.1,0.1,0.1,0.1,0.2,0.1C17.5,142.7,17.5,142.6,17.4,142.6z
		 M17.5,142.7L17.5,142.7l0-0.1L17.5,142.7L17.5,142.7z M18.3,143.2C18.3,143.2,18.3,143.2,18.3,143.2L18.3,143.2L18.3,143.2z
		 M19.2,119.8L19.2,119.8L19.2,119.8L19.2,119.8z M21.8,143.8L21.8,143.8L21.8,143.8L21.8,143.8z M25.8,143.1l-0.4,0.2
		c0,0-0.1,0-0.1,0.1h0l-0.3,0.2l0.4-0.1l0.2-0.1L25.8,143.1z M26.2,142.8l0.3-0.2l0-0.2l-0.7,0.4l0.2,0.1L26.2,142.8
		C26.3,142.8,26.2,142.8,26.2,142.8z M26.1,124.7c0-0.1,0-0.2,0.1-0.2C26.1,124.5,26.1,124.6,26.1,124.7z M26.2,124.4
		c0.1-0.2,0.3-0.4,0.5-0.5C26.5,124,26.4,124.2,26.2,124.4z M28,127.7L28,127.7h0.2v0c1,0,1.8-0.3,2.3-0.8c0.5-0.5,0.8-1,1-1.5
		c-0.5-0.4-1-0.7-1.7-1c-0.6-0.3-1.1-0.4-1.7-0.4c-0.4,0-0.7,0.1-1,0.3s-0.5,0.5-0.7,0.9l-0.1,0.1c0,0,0,0.1,0,0.1c0,0,0,0,0,0.1h0
		l0,0.2v0v0.1l0,0.2v0.2v-0.1v0.1c0,0.1,0,0.2,0.1,0.3c0,0.1,0.1,0.2,0.1,0.3l0,0.1v0c0.4,0.4,0.7,0.6,1.1,0.8l0.2,0L28,127.7
		L28,127.7z M26.8,124c0.1-0.1,0.2-0.1,0.2-0.2L26.8,124L26.8,124z M27.2,123.6c0-0.1,0.1-0.1,0.1-0.1s0,0,0.1-0.1
		C27.4,123.5,27.3,123.5,27.2,123.6z M27.8,123.9L27.8,123.9l0.3-0.1h-0.2l-0.2,0.2L27.8,123.9z M30.9,124.3c0,0.1,0.1,0.1,0.2,0.2
		c0.1,0,0.1,0.1,0.2,0.1c-0.4-0.3-0.9-0.6-1.4-0.8c-0.5-0.2-1-0.3-1.5-0.3c-0.1,0.1-0.2,0.1-0.3,0.1h0.1h0.2l-0.1,0.1h0.3l0.1-0.1
		l0,0.1l0-0.1c0.3,0,0.5,0,0.6,0.1c0-0.1,0-0.1,0,0s0,0,0,0c0.1,0.1,0.2,0.1,0.3,0.2c0.1,0,0.2,0.1,0.3,0.1c0,0,0,0,0,0c0,0,0,0,0,0
		c0,0,0,0,0,0c0.2,0.1,0.4,0.2,0.5,0.3C30.6,124.1,30.7,124.2,30.9,124.3l-0.1,0h0l0,0l-0.3-0.1V124l-0.2,0c0,0-0.1,0-0.1,0
		c0,0,0,0-0.1,0c-0.1,0-0.1,0-0.1,0.1l0.1,0.1l0,0l0.3,0.2v-0.1l0,0.1c0,0.1,0,0.1,0.1,0.2l0.1,0v0l0.2,0.1l0-0.1L30.9,124.3z
		 M28.4,123.7l0.2,0.1v-0.2h-0.5l0,0.1H28.4L28.4,123.7L28.4,123.7L28.4,123.7z M30,139.6L30,139.6h-0.2l-0.2,0.1l-0.2,0.2h0
		l-0.4,0.4l-0.4,0.2c-0.1,0.2-0.2,0.3-0.2,0.4h0c0,0,0.1,0,0.1-0.1l0.2-0.1l0.5-0.4h-0.2l0.2-0.1v0.1c0.1,0,0.1-0.1,0.2-0.2
		c0.1-0.1,0.1-0.2,0.2-0.3h-0.1l0.2-0.2L30,139.6z M31.6,138.1l0-0.2v-0.1v-0.1l-0.7,0.7l0.1,0.1c0,0,0.1,0,0.1,0
		c0-0.1,0.1-0.1,0.1-0.1c0,0,0.1-0.1,0.2-0.1L31.6,138.1z M33.5,126.3c-0.1,0.1-0.1,0.1-0.1,0.2c0,0,0.1,0,0.1,0l0.1,0L33.5,126.3
		L33.5,126.3z M33.5,126.3C33.5,126.3,33.5,126.3,33.5,126.3l0.1,0.2l0,0.1l0.4,0.2l0,0c-0.1-0.1-0.2-0.1-0.3-0.2
		C33.7,126.4,33.6,126.3,33.5,126.3z M34.2,127l0.4,0.5l0.3-0.2c0,0,0,0,0-0.1l-0.3-0.1L34.2,127z M35,127.8
		C35,127.9,35.1,127.9,35,127.8L35,127.8L35,127.8L35,127.8z M35.2,128L35.2,128L35.2,128L35.2,128L35.2,128z M35.3,127.6
		C35.3,127.6,35.3,127.6,35.3,127.6L35.3,127.6z M38.9,129.7c-0.3-0.2-0.6-0.3-0.8-0.3v0l0,0.1l0.1,0.1l0.1,0.1h0.1l0,0h0.2l0,0h0
		C38.8,129.7,38.8,129.7,38.9,129.7z M39.4,129.9l-0.2-0.1C39.2,129.8,39.3,129.8,39.4,129.9C39.3,129.8,39.4,129.9,39.4,129.9z
		 M44.8,125.2c0.5-2.6,1.2-5.1,2.1-7.4c0.8-2.4,1.7-4.5,2.6-6.4c-1.7,1.9-3.3,4.3-4.8,7c-1.5,2.7-3.1,5.5-4.8,8.4
		c0.5,0.2,1,0.3,1.5,0.3c0.5,0.1,1,0.1,1.4,0.1c0.5,0,1,0,1.2-0.1s0.4-0.2,0.5-0.4c0.1-0.2,0.2-0.4,0.2-0.6
		C44.6,125.8,44.7,125.5,44.8,125.2z M40.2,130.3l-0.1-0.1h-0.1h-0.1l0-0.1l0,0c0,0.1,0.1,0.1,0.2,0c0,0,0.1,0,0.1,0.1L40.2,130.3
		L40.2,130.3z M42,130.5L42,130.5l-0.2,0v0.1L42,130.5L42,130.5L42,130.5z M44.8,137.8c0-0.1,0-0.1,0-0.2L44.8,137.8L44.8,137.8z
		 M44.9,136.2c0,0,0-0.1,0-0.1L44.9,136.2z M45.1,140.4L45.1,140.4L45.1,140.4C45,140.4,45,140.4,45.1,140.4
		C45.1,140.4,45.1,140.4,45.1,140.4C45.1,140.5,45.1,140.4,45.1,140.4z M45.2,142.1c0-0.1,0-0.1,0-0.1L45.2,142.1L45.2,142.1z
		 M45.1,142.8v0.1c0,0.1,0,0.1,0,0.1c0,0,0,0,0,0.1L45.1,142.8z M45.3,134l-0.1,0l0,0.6l0.2-0.1v-0.2V134z M45.2,141.9L45.2,141.9
		l0,0.2l0.1,0.1L45.2,141.9L45.2,141.9z M45.2,143.6l0-0.1L45.2,143.6L45.2,143.6z M45.3,134.9v-0.3V134.9l-0.1,0.4L45.3,134.9
		L45.3,134.9L45.3,134.9z M45.3,144v0.1V144L45.3,144z M45.3,144.4L45.3,144.4L45.3,144.4L45.3,144.4z"/>
	<path fill="#8969AF" d="M58.1,132.4c0.1,0,0.1,0,0.2,0.1c0.1,0,0.1,0.1,0.1,0.2c0,0,0,0,0,0.1c0,0-0.1,0.1-0.1,0.1c0,0,0,0.1,0,0.1
		s0,0.1,0,0.1l-0.1,0.1v0.1c0,0,0,0-0.1,0.1c0,0-0.1,0.1-0.1,0.1c0,0,0,0.1,0,0.1s0,0.1,0,0.1H58l0,0.1l-0.1,0.2c0,0,0,0.1,0,0.1h0
		c0,0,0,0,0,0.1c0,0,0,0.1,0,0.1l-0.1,0.1l0,0.2c0,0,0,0.1,0,0.1h0c0,0,0,0.1,0,0.1l-0.2,0.4c-0.1,0.3-0.2,0.6-0.4,0.9
		c-0.1,0.3-0.2,0.6-0.4,1c-0.1,0.1-0.1,0.2-0.2,0.4s-0.2,0.4-0.3,0.6s-0.3,0.4-0.5,0.6c-0.2,0.1-0.5,0.2-0.9,0.2
		c-0.5,0-0.8-0.1-1.1-0.5c-0.2-0.3-0.3-0.7-0.4-1.1c-0.1-0.4-0.1-0.8,0-1.1s0-0.6,0-0.7c0-0.8,0-1.6,0.1-2.4
		c0.1-0.8,0.2-1.6,0.3-2.4c0.2-0.8,0.3-1.5,0.5-2.1c0.2-0.7,0.3-1.2,0.5-1.6c-0.4-0.2-0.8-0.5-1.2-0.9c-0.4,1.3-0.8,2.4-1,3.3
		c-0.3,0.9-0.6,1.8-1,2.8l0,0l0,0.1h0l0,0.1v0.1v0l0,0.2h0l0,0.1l0,0.3c-0.1,0.2-0.1,0.4-0.2,0.6v0.1l0,0.1l0,0h0l-0.1,0.2l-0.1,0.2
		h0l-0.1,0.1l0,0.1c0,0.1-0.1,0.2-0.1,0.2c0,0.1-0.1,0.2-0.1,0.2h0h0v-0.1l-0.1-0.2l0,0.1l0-0.1c0,0,0,0,0,0s0,0,0-0.1l0.2-0.2
		l0-0.1c0-0.1,0-0.1,0-0.1s0-0.2,0.2-0.6l0,0.1c0,0,0-0.1,0,0c0,0,0,0,0,0h0v-0.1l-0.1,0.2h-0.1v0.2l-0.1,0.2l-0.2,0.2l-0.1,0.2
		l0,0.1l-0.1,0.2l-0.1,0.2c0,0.1-0.1,0.1-0.1,0.1l0,0.1h0l0,0.1l0,0c-0.1,0-0.2,0-0.2-0.1l0.1-0.2l0-0.1l0.1-0.1l0-0.1l0.1-0.1v-0.2
		l0-0.2l0-0.1l0-0.2l0.1-0.1l0-0.1l0.1-0.4c0.2-0.5,0.3-1.2,0.5-1.9s0.4-1.5,0.6-2.3c0.2-0.8,0.4-1.6,0.5-2.4
		c0.2-0.8,0.3-1.5,0.4-2.1c-0.3-0.6-0.5-1.1-0.6-1.6s-0.2-1-0.2-1.3c0-0.4,0-0.7,0-0.8s0.2-0.2,0.7-0.2c0.8,0,1.3,0,1.7,0.1
		c0.3,0.1,0.6,0.2,0.7,0.3c0.1,0.2,0.2,0.4,0.2,0.7c0,0.3,0,0.6,0,1c0,0.4,0.2,0.9,0.3,1.4c0.2,0.6,0.5,1.2,1,1.9
		c0.2,0.1,0.4,0.2,0.6,0.3c0.2,0.1,0.3,0.3,0.4,0.4s0.2,0.3,0.4,0.5c0,0.1,0,0.2-0.1,0.3v0.1v0v0v0c0,0,0,0.1,0,0.1l-0.1,0l0,0
		c0,0,0-0.1,0-0.1c0,0.3-0.1,0.7-0.4,1.3s-0.5,1.6-0.7,2.8c-0.1,0.7-0.3,1.5-0.5,2.4s-0.3,1.9-0.3,2.8c0.2-0.3,0.4-0.6,0.6-0.8
		s0.3-0.6,0.5-0.8l0-0.1l0-0.1v-0.1l0-0.1l0.2-0.2l0.2-0.3h0l0.1-0.1l0.1-0.1c0.1-0.1,0.1-0.2,0.2-0.3s0.1-0.2,0.2-0.3v0.1l0,0.1
		l0,0.2l0.1-0.2h0.1l0-0.1l-0.1-0.1l0-0.1c0-0.1,0.1-0.1,0.1-0.1l0,0.1h0.1v-0.1v0.1l0-0.1v0.2c0,0,0,0,0,0c0,0,0,0,0,0
		s-0.1,0-0.1,0.1c0,0,0,0.1,0,0.1V133c0,0,0,0,0,0.1l0.1-0.2l0.2-0.2l0.2-0.2C58,132.5,58.1,132.5,58.1,132.4L58.1,132.4L58.1,132.4
		L58.1,132.4L58.1,132.4z M50.7,133.5L50.7,133.5L50.7,133.5L50.7,133.5z M51.1,132.9L51.1,132.9L51.1,132.9L51.1,132.9L51.1,132.9z
		 M51.2,132.5L51.2,132.5L51.2,132.5L51.2,132.5z M51.8,131L51.8,131L51.8,131z"/>
	<path fill="#8969AF" d="M48.9,118c-0.1-0.1-0.2-0.1-0.3-0.1c-0.1,0-0.2-0.1-0.3-0.2l0,0l0.2,0h0h0.1l0,0l0.1,0h0.1
		c0.1,0,0.2,0,0.3,0.1c0.1,0,0.2,0.1,0.3,0.1h0h0c0.3,0,0.5,0,0.8,0.1c0.3,0.1,0.6,0.1,0.8,0.2h0c0,0,0,0,0,0c0,0,0,0,0,0l0,0h0.1
		c-0.7-0.1-1.4-0.3-2-0.5c-0.6-0.2-1-0.4-1-0.7c0-0.1,0-0.2,0.1-0.3c0.1-0.1,0.2-0.1,0.3-0.2h0c0,0,0,0,0.1,0s0.1,0,0.1,0.1l0.1,0.1
		h0c0.1,0.1,0.4,0.2,0.8,0.2c0.5,0,1,0,1.8,0c1.3,0,2.9,0,4.8-0.2c1.9-0.1,3.8-0.2,5.8-0.3c0.4-0.9,0.7-1.5,0.9-2.1
		c0.2-0.5,0.4-0.9,0.6-1.2c0.2-0.3,0.3-0.5,0.4-0.5c0.1-0.1,0.2-0.1,0.3-0.1c0.4,0,0.8,0.2,1.1,0.4c0.3,0.3,0.5,0.5,0.6,0.7
		c0,0.2-0.1,0.5-0.3,1c-0.2,0.4-0.5,0.9-0.8,1.6c1.1-0.1,1.9-0.1,2.6-0.1c0.7,0,1.4,0,2.2,0c0.6,0,1.1,0,1.7,0c0.6,0,1.1,0,1.6,0.1
		c0.5,0.1,0.9,0.2,1.3,0.3s0.6,0.2,0.8,0.4L75,117l0.2-0.1c0,0,0.1,0.1,0.1,0.2c0.1,0.2,0,0.3-0.3,0.3c-0.2-0.1-0.4-0.1-0.6-0.2
		c-0.2,0-0.5,0-0.8,0c-0.6,0-1.3,0-2.1,0.2l0.3-0.1l-0.1,0.1h0.1h0.1l0.1-0.1v0.1h0.7l0.1,0l0.2,0h0.5c0.3,0,0.6,0.1,0.9,0.1
		c0.3,0,0.5,0.1,0.6,0.1h-0.2h0.1h-0.1h-0.2l-0.1,0l-0.3,0l0.1,0h-0.2c0,0-0.1,0.1-0.2,0.1v0c-0.1,0-0.1,0-0.1,0c0,0,0,0-0.1,0
		l-0.4,0l-0.1-0.2l-0.2,0.2l-0.1,0.1h-0.4l0.1,0h0.1l0.1-0.1l0.1-0.2l-0.3,0.1l-0.2,0.1l-0.1,0c-0.1,0-0.2,0-0.2,0.1h-0.2l0.1,0
		l0.1-0.2h-0.2l-0.2-0.1l0.1,0.2l0.1,0h0.1h-0.2l0.1,0l-0.1,0l-0.1,0l0.1,0c0,0-0.1,0-0.2,0s-0.3,0.1-0.4,0.1c-0.1,0-0.1,0-0.2,0
		s-0.1,0-0.1,0l-0.1-0.1l0.1,0c0,0,0,0.1,0.1,0.1h0.1h0.1l-0.1-0.1l0.2-0.1l-0.1,0l-0.1-0.1l-0.1,0.1l-0.2,0l-0.1,0h-0.2l0.2-0.1
		h0.1l0.1-0.1c-0.1,0-0.1,0-0.2,0c-0.1,0-0.1,0-0.2,0l-0.1,0.2c0,0,0,0,0.1,0l0.1,0.1h-0.5c-0.2,0.1-0.3,0.1-0.5,0.1
		c-0.2,0-0.3,0-0.5,0.1l-0.1-0.1c-0.2,0.1-0.3,0.1-0.5,0.1c-0.2,0-0.3,0-0.5,0v0c-0.7,0.1-1.3,0.3-2,0.4s-1.2,0.2-1.8,0.3
		c-0.2,0.4-0.5,1.2-0.9,2.3s-0.8,2.5-1.2,4s-0.8,3.1-1.1,4.8c-0.3,1.7-0.5,3.2-0.5,4.6c0,0.3,0,0.7,0.2,1c0.1,0.3,0.2,0.7,0.2,1v0.1
		l0-0.1v0.1c0,0,0.1,0.1,0.2,0.1c0.5,0,1.1-0.3,1.6-0.9c0.5-0.6,1-1.2,1.2-1.8c0-0.1,0-0.2,0-0.2v-0.1l0-0.1c0,0,0-0.1,0,0
		c0,0,0,0,0,0l0.2-0.2v-0.2l0-0.1l0.1-0.1h0c0-0.1,0.1-0.2,0.1-0.3c0-0.1,0-0.1,0-0.2l0.1,0.1l0,0l0.1,0.2l0.1-0.1l0.1-0.1v-0.1
		l0.1-0.1l0.1-0.2l-0.1-0.1l0.1-0.1c0,0,0-0.1,0.1-0.2l0.1-0.1l-0.1,0h0.1c0.2,0,0.3,0,0.4,0.1l-0.1,0.2c0,0,0,0.1,0.1,0.1l0.1,0.1
		c0,0,0,0.1-0.1,0.1h-0.1l0.1,0.1c0,0,0,0.1-0.1,0.1s-0.1,0-0.1,0.1s0,0,0,0.1s0,0.1,0,0.1v0.1l-0.1,0.2c0,0.1,0,0.1,0,0.1s0,0,0,0
		l0.1,0.1l-0.1,0.1v0.2c-0.1,0-0.1,0-0.1,0l0.1,0.1v0.3c-0.1,0.3-0.2,0.7-0.3,1.3s-0.3,1.2-0.7,1.8c-0.3,0.6-0.7,1.1-1.2,1.6
		s-1.1,0.7-1.8,0.7c-0.6,0-1.1-0.2-1.5-0.4c-0.4-0.3-0.8-0.7-1-1.1s-0.4-1-0.5-1.6c-0.1-0.6-0.1-1.2-0.1-1.8
		c0.1-1.7,0.2-3.3,0.5-4.8c0.2-1.5,0.5-2.9,0.9-4.2c0.3-1.3,0.7-2.4,1-3.4c0.3-1,0.6-1.8,0.9-2.5c-0.1,0-0.4,0-0.7,0
		c-0.8,0-1.7-0.1-2.8-0.2c-1.1-0.1-2.2-0.2-3.4-0.2l-0.2,0h-0.1h0l-0.1-0.1c0,0-0.1,0.1-0.2,0.1h-0.2H53l-0.5-0.1l-0.1,0.1
		c-0.2,0-0.4,0-0.6,0s-0.5-0.1-0.7-0.1H51h-0.2l0-0.1h-0.1v0.1h-0.1l-0.4-0.2H50L48.9,118z M49.7,118L49.7,118L49.7,118L49.7,118z
		 M50.4,118.2L50.4,118.2L50.4,118.2L50.4,118.2z M51.2,118.3L51.2,118.3h-0.1l0,0.1L51.2,118.3L51.2,118.3
		C51.3,118.4,51.3,118.3,51.2,118.3z M52.2,118.3C52.2,118.4,52.2,118.4,52.2,118.3L52.2,118.3z M69.2,117.7L69.2,117.7l0.2-0.1
		C69.4,117.6,69.3,117.7,69.2,117.7L69.2,117.7z M72,117.6L72,117.6L72,117.6L72,117.6z M72.1,117.4L72.1,117.4h0.1H72.1L72.1,117.4
		z"/>
	<path fill="#8969AF" d="M91.6,142.6c-0.8,0.8-1.6,1.4-2.4,1.8c-0.9,0.3-1.8,0.5-2.7,0.5c-1.3,0-2.5-0.2-3.8-0.7
		c-1.3-0.5-2.4-1-3.4-1.6c-0.2-0.1-0.4-0.2-0.6-0.4c-0.2-0.1-0.5-0.3-0.7-0.6c-0.2-0.2-0.4-0.5-0.6-0.8c-0.2-0.3-0.2-0.7-0.2-1.2
		c0-0.7,0.2-1.3,0.6-1.7s0.8-0.6,1.2-0.8c0.4-0.1,0.8-0.2,1.2-0.2c0.4,0,0.6,0,0.7,0c0.3,0,0.5,0,0.8,0.1s0.6,0.1,0.9,0.1
		c1.8,0.2,3.5,0.5,4.9,0.9c1.4,0.3,2.7,0.6,3.8,0.9v-0.4l-0.1-0.1l-0.1-0.2v0.1v-0.1l-0.1-0.1l-0.2-0.4l-0.1-0.2
		c-0.2-0.5-0.5-1-0.9-1.6c-0.4-0.6-0.9-1.2-1.6-2c-0.6-0.9-1.3-1.8-2.1-2.7c-0.8-0.9-1.6-1.9-2.3-3c-0.7-1.1-1.3-2.2-1.9-3.5
		c-0.5-1.3-0.8-2.7-0.8-4.3c0-1.2,0.2-2.5,0.6-3.7c0.4-1.2,1-2.3,1.8-3.3c0.8-1,1.7-1.8,2.8-2.4c1.1-0.6,2.3-0.9,3.7-0.9
		c0.8,0,1.5,0.1,2.2,0.4c0.7,0.3,1.4,0.7,2,1.1c0.6,0.5,1.1,1.1,1.4,1.7s0.5,1.3,0.5,2c0,0.7-0.1,1.2-0.3,1.6s-0.3,0.8-0.4,1.1
		c0.2-0.4,0.4-0.8,0.6-1.2c0.2-0.4,0.4-0.9,0.6-1.2c0.2-0.4,0.3-0.7,0.4-1c0.1-0.3,0.2-0.5,0.2-0.6c0.1,0,0.2,0,0.4,0.1
		c0.2,0.1,0.3,0.1,0.5,0.2l0.6,0.3c-0.2,0.4-0.5,0.9-1,1.6c-0.5,0.7-0.9,1.3-1.4,2c0,0.1,0,0.1-0.1,0.1l0.1,0.1l-0.1,0l-0.1,0v0.1
		l-0.1,0.1c0,0,0,0.1,0.1,0.1l-0.3,0.6c-0.1,0.1-0.1,0.2-0.2,0.3s-0.1,0.2-0.2,0.3l-0.1,0h-0.1c0,0,0,0,0.1,0l-0.1,0v0v0.1l-0.1,0.1
		h0.1h-0.1l-0.1,0.2h0.1c0,0.1-0.1,0.2-0.2,0.3l-0.1,0l0.1,0l-0.1,0v0v0.1l-0.1-0.1l-0.1,0.2l-0.1,0v0l-0.1,0l-0.2,0.2l0.1,0
		l-0.1-0.2v0.1l-0.1-0.1l-0.1,0h0.1l0.1-0.1l-0.1-0.1c0,0,0,0,0,0c0-0.1,0.1-0.1,0.1-0.1l0.1-0.2l0.1,0h-0.1l0.1,0c0,0-0.1,0,0,0
		c0,0,0,0,0,0c0,0,0-0.1,0.1-0.1l0.1-0.1H95l-0.1,0c-0.2,0.2-0.2,0.3-0.2,0.3s-0.1,0.1-0.2,0.1c-0.2,0-0.6-0.1-1-0.2
		c-0.1,0.2-0.1,0.3-0.2,0.3l0.1-0.1l0.1-0.2v-0.2c-0.6,0-1.1-0.1-1.4-0.3c-0.4-0.2-0.6-0.4-0.6-0.5v0c0.2-0.7,0.5-1.5,0.8-2.3
		c0.3-0.9,0.5-1.5,0.5-2c0-0.5-0.3-0.9-0.8-1.2s-1.1-0.6-1.7-0.7c-0.3,0-0.5,0-0.8,0s-0.5,0-0.7,0.1l0.1-0.1l-0.2,0.1V113l0.3,0
		l-0.2-0.1c0,0,0,0-0.1,0s-0.1,0-0.2,0.1h-0.1h0.1l-0.1,0v0.2l0.2-0.1c-0.2,0.2-0.4,0.3-0.7,0.4c-0.3,0.1-0.5,0.1-0.7,0.2
		c0,0,0-0.1-0.1-0.1c-0.1,0.1-0.1,0.1-0.2,0.1s-0.1,0.1-0.1,0.1h0.1c-0.2,0.1-0.5,0.2-0.8,0.6s-0.5,0.5-0.6,0.6v0h-0.1v0.1v0
		c-0.3,0.3-0.6,0.8-0.9,1.3s-0.4,1.1-0.6,1.7s-0.3,1.2-0.3,1.8s-0.1,1.2-0.1,1.8c0,0.1,0,0.3,0,0.4s0,0.3,0,0.4h0.1v0.3v0v0.1
		l0.1-0.1v0.2l0.1,0.2v0.1c0.2,0.9,0.6,1.7,1,2.5c0.4,0.8,0.9,1.6,1.4,2.4c0.1,0.2,0.3,0.5,0.6,1s0.6,0.8,0.8,1.2s0.6,0.8,0.8,1.1
		c0.2,0.3,0.4,0.5,0.4,0.5h0.1l0.2,0.2H89c0,0,0.1,0,0.1,0.1c0,0.1,0.1,0.1,0.2,0.1l0.2,0.3l0.1,0.1l0.7,0.8l0.1,0.1
		c0.2,0.3,0.4,0.6,0.6,0.8c0.2,0.3,0.4,0.6,0.6,0.9l0.1,0.1l0.2,0.3h-0.1l0.1,0.1l0.1,0l0.1,0.1l0.3,0.6l0.2,0.5c0,0,0,0.2,0.1,0.4
		v0v0.1v-0.1l0.1,0.4l0.1,0.2c0,0.1,0.1,0.3,0.1,0.4s0,0.3,0,0.4v0.3c0.5,0.1,0.9,0.2,1.2,0.3c0.3,0.1,0.4,0.3,0.4,0.6
		c0,0.7-0.1,1.4-0.3,1.9c-0.2,0.6-0.4,0.9-0.4,0.9c-0.3,0-0.6-0.1-0.9-0.2C92.2,142.9,91.9,142.8,91.6,142.6
		C91.6,142.6,91.6,142.6,91.6,142.6z M81,139.4c-0.2,0-0.3,0-0.4,0s-0.3,0-0.4,0c-0.5,0-0.7,0.1-0.7,0.3c0,0,0.1,0.1,0.1,0.1
		c0,0,0.1,0.1,0.1,0.1c0.2,0,0.3,0,0.4-0.1s0.3-0.1,0.4-0.1c0.1,0,0.2,0,0.3,0c0.1,0,0.2,0,0.3,0l0.2,0.1c0,0,0.1,0,0.1,0
		c0,0,0.1,0,0.1,0l0.2,0h0.1h0.2l0.2,0.1l0.2,0.1V140l0.4,0.1l0.2,0.1h0.3l-0.2,0.1h0.1l-0.2,0.2l0.1,0.1l0.1,0.1h-0.2l-0.3-0.1
		c-0.2,0-0.3,0-0.5-0.1s-0.3-0.1-0.5-0.1h-0.2v-0.1h-0.8h-0.3l0.1,0h-0.1l0.2-0.1l-0.2-0.1l-0.1,0l-0.1,0.1l-0.1,0.1H80
		c0,0-0.1,0-0.1,0c0.9,0.9,2,1.6,3.4,2.2s2.6,0.8,3.8,0.8c0.8,0,1.4-0.1,1.9-0.2c0.5-0.2,1-0.5,1.4-0.9c-0.7-0.2-1.5-0.5-2.3-0.8
		s-1.6-0.6-2.4-0.9c-0.8-0.3-1.7-0.5-2.4-0.7S81.7,139.5,81,139.4z M80.1,140.3l0.2,0L80.1,140.3c0-0.1,0-0.1-0.1-0.1l-0.1,0.1
		l-0.1,0H80.1L80.1,140.3z M80.1,140.4L80.1,140.4l0.1-0.1L80.1,140.4z M80.6,140.1L80.6,140.1h-0.2l0.1,0.1L80.6,140.1L80.6,140.1z
		 M80.6,140.2L80.6,140.2l-0.2,0l0.1,0.1L80.6,140.2L80.6,140.2z M82.2,140.3L82.2,140.3l-0.1-0.1l-0.1,0.1L82.2,140.3z M82.2,140.2
		l-0.2,0.1H82l0.2,0.1C82.2,140.3,82.2,140.2,82.2,140.2z M83,140.5L83,140.5c-0.1,0-0.2-0.1-0.2-0.1l0.2-0.2H83l0.2-0.1l0.6,0.1
		l-0.3,0l0.1,0.1l-0.2,0.1H83h0.2v0.1h0.2l0.1-0.1c0,0,0.1,0,0.1,0.1l0.2,0.1v0.1l-0.2,0.1l-0.1,0c0,0-0.1,0-0.1,0
		c0,0-0.1,0-0.1-0.1l-0.1-0.1l0.1,0.1L83,140.5C83,140.5,83,140.5,83,140.5z M83.5,140.3l0.2,0l0.8,0.2l0.2,0.1l0.1,0h0.1h0.1
		l0.4,0.2l0.3,0.1l0.1,0.1l0.1-0.1l0.6,0.2c0.3,0.1,0.6,0.2,0.9,0.3c0.3,0.1,0.5,0.2,0.6,0.3h-0.2l-0.1,0h-0.2h-0.1H87l0.1-0.1
		l-0.2-0.1c-0.1,0.1-0.1,0.1-0.2,0.1c-0.1,0-0.1,0-0.2,0l-0.5-0.2V141l-0.3,0.1l-0.2,0.1l-0.3-0.2l0.1,0.1h0.2h0.1l0.2-0.2l-0.4,0
		h-0.2l-0.1,0c-0.1,0-0.2,0-0.2,0.1l-0.2-0.1l0.1-0.1l-0.2,0l-0.2-0.2l-0.1,0.2l0.1,0.1l0.1,0.1l-0.2-0.1h0.1c0,0-0.1,0-0.1,0
		c0,0,0,0-0.1,0c0,0,0,0.1-0.1,0c0,0-0.1,0-0.1,0c-0.1-0.1-0.2-0.1-0.4-0.1v-0.1c0,0-0.1,0-0.1,0c0,0-0.1,0-0.1,0c0,0-0.1,0-0.2-0.1
		l-0.1-0.1l0.1,0.1c0,0,0,0,0.1,0l0.1,0.1l0.1-0.1l0.2,0v-0.1l-0.2-0.1c0,0-0.1-0.1-0.1-0.1v0.1h-0.2v-0.1H83h0.3L83.5,140.3
		L83.5,140.3z M83.8,123.7c0,0.1,0,0.2,0.1,0.3h0.1L83.8,123.7z M83.8,123.7c0,0.1,0,0.2,0.1,0.3h0.1L83.8,123.7z M84,124.8
		c0-0.1,0-0.1,0-0.2c0,0,0-0.1,0-0.2l-0.1-0.2C83.9,124.4,83.9,124.5,84,124.8z M84,124.5l-0.1-0.2c0,0.1,0.1,0.3,0.2,0.6
		c0-0.1,0-0.1,0-0.2C84,124.6,84,124.5,84,124.5z M84.1,140.4L84.1,140.4L84.1,140.4L84.1,140.4z M84.7,140.9h-0.2l-0.2-0.1
		c0,0-0.1,0-0.1-0.1l0.1-0.2l0.2,0.2l0.2,0L84.7,140.9L84.7,140.9z M85,127C85,126.9,85,126.9,85,127l-0.1-0.2l-0.2-0.4l-0.1,0.2
		l-0.1-0.2c0,0,0,0,0,0c0,0,0-0.1-0.1-0.2c0-0.1-0.1-0.1-0.1-0.2l-0.1,0.1l-0.2-0.2c0.1,0.2,0.2,0.5,0.3,0.6
		C84.8,126.6,84.9,126.8,85,127z M84.9,126.7l-0.2-0.4l-0.1,0.2l-0.1-0.2c0,0,0,0,0,0c0,0,0-0.1-0.1-0.2c0-0.1-0.1-0.1-0.1-0.2
		l-0.1,0.1l-0.2-0.2c0.1,0.2,0.2,0.5,0.3,0.6c0.1,0.2,0.2,0.4,0.3,0.6c0-0.1,0-0.1-0.1-0.1L84.9,126.7z M85.3,141v0.1l-0.5-0.1
		l0.1-0.1c0,0,0.1-0.1,0.2-0.1h0.1l0.1-0.1l0.5,0.1l-0.2,0.1l-0.1,0.1L85.3,141L85.3,141C85.3,141.1,85.3,141,85.3,141z M85.2,140.7
		L85.2,140.7C85.2,140.7,85.2,140.7,85.2,140.7C85.2,140.7,85.2,140.7,85.2,140.7z M86.1,141.2L86.1,141.2l-0.2,0.3l-0.2-0.2
		l-0.1-0.1l0.3-0.2C86.1,141,86.1,141.2,86.1,141.2z M86.3,128.8l-0.2-0.2l-0.1,0.1l0.3,0.4l0.1,0L86.3,128.8L86.3,128.8z M86.4,129
		l-0.2-0.2l0.1,0l-0.2-0.2l-0.1,0.1L86.4,129L86.4,129z M86.4,114L86.4,114l-0.2,0.2c0-0.1,0.1-0.1,0.1-0.1S86.3,114.1,86.4,114z
		 M86.4,114.1L86.4,114.1C86.4,114.1,86.3,114.1,86.4,114.1c-0.1,0.1-0.2,0.1-0.2,0.2L86.4,114.1z M86.9,129.6l-0.2-0.3l-0.2-0.2
		l0.2,0.3l0.1,0.1L86.9,129.6z M86.9,129.6l-0.2-0.2l-0.1-0.1l-0.2-0.3l0.2,0.2l0.1,0.1L86.9,129.6z M86.9,113.8L86.9,113.8
		c0.2-0.1,0.2-0.1,0.2-0.2h0.2l-0.2-0.2c0,0,0,0.1-0.1,0.1s-0.1,0-0.2,0.1V113.8L86.9,113.8L86.9,113.8z M86.9,113.8L86.9,113.8
		c0.1-0.1,0.1-0.2,0.2-0.2s0.1,0,0.1-0.1l0.2,0.2h-0.2C87.2,113.8,87.1,113.8,86.9,113.8L86.9,113.8L86.9,113.8L86.9,113.8z
		 M87,141.5L87,141.5L87,141.5L87,141.5z M87.8,141.5L87.8,141.5l0.2,0.1l0.2,0.2l-0.3,0c0,0-0.1,0-0.2-0.1l-0.1,0.1l-0.5-0.2h0.3
		h0.1h0.2L87.8,141.5L87.8,141.5z M88.5,113.2l0.2-0.1L88.5,113.2c0,0.1,0,0.1-0.1,0.1h-0.1h-0.1l0.1-0.1L88.5,113.2z M88.7,113.1
		L89,113L88.7,113.1L88.7,113.1c-0.1-0.1-0.1-0.1-0.1-0.1h-0.1h0.1l-0.1,0.1v0.1L88.7,113.1L88.7,113.1L88.7,113.1z M91.6,136.9
		c0.4,0.6,0.6,1.4,0.7,2.4c0.1,0,0.1,0,0.2,0.1l-0.1-0.1h0.1c0-0.1,0-0.3-0.1-0.5c0-0.2-0.1-0.4-0.2-0.6h0.1c0,0-0.1-0.2-0.2-0.3
		c-0.1-0.2-0.2-0.4-0.2-0.7s-0.2-0.5-0.4-0.8c-0.2-0.3-0.3-0.5-0.5-0.8l0.1,0.1l-0.1-0.1v0v-0.1v0.1c-0.1,0-0.2-0.1-0.3-0.3
		c-0.1-0.2-0.2-0.3-0.3-0.4v-0.1c-0.1-0.1-0.2-0.2-0.2-0.3c0-0.1-0.1-0.2-0.2-0.3s-0.2-0.4-0.5-0.7c-0.2-0.3-0.6-0.6-1-1.1
		c0.1,0.1,0.3,0.4,0.5,0.7c0.2,0.3,0.5,0.7,0.7,1c0.2,0.3,0.5,0.8,0.8,1.3C90.9,135.8,91.2,136.3,91.6,136.9z M89.1,112.9
		L89.1,112.9l0.1,0.1l0.1,0c0.1,0,0.1,0,0.1,0s0,0,0.1,0C89.5,112.9,89.1,112.9,89.1,112.9z M89.2,113L89.2,113L89.2,113
		c0.2,0,0.2,0,0.2,0s0,0,0.1,0L89.2,113L89.2,113C89.2,113,89.2,113,89.2,113z M89.7,133.5L89.7,133.5l0.1,0v0H89.7z M90.2,134.1
		C90.2,134.1,90.2,134.1,90.2,134.1c-0.1-0.1-0.1-0.1-0.1-0.1C90.2,134,90.2,134.1,90.2,134.1z M90.2,134.1
		C90.1,134.1,90.1,134.1,90.2,134.1L90.2,134.1L90.2,134.1z M91.1,135.4L91.1,135.4L91.1,135.4z M91.1,135.4L91.1,135.4l0.1,0.1
		l0.2,0L91.1,135.4L91.1,135.4z M91.2,135.4l0.1,0.1l0.2,0l-0.2-0.2L91.2,135.4L91.2,135.4z M91.2,135.5L91.2,135.5L91.2,135.5
		C91.2,135.5,91.2,135.5,91.2,135.5z M91.7,136.5c-0.1-0.2-0.2-0.2-0.2-0.2L91.7,136.5z M92.1,137.4L92.1,137.4
		C92.1,137.5,92.1,137.4,92.1,137.4L92.1,137.4z M92.2,137.8L92.2,137.8L92.2,137.8L92.2,137.8C92.1,137.7,92.1,137.8,92.2,137.8z
		 M92.5,138L92.5,138l0.1,0.1l0.1,0.2h-0.1L92.5,138z M93.3,120.6l-0.1,0.2L93,121l0.2-0.5c0-0.1,0-0.1,0.1-0.2v0v-0.1
		c0.1,0,0.1,0,0.2,0v0l-0.1,0.1L93.3,120.6z M94.6,121.1L94.6,121.1C94.5,121.2,94.5,121.1,94.6,121.1L94.6,121.1L94.6,121.1
		L94.6,121.1c-0.1,0-0.2,0-0.2,0v0l-0.1-0.1l0.1,0C94.4,121.1,94.5,121.1,94.6,121.1L94.6,121.1c-0.1,0-0.2-0.1-0.2-0.1L94.6,121.1
		L94.6,121.1z M94.6,121.1L94.6,121.1L94.6,121.1l-0.1-0.1l0.1-0.1L94.6,121.1l0-0.2L94.6,121.1L94.6,121.1z M94.8,120.9L94.8,120.9
		L94.8,120.9L94.8,120.9L94.8,120.9z M95.1,120.5L95.1,120.5L95.1,120.5L95.1,120.5z M95,120.4L95,120.4L95,120.4L95,120.4z
		 M95.7,119.2L95.7,119.2L95.7,119.2L95.7,119.2c-0.1-0.1-0.1,0-0.1,0H95.7C95.6,119.3,95.6,119.2,95.7,119.2z M95.6,119.1
		C95.6,119.1,95.6,119.2,95.6,119.1l0,0.1L95.6,119.1L95.6,119.1L95.6,119.1z M95.7,119.3L95.7,119.3L95.7,119.3L95.7,119.3
		L95.7,119.3z M95.7,119.4l-0.1-0.1L95.7,119.4L95.7,119.4L95.7,119.4z M96.3,118.2L96.3,118.2L96.3,118.2L96.3,118.2z"/>
	<path fill="#8969AF" d="M84.2,118c-0.1-0.1-0.2-0.1-0.3-0.1c-0.1,0-0.2-0.1-0.3-0.2l0.1,0l0.2,0h-0.1H84l-0.1,0l0.1,0h0.1
		c0.1,0,0.2,0,0.3,0.1c0.1,0,0.2,0.1,0.3,0.1h-0.1h0.1c0.3,0,0.6,0,0.8,0.1c0.3,0.1,0.6,0.1,0.8,0.2h-0.1c0,0,0.1,0,0.1,0
		c0,0,0,0,0.1,0l-0.1,0h0.1c-0.7-0.1-1.4-0.3-2-0.5c-0.6-0.2-0.9-0.4-1-0.7c0-0.1,0-0.2,0.1-0.3c0.1-0.1,0.2-0.1,0.3-0.2h0.1
		c0,0,0,0,0.1,0c0.1,0,0.1,0,0.1,0.1l0.1,0.1h-0.1c0.1,0.1,0.4,0.2,0.8,0.2c0.4,0,1.1,0,1.8,0c1.3,0,2.9,0,4.8-0.2
		c1.9-0.1,3.8-0.2,5.8-0.3c0.4-0.9,0.7-1.5,0.9-2.1s0.4-0.9,0.6-1.2c0.2-0.3,0.3-0.5,0.4-0.5c0.1-0.1,0.2-0.1,0.3-0.1
		c0.4,0,0.8,0.2,1.1,0.4c0.3,0.3,0.5,0.5,0.6,0.7c0,0.2-0.1,0.5-0.3,1c-0.2,0.4-0.5,0.9-0.8,1.6c1.1-0.1,1.9-0.1,2.6-0.1
		c0.7,0,1.4,0,2.2,0c0.6,0,1.1,0,1.7,0c0.6,0,1.1,0,1.6,0.1c0.5,0.1,0.9,0.2,1.3,0.3s0.6,0.2,0.8,0.4l-0.1,0.1l0.2-0.1
		c0,0,0.1,0.1,0.1,0.2c0.1,0.2,0,0.3-0.3,0.3c-0.2-0.1-0.4-0.1-0.6-0.2c-0.2,0-0.5,0-0.8,0c-0.6,0-1.3,0-2.1,0.2l0.3-0.1l-0.1,0.1
		h0.1h0.1l0.1-0.1v0.1h0.7l0.1,0l0.2,0h0.5c0.3,0,0.6,0.1,0.9,0.1c0.3,0,0.5,0.1,0.6,0.1h-0.2h0.1h-0.1h-0.2l-0.1,0l-0.3,0l0.1,0
		h-0.2c0,0-0.1,0.1-0.2,0.1v0c-0.1,0-0.1,0-0.1,0c0,0,0,0-0.1,0l-0.4,0l-0.1-0.2l-0.2,0.2l-0.1,0.1h-0.4l0.1,0h0.1l0.1-0.1l0.1-0.2
		l-0.3,0.1l-0.2,0.1l-0.1,0c-0.1,0-0.2,0-0.2,0.1h-0.2l0.1,0l0.1-0.2H107l-0.2-0.1l0.1,0.2l0.1,0h0.1h-0.2l0.1,0l-0.1,0l-0.1,0
		l0.1,0c0,0-0.1,0-0.2,0s-0.3,0.1-0.4,0.1c-0.1,0-0.1,0-0.2,0s-0.1,0-0.1,0l-0.1-0.1l0.1,0c0,0,0,0.1,0.1,0.1h0.1h0.1l-0.1-0.1
		l0.2-0.1l-0.1,0l-0.1-0.1l-0.1,0.1l-0.2,0l-0.1,0h-0.2l0.2-0.1h0.1l0.1-0.1c-0.1,0-0.1,0-0.2,0c-0.1,0-0.1,0-0.2,0l-0.1,0.2
		c0,0,0,0,0.1,0l0.1,0.1H105c-0.2,0.1-0.3,0.1-0.5,0.1c-0.2,0-0.3,0-0.5,0.1l-0.1-0.1c-0.2,0.1-0.3,0.1-0.5,0.1c-0.2,0-0.3,0-0.5,0
		v0c-0.7,0.1-1.3,0.3-2,0.4s-1.2,0.2-1.8,0.3c-0.2,0.4-0.4,1.2-0.9,2.3s-0.8,2.5-1.2,4s-0.8,3.1-1.1,4.8c-0.3,1.7-0.5,3.2-0.5,4.6
		c0,0.3,0.1,0.7,0.2,1c0.1,0.3,0.2,0.7,0.2,1v0.1l-0.1-0.1v0.1c0,0,0.1,0.1,0.2,0.1c0.5,0,1.1-0.3,1.6-0.9c0.6-0.6,0.9-1.2,1.2-1.8
		c0-0.1,0-0.2,0.1-0.2v-0.1l0.1-0.1c0,0-0.1-0.1-0.1,0c0,0,0,0-0.1,0l0.2-0.2v-0.2l0.1-0.1l0.1-0.1H99c0-0.1,0.1-0.2,0.1-0.3
		c0-0.1,0.1-0.1,0.1-0.2l0.1,0.1l-0.1,0l0.1,0.2l0.1-0.1l0.1-0.1v-0.1l0.1-0.1l0.1-0.2l-0.1-0.1l0.1-0.1c0,0,0-0.1,0.1-0.2l0.1-0.1
		l-0.1,0h0.1c0.2,0,0.3,0,0.4,0.1l-0.1,0.2c0,0,0,0.1,0.1,0.1l0.1,0.1c0,0,0,0.1-0.1,0.1h-0.1l0.1,0.1c0,0,0,0.1-0.1,0.1
		s-0.1,0-0.1,0.1s0,0,0,0.1s0,0.1,0,0.1v0.1l-0.1,0.2c0,0.1,0,0.1,0,0.1s0,0,0,0l0.1,0.1l-0.1,0.1v0.2c-0.1,0-0.1,0-0.1,0l0.1,0.1
		v0.3c-0.1,0.3-0.2,0.7-0.3,1.3s-0.3,1.2-0.7,1.8c-0.3,0.6-0.7,1.1-1.2,1.6c-0.5,0.4-1.1,0.7-1.8,0.7c-0.6,0-1.1-0.2-1.5-0.4
		c-0.4-0.3-0.8-0.7-1-1.1s-0.4-1-0.5-1.6c-0.1-0.6-0.1-1.2-0.1-1.8c0.1-1.7,0.2-3.3,0.5-4.8c0.2-1.5,0.6-2.9,0.9-4.2
		c0.3-1.3,0.7-2.4,1-3.4c0.3-1,0.6-1.8,0.9-2.5c-0.1,0-0.4,0-0.7,0c-0.8,0-1.7-0.1-2.8-0.2c-1.1-0.1-2.2-0.2-3.4-0.2l-0.2,0h-0.1H89
		l-0.1-0.1c0,0-0.1,0.1-0.2,0.1h-0.2h-0.2l-0.6-0.1l-0.1,0.1c-0.2,0-0.4,0-0.6,0s-0.4-0.1-0.7-0.1h-0.1h-0.2l0.1-0.1H86v0.1h-0.1
		l-0.4-0.2h-0.2L84.2,118z M85,118L85,118L85,118L85,118z M85.7,118.2L85.7,118.2L85.7,118.2L85.7,118.2z M86.6,118.3L86.6,118.3
		h-0.2l-0.1,0.1L86.6,118.3L86.6,118.3L86.6,118.3z M87.5,118.3C87.5,118.4,87.5,118.4,87.5,118.3L87.5,118.3z M104.6,117.7
		L104.6,117.7l0.2-0.1C104.7,117.6,104.7,117.7,104.6,117.7L104.6,117.7z M107.3,117.6L107.3,117.6L107.3,117.6L107.3,117.6z
		 M107.4,117.4L107.4,117.4h0.1H107.4L107.4,117.4z"/>
	<path fill="#8969AF" d="M107.9,130.1c0.1,0,0.2,0,0.2,0c0.1,0,0.1,0.1,0.1,0.2c0,0,0,0.1-0.1,0.1c0,0-0.1,0-0.1,0.1v0.1
		c0,0,0,0.1,0.1,0.1c0,0,0,0-0.1,0s-0.1,0-0.1,0.1c0,0,0,0,0,0.1s0,0.1,0,0.1c0,0,0,0-0.1,0s-0.1,0-0.1,0.1c0,0.1,0,0.1,0,0.2
		c0,0,0,0.1,0,0.1l-0.1,0.1v0.1l-0.1,0.3c0,0,0,0.1-0.1,0.1s-0.1,0-0.1,0.1c0,0,0,0.1,0.1,0.1l-0.1,0.2l-0.1,0.2v0.1
		c0,0-0.1,0-0.2,0c0,0,0,0.1,0.1,0.1c0,0,0.1,0,0.1,0.1l-0.1,0.1l-0.1,0.3c-0.2,0.7-0.4,1.4-0.8,2.2c-0.1,0.2-0.2,0.4-0.3,0.6
		c-0.1,0.2-0.2,0.4-0.4,0.7c-0.1,0.1-0.2,0.3-0.3,0.4c-0.1,0.2-0.3,0.3-0.7,0.4c-0.1,0.1-0.2,0.2-0.2,0.2v0.1
		c-0.2,0.1-0.4,0.1-0.7,0c0,0,0-0.1,0.1,0c0,0,0,0-0.1,0h-0.1c0-0.1-0.1-0.1-0.1-0.2c0,0,0-0.1,0-0.1c-0.2-0.1-0.4-0.3-0.5-0.5
		l-0.2-0.6c-0.1-0.2-0.1-0.3-0.1-0.5c0-0.2,0-0.4,0-0.6c-0.2,0.4-0.5,0.8-0.8,1.3c-0.3,0.5-0.7,0.9-1.3,1.1
		c-0.2,0.2-0.5,0.3-0.8,0.3h0.2l-0.1-0.1h0.1c0.1,0,0.1,0,0.2-0.1l0.1,0.1l0.2-0.1c0,0,0.1,0,0.1,0c0,0,0,0,0.1,0h-0.2l-0.1,0.1
		l0.1-0.1h-0.2l0.1,0.1l-0.1,0c0,0-0.1,0-0.2,0h-0.1v0h-0.1h-0.1l-0.1,0.1l0.1,0.1c0,0,0.1,0.1,0.2,0.1h-0.1
		c-0.1-0.1-0.2-0.2-0.4-0.2s-0.2-0.1-0.4-0.2v-0.1h-0.1c-0.3-0.2-0.6-0.4-0.7-0.8c-0.2-0.3-0.2-0.6-0.3-0.9
		c-0.2-0.9-0.3-1.6-0.2-2.2c0-1.4,0.2-2.8,0.4-4.1c0.3-1.3,0.7-2.5,1.3-3.5c0.6-1.1,1.1-2,1.7-2.8c0.6-0.8,1.1-1.4,1.6-1.8
		c0.5-0.4,0.8-0.7,1-0.8c0.1-0.1,0.3-0.1,0.4-0.1c0.3,0,0.5,0.2,0.8,0.6c0.2,0.4,0.3,0.7,0.3,0.9c0,0.2-0.1,0.3-0.2,0.5
		c-0.2,0.2-0.4,0.3-0.6,0.6c-0.2,0.2-0.6,0.6-0.9,1c-0.3,0.4-0.7,1-1.2,1.7s-0.8,1.7-1.3,2.9c-0.2,0.4-0.3,0.9-0.5,1.4
		s-0.3,1.1-0.4,1.7c-0.1,0.6-0.2,1.2-0.2,1.8s-0.1,1.2,0,1.8c0,0.4,0.1,0.6,0.2,0.6s0.2,0.1,0.2,0.1c0.2-0.1,0.3-0.3,0.6-0.6
		s0.4-0.5,0.6-0.8c0.4-0.6,0.7-1.1,1-1.7s0.6-1.1,0.8-1.6v-0.1c0-0.2,0.1-0.4,0.1-0.6c0-0.2,0.1-0.4,0.1-0.6
		c0.2-0.9,0.4-1.8,0.7-2.7c0.2-0.8,0.4-1.6,0.7-2.2c0.2-0.7,0.4-1.2,0.6-1.6c0.2-0.4,0.3-0.7,0.4-0.8c0-0.1,0.1-0.2,0.2-0.2
		c0.1,0,0.2-0.1,0.3,0s0.3,0.1,0.6,0.3c0.6,0.5,0.9,0.8,0.8,1c-0.1,0.2-0.2,0.4-0.2,0.6s-0.2,0.6-0.3,1c-0.2,0.4-0.3,0.9-0.5,1.5
		c-0.2,0.6-0.4,1.4-0.7,2.3c-0.2,0.7-0.4,1.5-0.7,2.4c-0.3,0.9-0.5,1.9-0.7,2.9c0,0.1,0,0.2,0,0.4s0,0.2,0,0.4
		c0.3-0.4,0.5-0.8,0.7-1.2c0.2-0.4,0.4-0.8,0.6-1.2v-0.1l0.1-0.1l0.1-0.1v-0.1l0.1-0.2c0,0,0-0.1,0-0.1c0,0,0,0,0-0.1l0.1-0.1
		l0.1-0.1h0.1l0.1-0.2h-0.1c0.1-0.1,0.1-0.3,0.2-0.4s0.1-0.2,0.2-0.4v0.1h-0.1v0.1v0l0.1,0c0,0,0.1-0.1,0-0.1c0,0,0,0,0-0.1
		l-0.1-0.1l0.1,0c0-0.1,0.1-0.1,0.1-0.1c0,0,0,0,0,0l0.2-0.2v-0.1l0.1-0.1l0.1-0.1C107.7,130.3,107.8,130.2,107.9,130.1
		C107.9,130.1,107.9,130.1,107.9,130.1L107.9,130.1L107.9,130.1z"/>
	<path fill="#8969AF" d="M114.8,132.4c0.1,0,0.1,0,0.2,0.1c0.1,0,0.1,0.1,0.1,0.2c0,0,0,0-0.1,0.1c0,0-0.1,0.1-0.1,0.1
		c0,0,0,0.1,0,0.1s0,0.1,0,0.1l-0.1,0.1v0.1c0,0,0,0-0.1,0.1c-0.1,0-0.1,0.1-0.1,0.1c0,0,0,0.1,0,0.1s0,0.1,0,0.1h-0.1l0.1,0.1
		l-0.1,0.2c0,0,0,0.1-0.1,0.1h-0.1c0,0,0,0,0,0.1c0,0,0,0.1,0,0.1l-0.1,0.1l-0.1,0.2c0,0,0,0.1-0.1,0.1h-0.1c0,0,0,0.1,0.1,0.1
		l-0.2,0.4c-0.1,0.3-0.2,0.6-0.4,0.9c-0.1,0.3-0.2,0.6-0.4,1c-0.1,0.1-0.1,0.2-0.2,0.4s-0.2,0.4-0.3,0.6s-0.3,0.4-0.5,0.6
		s-0.5,0.2-0.9,0.2c-0.5,0-0.8-0.1-1.1-0.5c-0.2-0.3-0.3-0.7-0.4-1.1c-0.1-0.4-0.1-0.8-0.1-1.1c0-0.4,0.1-0.6,0.1-0.7
		c0-0.8,0.1-1.6,0.1-2.4c0.1-0.8,0.2-1.6,0.3-2.4s0.3-1.5,0.5-2.1c0.2-0.7,0.3-1.2,0.5-1.6c-0.4-0.2-0.8-0.5-1.2-0.9
		c-0.4,1.3-0.8,2.4-1.1,3.3c-0.3,0.9-0.6,1.8-0.9,2.8l-0.1,0l-0.1,0.1h0.1l-0.1,0.1v0.1v0.1l-0.1,0.1h0.1l-0.1,0.1l-0.1,0.3
		c-0.1,0.2-0.1,0.4-0.2,0.5v0.1l-0.1,0l0.1,0.1h-0.1l-0.1,0.2l-0.1,0.2h0.1l-0.1,0.1l-0.1,0.1c0,0.1-0.1,0.1-0.1,0.2
		c0,0.1-0.1,0.1-0.1,0.2h0h0.1v-0.1l-0.1-0.2l-0.1,0.1l0.1-0.1c0,0,0,0,0,0s0,0,0-0.1l0.2-0.2l-0.1-0.1c0-0.1,0-0.1,0-0.1
		s0.1-0.2,0.2-0.6l0.1,0.1c0,0,0-0.1,0,0c0,0,0,0,0,0h-0.1v-0.1l-0.1,0.2h-0.1v0.2l-0.1,0.2l-0.2,0.2l-0.1,0.2l-0.1,0.1l-0.1,0.2
		l-0.1,0.2c0,0.1-0.1,0.1-0.1,0.1l-0.1,0.1h0.1l-0.1,0.1l-0.1,0c-0.1,0-0.2,0-0.2-0.1l0.1-0.2l-0.1-0.1l0.1-0.1l-0.1-0.1l0.1-0.1
		v-0.2l0.1-0.2l0.1-0.1l0.1-0.2l0.1-0.1l-0.1-0.1l0.1-0.4c0.2-0.5,0.3-1.2,0.6-1.9c0.2-0.8,0.4-1.5,0.6-2.3c0.2-0.8,0.4-1.6,0.5-2.4
		c0.2-0.8,0.3-1.5,0.4-2.1c-0.3-0.6-0.5-1.1-0.6-1.6s-0.2-1-0.2-1.3c0-0.4,0-0.7,0-0.8s0.2-0.2,0.7-0.2c0.8,0,1.3,0,1.7,0.1
		c0.3,0.1,0.6,0.2,0.7,0.3c0.1,0.2,0.2,0.4,0.2,0.7c0,0.3,0,0.6,0,1c0,0.4,0.2,0.9,0.3,1.4c0.2,0.6,0.5,1.2,1,1.9
		c0.2,0.1,0.4,0.2,0.6,0.3c0.2,0.1,0.3,0.3,0.4,0.4s0.2,0.3,0.4,0.5c0,0.1,0,0.2-0.1,0.3v0.1v0v0v0c0,0,0,0.1,0.1,0.1l-0.1,0l0.1,0
		c0,0,0-0.1-0.1-0.1c0,0.3-0.1,0.7-0.4,1.3s-0.5,1.6-0.7,2.8c-0.1,0.7-0.3,1.5-0.5,2.4s-0.3,1.9-0.3,2.8c0.2-0.3,0.4-0.6,0.6-0.8
		c0.2-0.3,0.3-0.6,0.5-0.8l0.1-0.1l0.1-0.1v-0.1l0.1-0.1l0.2-0.2l0.2-0.3h-0.1l0.1-0.1l0.1-0.1c0.1-0.1,0.1-0.2,0.2-0.3
		s0.1-0.2,0.2-0.3v0.1l-0.1,0.1l0.1,0.2l0.1-0.2h0.1l-0.1-0.1l-0.1-0.1l0.1-0.1c0-0.1,0.1-0.1,0.1-0.1l-0.1,0.1h0.1v-0.1v0.1
		l0.1-0.1v0.2c0,0-0.1,0,0,0c0,0,0,0,0,0s-0.1,0-0.1,0.1c0,0,0,0.1,0.1,0.1V133c0,0,0.1,0,0.1,0.1l0.1-0.2l0.2-0.2l0.2-0.2
		C114.7,132.5,114.7,132.5,114.8,132.4L114.8,132.4L114.8,132.4L114.8,132.4L114.8,132.4z M107.3,133.5L107.3,133.5h0.1H107.3z
		 M107.8,132.9L107.8,132.9L107.8,132.9L107.8,132.9L107.8,132.9z M107.8,132.5L107.8,132.5L107.8,132.5L107.8,132.5z M108.5,131
		L108.5,131L108.5,131z"/>
	<path fill="#8969AF" d="M105.6,118c-0.1-0.1-0.2-0.1-0.3-0.1c-0.1,0-0.2-0.1-0.3-0.2l0.1,0l0.2,0h-0.1h0.1l-0.1,0l0.1,0h0.1
		c0.1,0,0.2,0,0.3,0.1c0.1,0,0.2,0.1,0.3,0.1h0h0.1c0.3,0,0.6,0,0.8,0.1c0.3,0.1,0.6,0.1,0.8,0.2h-0.1c0,0,0.1,0,0.1,0
		c0,0,0,0,0.1,0l-0.1,0h0.1c-0.7-0.1-1.4-0.3-2-0.5c-0.6-0.2-0.9-0.4-1-0.7c0-0.1,0-0.2,0.1-0.3c0.1-0.1,0.2-0.1,0.3-0.2h0.1
		c0,0,0,0,0.1,0c0.1,0,0.1,0,0.1,0.1l0.1,0.1h-0.1c0.1,0.1,0.4,0.2,0.8,0.2c0.4,0,1.1,0,1.8,0c1.3,0,2.9,0,4.8-0.2
		c1.9-0.1,3.8-0.2,5.8-0.3c0.4-0.9,0.7-1.5,0.9-2.1s0.4-0.9,0.6-1.2c0.2-0.3,0.3-0.5,0.4-0.5c0.1-0.1,0.2-0.1,0.3-0.1
		c0.4,0,0.8,0.2,1.1,0.4c0.3,0.3,0.5,0.5,0.6,0.7c0,0.2-0.1,0.5-0.3,1c-0.2,0.4-0.5,0.9-0.8,1.6c1.1-0.1,1.9-0.1,2.6-0.1
		c0.7,0,1.4,0,2.2,0c0.6,0,1.1,0,1.7,0c0.6,0,1.1,0,1.6,0.1c0.5,0.1,0.9,0.2,1.3,0.3s0.6,0.2,0.8,0.4l-0.1,0.1l0.1-0.1
		c0,0,0.1,0.1,0.1,0.2c0.1,0.2,0,0.3-0.3,0.3c-0.2-0.1-0.4-0.1-0.6-0.2c-0.2,0-0.5,0-0.9,0c-0.6,0-1.3,0-2.1,0.2l0.3-0.1l-0.1,0.1
		h0.1h0.1l0.1-0.1v0.1h0.7l0.1,0l0.1,0h0.5c0.3,0,0.6,0.1,0.9,0.1c0.3,0,0.5,0.1,0.6,0.1h-0.2h0.1h-0.1H131l-0.1,0l-0.3,0l0.1,0
		h-0.2c0,0-0.1,0.1-0.1,0.1v0c-0.1,0-0.1,0-0.1,0c0,0,0,0-0.1,0l-0.4,0l-0.1-0.2l-0.2,0.2l-0.1,0.1h-0.4l0.1,0h0.1l0.1-0.1l0.1-0.2
		l-0.3,0.1l-0.2,0.1l-0.1,0c-0.1,0-0.2,0-0.2,0.1h-0.2l0.1,0l0.1-0.2h-0.2l-0.2-0.1l0.1,0.2l0.1,0h0.1H128l0,0l-0.1,0l-0.1,0l0.1,0
		c0,0-0.1,0-0.2,0s-0.3,0.1-0.4,0.1c-0.1,0-0.1,0-0.2,0s-0.1,0-0.1,0l-0.1-0.1l0.1,0c0,0,0,0.1,0.1,0.1h0.1h0.1l-0.1-0.1l0.2-0.1
		l-0.1,0l-0.1-0.1l-0.1,0.1l-0.2,0l-0.1,0h-0.2l0.2-0.1h0.1l0.1-0.1c-0.1,0-0.1,0-0.2,0c-0.1,0-0.1,0-0.2,0l-0.1,0.2c0,0,0,0,0.1,0
		l0.1,0.1h-0.5c-0.2,0.1-0.3,0.1-0.5,0.1c-0.2,0-0.3,0-0.5,0.1l-0.1-0.1c-0.2,0.1-0.3,0.1-0.5,0.1c-0.2,0-0.3,0-0.5,0v0
		c-0.7,0.1-1.3,0.3-2,0.4s-1.2,0.2-1.8,0.3c-0.2,0.4-0.4,1.2-0.9,2.3s-0.8,2.5-1.2,4s-0.8,3.1-1.1,4.8c-0.3,1.7-0.5,3.2-0.5,4.6
		c0,0.3,0.1,0.7,0.2,1c0.1,0.3,0.2,0.7,0.2,1v0.1l-0.1-0.1v0.1c0,0,0.1,0.1,0.2,0.1c0.5,0,1.1-0.3,1.6-0.9c0.6-0.6,0.9-1.2,1.2-1.8
		c0-0.1,0-0.2,0.1-0.2v-0.1l0.1-0.1c0,0-0.1-0.1-0.1,0c0,0,0,0-0.1,0l0.2-0.2v-0.2l0.1-0.1l0.1-0.1h-0.1c0-0.1,0.1-0.2,0.1-0.3
		c0-0.1,0.1-0.1,0.1-0.2l0.1,0.1l-0.1,0l0.1,0.2l0.1-0.1l0.1-0.1v-0.1l0.1-0.1l0.1-0.2l-0.1-0.1l0.1-0.1c0,0,0-0.1,0.1-0.2l0.1-0.1
		l-0.1,0h0.1c0.2,0,0.3,0,0.4,0.1l-0.1,0.2c0,0,0,0.1,0.1,0.1l0.1,0.1c0,0,0,0.1-0.1,0.1h-0.1l0.1,0.1c0,0,0,0.1-0.1,0.1
		s-0.1,0-0.1,0.1s0,0,0,0.1s0,0.1,0,0.1v0.1l-0.1,0.2c0,0.1,0,0.1,0,0.1s0,0,0,0l0.1,0.1l-0.1,0.1v0.2c-0.1,0-0.1,0-0.1,0l0.1,0.1
		v0.3c-0.1,0.3-0.2,0.7-0.3,1.3s-0.3,1.2-0.7,1.8c-0.3,0.6-0.7,1.1-1.2,1.6c-0.5,0.4-1.1,0.7-1.8,0.7c-0.6,0-1.1-0.2-1.5-0.4
		c-0.4-0.3-0.8-0.7-1-1.1s-0.4-1-0.5-1.6c-0.1-0.6-0.1-1.2-0.1-1.8c0.1-1.7,0.2-3.3,0.5-4.8c0.2-1.5,0.6-2.9,0.9-4.2
		c0.3-1.3,0.7-2.4,1-3.4c0.3-1,0.6-1.8,0.9-2.5c-0.1,0-0.4,0-0.7,0c-0.8,0-1.7-0.1-2.8-0.2c-1.1-0.1-2.2-0.2-3.4-0.2l-0.2,0h-0.1
		h-0.1l-0.1-0.1c0,0-0.1,0.1-0.2,0.1h-0.2h-0.2l-0.6-0.1l-0.1,0.1c-0.2,0-0.4,0-0.6,0s-0.4-0.1-0.7-0.1h-0.1h-0.2l0.1-0.1h-0.1v0.1
		h0l-0.4-0.2h-0.2L105.6,118z M106.3,118L106.3,118L106.3,118L106.3,118z M107.1,118.2L107.1,118.2L107.1,118.2L107.1,118.2z
		 M107.9,118.3L107.9,118.3h-0.2l-0.1,0.1L107.9,118.3L107.9,118.3L107.9,118.3z M108.8,118.3C108.8,118.4,108.8,118.4,108.8,118.3
		L108.8,118.3z M125.9,117.7L125.9,117.7l0.2-0.1C126,117.6,126,117.7,125.9,117.7L125.9,117.7z M128.6,117.6L128.6,117.6
		L128.6,117.6L128.6,117.6z M128.7,117.4L128.7,117.4h0.1H128.7L128.7,117.4z"/>
</g>
</svg>
