<?xml version="1.0" encoding="utf-8"?>
<!-- Generator: Adobe Illustrator 18.1.1, SVG Export Plug-In . SVG Version: 6.00 Build 0)  -->
<svg version="1.1" id="Layer_1" xmlns="http://www.w3.org/2000/svg" xmlns:xlink="http://www.w3.org/1999/xlink" x="0px" y="0px"
	 viewBox="0 0 576 230.4" enable-background="new 0 0 576 230.4" xml:space="preserve">
<g>
	<path fill="#FFFFFF" d="M224.6,32.7c2.2,1.4,4,2.6,5.6,3.7c1.6,1.1,2.3,2,2.3,2.8v0.2c-3.6,4.2-7.1,9.1-10.6,14.7
		c-3.5,5.6-6.9,11.6-10.2,18.1c-3.3,6.5-6.3,13.3-9.2,20.4c-2.9,7.2-5.4,14.3-7.6,21.5c0.9-0.6,1.8-1.2,2.5-1.6
		c0.7-0.5,1.2-0.7,1.5-0.7c0.5,0,1.3,0.5,2.6,1.5c1.2,1,2.5,2.2,3.7,3.5c1.2,1.3,2.4,2.6,3.4,3.9c1,1.2,1.5,2,1.5,2.3
		c0,0.5-0.5,1-1.4,1.6c-0.9,0.6-2,1.3-3.3,2c-1.2,0.7-2.5,1.4-3.9,2c-1.3,0.6-2.3,1.1-2.9,1.4l-0.2,0.2l-1.9,0.7l0.2-0.2
		c0.2-0.2,0.3-0.2,0.5-0.2c-0.3,0.2-0.8,0.3-1.4,0.5c-0.6,0.2-0.9,0.4-0.9,0.7l-0.9,0.5v-0.2v-0.5l-2.1,0.7l0.2,0.2l0.2,0.2h0.2
		l-0.7,0.2l0.2-0.5c-0.2,0.2-0.2,0.2-0.2,0.1c0-0.1-0.1,0-0.2,0.1l-0.5,0.2c-0.5,0-0.9,1.4-1.3,4.1c-0.4,2.7-0.7,5.8-1.1,9.2
		c-0.3,3.4-0.6,6.7-0.8,9.8c-0.2,3.1-0.3,5.1-0.3,5.8l-0.2,0.9v0.9v0.9c0-0.3,0-0.2,0,0.2c0,0.5,0.1,0.7,0.2,0.7v1.4v0.7h-0.2
		l0.2,0.5h-0.2l0.2,3.3l-0.2,0.2l0.2,0.5c0.2,1.2,0.2,2.5,0.2,3.9c0,1.3,0.1,2.6,0.2,3.9v0.2l0.2,1.4h-0.2l0.2,0.2l0.2,0.7v2.6
		l0.2,2.1c0,0.6,0.1,1.1,0.2,1.4v1.4l0.5,0.7c0.2,1.9,0.5,3.8,1.2,5.8l-0.2-0.5l-0.9-0.9v0.2l-0.2-0.5v0.2l-0.2-0.5
		c-0.3-0.5-0.5-1.1-0.7-1.9c-0.2-0.8-0.3-1.6-0.5-2.3h0.2c-0.5-0.3-0.8-1-0.9-2.1c-0.2-1.1-0.2-1.9-0.2-2.3v-0.5
		c-0.2-0.9-0.3-1.8-0.5-2.7c-0.2-0.9-0.3-1.8-0.5-2.9l0.2,0.5V180v-0.2v-0.2v0.2c-0.2,0-0.3-0.5-0.4-1.4c-0.1-0.9-0.2-1.7-0.3-2.3
		h0.2c-0.2-0.5-0.2-1.4-0.2-2.8l0.2-0.5c-0.2-0.2-0.3-0.7-0.5-1.6c0-0.3,0-0.7,0-1.1c0-0.4,0.1-0.7,0.2-1.1
		c-0.2-0.9-0.2-1.9-0.2-2.8s0-1.9,0-3c-0.2,1.6-0.2,3-0.2,4.4c0,1.4,0,2.8,0,4.2c0,8.9,0.6,15.6,1.9,20.1c1.2,4.5,1.9,6.6,1.9,6.3
		c0,0.2-0.1,0.4-0.2,0.8c-0.2,0.4-0.5,0.6-1.2,0.6c-1.1,0-2.1-1.1-3-3.4c-0.9-2.3-1.8-5.3-2.5-9.1c-0.7-3.8-1.3-8.1-1.8-13
		c-0.5-4.8-0.7-9.8-0.7-14.9c0-4,0.1-8.1,0.3-12.3c0.2-4.1,0.7-8.4,1.3-12.7h-3.5l-0.2-0.2h-0.9c-0.8,0-1.6-0.1-2.3-0.2
		c-0.8-0.2-1.6-0.2-2.3-0.2l0.2-0.2l-0.5-0.2l1.2,0.2l-0.7-0.5c-0.3,0-0.5-0.1-0.7-0.2l-0.2,0.2l-0.2,0.2l0.5,0.2
		c-0.8,0-1.6-0.2-2.3-0.7c-0.8-0.5-1.9-0.7-3.5-0.7v0.2c-0.5-0.3-1-0.5-1.6-0.6c-0.6-0.1-1.1-0.3-1.4-0.6c0,0.2,0,0.2-0.1,0.1
		c-0.1-0.1-0.1,0-0.1,0.1c-0.3-0.2-0.8-0.4-1.4-0.7c-0.6-0.3-0.9-0.4-0.9-0.2V130c-0.6,0-1.2-0.2-1.6-0.5c-0.5,0.6-1.1,1.5-1.8,2.6
		c-0.7,1.1-1.4,2.1-2,3.2c-0.6,1-1.5,2.3-2.6,3.9c-0.5,0.9-1.2,2.1-2.1,3.4c-0.9,1.3-1.8,2.5-2.6,3.6v-0.5c-0.3,0.3-0.5,0.6-0.5,0.9
		c0,0.3-0.2,0.5-0.5,0.5c0,0.2-0.1,0.2-0.2,0.2c0,0.2,0.1,0.2,0.2,0.2v-0.2c-0.8,1.2-1.6,2.5-2.5,3.9c-0.9,1.3-1.8,2.6-2.9,3.9
		l-0.2-1.2c0.5-0.5,0.7-0.8,0.7-0.9c-0.9,1.1-1.8,2.1-2.7,3c-0.9,0.9-1.8,1.9-2.7,3l-0.5,0.5c-0.3,0.2-0.7,0.5-1.2,1.2
		c-0.5,0.6-0.7,1.1-0.7,1.4l0.2,0.7l2.3-3.5l-0.5,0.2l1.2-0.9c-0.3,0.3-0.2,0.2,0.5-0.3c0.6-0.5,0.9-1.1,0.9-1.5l2.6-1.6l-0.9,1.2
		c-0.5,0.6-0.9,0.9-1.2,0.9l-0.2,0.5h0.2l-0.5,0.2v0.2l-0.2,0.5l-0.5,0.2l-0.5,0.7l-0.7,0.7c-0.3,0.5-0.7,0.9-1.1,1.4
		c-0.4,0.5-0.7,0.9-1.1,1.2c-2.3,3.1-4.9,6.2-7.8,9.2c-2.9,3-6.1,5.8-9.6,8.3c-3.5,2.5-7.2,4.5-11.1,6.1c-3.9,1.6-7.9,2.3-12.1,2.3
		c-1.1,0-2-0.1-2.8-0.3c-0.8-0.2-1.4-0.4-1.9-0.4h-0.5v-0.2h-1.4h-0.2c-0.2,0-0.4,0-0.7-0.1c-0.3-0.1-0.5-0.1-0.7-0.1l-1.6-0.7
		l-1.2-0.2l-0.9-0.2c-0.8-0.3-1.6-0.6-2.3-0.9c-0.8-0.3-1.6-0.7-2.3-1.2l-0.9-0.5c-1.7-0.8-3.3-1.8-4.9-3.2c-1.6-1.3-3-2.7-4.4-4.1
		l-0.5-0.5l-1.4-1.4h0.2l-0.5-0.5l-0.7-0.7V173l-2.3-3.3c-0.3-0.3-0.8-1-1.4-2c-0.6-1-0.9-1.9-0.9-2.7h0.2l-0.7-1.9l-0.7-1.4
		c-0.2-1.2-0.3-2.6-0.6-4c-0.2-1.4-0.3-2.7-0.3-4c0-0.9,0.1-1.6,0.2-2.1l-0.2,0.9v0.9l0.7,1.6V155l0.5,0.7l-0.2-0.2l0.5,0.7h-0.2
		c0.3,0.9,0.5,2,0.7,3.2c0.2,1.2,0.5,2.1,0.9,2.9h-0.2c0.3,0.3,0.6,0.8,0.8,1.4c0.2,0.6,0.5,1.1,0.8,1.4c0.8,2.3,1.8,4.3,3,5.8
		c1.2,1.6,2.5,3,3.7,4.2H68c0.3,0.2,0.4,0.2,0.3,0.2c-0.1,0,0,0.1,0.4,0.2h-0.2c0.5,0,1.1,0.4,2,1.3c0.9,0.9,1.6,1.4,2.2,1.8v0.2
		c0.5,0.3,1.1,0.8,1.9,1.4c0.8,0.6,1.5,1.1,2.1,1.4c0.3,0.2,1.9,0.9,4.8,2.2c2.9,1.3,6,2,9.2,2l0.2,0.2c0.3,0,0.7,0,1.2,0.1
		c0.5,0.1,0.9,0.1,1.2,0.1c1.2,0,2.5-0.1,3.7-0.2c1.2-0.2,2.3-0.4,3.3-0.7v0.5c0.9,0,1.4-0.2,1.4-0.7c1.7-0.3,3.1-0.7,4.2-1.3
		c1.1-0.5,2.2-1.1,3.3-1.8l-0.2,0.2h0.2c-0.2,0,0-0.1,0.5-0.3c0.5-0.2,0.8-0.4,0.9-0.6l-0.5,0.7l2.6-1.4l-0.2-0.2l0.7-0.2l-0.7,0.2
		v-0.2c1.1-0.6,2.3-1.4,3.6-2.3c1.3-0.9,2.4-1.9,3.2-2.8c0.2,0,0.2,0,0.1,0.1c-0.1,0.1,0,0.1,0.1,0.1l0.2-0.2v-0.2
		c0-0.2,0.2-0.4,0.7-0.8c0.5-0.4,1.1-0.9,1.7-1.4c0.7-0.5,1.3-1.1,1.9-1.5c0.5-0.5,1-0.9,1.3-1.2l3.5-3.7
		c-4.4,4.5-9.6,8.4-15.6,11.6c-6.1,3.2-11.7,4.9-17,5c-6.1,0-11.5-1.6-16.3-4.7c-4.8-3.1-8.5-6.4-11-9.8c-1.2-1.7-2.8-3.9-4.8-6.7
		c-1.9-2.7-3.7-6.3-5.3-10.9v1.2v-0.5c0-0.2-0.1-0.3-0.2-0.5l-0.7-0.5c0.3-0.3,0.4-0.6,0.4-0.8c-0.1-0.2-0.1-0.5-0.1-0.8
		c-0.8-2.8-1.5-5.8-2.1-9.1c-0.6-3.3-0.9-6.7-0.9-10.3c0-5.9,1-12.3,3-19.1c2-6.8,5.2-13.1,9.6-18.9c4.4-5.8,9.9-10.5,16.7-14.4
		c6.8-3.8,14.9-5.7,24.4-5.7c4.2,0,8.4,0.7,12.6,2c4.2,1.3,8.1,3.3,11.6,5.8c3.5,2.6,6.3,5.8,8.5,9.6c2.2,3.8,3.3,8.3,3.3,13.4
		c0,0.8,0,1.6-0.1,2.3c-0.1,0.8-0.2,1.6-0.3,2.3c1.7,1.2,3.4,2.4,5,3.6c1.6,1.2,3.5,2.2,5.5,3.2c3.6-7.5,7.1-14.7,10.6-21.8
		c3.5-7.1,7-13.8,10.6-20.2c3.3-6.1,6.6-11.5,10-16.3c3.4-4.8,6.7-8.9,9.7-12.3c3-3.3,5.6-6,7.8-7.8c2.2-1.9,3.7-2.8,4.4-2.8
		c0.8,0,1.6,0.4,2.6,1.1c0.9,0.7,2.1,2.1,3.5,4.3c1.4-2,2.5-3.7,3.4-5c0.9-1.3,1.8-2,2.7-2C221,30.8,222.6,31.5,224.6,32.7z
		 M137.8,141.7c1.9-2.6,3.7-5.4,5.5-8.3c1.8-2.9,3.5-5.8,5.3-8.8l-1.4-0.7c-0.5-0.3-1.1-0.7-1.8-1.3c-0.7-0.5-1.4-1.1-2.2-1.5h0.2
		c0-0.2-0.1-0.2-0.3-0.2c-0.2,0-0.3-0.2-0.3-0.5h-0.2c0,0.2,0.1,0.2,0.2,0.2l-3.5-2.8c-0.5,0.6-0.9,1.2-1.4,1.6
		c-0.5,0.5-0.9,0.9-1.2,1.4c-1.1,1.2-2.8,2.9-5.3,4.9c-2.4,2-6.3,3-11.6,3c-1.9,0-3.8-0.2-5.7-0.7c-1.9-0.5-3.7-1.2-5.4-2.3
		c-1.6-1.1-3-2.6-4.1-4.4c-1.1-1.9-1.6-4.1-1.6-6.8c0-2.2,0.5-4.3,1.4-6.3c0.9-2,2.2-3.9,3.9-5.5c1.6-1.6,3.5-3,5.7-4
		c2.2-1,4.6-1.5,7.2-1.5c1.9,0,3.7,0.2,5.4,0.6c1.7,0.4,3.3,0.9,4.7,1.5c-1.7-5-4.6-8.9-8.8-11.8c-4.1-2.9-9.9-4.3-17.4-4.3
		c-0.6,0-1.6,0.1-2.9,0.2c-1.3,0.2-2.7,0.3-4.2,0.6c-1.5,0.2-2.8,0.5-4.1,0.8c-1.2,0.3-2,0.7-2.3,1.2c-0.3,0.3-0.5,0.5-0.7,0.5v-0.2
		c-0.3,0.3-1.1,0.8-2.2,1.4c-1.2,0.6-2.1,1.1-2.9,1.4l0.2-0.5l-0.7,0.7H85l-0.2,0.2H85c-0.8,0.6-1.6,1.3-2.3,2
		c-0.8,0.7-1.5,1.4-2.1,2.2l-0.5-0.7c0.2-0.3,0.3-0.5,0.5-0.6c0.2-0.1,0.2-0.2,0.2-0.3V92v-0.5L80.1,92c-0.2,0.2-0.2,0.2-0.2,0.1
		c0-0.1-0.1,0-0.2,0.3l-0.2,0.2l1.2-1.2l0.2-0.5c-0.6,0.6-1.1,1-1.4,1.2l-0.2,0.5L79,92.4c0,0.2,0,0.2-0.1,0.2
		c-0.1,0-0.1,0.1-0.1,0.2c-3.3,2.5-6,5.4-8.3,8.9c-2.3,3.4-4.1,7-5.5,10.7c-1.4,3.7-2.4,7.4-3,11.1c-0.6,3.7-0.9,6.9-0.9,9.7
		c0,5.4,0.6,10.4,1.7,14.8c1.2,4.4,2.8,8.2,4.8,11.3c0-1.2-0.5-2.8-1.5-4.6c-1-1.8-1.7-3.2-2-4.3l0.5,0.2c-0.2-0.2-0.2-0.2-0.1-0.2
		c0.1,0,0-0.2-0.1-0.5v0.2c-0.2,0-0.3-0.4-0.6-1.3c-0.2-0.9-0.4-1.7-0.6-2.4h0.2c-0.3-0.5-0.5-1.4-0.5-2.8v-0.5
		c-0.5-1.4-0.7-3.1-0.7-5c0-1.9,0-3.9,0-5.7l0.2-0.2c0-1.2,0.1-2.5,0.2-3.7c0.2-1.2,0.3-2.3,0.5-3.3l0.2,0.2c0-0.2,0-0.3,0.1-0.3
		c0.1-0.1,0.1-0.2,0.1-0.4c0-0.2-0.1-0.3-0.2-0.5c0.2-0.5,0.2-1.2,0-2.3c-0.2-1.1,0.4-2.3,1.6-3.5l0.2-0.9l0.2,0.7l0.5-1.6l-0.2-0.5
		l0.2-0.5l-0.5,0.5c0.3-1.2,0.7-2.3,1.1-3.3c0.4-0.9,0.7-1.8,1.1-2.6c0-1.4,0.6-3,1.9-4.8c1.2-1.8,2.3-3.3,3-4.6l0.5,0.5
		c0.2,0,0.5-0.3,1.2-0.9l0.7-0.9l-0.2-0.2l-0.2-0.2l-0.2-0.5l-0.7,0.9l-0.5,0.7l1.6-2.6c0.2-0.3,0.3-0.7,0.6-1.1
		c0.2-0.4,0.5-0.7,0.8-1.1c0.3-0.3,0.6-0.5,0.9-0.7c0.2-0.3,0.4-0.7,0.8-1.1c0.4-0.4,0.7-0.7,1.1-1.1l-0.5,1.4
		c-0.3,0-0.6,0.2-0.8,0.7c-0.2,0.5-0.4,0.6-0.4,0.5l-0.7,1.2h-0.5l-0.5,0.7L75,98.3l0.2,0.2l0.2,0.7l1.4-2.6h-0.5l0.9-0.5l0.7-0.7
		c0.3-0.3,0.5-0.5,0.5-0.7l0.5-0.5l1.6-0.2l-0.7,0.7c-0.3,0.3-0.6,0.5-0.9,0.5l-0.2,0.2l-0.2,0.2v0.2v-0.2L78,96.2l-0.2,0.7
		l-0.5,0.5c-3.6,5.3-6.5,10.9-8.6,16.7c-2.2,5.8-3.5,11.8-4,17.9l-0.5,0.9c0,0.6,0.1,0.9,0.2,0.9l-0.2,0.9c0.2-0.2,0.2,0,0.1,0.4
		c-0.1,0.4,0,0.7,0.1,0.8v1.4v1.2v-0.2l0.2,3.5v0.7c0.2,1.2,0.3,2.5,0.6,3.9c0.2,1.3,0.5,2.6,0.8,3.9l0.2,1.2l0.2,0.7l0.2,0.2
		l0.2,0.5l-0.2,0.2c0.2,0.6,0.4,1.4,0.7,2.3l0.9,1.9c0,0.3,0.2,0.8,0.5,1.4l0.5,1.2l-0.2,0.2l0.7,0.9v-0.2c1.2,3,2.6,5.1,4.2,6.5
		c2.2,2.2,5.1,4.3,8.6,6.3c3.6,2,7.1,3,10.5,3c3.7,0,7.6-0.9,11.6-2.8c4-1.9,7.9-4.4,11.7-7.6c3.8-3.2,7.5-6.9,11.2-11.1
		C131.3,150.8,134.7,146.4,137.8,141.7z M61,164.3c0.2,0,0.2,0.2,0.2,0.5v-0.2v0.2L61,164.3z M62.6,130.5l0.2,0.2v-0.2H62.6z
		 M63.1,140.5v0.2l0.2-0.2H63.1z M63.1,168.5c0,0.2,0.1,0.2,0.2,0.2v0.2L63.1,168.5z M64.5,149.6v0.5v-0.2V149.6z M65,150.3
		l-0.2-0.2v-0.2C64.7,150,64.8,150.2,65,150.3z M65,149.4l0.2,0.5l0.5,0.5l-0.5-0.9l-0.2-0.2V149.4z M65.7,154.1
		c0-0.2,0-0.3-0.1-0.3c-0.1-0.1-0.1-0.2-0.1-0.3l-0.2-0.2L65.7,154.1z M66.4,117.9l0.2-0.7l-0.5-0.5l-0.5,1.2l-0.2,1.2h0.7l0.5-1.2
		H66.4z M65.7,120.5v0.2v1.4l0.2-1.2l0.2-0.2v-1.4L65.7,120.5z M67.1,157.8v0.5c0.2,0,0.2-0.2,0.2-0.5H67.1z M67.8,159.2
		c0-0.2-0.1-0.2-0.2-0.2v0.2H67.8z M68.7,177.2l0.2-0.2l-0.5-0.7l-0.9-0.2l0.9,0.9l0.5,0.2H68.7z M68,175.8l0.5,0.5v-0.5H68z
		 M69.9,106l-0.5,1.6h-0.5l-0.2,0.9c-0.2,0.2-0.2,0.4-0.2,0.7c0,0.3,0.1,0.5,0.2,0.5l0.5-0.5l0.2-0.5l0.7-1.4h-0.5l0.5-0.2
		c0,0.2,0.1,0,0.3-0.3c0.2-0.4,0.4-0.7,0.6-1.1h-0.2v-0.9h-0.5l-0.5,0.7c0,0.3-0.1,0.5-0.2,0.5v0.2L69.9,106z M69.2,176.5
		c0-0.3-0.2-0.5-0.5-0.5L69.2,176.5z M72.2,165.5l0.5,0.5l0.2,0.2L72.2,165.5z M75.7,181.8c0,0.2,0.1,0.2,0.2,0.2
		c0.2,0,0.3,0.1,0.5,0.2C76.4,182,76.2,181.8,75.7,181.8z M76.4,182.1v-0.2l-0.2-0.2l0.2,0.2V182.1z M79.4,183.9
		c0,0.2,0.1,0.2,0.2,0.2v-0.2H79.4z M82.9,90.6l0.2,0.2v-0.2H82.9z M93.4,186.5l-0.2-0.2v0.2H93.4z M109.5,183.5l-1.6,0.9
		c-0.2,0-0.3,0.1-0.5,0.2h-0.2l-1.2,0.7l1.6-0.5l0.7-0.5L109.5,183.5z M111.2,182.5l1.2-0.7l-0.2-0.7l-2.8,1.6l0.7,0.5l1.4-0.7
		H111.2z M110.7,109.9c0-0.3,0.2-0.6,0.5-0.9C110.9,109.3,110.7,109.6,110.7,109.9z M111.2,109c0.6-0.9,1.3-1.6,2.1-2.1
		C112.5,107.4,111.8,108.1,111.2,109z M118.4,122.1l0.2,0.2l0.5-0.2v0.2c4.2-0.2,7.3-1.3,9.2-3.4c1.9-2.1,3.3-4.2,4.1-6.2
		c-2-1.4-4.2-2.7-6.7-3.9c-2.4-1.2-4.6-1.8-6.7-1.8c-1.6,0-2.9,0.5-4.1,1.4c-1.2,0.9-2.1,2.1-2.9,3.5l-0.5,0.5c0,0.2,0,0.3-0.1,0.3
		c-0.1,0.1-0.1,0.2-0.1,0.3h0.2l-0.2,0.7v0.2v0.5l0.2,0.9v0.9v-0.2v0.2c0,0.3,0.1,0.7,0.3,1.1c0.2,0.4,0.4,0.7,0.6,1.1l0.2,0.5v-0.2
		c1.4,1.6,2.9,2.6,4.4,3l0.7,0.2H118.4z M113.3,107.1c0.5-0.2,0.7-0.5,0.7-0.9l-0.7,0.7V107.1z M115.1,105.7
		c0.2-0.2,0.3-0.2,0.4-0.2c0.1,0,0.2-0.1,0.3-0.2C115.8,105.1,115.6,105.3,115.1,105.7z M117.5,106.7h0.2l0.9-0.5h-0.9l-0.9,0.7
		L117.5,106.7z M129.8,108.3c0.2,0.3,0.4,0.5,0.7,0.6c0.3,0.1,0.6,0.2,0.9,0.3c-1.7-1.2-3.5-2.3-5.5-3.3c-1.9-0.9-4-1.4-6.2-1.4
		c-0.3,0.2-0.7,0.2-1.2,0.2h0.5h0.7l-0.5,0.5h1.2l0.5-0.2l0.2,0.2l-0.2-0.5c1.1,0,1.9,0.2,2.3,0.5c0-0.2,0-0.2,0.1-0.1
		c0.1,0.1,0.1,0,0.1-0.1c0.5,0.3,0.9,0.5,1.3,0.7c0.4,0.2,0.7,0.3,1.1,0.5c0,0.2,0.1,0.2,0.2,0.2c0.2,0,0.2,0,0.1-0.1
		c-0.1-0.1,0-0.1,0.1-0.1c0.8,0.3,1.4,0.7,1.9,1.1c0.5,0.4,0.9,0.7,1.4,1.1l-0.2-0.2h-0.2l0.2,0.2l-1.2-0.5v-0.5l-0.7-0.2
		c-0.2,0-0.3,0-0.3-0.1c-0.1-0.1-0.2-0.1-0.4-0.1c-0.3,0-0.5,0.1-0.5,0.2l0.5,0.5l0.2,0.2l1.2,0.7v-0.5l0.2,0.2
		c0,0.3,0.2,0.5,0.5,0.7l0.5,0.2V109l0.7,0.2l0.2-0.5L129.8,108.3z M119.8,106l0.7,0.2v-0.7h-1.9l0.2,0.5h0.7l0.2,0.2V106z
		 M126.3,169.7l-0.2-0.2l-0.5,0.2l-0.7,0.5l-0.7,0.7h0.2l-1.4,1.6l-1.4,0.9c-0.6,0.6-0.9,1.1-0.9,1.4h0.2c0.2,0,0.3-0.1,0.5-0.2
		l0.7-0.5l1.9-1.6h-0.7l0.7-0.5v0.2c0.3,0,0.6-0.2,0.9-0.6c0.3-0.4,0.6-0.7,0.9-1.1h-0.5l0.7-0.7L126.3,169.7z M132.9,163.6
		l-0.2-0.7v-0.2v-0.2l-2.8,2.8l0.5,0.5c0.2,0,0.3-0.1,0.5-0.2c0.2-0.2,0.3-0.3,0.5-0.3c0.2-0.1,0.4-0.3,0.7-0.6L132.9,163.6z
		 M140.1,116.5c-0.3,0.3-0.5,0.5-0.5,0.7c0.2,0.2,0.3,0.2,0.5,0.2l0.5-0.2l-0.5-0.5V116.5z M140.3,116.3c-0.2,0-0.2,0.1-0.2,0.2
		l0.5,0.5l0.2,0.2l1.6,0.7l0.2,0.2c-0.3-0.3-0.7-0.6-1.2-0.9C141,116.9,140.7,116.6,140.3,116.3z M142.9,119.1l1.6,2.1l1.2-0.7
		c-0.2,0-0.2-0.1-0.2-0.2l-1.2-0.5L142.9,119.1z M146.4,122.6c0,0.2,0.1,0.2,0.2,0.2L146.4,122.6h0.2H146.4z M147.1,123.3l0.2,0.2
		v-0.2l-0.2-0.2V123.3z M147.3,121.6c0,0.2,0.1,0.2,0.2,0.2L147.3,121.6z M161.8,130c-1.2-0.6-2.3-1.1-3-1.4v0.2l0.2,0.2l0.5,0.2
		l0.5,0.5h0.5l0.2,0.2h0.7l-0.2-0.2h0.2C161.5,129.9,161.7,130,161.8,130z M163.9,130.7l-0.9-0.5c0.2,0.2,0.3,0.2,0.5,0.2
		C163.6,130.5,163.8,130.6,163.9,130.7z M185.4,112c2.2-10.3,4.9-20.2,8.3-29.8c3.3-9.6,6.8-18.1,10.4-25.6
		c-6.8,7.8-13.3,17.1-19.4,27.9c-6.1,10.8-12.5,22-19.4,33.5c2,0.6,4,1.1,6.1,1.3c2,0.2,3.9,0.3,5.6,0.3c2.2,0,3.8-0.2,4.8-0.5
		c1-0.3,1.7-0.8,2.1-1.5c0.4-0.7,0.6-1.5,0.7-2.4C184.6,114.4,184.9,113.3,185.4,112z M167,132.4l-0.5-0.5H166h-0.5l0.2-0.5l0.2-0.2
		c0.2,0.3,0.3,0.4,0.6,0.2c0.2-0.2,0.4-0.1,0.4,0.2V132.4z M174.2,133.3v-0.2h-0.9v0.5L174.2,133.3H174H174.2z M185.6,162.5
		c-0.2-0.2-0.2-0.4-0.2-0.7v0.7H185.6z M185.9,155.9c0.2-0.2,0.2-0.3,0.2-0.5L185.9,155.9z M186.6,172.7v-0.2l-0.2,0.2
		c0,0.2,0,0.2,0.1,0.2c0.1,0,0.1,0.1,0.1,0.2V172.7z M187,179.7c0-0.2-0.1-0.3-0.2-0.5v0.2L187,179.7z M186.8,182.3v0.5
		c0,0.2,0,0.3,0.1,0.3c0.1,0.1,0.1,0.2,0.1,0.4L186.8,182.3z M187.7,147.3l-0.5-0.2l-0.2,2.3l0.7-0.2v-0.9V147.3z M187.3,178.6H187
		v0.7l0.5,0.5v-1.2H187.3z M187.3,185.6l-0.2-0.5v0.2L187.3,185.6z M187.7,150.8v-1.4l-0.2,1.4l-0.2,1.4l0.5-1.2V150.8z
		 M187.5,187.2v0.5l0.2-0.5H187.5z M187.7,188.8v-0.2v-0.2V188.8z"/>
	<path fill="#FFFFFF" d="M238.8,140.8c0.3,0,0.5,0.1,0.8,0.2c0.3,0.1,0.4,0.3,0.4,0.6c0,0.1-0.1,0.2-0.2,0.3
		c-0.1,0.1-0.3,0.2-0.4,0.5c0,0.1,0,0.2,0.1,0.3c0.1,0.1,0.1,0.2,0.1,0.3l-0.4,0.2v0.4c0,0.1-0.1,0.2-0.3,0.3
		c-0.2,0.1-0.3,0.2-0.3,0.5c0,0.1,0,0.2,0.1,0.3c0.1,0.1,0.1,0.2,0.1,0.3h-0.4l0.2,0.4l-0.4,1c0,0.1-0.1,0.2-0.2,0.2h-0.2
		c0,0.1,0,0.2,0.1,0.3c0.1,0.1,0.1,0.2,0.1,0.3l-0.4,0.4l-0.2,0.8c0,0.1-0.1,0.2-0.2,0.2H237c0,0.1,0.1,0.3,0.2,0.4l-0.6,1.8
		c-0.5,1.1-1,2.2-1.5,3.4c-0.5,1.2-1,2.5-1.7,4c-0.3,0.4-0.5,1-0.8,1.8c-0.3,0.8-0.7,1.6-1.2,2.5c-0.5,0.9-1.2,1.6-2.1,2.2
		c-0.9,0.6-2,0.9-3.5,0.9c-2,0-3.4-0.6-4.3-1.9c-0.9-1.3-1.4-2.7-1.7-4.3c-0.3-1.6-0.3-3.1-0.2-4.6c0.1-1.5,0.2-2.4,0.2-2.8
		c0-3.2,0.2-6.4,0.5-9.8c0.3-3.3,0.8-6.5,1.4-9.6c0.6-3.1,1.2-5.9,1.9-8.5c0.7-2.6,1.3-4.7,2-6.5c-1.5-0.7-3.1-1.9-5-3.6
		c-1.7,5.2-3.1,9.5-4.2,13c-1.1,3.5-2.3,7.3-3.8,11.3l-0.2,0.2l-0.2,0.2h0.2l-0.2,0.2v0.2v0.2l-0.2,0.6h0.2l-0.2,0.2l-0.2,1.2
		c-0.3,0.8-0.5,1.5-0.8,2.2v0.4l-0.2,0.2l0.2,0.2h-0.2l-0.4,0.8l-0.4,0.8h0.2l-0.4,0.4l-0.2,0.2c-0.1,0.3-0.3,0.6-0.4,0.9
		c-0.1,0.3-0.3,0.6-0.4,0.9h-0.2h0.2V148l-0.4-0.6l-0.2,0.2l0.2-0.2c0-0.1,0-0.2-0.1-0.2c-0.1,0-0.1-0.1-0.1-0.2l0.6-0.8l-0.2-0.2
		c0-0.3,0-0.4-0.1-0.5c-0.1-0.1,0.2-0.9,0.9-2.5l0.2,0.2c0-0.1,0-0.2,0.1-0.1c0.1,0.1,0.1,0,0.1-0.1h-0.2v-0.4l-0.4,1h-0.4v0.6
		l-0.4,0.8l-0.6,1l-0.4,0.8l-0.2,0.4l-0.4,0.8l-0.4,0.6c-0.1,0.3-0.3,0.5-0.4,0.6l-0.2,0.2h0.2l-0.2,0.2l-0.2,0.2
		c-0.5,0-0.8-0.2-0.8-0.6l0.4-0.8l-0.2-0.4l0.4-0.2l-0.2-0.4l0.4-0.4v-0.8l0.2-1l0.2-0.6l0.2-0.8l0.4-0.4l-0.2-0.2l0.4-1.4
		c0.7-2.1,1.4-4.7,2.2-7.7c0.8-3,1.6-6.1,2.4-9.3c0.8-3.2,1.5-6.3,2.1-9.5c0.6-3.1,1.1-5.9,1.5-8.5c-1.2-2.3-2-4.4-2.4-6.5
		c-0.4-2.1-0.6-3.8-0.6-5.3c0-1.6,0-2.7,0-3.2c0-0.5,0.9-0.8,2.6-0.8c3.1,0,5.3,0.1,6.7,0.4c1.4,0.3,2.3,0.7,2.8,1.4
		c0.5,0.7,0.7,1.5,0.6,2.6c-0.1,1.1,0,2.4,0.1,4c0.1,1.6,0.6,3.5,1.3,5.7c0.7,2.2,2.1,4.7,4.1,7.5c0.9,0.3,1.7,0.7,2.4,1.3
		c0.7,0.6,1.2,1.2,1.7,1.8c0.5,0.6,1,1.3,1.5,2.1c0,0.4-0.1,0.9-0.4,1.4v0.2v0.2v-0.2v0.2c0,0.1,0.1,0.2,0.2,0.2l-0.4,0.2l0.2-0.2
		c0-0.1-0.1-0.2-0.2-0.2c0,1.1-0.5,2.9-1.6,5.4c-1.1,2.5-2,6.2-2.8,11.2c-0.4,2.7-1.1,5.9-2,9.7c-0.9,3.8-1.4,7.5-1.4,11.1
		c0.8-1.1,1.6-2.2,2.3-3.3c0.7-1.1,1.4-2.2,2.1-3.3l0.2-0.4l0.2-0.4v-0.2l0.2-0.2l0.6-1l0.6-1.2h-0.2l0.4-0.4l0.4-0.4
		c0.3-0.4,0.5-0.9,0.7-1.4c0.2-0.5,0.4-0.9,0.7-1.2v0.2l-0.2,0.4l0.2,0.6l0.4-0.8h0.4l-0.2-0.2l-0.4-0.4l0.2-0.2
		c0.1-0.3,0.3-0.4,0.4-0.4l-0.2,0.2h0.4v-0.4v0.2l0.2-0.2v0.6c-0.1,0-0.2,0-0.1-0.1c0.1-0.1,0-0.1-0.1-0.1c-0.1,0-0.3,0.1-0.4,0.2
		c0,0.1,0.1,0.2,0.2,0.2v-0.2c0.1,0,0.2,0.1,0.2,0.2l0.4-0.8l0.6-0.8l0.6-0.6c0.1-0.1,0.3-0.2,0.4-0.2h-0.2l0.2-0.2H238.8z
		 M208.9,145.4h0.2h0.2H208.9z M210.7,143h-0.2l0.2,0.4v-0.2V143z M210.9,141.4l-0.2-0.2v0.2H210.9z M213.7,135.4l0.2-0.4
		L213.7,135.4z"/>
	<path fill="#FFFFFF" d="M201.9,83.3c-0.4-0.3-0.8-0.5-1.2-0.6c-0.4-0.1-0.8-0.3-1.2-0.6l0.2,0.2l1-0.2h-0.2h0.4l-0.2-0.2l0.4,0.2
		h0.4c0.3,0,0.7,0.1,1.2,0.3c0.5,0.2,0.9,0.4,1.2,0.5h-0.2h0.2c1.1,0,2.2,0.1,3.4,0.4c1.2,0.3,2.3,0.5,3.2,0.6h-0.2
		c0.1,0,0.2,0,0.2,0.1c0,0.1,0.1,0.1,0.2,0.1l-0.2-0.2h0.4c-2.9-0.5-5.6-1.2-8.1-1.9c-2.5-0.7-3.8-1.7-4.1-2.9
		c-0.1-0.5,0-0.9,0.5-1.2c0.5-0.3,0.8-0.5,1.1-0.8h0.2c0,0.1,0.1,0.2,0.3,0.2c0.2,0,0.4,0.1,0.5,0.2l0.4,0.4h-0.2
		c0.4,0.4,1.5,0.7,3.3,0.8c1.8,0.1,4.2,0.2,7.1,0.2c5.2,0,11.5-0.2,19-0.6c7.5-0.4,15.2-0.9,23.2-1.4c1.5-3.5,2.7-6.2,3.6-8.3
		c0.9-2.1,1.7-3.7,2.4-4.8c0.7-1.1,1.2-1.9,1.6-2.2c0.4-0.3,0.9-0.5,1.4-0.5c1.6,0,3.1,0.6,4.4,1.8c1.3,1.2,2.1,2.1,2.2,2.8
		c0.1,0.9-0.2,2.2-1.1,3.9c-0.9,1.7-1.9,3.8-3.1,6.5c4.2-0.3,7.7-0.4,10.5-0.5c2.7-0.1,5.7-0.1,8.9-0.1c2.3,0,4.5,0,6.9,0.1
		c2.3,0.1,4.5,0.2,6.5,0.5c2,0.3,3.7,0.6,5.2,1.1c1.5,0.5,2.5,1,3.2,1.7l-0.4,0.4l0.6-0.4c0.1,0.1,0.2,0.3,0.2,0.6
		c0.4,0.7,0,1.1-1.2,1.4c-0.7-0.3-1.5-0.5-2.4-0.6c-0.9-0.1-2.1-0.2-3.4-0.2c-2.4,0-5.2,0.2-8.4,0.6l1.2-0.2l-0.4,0.2h0.4h0.2
		l0.4-0.2v0.2h2.8l0.2,0.2l0.6-0.2h2c1.1,0.1,2.2,0.3,3.5,0.5c1.3,0.2,2.1,0.4,2.5,0.5h-0.8h0.2h-0.2h-0.6l-0.4,0.2l-1.2,0.2
		l0.4-0.2h-0.6c-0.1,0.1-0.3,0.3-0.6,0.4v-0.2c-0.3,0-0.4,0-0.4,0.1c0,0.1-0.1,0.1-0.4,0.1l-1.8-0.2l-0.2-0.8l-1,0.6l-0.2,0.4h-1.6
		l0.2-0.2h0.4l0.4-0.2l0.4-0.8l-1.2,0.4l-0.8,0.2l-0.2,0.2c-0.4,0-0.7,0.1-0.8,0.4h-0.8l0.2-0.2l0.2-0.6h-1l-1-0.4l0.2,1l0.2,0.2
		h0.2h-0.6l0.2-0.2l-0.2,0.2l-0.2-0.2l0.2,0.2c0-0.1-0.3-0.1-1,0.1c-0.7,0.2-1.2,0.3-1.6,0.3c-0.3,0-0.5,0-0.7-0.1
		c-0.2-0.1-0.4-0.1-0.5-0.1l-0.2-0.4l0.4,0.2c0,0.1,0.1,0.2,0.2,0.2h0.4h0.4l-0.2-0.2l0.6-0.4l-0.2-0.2l-0.4-0.2l-0.4,0.2l-0.8,0.2
		l-0.2-0.2h-0.8l0.8-0.2h0.4l0.4-0.4c-0.3,0-0.5,0-0.8,0.1c-0.3,0.1-0.5,0.1-0.8,0.1l-0.4,0.8c0,0.1,0.1,0.2,0.2,0.2l0.4,0.2h-2
		c-0.7,0.3-1.3,0.4-2,0.3c-0.7-0.1-1.3,0-2,0.3l-0.2-0.2c-0.7,0.3-1.4,0.4-2.1,0.3c-0.7-0.1-1.4,0-2.1,0.1v-0.2
		c-2.7,0.5-5.3,1.1-7.9,1.6c-2.6,0.5-5,1-7.3,1.4c-0.7,1.6-1.8,4.7-3.5,9.4c-1.7,4.7-3.3,10-5,16c-1.7,6-3.1,12.4-4.4,19
		c-1.3,6.6-1.9,12.8-1.9,18.5c0,1.3,0.2,2.7,0.6,4.1c0.4,1.4,0.7,2.8,1,4.1v0.2l-0.2-0.2v0.2c0.1,0.1,0.3,0.2,0.6,0.2
		c2.1,0,4.3-1.2,6.5-3.6c2.2-2.4,3.8-4.8,4.9-7.4c-0.1-0.4-0.1-0.7,0.2-1v-0.4l0.2-0.2c-0.1-0.1-0.2-0.2-0.2-0.1
		c0,0.1-0.1,0-0.2-0.1l0.6-0.8v-1l0.2-0.4l0.4-0.2h-0.2c0.1-0.4,0.3-0.8,0.4-1.1c0.1-0.3,0.2-0.6,0.2-0.9l0.4,0.2l-0.2,0.2l0.4,0.6
		l0.4-0.4l0.2-0.6V140l0.2-0.2l0.4-0.8l-0.2-0.2l0.4-0.6c0-0.1,0.1-0.3,0.4-0.6l0.2-0.2l-0.2-0.2h0.2c0.8,0,1.3,0.1,1.6,0.4
		l-0.4,0.8c0,0.1,0.1,0.2,0.2,0.2l0.2,0.2c0,0.1-0.1,0.2-0.2,0.2h-0.2l0.4,0.4c0,0.1-0.1,0.2-0.2,0.2c-0.1,0-0.2,0.1-0.2,0.2
		c0,0.1,0,0.2,0.1,0.3c0.1,0.1,0.1,0.2,0.1,0.3v0.2l-0.2,1c0.1,0.3,0.1,0.4,0,0.3c-0.1-0.1-0.1,0,0,0.1l0.2,0.2l-0.2,0.4v0.6
		c-0.3,0-0.4,0.1-0.4,0.2l0.4,0.2v1.4c-0.3,1.1-0.7,2.8-1.2,5.1c-0.5,2.3-1.4,4.7-2.6,7.1c-1.2,2.4-2.8,4.5-4.7,6.3
		c-1.9,1.8-4.4,2.7-7.3,2.7c-2.4,0-4.4-0.6-6.1-1.7c-1.7-1.1-3-2.6-4-4.4c-1-1.8-1.7-3.9-2.1-6.2c-0.4-2.3-0.5-4.7-0.4-7.1
		c0.3-6.8,0.9-13.1,1.9-19.1c1-6,2.2-11.5,3.5-16.6c1.3-5.1,2.7-9.7,4-13.6c1.3-4,2.5-7.3,3.6-10c-0.5,0.1-1.5,0.2-2.8,0.2
		c-3.1,0-6.8-0.3-11.4-0.8c-4.5-0.5-9-0.8-13.5-0.8l-0.6-0.2h-0.4H221l-0.4-0.2c0,0.1-0.3,0.2-0.8,0.2h-0.8h-0.8l-2.2-0.2l-0.4,0.2
		c-0.8,0-1.6,0-2.5-0.1c-0.9-0.1-1.8-0.2-2.7-0.3h-0.2h-1l0.2-0.2h-0.4v0.2h-0.4l-1.6-0.6h-0.8L201.9,83.3z M204.9,83.3v-0.2h-0.2
		L204.9,83.3z M207.9,84.2l-0.2-0.2v0.2H207.9z M211.3,84.6h-0.2h-0.4l-0.2,0.4h0.6l0.2-0.2V84.6z M214.9,84.6c0,0.1,0.1,0.1,0.2,0
		H214.9z M283.2,82.1h0.4l0.4-0.4c-0.1,0.1-0.4,0.2-0.8,0.2V82.1z M294.4,81.5v0.2l0.2-0.2H294.4z M294.6,80.9h0.2h0.2h-0.2H294.6z"
		/>
	<path fill="#FFFFFF" d="M372.7,181.7c-3.1,3.3-6.3,5.7-9.8,7c-3.5,1.3-7,2-10.6,2c-5.1,0-10.1-1-15.3-2.9
		c-5.1-1.9-9.7-4.1-13.7-6.5c-0.7-0.4-1.5-0.9-2.4-1.5c-0.9-0.6-1.9-1.4-2.9-2.3c-1-0.9-1.8-2.1-2.5-3.4c-0.7-1.3-1-2.9-1-4.6
		c0-2.9,0.7-5.1,2.2-6.6c1.5-1.5,3.1-2.5,4.8-3.1c1.7-0.6,3.4-0.9,4.9-0.8c1.5,0.1,2.4,0.1,2.7,0.1c1.1,0,2.1,0.1,3.2,0.2
		c1.1,0.1,2.3,0.3,3.6,0.4c7.4,0.9,14,2.1,19.6,3.5c5.6,1.4,10.6,2.6,15,3.7v-1.8l-0.2-0.2l-0.2-1v0.2v-0.4l-0.2-0.2l-0.6-1.8
		l-0.4-1c-0.8-1.9-2-4-3.7-6.3c-1.7-2.3-3.8-5-6.5-8.1c-2.4-3.5-5.2-7-8.3-10.7c-3.1-3.7-6.2-7.6-9.1-11.9
		c-2.9-4.3-5.4-8.9-7.5-14.1c-2.1-5.1-3.2-10.9-3.3-17.3c0-4.9,0.8-9.8,2.5-14.8c1.7-4.9,4-9.3,7.1-13.2c3.1-3.9,6.8-7,11.2-9.4
		c4.4-2.4,9.3-3.6,14.8-3.6c3.1,0,6.1,0.5,9,1.6c2.9,1.1,5.6,2.6,7.9,4.5c2.3,1.9,4.2,4.2,5.6,6.7c1.4,2.5,2.1,5.3,2.1,8.2
		c0,2.7-0.4,4.8-1.1,6.3c-0.7,1.5-1.2,3-1.5,4.5c0.8-1.6,1.6-3.3,2.4-5c0.8-1.7,1.6-3.4,2.3-4.9c0.7-1.5,1.3-2.9,1.8-4
		c0.5-1.1,0.8-1.9,0.9-2.3c0.4,0,0.9,0.1,1.6,0.4c0.7,0.3,1.3,0.5,2,0.8l2.4,1.2c-0.8,1.6-2.1,3.7-4,6.4c-1.9,2.7-3.7,5.3-5.6,7.8
		c0,0.3-0.1,0.4-0.4,0.4l0.2,0.2l-0.2,0.2l-0.2-0.2v0.4l-0.4,0.4c0,0.1,0.1,0.3,0.2,0.4l-1.2,2.6c-0.3,0.4-0.5,0.8-0.7,1.3
		c-0.2,0.5-0.4,0.8-0.7,1.1l-0.2,0.2h-0.2c0,0.1,0.1,0.2,0.2,0.2l-0.2-0.2v0.2v0.2l-0.2,0.4h0.2h-0.2l-0.4,0.6h0.2
		c-0.1,0.4-0.4,0.8-0.8,1.2l-0.2,0.2l0.2,0.2l-0.2-0.2v0.2v0.2l-0.2-0.2l-0.4,0.8l-0.2,0.2v-0.2l-0.4,0.2l-1,1l0.2-0.2l-0.2-0.6v0.2
		l-0.2-0.4l-0.2-0.2h0.2l0.4-0.4l-0.2-0.2c0,0.1,0,0.1,0.1-0.2c0.1-0.3,0.2-0.4,0.5-0.4l0.4-0.8l0.2,0.2h-0.2l0.2-0.2
		c-0.1,0-0.2,0-0.1-0.1c0.1-0.1,0-0.1-0.1-0.1c0-0.1,0.1-0.3,0.2-0.4l0.4-0.4h0.2l-0.2-0.2c-0.7,0.7-1,1.1-1,1.3
		c0,0.2-0.3,0.3-0.8,0.3c-0.9,0-2.3-0.3-4-0.8c-0.3,0.8-0.5,1.3-0.6,1.4l0.2-0.4l0.2-0.6v-0.6c-2.3,0-4.2-0.5-5.8-1.4
		c-1.6-0.9-2.4-1.6-2.4-2v-0.2c0.8-2.7,1.9-5.8,3.2-9.3c1.3-3.5,2-6.2,2-8.1c0-1.9-1.1-3.5-3.2-5c-2.1-1.5-4.3-2.4-6.6-2.8
		c-1.1,0-2.1,0-3.1,0.1c-1,0.1-1.9,0.2-2.7,0.5l0.2-0.2l-0.8,0.2v-0.2l1.4-0.2l-1-0.2c0,0.1-0.1,0.1-0.2,0c-0.1-0.1-0.3-0.1-0.6,0.2
		h-0.2h0.2l-0.4,0.2V64l0.6-0.2c-0.7,0.7-1.5,1.1-2.6,1.4c-1.1,0.3-2,0.6-2.8,1c0-0.1-0.1-0.2-0.2-0.2c-0.3,0.3-0.5,0.4-0.8,0.5
		c-0.3,0.1-0.4,0.2-0.4,0.3h0.2c-0.9,0.3-2.1,1-3.4,2.2c-1.3,1.2-2.1,2-2.4,2.4v-0.2h-0.2v0.4v0.2c-1.3,1.3-2.5,3-3.5,5.1
		c-1,2.1-1.8,4.3-2.4,6.6c-0.6,2.3-1.1,4.7-1.4,7.2c-0.3,2.5-0.5,4.8-0.5,7.1c0,0.5,0,1.1,0.1,1.6c0.1,0.5,0.1,1.1,0.1,1.6h0.2v1.4
		v0.2v0.2l0.2-0.2v0.8l0.4,0.6v0.6c0.9,3.5,2.3,6.8,4.1,10.1c1.8,3.3,3.6,6.4,5.5,9.5c0.5,0.9,1.4,2.2,2.5,3.9
		c1.1,1.7,2.3,3.3,3.4,5c1.1,1.7,2.2,3.1,3.1,4.3c0.9,1.2,1.5,1.8,1.6,1.8h0.2l0.6,0.8h-0.2c0.1,0,0.3,0.1,0.4,0.4
		c0.1,0.3,0.3,0.4,0.6,0.4l0.8,1.2l0.4,0.6l2.6,3.2l0.4,0.6c0.9,1.1,1.8,2.2,2.5,3.3c0.7,1.1,1.5,2.3,2.3,3.5l0.2,0.4l0.8,1.2h-0.2
		l0.2,0.4l0.2,0.2l0.2,0.4l1.2,2.6l1,2c0,0.1,0.1,0.6,0.4,1.4v0.2v0.2v-0.2l0.2,1.6l0.4,1c0.1,0.5,0.2,1.1,0.2,1.6
		c0,0.5,0,1.1,0,1.6v1.2c2.1,0.5,3.7,0.9,4.8,1.2c1.1,0.3,1.6,1.1,1.6,2.6c0,2.8-0.5,5.4-1.4,7.8c-0.9,2.4-1.5,3.6-1.8,3.6
		c-1.1,0-2.3-0.3-3.7-0.8c-1.4-0.5-2.6-1.1-3.7-1.6V181.7z M330.2,168.9c-0.7-0.1-1.3-0.2-1.8-0.2c-0.5,0-1.1,0-1.6,0
		c-1.9,0-2.8,0.5-2.8,1.4c0.1,0.1,0.2,0.3,0.3,0.4c0.1,0.1,0.2,0.3,0.3,0.4c0.7,0,1.3-0.1,1.8-0.3c0.5-0.2,1.1-0.3,1.8-0.3
		c0.5,0,1,0,1.4,0.1c0.4,0.1,0.9,0.1,1.4,0.1l0.8,0.2c0.1,0,0.3,0.1,0.4,0.2c0.1,0,0.2-0.1,0.2-0.2l0.6,0.2h0.2h0.6l1,0.2l0.8,0.2
		v-0.2l1.6,0.4l0.8,0.2h1.4l-1,0.2h0.2l-1,1l0.2,0.2l0.4,0.2h-0.8l-1.4-0.2c-0.7,0-1.3-0.1-2-0.2c-0.7-0.1-1.3-0.2-2-0.2h-0.6v-0.2
		h-3.2h-1.4l0.2-0.2h-0.4l0.8-0.2l-0.6-0.2l-0.4-0.2l-0.2,0.4l-0.2,0.2h0.4c-0.1,0-0.2,0.1-0.2,0.2c3.6,3.6,8.1,6.5,13.5,8.7
		c5.4,2.2,10.4,3.3,15.1,3.3c3.1,0,5.6-0.3,7.7-1c2.1-0.7,4-1.9,5.7-3.6c-2.9-0.9-6-2-9.2-3.2c-3.2-1.2-6.5-2.4-9.8-3.5
		c-3.3-1.1-6.6-2.1-9.8-2.9C336.2,169.5,333.2,169.1,330.2,168.9z M326.6,172.3l0.8-0.2l-0.6-0.2c-0.1-0.1-0.3-0.2-0.4-0.2l-0.2,0.4
		l-0.2,0.2h0.4H326.6z M326.4,172.7l0.2,0.2l0.2-0.4L326.4,172.7z M328.6,171.7h-0.2h-0.6l0.2,0.6l0.6-0.4V171.7z M328.6,171.9
		l-0.2-0.2h-0.6l0.2,0.6l0.2-0.2L328.6,171.9z M335,172.3l0.2-0.4l-0.6-0.2l-0.2,0.4L335,172.3z M335.2,171.9l-0.6,0.2h-0.2l0.8,0.2
		V171.9z M338.2,173.3l-0.4-0.2c-0.1,0-0.2-0.1-0.2-0.2l1-1h-0.2l1-0.2l2.2,0.4l-1.4,0.2l0.2,0.2l-0.8,0.2h-1.4h0.8v0.4h0.8l0.2-0.2
		c0.1,0,0.3,0.1,0.4,0.2l0.6,0.2v0.2l-0.6,0.2l-0.4,0.2c-0.1,0-0.3-0.1-0.4-0.2c-0.1,0-0.2-0.1-0.2-0.2l-0.4-0.2l0.2,0.4l-0.8-0.4
		H338.2z M340.2,172.3l0.8-0.2l3,0.8l1,0.2l0.2,0.2h0.2h0.2l1.8,0.6l1.4,0.4l0.2,0.2l0.2-0.2l2.4,0.6c1.1,0.4,2.3,0.8,3.6,1.3
		c1.3,0.5,2.1,0.8,2.4,1.1H357l-0.2-0.2h-0.6h-0.4h-1.4l0.4-0.2l-0.6-0.2c-0.3,0.3-0.5,0.4-0.7,0.3c-0.2-0.1-0.4-0.1-0.7-0.1l-2-0.6
		v-1l-1.2,0.4l-0.6,0.2l-1.4-0.6l0.2,0.2h0.6h0.4l0.8-0.6l-1.6-0.2h-0.8l-0.4,0.2c-0.4,0-0.7,0.1-0.8,0.2l-0.8-0.4l0.4-0.4l-1-0.2
		l-0.8-0.8l-0.2,1l0.2,0.2l0.2,0.2l-0.6-0.2h0.2c-0.1,0-0.2,0-0.2-0.1c0-0.1-0.1-0.1-0.2-0.1c0,0.1-0.1,0.2-0.2,0.1
		c-0.1-0.1-0.3,0-0.4,0.1c-0.3-0.3-0.9-0.4-1.8-0.4v-0.2c-0.1,0-0.2,0-0.3,0.1c-0.1,0.1-0.2,0.1-0.3,0.1c-0.1,0-0.5-0.1-1-0.4
		l-0.2-0.4l0.4,0.2c0,0.1,0.1,0.2,0.2,0.2l0.4,0.2l0.4-0.2l0.6-0.2v-0.2l-0.6-0.2c-0.1-0.1-0.3-0.2-0.4-0.2v0.2h-1v-0.4h-0.8h1.4
		l0.8-0.2L340.2,172.3z M341.4,105.9c0,0.5,0.1,0.9,0.2,1.2h0.2L341.4,105.9z M341.4,105.9c0,0.5,0.1,0.9,0.2,1.2h0.2L341.4,105.9z
		 M342.4,110.5c0-0.3,0-0.5-0.1-0.7c-0.1-0.2-0.1-0.4-0.1-0.7l-0.4-0.8C341.9,108.7,342.1,109.4,342.4,110.5z M342.2,109.1l-0.4-0.8
		c0.1,0.4,0.3,1.1,0.6,2.2c0-0.3,0-0.5-0.1-0.7C342.2,109.6,342.2,109.3,342.2,109.1z M342.6,172.9h0.2l-0.2-0.2V172.9z
		 M345.2,174.9h-0.8l-0.6-0.4c-0.1,0-0.2-0.1-0.2-0.2l0.2-1l0.8,0.8l1,0.2l-0.4,0.4V174.9z M346.4,119.1c0-0.3-0.1-0.4-0.2-0.4
		l-0.2-0.6l-0.6-1.6l-0.2,0.6l-0.2-0.6c0,0.1,0,0.1,0-0.1c0-0.2-0.1-0.4-0.2-0.7c-0.1-0.3-0.2-0.5-0.2-0.8l-0.2,0.2l-0.6-0.8
		c0.4,0.9,0.8,1.8,1.3,2.5C345.6,117.5,346,118.3,346.4,119.1z M346,118.1l-0.6-1.6l-0.2,0.6l-0.2-0.6c0,0.1,0,0.1,0-0.1
		c0-0.2-0.1-0.4-0.2-0.7c-0.1-0.3-0.2-0.5-0.2-0.8l-0.2,0.2l-0.6-0.8c0.4,0.9,0.8,1.8,1.3,2.5c0.5,0.7,0.9,1.5,1.3,2.3
		c0-0.3-0.1-0.4-0.2-0.4L346,118.1z M347.6,175.3v0.4l-2-0.2l0.4-0.4c0.1-0.1,0.4-0.2,0.8-0.2h0.4l0.4-0.2l2,0.2l-0.8,0.4l-0.4,0.2
		h-0.6h-0.2V175.3z M347,173.9l0.2,0.2C347.2,174,347.2,173.9,347,173.9C347,174.1,347,174,347,173.9z M350.8,176.1v0.2l-0.6,1
		l-0.6-1l-0.2-0.4l1.4-0.6V176.1z M351.6,126.2l-0.6-0.8l-0.4,0.2l1.2,1.8l0.2-0.2l-0.6-0.8L351.6,126.2z M352,127.2l-0.6-0.8
		l0.2-0.2l-0.6-0.8l-0.4,0.2l1.2,1.8L352,127.2z M352,67.4l-0.2,0.2l-0.8,0.8c0.1-0.3,0.3-0.4,0.4-0.5
		C351.5,67.8,351.7,67.7,352,67.4z M351.8,67.6l0.2-0.2c-0.3,0.3-0.5,0.4-0.6,0.5c-0.1,0.1-0.3,0.2-0.4,0.5L351.8,67.6z M354,129.6
		l-0.6-1.2l-1-1l0.6,1.2l0.4,0.4L354,129.6z M354,129.6l-0.6-0.6l-0.4-0.4l-0.6-1.2l0.6,0.8l0.4,0.4L354,129.6z M354,66.6l0.4-0.2
		c0.4,0,0.6-0.1,0.6-0.4h0.8l-0.6-0.6c0,0.1-0.1,0.2-0.4,0.2c-0.3,0-0.5,0.1-0.8,0.4l-0.2,0.4v0.2H354z M354,66.2V66
		c0.3-0.3,0.5-0.4,0.8-0.4c0.3,0,0.4-0.1,0.4-0.2l0.6,0.6H355c0,0.3-0.2,0.4-0.6,0.4l-0.6,0.2v-0.2L354,66.2z M354.4,177.1l0.4,0.2
		l-0.8-0.2H354.4z M357.4,177.3h0.2l0.4,0.2l0.8,0.8l-1.4-0.2c-0.1,0-0.3-0.1-0.6-0.2l-0.4,0.2l-2-1h1.4h0.4h0.6l0.2,0.2H357.4z
		 M360.4,64.2l1-0.2l-0.6,0.6c-0.3,0-0.5,0.1-0.6,0.2H360h-0.4l0.2-0.4L360.4,64.2z M361.2,63.6l1.2-0.2l-1-0.2H361
		c-0.1,0-0.3,0.1-0.4,0.2h-0.2h0.2l-0.4,0.2V64l0.6-0.2l0.2-0.2H361.2z M372.7,158.7c1.5,2.4,2.3,5.6,2.6,9.6c0.3,0,0.5,0.1,0.8,0.2
		l-0.2-0.2h0.2c0-0.5-0.1-1.3-0.2-2.2c-0.1-0.9-0.3-1.7-0.6-2.2h0.2c-0.1-0.1-0.3-0.6-0.6-1.3c-0.3-0.7-0.6-1.6-1-2.6
		c-0.4-1-0.9-2-1.5-3.1c-0.6-1.1-1.2-2.1-1.9-3l0.4,0.2l-0.2-0.2v-0.2v-0.2v0.2c-0.3,0-0.7-0.4-1.2-1.3c-0.5-0.9-0.9-1.4-1.2-1.7
		v-0.2c-0.4-0.4-0.7-0.8-0.8-1.1c-0.1-0.3-0.4-0.8-0.8-1.4s-1-1.5-1.9-2.6c-0.9-1.1-2.2-2.6-4.1-4.5c0.4,0.5,1.1,1.5,2,2.8
		c0.9,1.3,1.9,2.7,2.8,4c0.9,1.3,2.1,3.1,3.4,5.2C370,154.4,371.3,156.4,372.7,158.7z M362.7,63l0.2,0.2l0.2,0.2l0.4-0.2
		c0.3,0,0.4,0,0.4-0.1c0-0.1,0.1-0.1,0.2-0.1H362.7z M363.1,63.2v0.2l0.4-0.2c0.3,0,0.4,0,0.4-0.1c0-0.1,0.1-0.1,0.2-0.1h-1.4
		l0.2,0.2H363.1z M364.9,145.2h0.2l0.2,0.2v-0.2H364.9z M367.1,147.8c0-0.1-0.1-0.2-0.2-0.3c-0.1-0.1-0.2-0.2-0.2-0.3
		C367,147.4,367.1,147.6,367.1,147.8z M366.9,147.8c-0.1-0.1-0.2-0.3-0.2-0.4v0.2L366.9,147.8z M370.5,153l0.2,0.4L370.5,153z
		 M370.7,152.6l0.2,0.2l0.2,0.4l0.6,0.2l-0.8-1L370.7,152.6z M370.9,152.8l0.2,0.4l0.6,0.2l-0.8-1l-0.2,0.2L370.9,152.8z
		 M371.1,153.4h-0.2v-0.2C370.9,153.3,371,153.4,371.1,153.4z M372.9,157.2c-0.4-0.7-0.7-1-0.8-1L372.9,157.2z M374.5,160.7v0.4
		c0.1,0,0.2-0.1,0.2-0.4H374.5z M374.9,162.3v-0.4v0.2l-0.2-0.2C374.7,162.1,374.8,162.2,374.9,162.3z M376.3,163.3l0.2-0.2l0.2,0.4
		l0.2,0.8h-0.2L376.3,163.3z M379.7,93.5l-0.2,0.6l-1,1l0.6-2c0-0.3,0.1-0.5,0.2-0.8v-0.2v-0.4c0.3,0.1,0.5,0.2,0.8,0.2v0.2
		l-0.2,0.4L379.7,93.5z M384.5,95.7v0.2c-0.3,0-0.4-0.1-0.4-0.2v0.2v-0.2v0.2c-0.1,0-0.2-0.1-0.2-0.2v0.2l-0.2-0.4l0.2,0.2
		c0.1,0,0.2-0.1,0.2-0.2v0.2c-0.1-0.1-0.2-0.3-0.2-0.4l0.4,0.2L384.5,95.7z M384.5,95.5l0.2,0.4l-0.4-0.4l-0.4-0.2l0.2-0.4l0.2,0.2
		l0.2-0.2l0.2,0.6H384.5z M385.7,94.7l0.2,0.2h-0.2l-0.2-0.2H385.7z M386.5,93.1l-0.2-0.4v0.2L386.5,93.1z M386.3,92.9l0.2,0.2
		l-0.2-0.4V92.9z M388.9,88.1h0.2l-0.2-0.2l-0.2-0.2c0,0.1-0.1,0.3-0.2,0.4l0.4,0.2V88.1z M388.7,87.7c0,0.1-0.1,0.3-0.2,0.4
		l0.4,0.2l0.2-0.2h-0.2L388.7,87.7z M388.9,88.5v-0.2v0.6l0.2-0.2L388.9,88.5z M389.1,88.7l-0.2-0.4v0.6v-0.2H389.1z M391.7,84.1
		h0.2h-0.4H391.7z"/>
	<path fill="#FFFFFF" d="M343.3,83.3c-0.4-0.3-0.8-0.5-1.2-0.6c-0.4-0.1-0.8-0.3-1.2-0.6l0.2,0.2l1-0.2h-0.2h0.4l-0.2-0.2l0.4,0.2
		h0.4c0.3,0,0.7,0.1,1.2,0.3c0.5,0.2,0.9,0.4,1.2,0.5H345h0.2c1.1,0,2.2,0.1,3.4,0.4c1.2,0.3,2.3,0.5,3.2,0.6h-0.2
		c0.1,0,0.2,0,0.2,0.1c0,0.1,0.1,0.1,0.2,0.1l-0.2-0.2h0.4c-2.9-0.5-5.6-1.2-8.1-1.9c-2.5-0.7-3.8-1.7-4.1-2.9
		c-0.1-0.5,0-0.9,0.5-1.2c0.5-0.3,0.8-0.5,1.1-0.8h0.2c0,0.1,0.1,0.2,0.3,0.2c0.2,0,0.4,0.1,0.5,0.2l0.4,0.4h-0.2
		c0.4,0.4,1.5,0.7,3.3,0.8c1.8,0.1,4.2,0.2,7.1,0.2c5.2,0,11.5-0.2,19-0.6c7.5-0.4,15.2-0.9,23.2-1.4c1.5-3.5,2.7-6.2,3.6-8.3
		c0.9-2.1,1.7-3.7,2.4-4.8c0.7-1.1,1.2-1.9,1.6-2.2c0.4-0.3,0.9-0.5,1.4-0.5c1.6,0,3.1,0.6,4.4,1.8c1.3,1.2,2.1,2.1,2.2,2.8
		c0.1,0.9-0.2,2.2-1.1,3.9c-0.9,1.7-1.9,3.8-3.1,6.5c4.2-0.3,7.7-0.4,10.5-0.5c2.7-0.1,5.7-0.1,8.9-0.1c2.3,0,4.5,0,6.9,0.1
		c2.3,0.1,4.5,0.2,6.5,0.5c2,0.3,3.7,0.6,5.2,1.1c1.5,0.5,2.5,1,3.2,1.7l-0.4,0.4l0.6-0.4c0.1,0.1,0.2,0.3,0.2,0.6
		c0.4,0.7,0,1.1-1.2,1.4c-0.7-0.3-1.5-0.5-2.4-0.6c-0.9-0.1-2.1-0.2-3.4-0.2c-2.4,0-5.2,0.2-8.4,0.6l1.2-0.2l-0.4,0.2h0.4h0.2
		l0.4-0.2v0.2h2.8l0.2,0.2l0.6-0.2h2c1.1,0.1,2.2,0.3,3.5,0.5c1.3,0.2,2.1,0.4,2.5,0.5h-0.8h0.2h-0.2h-0.6l-0.4,0.2l-1.2,0.2
		l0.4-0.2H443c-0.1,0.1-0.3,0.3-0.6,0.4v-0.2c-0.3,0-0.4,0-0.4,0.1c0,0.1-0.1,0.1-0.4,0.1l-1.8-0.2l-0.2-0.8l-1,0.6l-0.2,0.4h-1.6
		l0.2-0.2h0.4l0.4-0.2l0.4-0.8l-1.2,0.4l-0.8,0.2l-0.2,0.2c-0.4,0-0.7,0.1-0.8,0.4h-0.8l0.2-0.2l0.2-0.6h-1l-1-0.4l0.2,1l0.2,0.2
		h0.2h-0.6l0.2-0.2l-0.2,0.2l-0.2-0.2l0.2,0.2c0-0.1-0.3-0.1-1,0.1c-0.7,0.2-1.2,0.3-1.6,0.3c-0.3,0-0.5,0-0.7-0.1
		c-0.2-0.1-0.4-0.1-0.5-0.1l-0.2-0.4l0.4,0.2c0,0.1,0.1,0.2,0.2,0.2h0.4h0.4l-0.2-0.2l0.6-0.4l-0.2-0.2l-0.4-0.2l-0.4,0.2l-0.8,0.2
		l-0.2-0.2h-0.8l0.8-0.2h0.4l0.4-0.4c-0.3,0-0.5,0-0.8,0.1c-0.3,0.1-0.5,0.1-0.8,0.1l-0.4,0.8c0,0.1,0.1,0.2,0.2,0.2l0.4,0.2h-2
		c-0.7,0.3-1.3,0.4-2,0.3c-0.7-0.1-1.3,0-2,0.3l-0.2-0.2c-0.7,0.3-1.4,0.4-2.1,0.3c-0.7-0.1-1.4,0-2.1,0.1v-0.2
		c-2.7,0.5-5.3,1.1-7.9,1.6c-2.6,0.5-5,1-7.3,1.4c-0.7,1.6-1.8,4.7-3.5,9.4c-1.7,4.7-3.3,10-5,16c-1.7,6-3.1,12.4-4.4,19
		c-1.3,6.6-1.9,12.8-1.9,18.5c0,1.3,0.2,2.7,0.6,4.1c0.4,1.4,0.7,2.8,1,4.1v0.2l-0.2-0.2v0.2c0.1,0.1,0.3,0.2,0.6,0.2
		c2.1,0,4.3-1.2,6.5-3.6c2.2-2.4,3.8-4.8,4.9-7.4c-0.1-0.4-0.1-0.7,0.2-1v-0.4l0.2-0.2c-0.1-0.1-0.2-0.2-0.2-0.1
		c0,0.1-0.1,0-0.2-0.1l0.6-0.8v-1l0.2-0.4l0.4-0.2h-0.2c0.1-0.4,0.3-0.8,0.4-1.1c0.1-0.3,0.2-0.6,0.2-0.9l0.4,0.2l-0.2,0.2l0.4,0.6
		l0.4-0.4l0.2-0.6V140l0.2-0.2l0.4-0.8l-0.2-0.2l0.4-0.6c0-0.1,0.1-0.3,0.4-0.6l0.2-0.2l-0.2-0.2h0.2c0.8,0,1.3,0.1,1.6,0.4
		l-0.4,0.8c0,0.1,0.1,0.2,0.2,0.2l0.2,0.2c0,0.1-0.1,0.2-0.2,0.2h-0.2l0.4,0.4c0,0.1-0.1,0.2-0.2,0.2c-0.1,0-0.2,0.1-0.2,0.2
		c0,0.1,0,0.2,0.1,0.3c0.1,0.1,0.1,0.2,0.1,0.3v0.2l-0.2,1c0.1,0.3,0.1,0.4,0,0.3c-0.1-0.1-0.1,0,0,0.1l0.2,0.2l-0.2,0.4v0.6
		c-0.3,0-0.4,0.1-0.4,0.2l0.4,0.2v1.4c-0.3,1.1-0.7,2.8-1.2,5.1c-0.5,2.3-1.4,4.7-2.6,7.1c-1.2,2.4-2.8,4.5-4.7,6.3
		c-1.9,1.8-4.4,2.7-7.3,2.7c-2.4,0-4.4-0.6-6.1-1.7c-1.7-1.1-3-2.6-4-4.4c-1-1.8-1.7-3.9-2.1-6.2c-0.4-2.3-0.5-4.7-0.4-7.1
		c0.3-6.8,0.9-13.1,1.9-19.1c1-6,2.2-11.5,3.5-16.6c1.3-5.1,2.7-9.7,4-13.6c1.3-4,2.5-7.3,3.6-10c-0.5,0.1-1.5,0.2-2.8,0.2
		c-3.1,0-6.8-0.3-11.4-0.8c-4.5-0.5-9-0.8-13.5-0.8l-0.6-0.2h-0.4h-0.2l-0.4-0.2c0,0.1-0.3,0.2-0.8,0.2h-0.8h-0.8l-2.2-0.2l-0.4,0.2
		c-0.8,0-1.6,0-2.5-0.1c-0.9-0.1-1.8-0.2-2.7-0.3h-0.2h-1l0.2-0.2h-0.4v0.2H350l-1.6-0.6h-0.8L343.3,83.3z M346.2,83.3v-0.2H346
		L346.2,83.3z M349.2,84.2L349,84v0.2H349.2z M352.6,84.6h-0.2H352l-0.2,0.4h0.6l0.2-0.2V84.6z M356.2,84.6c0,0.1,0.1,0.1,0.2,0
		H356.2z M424.5,82.1h0.4l0.4-0.4c-0.1,0.1-0.4,0.2-0.8,0.2V82.1z M435.7,81.5v0.2l0.2-0.2H435.7z M435.9,80.9h0.2h0.2h-0.2H435.9z"
		/>
	<path fill="#FFFFFF" d="M438.1,131.5c0.3-0.1,0.6-0.1,0.9,0.1c0.3,0.2,0.5,0.4,0.5,0.7c0,0.1-0.1,0.2-0.2,0.3
		c-0.1,0.1-0.3,0.2-0.4,0.5v0.4c0,0.1,0.1,0.2,0.2,0.2c0,0.1-0.1,0.2-0.2,0.2c-0.1,0-0.2,0.1-0.2,0.2c-0.1,0-0.1,0.1,0,0.2
		c0.1,0.1,0.1,0.3,0,0.4c0,0.1-0.1,0.2-0.2,0.2c-0.1,0-0.2,0.1-0.2,0.2c-0.1,0.3-0.1,0.5,0,0.6c0.1,0.1,0.1,0.3,0,0.4l-0.2,0.2v0.4
		l-0.4,1.2c0,0.1-0.1,0.2-0.2,0.2c-0.1,0-0.2,0.1-0.2,0.2c0,0.1,0.1,0.3,0.2,0.4l-0.2,0.6l-0.2,0.8v0.2c-0.1,0.1-0.3,0.2-0.6,0.2
		c0,0.1,0.1,0.2,0.2,0.3c0.1,0.1,0.2,0.2,0.2,0.3l-0.2,0.6l-0.4,1.4c-0.8,2.7-1.8,5.6-3,9c-0.4,0.8-0.8,1.6-1.2,2.5
		c-0.4,0.9-0.9,1.8-1.6,2.9c-0.4,0.5-0.8,1.1-1.1,1.7c-0.3,0.6-1.2,1.2-2.7,1.7c-0.4,0.4-0.7,0.7-1,0.8v0.2c-0.7,0.3-1.5,0.3-2.6,0
		c0-0.1,0.1-0.2,0.2-0.1c0.1,0.1,0.1,0-0.2-0.1h-0.4c-0.1-0.3-0.2-0.5-0.3-0.6c-0.1-0.1-0.1-0.3-0.1-0.6c-0.9-0.5-1.6-1.2-2-2
		l-0.8-2.4c-0.3-0.7-0.4-1.4-0.4-2.2c0-0.8,0-1.5,0-2.2c-0.9,1.5-2,3.2-3.2,5.3c-1.2,2.1-2.9,3.6-5.2,4.5c-0.8,0.8-1.9,1.2-3.4,1.2
		h0.6l-0.2-0.2h0.4c0.3,0,0.5-0.1,0.8-0.4l0.2,0.2l0.6-0.4c0.1,0,0.2,0,0.2-0.1c0-0.1,0.1-0.1,0.2-0.1h-0.8l-0.2,0.2l0.2-0.2h-0.8
		l0.2,0.2l-0.4,0.2c0-0.1-0.2-0.2-0.6-0.2h-0.4v0.2H407h-0.2l-0.2,0.2l0.2,0.2c0,0.1,0.2,0.2,0.6,0.2H407c-0.5-0.3-1-0.6-1.5-0.9
		c-0.5-0.3-1-0.6-1.5-0.9v-0.2h-0.2c-1.3-0.8-2.3-1.8-2.9-3.1c-0.6-1.3-1-2.4-1.1-3.5c-0.8-3.5-1.1-6.4-1-9c0-5.7,0.6-11.2,1.8-16.3
		c1.2-5.2,2.9-9.9,5.1-14.2c2.2-4.3,4.4-8,6.6-11.2c2.2-3.1,4.2-5.5,6.2-7.3c1.9-1.7,3.3-2.7,4.1-3c0.5-0.3,1.1-0.4,1.6-0.4
		c1.1,0,2.1,0.9,3,2.6c0.8,1.6,1.2,2.8,1.2,3.6c0,0.8-0.3,1.4-0.8,1.8c-0.7,0.7-1.5,1.4-2.5,2.3c-1,0.9-2.2,2.2-3.6,3.9
		c-1.4,1.7-2.9,4-4.6,6.9c-1.7,2.9-3.4,6.7-5.3,11.5c-0.7,1.6-1.3,3.5-1.9,5.6c-0.6,2.1-1.1,4.4-1.6,6.8c-0.5,2.4-0.8,4.8-1,7.3
		c-0.2,2.5-0.2,4.9,0.1,7.3c0.1,1.5,0.4,2.3,0.8,2.6c0.4,0.3,0.6,0.3,0.6,0.2c0.7-0.4,1.4-1.1,2.3-2.2c0.9-1.1,1.6-2.1,2.3-3.2
		c1.5-2.3,2.8-4.5,4-6.8c1.2-2.3,2.3-4.4,3.4-6.4V136c0.1-0.8,0.3-1.6,0.4-2.4c0.1-0.8,0.3-1.6,0.4-2.4c0.8-3.7,1.7-7.2,2.6-10.6
		c0.9-3.3,1.8-6.3,2.7-8.9c0.9-2.6,1.7-4.7,2.4-6.4c0.7-1.7,1.3-2.7,1.7-3.1c0.1-0.4,0.5-0.7,1-0.8c0.4-0.1,0.9-0.2,1.4-0.1
		c0.5,0.1,1.3,0.4,2.4,1.1c2.5,1.9,3.6,3.2,3.2,4c-0.3,0.7-0.6,1.5-0.9,2.5c-0.3,1-0.8,2.3-1.4,4c-0.6,1.7-1.3,3.7-2.1,6.2
		c-0.8,2.5-1.7,5.5-2.6,9.3c-0.7,2.8-1.5,6-2.6,9.8c-1.1,3.7-1.9,7.6-2.6,11.6c0,0.5,0,1-0.1,1.5c-0.1,0.5-0.1,1-0.1,1.5
		c1.1-1.6,2-3.3,2.9-5c0.9-1.7,1.7-3.3,2.5-4.8v-0.2l0.4-0.6l0.2-0.6v-0.2l0.4-0.8c0-0.1,0-0.2,0.1-0.3c0.1-0.1,0.1-0.2,0.1-0.3
		l0.2-0.2l0.2-0.4h0.2l0.2-0.6h-0.2c0.3-0.5,0.5-1.1,0.8-1.6c0.3-0.5,0.5-1,0.8-1.4v0.2h-0.2v0.2v0.2l0.4-0.2
		c0.1-0.1,0.2-0.2,0.1-0.3c-0.1-0.1,0-0.2,0.1-0.3l-0.2-0.2l0.2-0.2c0.1-0.3,0.2-0.4,0.3-0.5c0.1-0.1,0,0-0.1,0.1l0.8-0.8v-0.4
		l0.4-0.4l0.2-0.6c0.1-0.3,0.3-0.5,0.6-0.8c0.1-0.1,0.3-0.2,0.4-0.2h-0.2L438.1,131.5z"/>
	<path fill="#FFFFFF" d="M465.4,140.8c0.3,0,0.5,0.1,0.8,0.2c0.3,0.1,0.4,0.3,0.4,0.6c0,0.1-0.1,0.2-0.2,0.3
		c-0.1,0.1-0.3,0.2-0.4,0.5c0,0.1,0,0.2,0.1,0.3c0.1,0.1,0.1,0.2,0.1,0.3l-0.4,0.2v0.4c0,0.1-0.1,0.2-0.3,0.3
		c-0.2,0.1-0.3,0.2-0.3,0.5c0,0.1,0,0.2,0.1,0.3c0.1,0.1,0.1,0.2,0.1,0.3H465l0.2,0.4l-0.4,1c0,0.1-0.1,0.2-0.2,0.2h-0.2
		c0,0.1,0,0.2,0.1,0.3c0.1,0.1,0.1,0.2,0.1,0.3l-0.4,0.4l-0.2,0.8c0,0.1-0.1,0.2-0.2,0.2h-0.2c0,0.1,0.1,0.3,0.2,0.4l-0.6,1.8
		c-0.5,1.1-1,2.2-1.5,3.4c-0.5,1.2-1,2.5-1.7,4c-0.3,0.4-0.5,1-0.8,1.8c-0.3,0.8-0.7,1.6-1.2,2.5c-0.5,0.9-1.2,1.6-2.1,2.2
		c-0.9,0.6-2,0.9-3.5,0.9c-2,0-3.4-0.6-4.3-1.9c-0.9-1.3-1.4-2.7-1.7-4.3c-0.3-1.6-0.3-3.1-0.2-4.6c0.1-1.5,0.2-2.4,0.2-2.8
		c0-3.2,0.2-6.4,0.5-9.8c0.3-3.3,0.8-6.5,1.4-9.6c0.6-3.1,1.2-5.9,1.9-8.5c0.7-2.6,1.3-4.7,2-6.5c-1.5-0.7-3.1-1.9-5-3.6
		c-1.7,5.2-3.1,9.5-4.2,13c-1.1,3.5-2.3,7.3-3.8,11.3l-0.2,0.2l-0.2,0.2h0.2l-0.2,0.2v0.2v0.2l-0.2,0.6h0.2l-0.2,0.2l-0.2,1.2
		c-0.3,0.8-0.5,1.5-0.8,2.2v0.4l-0.2,0.2l0.2,0.2h-0.2l-0.4,0.8l-0.4,0.8h0.2l-0.4,0.4l-0.2,0.2c-0.1,0.3-0.3,0.6-0.4,0.9
		c-0.1,0.3-0.3,0.6-0.4,0.9h-0.2h0.2V148l-0.4-0.6l-0.2,0.2l0.2-0.2c0-0.1,0-0.2-0.1-0.2c-0.1,0-0.1-0.1-0.1-0.2l0.6-0.8l-0.2-0.2
		c0-0.3,0-0.4-0.1-0.5c-0.1-0.1,0.2-0.9,0.9-2.5l0.2,0.2c0-0.1,0-0.2,0.1-0.1c0.1,0.1,0.1,0,0.1-0.1h-0.2v-0.4l-0.4,1h-0.4v0.6
		l-0.4,0.8l-0.6,1l-0.4,0.8l-0.2,0.4l-0.4,0.8l-0.4,0.6c-0.1,0.3-0.3,0.5-0.4,0.6l-0.2,0.2h0.2l-0.2,0.2l-0.2,0.2
		c-0.5,0-0.8-0.2-0.8-0.6l0.4-0.8l-0.2-0.4l0.4-0.2l-0.2-0.4l0.4-0.4v-0.8l0.2-1l0.2-0.6l0.2-0.8l0.4-0.4l-0.2-0.2l0.4-1.4
		c0.7-2.1,1.4-4.7,2.2-7.7c0.8-3,1.6-6.1,2.4-9.3c0.8-3.2,1.5-6.3,2.1-9.5c0.6-3.1,1.1-5.9,1.5-8.5c-1.2-2.3-2-4.4-2.4-6.5
		c-0.4-2.1-0.6-3.8-0.6-5.3c0-1.6,0-2.7,0-3.2c0-0.5,0.9-0.8,2.6-0.8c3.1,0,5.3,0.1,6.7,0.4c1.4,0.3,2.3,0.7,2.8,1.4
		c0.5,0.7,0.7,1.5,0.6,2.6c-0.1,1.1,0,2.4,0.1,4c0.1,1.6,0.6,3.5,1.3,5.7c0.7,2.2,2.1,4.7,4.1,7.5c0.9,0.3,1.7,0.7,2.4,1.3
		c0.7,0.6,1.2,1.2,1.7,1.8c0.5,0.6,1,1.3,1.5,2.1c0,0.4-0.1,0.9-0.4,1.4v0.2v0.2v-0.2v0.2c0,0.1,0.1,0.2,0.2,0.2l-0.4,0.2l0.2-0.2
		c0-0.1-0.1-0.2-0.2-0.2c0,1.1-0.5,2.9-1.6,5.4c-1.1,2.5-2,6.2-2.8,11.2c-0.4,2.7-1.1,5.9-2,9.7c-0.9,3.8-1.4,7.5-1.4,11.1
		c0.8-1.1,1.6-2.2,2.3-3.3c0.7-1.1,1.4-2.2,2.1-3.3l0.2-0.4l0.2-0.4v-0.2l0.2-0.2l0.6-1l0.6-1.2H460l0.4-0.4l0.4-0.4
		c0.3-0.4,0.5-0.9,0.7-1.4c0.2-0.5,0.4-0.9,0.7-1.2v0.2l-0.2,0.4l0.2,0.6l0.4-0.8h0.4l-0.2-0.2l-0.4-0.4l0.2-0.2
		c0.1-0.3,0.3-0.4,0.4-0.4l-0.2,0.2h0.4v-0.4v0.2l0.2-0.2v0.6c-0.1,0-0.2,0-0.1-0.1c0.1-0.1,0-0.1-0.1-0.1c-0.1,0-0.3,0.1-0.4,0.2
		c0,0.1,0.1,0.2,0.2,0.2v-0.2c0.1,0,0.2,0.1,0.2,0.2l0.4-0.8l0.6-0.8l0.6-0.6c0.1-0.1,0.3-0.2,0.4-0.2H465l0.2-0.2H465.4z
		 M435.5,145.4h0.2h0.2H435.5z M437.3,143h-0.2l0.2,0.4v-0.2V143z M437.5,141.4l-0.2-0.2v0.2H437.5z M440.3,135.4l0.2-0.4
		L440.3,135.4z"/>
	<path fill="#FFFFFF" d="M428.5,83.3c-0.4-0.3-0.8-0.5-1.2-0.6c-0.4-0.1-0.8-0.3-1.2-0.6l0.2,0.2l1-0.2h-0.2h0.4l-0.2-0.2l0.4,0.2
		h0.4c0.3,0,0.7,0.1,1.2,0.3c0.5,0.2,0.9,0.4,1.2,0.5h-0.2h0.2c1.1,0,2.2,0.1,3.4,0.4c1.2,0.3,2.3,0.5,3.2,0.6h-0.2
		c0.1,0,0.2,0,0.2,0.1c0,0.1,0.1,0.1,0.2,0.1l-0.2-0.2h0.4c-2.9-0.5-5.6-1.2-8.1-1.9c-2.5-0.7-3.8-1.7-4.1-2.9
		c-0.1-0.5,0-0.9,0.5-1.2c0.5-0.3,0.8-0.5,1.1-0.8h0.2c0,0.1,0.1,0.2,0.3,0.2c0.2,0,0.4,0.1,0.5,0.2l0.4,0.4h-0.2
		c0.4,0.4,1.5,0.7,3.3,0.8c1.8,0.1,4.2,0.2,7.1,0.2c5.2,0,11.5-0.2,19-0.6c7.5-0.4,15.2-0.9,23.2-1.4c1.5-3.5,2.7-6.2,3.6-8.3
		c0.9-2.1,1.7-3.7,2.4-4.8c0.7-1.1,1.2-1.9,1.6-2.2c0.4-0.3,0.9-0.5,1.4-0.5c1.6,0,3.1,0.6,4.4,1.8c1.3,1.2,2.1,2.1,2.2,2.8
		c0.1,0.9-0.2,2.2-1.1,3.9c-0.9,1.7-1.9,3.8-3.1,6.5c4.2-0.3,7.7-0.4,10.5-0.5c2.7-0.1,5.7-0.1,8.9-0.1c2.3,0,4.5,0,6.9,0.1
		c2.3,0.1,4.5,0.2,6.5,0.5c2,0.3,3.7,0.6,5.2,1.1c1.5,0.5,2.5,1,3.2,1.7l-0.4,0.4l0.6-0.4c0.1,0.1,0.2,0.3,0.2,0.6
		c0.4,0.7,0,1.1-1.2,1.4c-0.7-0.3-1.5-0.5-2.4-0.6c-0.9-0.1-2.1-0.2-3.4-0.2c-2.4,0-5.2,0.2-8.4,0.6l1.2-0.2l-0.4,0.2h0.4h0.2
		l0.4-0.2v0.2h2.8l0.2,0.2l0.6-0.2h2c1.1,0.1,2.2,0.3,3.5,0.5c1.3,0.2,2.1,0.4,2.5,0.5h-0.8h0.2h-0.2h-0.6l-0.4,0.2l-1.2,0.2
		l0.4-0.2h-0.6c-0.1,0.1-0.3,0.3-0.6,0.4v-0.2c-0.3,0-0.4,0-0.4,0.1c0,0.1-0.1,0.1-0.4,0.1l-1.8-0.2l-0.2-0.8l-1,0.6l-0.2,0.4h-1.6
		l0.2-0.2h0.4l0.4-0.2l0.4-0.8l-1.2,0.4l-0.8,0.2l-0.2,0.2c-0.4,0-0.7,0.1-0.8,0.4h-0.8l0.2-0.2l0.2-0.6h-1l-1-0.4l0.2,1l0.2,0.2
		h0.2h-0.6l0.2-0.2l-0.2,0.2l-0.2-0.2l0.2,0.2c0-0.1-0.3-0.1-1,0.1c-0.7,0.2-1.2,0.3-1.6,0.3c-0.3,0-0.5,0-0.7-0.1
		c-0.2-0.1-0.4-0.1-0.5-0.1l-0.2-0.4l0.4,0.2c0,0.1,0.1,0.2,0.2,0.2h0.4h0.4l-0.2-0.2l0.6-0.4l-0.2-0.2l-0.4-0.2l-0.4,0.2l-0.8,0.2
		l-0.2-0.2h-0.8l0.8-0.2h0.4l0.4-0.4c-0.3,0-0.5,0-0.8,0.1c-0.3,0.1-0.5,0.1-0.8,0.1l-0.4,0.8c0,0.1,0.1,0.2,0.2,0.2l0.4,0.2h-2
		c-0.7,0.3-1.3,0.4-2,0.3c-0.7-0.1-1.3,0-2,0.3l-0.2-0.2c-0.7,0.3-1.4,0.4-2.1,0.3c-0.7-0.1-1.4,0-2.1,0.1v-0.2
		c-2.7,0.5-5.3,1.1-7.9,1.6c-2.6,0.5-5,1-7.3,1.4c-0.7,1.6-1.8,4.7-3.5,9.4c-1.7,4.7-3.3,10-5,16c-1.7,6-3.1,12.4-4.4,19
		c-1.3,6.6-1.9,12.8-1.9,18.5c0,1.3,0.2,2.7,0.6,4.1c0.4,1.4,0.7,2.8,1,4.1v0.2l-0.2-0.2v0.2c0.1,0.1,0.3,0.2,0.6,0.2
		c2.1,0,4.3-1.2,6.5-3.6c2.2-2.4,3.8-4.8,4.9-7.4c-0.1-0.4-0.1-0.7,0.2-1v-0.4l0.2-0.2c-0.1-0.1-0.2-0.2-0.2-0.1
		c0,0.1-0.1,0-0.2-0.1l0.6-0.8v-1l0.2-0.4l0.4-0.2h-0.2c0.1-0.4,0.3-0.8,0.4-1.1c0.1-0.3,0.2-0.6,0.2-0.9l0.4,0.2l-0.2,0.2l0.4,0.6
		l0.4-0.4l0.2-0.6V140l0.2-0.2l0.4-0.8l-0.2-0.2l0.4-0.6c0-0.1,0.1-0.3,0.4-0.6l0.2-0.2l-0.2-0.2h0.2c0.8,0,1.3,0.1,1.6,0.4
		l-0.4,0.8c0,0.1,0.1,0.2,0.2,0.2l0.2,0.2c0,0.1-0.1,0.2-0.2,0.2h-0.2l0.4,0.4c0,0.1-0.1,0.2-0.2,0.2c-0.1,0-0.2,0.1-0.2,0.2
		c0,0.1,0,0.2,0.1,0.3c0.1,0.1,0.1,0.2,0.1,0.3v0.2l-0.2,1c0.1,0.3,0.1,0.4,0,0.3c-0.1-0.1-0.1,0,0,0.1l0.2,0.2l-0.2,0.4v0.6
		c-0.3,0-0.4,0.1-0.4,0.2l0.4,0.2v1.4c-0.3,1.1-0.7,2.8-1.2,5.1c-0.5,2.3-1.4,4.7-2.6,7.1c-1.2,2.4-2.8,4.5-4.7,6.3
		c-1.9,1.8-4.4,2.7-7.3,2.7c-2.4,0-4.4-0.6-6.1-1.7c-1.7-1.1-3-2.6-4-4.4c-1-1.8-1.7-3.9-2.1-6.2c-0.4-2.3-0.5-4.7-0.4-7.1
		c0.3-6.8,0.9-13.1,1.9-19.1c1-6,2.2-11.5,3.5-16.6c1.3-5.1,2.7-9.7,4-13.6c1.3-4,2.5-7.3,3.6-10c-0.5,0.1-1.5,0.2-2.8,0.2
		c-3.1,0-6.8-0.3-11.4-0.8c-4.5-0.5-9-0.8-13.5-0.8l-0.6-0.2h-0.4h-0.2l-0.4-0.2c0,0.1-0.3,0.2-0.8,0.2h-0.8h-0.8l-2.2-0.2l-0.4,0.2
		c-0.8,0-1.6,0-2.5-0.1c-0.9-0.1-1.8-0.2-2.7-0.3h-0.2h-1l0.2-0.2h-0.4v0.2h-0.4l-1.6-0.6h-0.8L428.5,83.3z M431.5,83.3v-0.2h-0.2
		L431.5,83.3z M434.5,84.2l-0.2-0.2v0.2H434.5z M437.9,84.6h-0.2h-0.4l-0.2,0.4h0.6l0.2-0.2V84.6z M441.5,84.6c0,0.1,0.1,0.1,0.2,0
		H441.5z M509.8,82.1h0.4l0.4-0.4c-0.1,0.1-0.4,0.2-0.8,0.2V82.1z M520.9,81.5v0.2l0.2-0.2H520.9z M521.1,80.9h0.2h0.2h-0.2H521.1z"
		/>
</g>
</svg>
