<?xml version="1.0" encoding="utf-8"?>
<!-- Generator: Adobe Illustrator 18.1.1, SVG Export Plug-In . SVG Version: 6.00 Build 0)  -->
<svg version="1.1" id="Layer_1" xmlns="http://www.w3.org/2000/svg" xmlns:xlink="http://www.w3.org/1999/xlink" x="0px" y="0px"
	 viewBox="0 0 576 230.4" enable-background="new 0 0 576 230.4" xml:space="preserve">
<g>
	<path fill="#7B54A2" d="M218.3,32.7c2.2,1.4,4,2.6,5.6,3.7c1.6,1.1,2.3,2,2.3,2.8v0.2c-3.6,4.2-7.1,9.1-10.6,14.7
		c-3.5,5.6-6.9,11.6-10.2,18.1c-3.3,6.5-6.3,13.3-9.2,20.4c-2.9,7.2-5.4,14.3-7.6,21.5c0.9-0.6,1.8-1.2,2.5-1.6
		c0.7-0.5,1.2-0.7,1.5-0.7c0.5,0,1.3,0.5,2.6,1.5c1.2,1,2.5,2.2,3.7,3.5c1.2,1.3,2.4,2.6,3.4,3.9c1,1.2,1.5,2,1.5,2.3
		c0,0.5-0.5,1-1.4,1.6c-0.9,0.6-2,1.3-3.3,2c-1.2,0.7-2.5,1.4-3.9,2c-1.3,0.6-2.3,1.1-2.9,1.4l-0.2,0.2l-1.9,0.7l0.2-0.2
		c0.2-0.2,0.3-0.2,0.5-0.2c-0.3,0.2-0.8,0.3-1.4,0.5c-0.6,0.2-0.9,0.4-0.9,0.7l-0.9,0.5v-0.2v-0.5l-2.1,0.7l0.2,0.2l0.2,0.2h0.2
		l-0.7,0.2l0.2-0.5c-0.2,0.2-0.2,0.2-0.2,0.1c0-0.1-0.1,0-0.2,0.1l-0.5,0.2c-0.5,0-0.9,1.4-1.3,4.1c-0.4,2.7-0.7,5.8-1.1,9.2
		c-0.3,3.4-0.6,6.7-0.8,9.8c-0.2,3.1-0.3,5.1-0.3,5.8l-0.2,0.9v0.9v0.9c0-0.3,0-0.2,0,0.2c0,0.5,0.1,0.7,0.2,0.7v1.4v0.7h-0.2
		l0.2,0.5h-0.2l0.2,3.3l-0.2,0.2l0.2,0.5c0.2,1.2,0.2,2.5,0.2,3.9c0,1.3,0.1,2.6,0.2,3.9v0.2l0.2,1.4h-0.2l0.2,0.2l0.2,0.7v2.6
		l0.2,2.1c0,0.6,0.1,1.1,0.2,1.4v1.4l0.5,0.7c0.2,1.9,0.5,3.8,1.2,5.8l-0.2-0.5l-0.9-0.9v0.2l-0.2-0.5v0.2l-0.2-0.5
		c-0.3-0.5-0.5-1.1-0.7-1.9c-0.2-0.8-0.3-1.6-0.5-2.3h0.2c-0.5-0.3-0.8-1-0.9-2.1c-0.2-1.1-0.2-1.9-0.2-2.3v-0.5
		c-0.2-0.9-0.3-1.8-0.5-2.7c-0.2-0.9-0.3-1.8-0.5-2.9l0.2,0.5V180v-0.2v-0.2v0.2c-0.2,0-0.3-0.5-0.4-1.4c-0.1-0.9-0.2-1.7-0.3-2.3
		h0.2c-0.2-0.5-0.2-1.4-0.2-2.8l0.2-0.5c-0.2-0.2-0.3-0.7-0.5-1.6c0-0.3,0-0.7,0-1.1c0-0.4,0.1-0.7,0.2-1.1
		c-0.2-0.9-0.2-1.9-0.2-2.8s0-1.9,0-3c-0.2,1.6-0.2,3-0.2,4.4c0,1.4,0,2.8,0,4.2c0,8.9,0.6,15.6,1.9,20.1c1.2,4.5,1.9,6.6,1.9,6.3
		c0,0.2-0.1,0.4-0.2,0.8c-0.2,0.4-0.5,0.6-1.2,0.6c-1.1,0-2.1-1.1-3-3.4c-0.9-2.3-1.8-5.3-2.5-9.1c-0.7-3.8-1.3-8.1-1.8-13
		c-0.5-4.8-0.7-9.8-0.7-14.9c0-4,0.1-8.1,0.3-12.3c0.2-4.1,0.7-8.4,1.3-12.7h-3.5l-0.2-0.2h-0.9c-0.8,0-1.6-0.1-2.3-0.2
		c-0.8-0.2-1.6-0.2-2.3-0.2l0.2-0.2l-0.5-0.2l1.2,0.2l-0.7-0.5c-0.3,0-0.5-0.1-0.7-0.2l-0.2,0.2l-0.2,0.2l0.5,0.2
		c-0.8,0-1.6-0.2-2.3-0.7c-0.8-0.5-1.9-0.7-3.5-0.7v0.2c-0.5-0.3-1-0.5-1.6-0.6c-0.6-0.1-1.1-0.3-1.4-0.6c0,0.2,0,0.2-0.1,0.1
		c-0.1-0.1-0.1,0-0.1,0.1c-0.3-0.2-0.8-0.4-1.4-0.7c-0.6-0.3-0.9-0.4-0.9-0.2V130c-0.6,0-1.2-0.2-1.6-0.5c-0.5,0.6-1.1,1.5-1.8,2.6
		c-0.7,1.1-1.4,2.1-2,3.2c-0.6,1-1.5,2.3-2.6,3.9c-0.5,0.9-1.2,2.1-2.1,3.4c-0.9,1.3-1.8,2.5-2.6,3.6v-0.5c-0.3,0.3-0.5,0.6-0.5,0.9
		c0,0.3-0.2,0.5-0.5,0.5c0,0.2-0.1,0.2-0.2,0.2c0,0.2,0.1,0.2,0.2,0.2v-0.2c-0.8,1.2-1.6,2.5-2.5,3.9c-0.9,1.3-1.8,2.6-2.9,3.9
		l-0.2-1.2c0.5-0.5,0.7-0.8,0.7-0.9c-0.9,1.1-1.8,2.1-2.7,3c-0.9,0.9-1.8,1.9-2.7,3l-0.5,0.5c-0.3,0.2-0.7,0.5-1.2,1.2
		c-0.5,0.6-0.7,1.1-0.7,1.4l0.2,0.7l2.3-3.5l-0.5,0.2l1.2-0.9c-0.3,0.3-0.2,0.2,0.5-0.3c0.6-0.5,0.9-1.1,0.9-1.5l2.6-1.6l-0.9,1.2
		c-0.5,0.6-0.9,0.9-1.2,0.9l-0.2,0.5h0.2l-0.5,0.2v0.2l-0.2,0.5l-0.5,0.2l-0.5,0.7l-0.7,0.7c-0.3,0.5-0.7,0.9-1.1,1.4
		c-0.4,0.5-0.7,0.9-1.1,1.2c-2.3,3.1-4.9,6.2-7.8,9.2c-2.9,3-6.1,5.8-9.6,8.3c-3.5,2.5-7.2,4.5-11.1,6.1c-3.9,1.6-7.9,2.3-12.1,2.3
		c-1.1,0-2-0.1-2.8-0.3c-0.8-0.2-1.4-0.4-1.9-0.4h-0.5v-0.2h-1.4h-0.2c-0.2,0-0.4,0-0.7-0.1c-0.3-0.1-0.5-0.1-0.7-0.1l-1.6-0.7
		l-1.2-0.2l-0.9-0.2c-0.8-0.3-1.6-0.6-2.3-0.9c-0.8-0.3-1.6-0.7-2.3-1.2l-0.9-0.5c-1.7-0.8-3.3-1.8-4.9-3.2c-1.6-1.3-3-2.7-4.4-4.1
		l-0.5-0.5l-1.4-1.4h0.2l-0.5-0.5l-0.7-0.7V173l-2.3-3.3c-0.3-0.3-0.8-1-1.4-2c-0.6-1-0.9-1.9-0.9-2.7h0.2l-0.7-1.9l-0.7-1.4
		c-0.2-1.2-0.3-2.6-0.6-4c-0.2-1.4-0.3-2.7-0.3-4c0-0.9,0.1-1.6,0.2-2.1l-0.2,0.9v0.9l0.7,1.6V155l0.5,0.7l-0.2-0.2l0.5,0.7h-0.2
		c0.3,0.9,0.5,2,0.7,3.2c0.2,1.2,0.5,2.1,0.9,2.9h-0.2c0.3,0.3,0.6,0.8,0.8,1.4c0.2,0.6,0.5,1.1,0.8,1.4c0.8,2.3,1.8,4.3,3,5.8
		c1.2,1.6,2.5,3,3.7,4.2h-0.5c0.3,0.2,0.4,0.2,0.3,0.2c-0.1,0,0,0.1,0.4,0.2h-0.2c0.5,0,1.1,0.4,2,1.3c0.9,0.9,1.6,1.4,2.2,1.8v0.2
		c0.5,0.3,1.1,0.8,1.9,1.4c0.8,0.6,1.5,1.1,2.1,1.4c0.3,0.2,1.9,0.9,4.8,2.2c2.9,1.3,6,2,9.2,2l0.2,0.2c0.3,0,0.7,0,1.2,0.1
		c0.5,0.1,0.9,0.1,1.2,0.1c1.2,0,2.5-0.1,3.7-0.2c1.2-0.2,2.3-0.4,3.3-0.7v0.5c0.9,0,1.4-0.2,1.4-0.7c1.7-0.3,3.1-0.7,4.2-1.3
		c1.1-0.5,2.2-1.1,3.3-1.8l-0.2,0.2h0.2c-0.2,0,0-0.1,0.5-0.3c0.5-0.2,0.8-0.4,0.9-0.6l-0.5,0.7l2.6-1.4l-0.2-0.2l0.7-0.2l-0.7,0.2
		v-0.2c1.1-0.6,2.3-1.4,3.6-2.3c1.3-0.9,2.4-1.9,3.2-2.8c0.2,0,0.2,0,0.1,0.1c-0.1,0.1,0,0.1,0.1,0.1l0.2-0.2v-0.2
		c0-0.2,0.2-0.4,0.7-0.8c0.5-0.4,1.1-0.9,1.7-1.4c0.7-0.5,1.3-1.1,1.9-1.5c0.5-0.5,1-0.9,1.3-1.2l3.5-3.7
		c-4.4,4.5-9.6,8.4-15.6,11.6c-6.1,3.2-11.7,4.9-17,5c-6.1,0-11.5-1.6-16.3-4.7c-4.8-3.1-8.5-6.4-11-9.8c-1.2-1.7-2.8-3.9-4.8-6.7
		c-1.9-2.7-3.7-6.3-5.3-10.9v1.2v-0.5c0-0.2-0.1-0.3-0.2-0.5l-0.7-0.5c0.3-0.3,0.4-0.6,0.4-0.8c-0.1-0.2-0.1-0.5-0.1-0.8
		c-0.8-2.8-1.5-5.8-2.1-9.1c-0.6-3.3-0.9-6.7-0.9-10.3c0-5.9,1-12.3,3-19.1c2-6.8,5.2-13.1,9.6-18.9c4.4-5.8,9.9-10.5,16.7-14.4
		c6.8-3.8,14.9-5.7,24.4-5.7c4.2,0,8.4,0.7,12.6,2c4.2,1.3,8.1,3.3,11.6,5.8c3.5,2.6,6.3,5.8,8.5,9.6c2.2,3.8,3.3,8.3,3.3,13.4
		c0,0.8,0,1.6-0.1,2.3c-0.1,0.8-0.2,1.6-0.3,2.3c1.7,1.2,3.4,2.4,5,3.6c1.6,1.2,3.5,2.2,5.5,3.2c3.6-7.5,7.1-14.7,10.6-21.8
		c3.5-7.1,7-13.8,10.6-20.2c3.3-6.1,6.6-11.5,10-16.3c3.4-4.8,6.7-8.9,9.7-12.3c3-3.3,5.6-6,7.8-7.8c2.2-1.9,3.7-2.8,4.4-2.8
		c0.8,0,1.6,0.4,2.6,1.1c0.9,0.7,2.1,2.1,3.5,4.3c1.4-2,2.5-3.7,3.4-5c0.9-1.3,1.8-2,2.7-2C214.7,30.8,216.3,31.5,218.3,32.7z
		 M131.5,141.7c1.9-2.6,3.7-5.4,5.5-8.3c1.8-2.9,3.5-5.8,5.3-8.8l-1.4-0.7c-0.5-0.3-1.1-0.7-1.8-1.3c-0.7-0.5-1.4-1.1-2.2-1.5h0.2
		c0-0.2-0.1-0.2-0.3-0.2c-0.2,0-0.3-0.2-0.3-0.5h-0.2c0,0.2,0.1,0.2,0.2,0.2l-3.5-2.8c-0.5,0.6-0.9,1.2-1.4,1.6
		c-0.5,0.5-0.9,0.9-1.2,1.4c-1.1,1.2-2.8,2.9-5.3,4.9c-2.4,2-6.3,3-11.6,3c-1.9,0-3.8-0.2-5.7-0.7c-1.9-0.5-3.7-1.2-5.4-2.3
		c-1.6-1.1-3-2.6-4.1-4.4c-1.1-1.9-1.6-4.1-1.6-6.8c0-2.2,0.5-4.3,1.4-6.3c0.9-2,2.2-3.9,3.9-5.5c1.6-1.6,3.5-3,5.7-4
		c2.2-1,4.6-1.5,7.2-1.5c1.9,0,3.7,0.2,5.4,0.6c1.7,0.4,3.3,0.9,4.7,1.5c-1.7-5-4.6-8.9-8.8-11.8c-4.1-2.9-9.9-4.3-17.4-4.3
		c-0.6,0-1.6,0.1-2.9,0.2c-1.3,0.2-2.7,0.3-4.2,0.6c-1.5,0.2-2.8,0.5-4.1,0.8c-1.2,0.3-2,0.7-2.3,1.2c-0.3,0.3-0.5,0.5-0.7,0.5v-0.2
		c-0.3,0.3-1.1,0.8-2.2,1.4c-1.2,0.6-2.1,1.1-2.9,1.4l0.2-0.5L79,89.4h-0.2l-0.2,0.2h0.2c-0.8,0.6-1.6,1.3-2.3,2
		c-0.8,0.7-1.5,1.4-2.1,2.2l-0.5-0.7c0.2-0.3,0.3-0.5,0.5-0.6c0.2-0.1,0.2-0.2,0.2-0.3V92v-0.5L73.9,92c-0.2,0.2-0.2,0.2-0.2,0.1
		c0-0.1-0.1,0-0.2,0.3l-0.2,0.2l1.2-1.2l0.2-0.5c-0.6,0.6-1.1,1-1.4,1.2l-0.2,0.5l-0.2-0.2c0,0.2,0,0.2-0.1,0.2
		c-0.1,0-0.1,0.1-0.1,0.2c-3.3,2.5-6,5.4-8.3,8.9c-2.3,3.4-4.1,7-5.5,10.7c-1.4,3.7-2.4,7.4-3,11.1c-0.6,3.7-0.9,6.9-0.9,9.7
		c0,5.4,0.6,10.4,1.7,14.8c1.2,4.4,2.8,8.2,4.8,11.3c0-1.2-0.5-2.8-1.5-4.6c-1-1.8-1.7-3.2-2-4.3l0.5,0.2c-0.2-0.2-0.2-0.2-0.1-0.2
		c0.1,0,0-0.2-0.1-0.5v0.2c-0.2,0-0.3-0.4-0.6-1.3c-0.2-0.9-0.4-1.7-0.6-2.4h0.2c-0.3-0.5-0.5-1.4-0.5-2.8v-0.5
		c-0.5-1.4-0.7-3.1-0.7-5c0-1.9,0-3.9,0-5.7l0.2-0.2c0-1.2,0.1-2.5,0.2-3.7c0.2-1.2,0.3-2.3,0.5-3.3l0.2,0.2c0-0.2,0-0.3,0.1-0.3
		c0.1-0.1,0.1-0.2,0.1-0.4c0-0.2-0.1-0.3-0.2-0.5c0.2-0.5,0.2-1.2,0-2.3c-0.2-1.1,0.4-2.3,1.6-3.5l0.2-0.9l0.2,0.7l0.5-1.6l-0.2-0.5
		l0.2-0.5l-0.5,0.5c0.3-1.2,0.7-2.3,1.1-3.3c0.4-0.9,0.7-1.8,1.1-2.6c0-1.4,0.6-3,1.9-4.8c1.2-1.8,2.3-3.3,3-4.6l0.5,0.5
		c0.2,0,0.5-0.3,1.2-0.9l0.7-0.9l-0.2-0.2L68,99.2l-0.2-0.5l-0.7,0.9l-0.5,0.7l1.6-2.6c0.2-0.3,0.3-0.7,0.6-1.1
		c0.2-0.4,0.5-0.7,0.8-1.1c0.3-0.3,0.6-0.5,0.9-0.7c0.2-0.3,0.4-0.7,0.8-1.1c0.4-0.4,0.7-0.7,1.1-1.1L72,94.3
		c-0.3,0-0.6,0.2-0.8,0.7c-0.2,0.5-0.4,0.6-0.4,0.5l-0.7,1.2h-0.5l-0.5,0.7l-0.5,0.9l0.2,0.2l0.2,0.7l1.4-2.6h-0.5l0.9-0.5l0.7-0.7
		c0.3-0.3,0.5-0.5,0.5-0.7l0.5-0.5l1.6-0.2l-0.7,0.7c-0.3,0.3-0.6,0.5-0.9,0.5l-0.2,0.2l-0.2,0.2v0.2v-0.2l-0.5,0.5l-0.2,0.7
		l-0.5,0.5c-3.6,5.3-6.5,10.9-8.6,16.7c-2.2,5.8-3.5,11.8-4,17.9l-0.5,0.9c0,0.6,0.1,0.9,0.2,0.9l-0.2,0.9c0.2-0.2,0.2,0,0.1,0.4
		c-0.1,0.4,0,0.7,0.1,0.8v1.4v1.2v-0.2l0.2,3.5v0.7c0.2,1.2,0.3,2.5,0.6,3.9c0.2,1.3,0.5,2.6,0.8,3.9l0.2,1.2l0.2,0.7l0.2,0.2
		l0.2,0.5l-0.2,0.2c0.2,0.6,0.4,1.4,0.7,2.3l0.9,1.9c0,0.3,0.2,0.8,0.5,1.4l0.5,1.2l-0.2,0.2l0.7,0.9v-0.2c1.2,3,2.6,5.1,4.2,6.5
		c2.2,2.2,5.1,4.3,8.6,6.3c3.6,2,7.1,3,10.5,3c3.7,0,7.6-0.9,11.6-2.8c4-1.9,7.9-4.4,11.7-7.6c3.8-3.2,7.5-6.9,11.2-11.1
		C125,150.8,128.4,146.4,131.5,141.7z M54.7,164.3c0.2,0,0.2,0.2,0.2,0.5v-0.2v0.2L54.7,164.3z M56.4,130.5l0.2,0.2v-0.2H56.4z
		 M56.8,140.5v0.2l0.2-0.2H56.8z M56.8,168.5c0,0.2,0.1,0.2,0.2,0.2v0.2L56.8,168.5z M58.2,149.6v0.5v-0.2V149.6z M58.7,150.3
		l-0.2-0.2v-0.2C58.5,150,58.5,150.2,58.7,150.3z M58.7,149.4l0.2,0.5l0.5,0.5l-0.5-0.9l-0.2-0.2V149.4z M59.4,154.1
		c0-0.2,0-0.3-0.1-0.3c-0.1-0.1-0.1-0.2-0.1-0.3l-0.2-0.2L59.4,154.1z M60.1,117.9l0.2-0.7l-0.5-0.5l-0.5,1.2l-0.2,1.2h0.7l0.5-1.2
		H60.1z M59.4,120.5v0.2v1.4l0.2-1.2l0.2-0.2v-1.4L59.4,120.5z M60.8,157.8v0.5c0.2,0,0.2-0.2,0.2-0.5H60.8z M61.5,159.2
		c0-0.2-0.1-0.2-0.2-0.2v0.2H61.5z M62.4,177.2l0.2-0.2l-0.5-0.7l-0.9-0.2l0.9,0.9l0.5,0.2H62.4z M61.7,175.8l0.5,0.5v-0.5H61.7z
		 M63.6,106l-0.5,1.6h-0.5l-0.2,0.9c-0.2,0.2-0.2,0.4-0.2,0.7c0,0.3,0.1,0.5,0.2,0.5l0.5-0.5l0.2-0.5l0.7-1.4h-0.5l0.5-0.2
		c0,0.2,0.1,0,0.3-0.3c0.2-0.4,0.4-0.7,0.6-1.1h-0.2v-0.9h-0.5l-0.5,0.7c0,0.3-0.1,0.5-0.2,0.5v0.2L63.6,106z M62.9,176.5
		c0-0.3-0.2-0.5-0.5-0.5L62.9,176.5z M65.9,165.5l0.5,0.5l0.2,0.2L65.9,165.5z M69.4,181.8c0,0.2,0.1,0.2,0.2,0.2
		c0.2,0,0.3,0.1,0.5,0.2C70.1,182,69.9,181.8,69.4,181.8z M70.1,182.1v-0.2l-0.2-0.2l0.2,0.2V182.1z M73.2,183.9
		c0,0.2,0.1,0.2,0.2,0.2v-0.2H73.2z M76.7,90.6l0.2,0.2v-0.2H76.7z M87.2,186.5l-0.2-0.2v0.2H87.2z M103.3,183.5l-1.6,0.9
		c-0.2,0-0.3,0.1-0.5,0.2h-0.2l-1.2,0.7l1.6-0.5l0.7-0.5L103.3,183.5z M104.9,182.5l1.2-0.7l-0.2-0.7l-2.8,1.6l0.7,0.5l1.4-0.7
		H104.9z M104.4,109.9c0-0.3,0.2-0.6,0.5-0.9C104.6,109.3,104.4,109.6,104.4,109.9z M104.9,109c0.6-0.9,1.3-1.6,2.1-2.1
		C106.2,107.4,105.5,108.1,104.9,109z M112.1,122.1l0.2,0.2l0.5-0.2v0.2c4.2-0.2,7.3-1.3,9.2-3.4c1.9-2.1,3.3-4.2,4.1-6.2
		c-2-1.4-4.2-2.7-6.7-3.9c-2.4-1.2-4.6-1.8-6.7-1.8c-1.6,0-2.9,0.5-4.1,1.4c-1.2,0.9-2.1,2.1-2.9,3.5l-0.5,0.5c0,0.2,0,0.3-0.1,0.3
		c-0.1,0.1-0.1,0.2-0.1,0.3h0.2l-0.2,0.7v0.2v0.5l0.2,0.9v0.9v-0.2v0.2c0,0.3,0.1,0.7,0.3,1.1c0.2,0.4,0.4,0.7,0.6,1.1l0.2,0.5v-0.2
		c1.4,1.6,2.9,2.6,4.4,3l0.7,0.2H112.1z M107,107.1c0.5-0.2,0.7-0.5,0.7-0.9l-0.7,0.7V107.1z M108.9,105.7c0.2-0.2,0.3-0.2,0.4-0.2
		c0.1,0,0.2-0.1,0.3-0.2C109.6,105.1,109.3,105.3,108.9,105.7z M111.2,106.7h0.2l0.9-0.5h-0.9l-0.9,0.7L111.2,106.7z M123.6,108.3
		c0.2,0.3,0.4,0.5,0.7,0.6c0.3,0.1,0.6,0.2,0.9,0.3c-1.7-1.2-3.5-2.3-5.5-3.3c-1.9-0.9-4-1.4-6.2-1.4c-0.3,0.2-0.7,0.2-1.2,0.2h0.5
		h0.7l-0.5,0.5h1.2l0.5-0.2l0.2,0.2l-0.2-0.5c1.1,0,1.9,0.2,2.3,0.5c0-0.2,0-0.2,0.1-0.1c0.1,0.1,0.1,0,0.1-0.1
		c0.5,0.3,0.9,0.5,1.3,0.7c0.4,0.2,0.7,0.3,1.1,0.5c0,0.2,0.1,0.2,0.2,0.2c0.2,0,0.2,0,0.1-0.1c-0.1-0.1,0-0.1,0.1-0.1
		c0.8,0.3,1.4,0.7,1.9,1.1c0.5,0.4,0.9,0.7,1.4,1.1l-0.2-0.2h-0.2l0.2,0.2l-1.2-0.5v-0.5l-0.7-0.2c-0.2,0-0.3,0-0.3-0.1
		c-0.1-0.1-0.2-0.1-0.4-0.1c-0.3,0-0.5,0.1-0.5,0.2l0.5,0.5l0.2,0.2l1.2,0.7v-0.5l0.2,0.2c0,0.3,0.2,0.5,0.5,0.7l0.5,0.2V109
		l0.7,0.2l0.2-0.5L123.6,108.3z M113.5,106l0.7,0.2v-0.7h-1.9l0.2,0.5h0.7l0.2,0.2V106z M120.1,169.7l-0.2-0.2l-0.5,0.2l-0.7,0.5
		l-0.7,0.7h0.2l-1.4,1.6l-1.4,0.9c-0.6,0.6-0.9,1.1-0.9,1.4h0.2c0.2,0,0.3-0.1,0.5-0.2l0.7-0.5l1.9-1.6H117l0.7-0.5v0.2
		c0.3,0,0.6-0.2,0.9-0.6c0.3-0.4,0.6-0.7,0.9-1.1h-0.5l0.7-0.7L120.1,169.7z M126.6,163.6l-0.2-0.7v-0.2v-0.2l-2.8,2.8l0.5,0.5
		c0.2,0,0.3-0.1,0.5-0.2c0.2-0.2,0.3-0.3,0.5-0.3c0.2-0.1,0.4-0.3,0.7-0.6L126.6,163.6z M133.8,116.5c-0.3,0.3-0.5,0.5-0.5,0.7
		c0.2,0.2,0.3,0.2,0.5,0.2l0.5-0.2l-0.5-0.5V116.5z M134.1,116.3c-0.2,0-0.2,0.1-0.2,0.2l0.5,0.5l0.2,0.2l1.6,0.7l0.2,0.2
		c-0.3-0.3-0.7-0.6-1.2-0.9C134.8,116.9,134.4,116.6,134.1,116.3z M136.6,119.1l1.6,2.1l1.2-0.7c-0.2,0-0.2-0.1-0.2-0.2l-1.2-0.5
		L136.6,119.1z M140.1,122.6c0,0.2,0.1,0.2,0.2,0.2L140.1,122.6h0.2H140.1z M140.8,123.3l0.2,0.2v-0.2l-0.2-0.2V123.3z M141.1,121.6
		c0,0.2,0.1,0.2,0.2,0.2L141.1,121.6z M155.5,130c-1.2-0.6-2.3-1.1-3-1.4v0.2l0.2,0.2l0.5,0.2l0.5,0.5h0.5l0.2,0.2h0.7l-0.2-0.2h0.2
		C155.2,129.9,155.4,130,155.5,130z M157.6,130.7l-0.9-0.5c0.2,0.2,0.3,0.2,0.5,0.2C157.3,130.5,157.5,130.6,157.6,130.7z
		 M179.1,112c2.2-10.3,4.9-20.2,8.3-29.8c3.3-9.6,6.8-18.1,10.4-25.6c-6.8,7.8-13.3,17.1-19.4,27.9c-6.1,10.8-12.5,22-19.4,33.5
		c2,0.6,4,1.1,6.1,1.3c2,0.2,3.9,0.3,5.6,0.3c2.2,0,3.8-0.2,4.8-0.5c1-0.3,1.7-0.8,2.1-1.5c0.4-0.7,0.6-1.5,0.7-2.4
		C178.4,114.4,178.6,113.3,179.1,112z M160.7,132.4l-0.5-0.5h-0.5h-0.5l0.2-0.5l0.2-0.2c0.2,0.3,0.3,0.4,0.6,0.2
		c0.2-0.2,0.4-0.1,0.4,0.2V132.4z M167.9,133.3v-0.2H167v0.5L167.9,133.3h-0.2H167.9z M179.3,162.5c-0.2-0.2-0.2-0.4-0.2-0.7v0.7
		H179.3z M179.6,155.9c0.2-0.2,0.2-0.3,0.2-0.5L179.6,155.9z M180.3,172.7v-0.2l-0.2,0.2c0,0.2,0,0.2,0.1,0.2c0.1,0,0.1,0.1,0.1,0.2
		V172.7z M180.7,179.7c0-0.2-0.1-0.3-0.2-0.5v0.2L180.7,179.7z M180.5,182.3v0.5c0,0.2,0,0.3,0.1,0.3c0.1,0.1,0.1,0.2,0.1,0.4
		L180.5,182.3z M181.4,147.3l-0.5-0.2l-0.2,2.3l0.7-0.2v-0.9V147.3z M181,178.6h-0.2v0.7l0.5,0.5v-1.2H181z M181,185.6l-0.2-0.5v0.2
		L181,185.6z M181.4,150.8v-1.4l-0.2,1.4l-0.2,1.4l0.5-1.2V150.8z M181.2,187.2v0.5l0.2-0.5H181.2z M181.4,188.8v-0.2v-0.2V188.8z"
		/>
	<path fill="#7B54A2" d="M232.5,140.8c0.3,0,0.5,0.1,0.8,0.2c0.3,0.1,0.4,0.3,0.4,0.6c0,0.1-0.1,0.2-0.2,0.3
		c-0.1,0.1-0.3,0.2-0.4,0.5c0,0.1,0,0.2,0.1,0.3c0.1,0.1,0.1,0.2,0.1,0.3l-0.4,0.2v0.4c0,0.1-0.1,0.2-0.3,0.3
		c-0.2,0.1-0.3,0.2-0.3,0.5c0,0.1,0,0.2,0.1,0.3c0.1,0.1,0.1,0.2,0.1,0.3h-0.4l0.2,0.4l-0.4,1c0,0.1-0.1,0.2-0.2,0.2h-0.2
		c0,0.1,0,0.2,0.1,0.3c0.1,0.1,0.1,0.2,0.1,0.3l-0.4,0.4l-0.2,0.8c0,0.1-0.1,0.2-0.2,0.2h-0.2c0,0.1,0.1,0.3,0.2,0.4l-0.6,1.8
		c-0.5,1.1-1,2.2-1.5,3.4c-0.5,1.2-1,2.5-1.7,4c-0.3,0.4-0.5,1-0.8,1.8c-0.3,0.8-0.7,1.6-1.2,2.5c-0.5,0.9-1.2,1.6-2.1,2.2
		c-0.9,0.6-2,0.9-3.5,0.9c-2,0-3.4-0.6-4.3-1.9c-0.9-1.3-1.4-2.7-1.7-4.3c-0.3-1.6-0.3-3.1-0.2-4.6c0.1-1.5,0.2-2.4,0.2-2.8
		c0-3.2,0.2-6.4,0.5-9.8c0.3-3.3,0.8-6.5,1.4-9.6c0.6-3.1,1.2-5.9,1.9-8.5c0.7-2.6,1.3-4.7,2-6.5c-1.5-0.7-3.1-1.9-5-3.6
		c-1.7,5.2-3.1,9.5-4.2,13c-1.1,3.5-2.3,7.3-3.8,11.3l-0.2,0.2l-0.2,0.2h0.2L206,139v0.2v0.2l-0.2,0.6h0.2l-0.2,0.2l-0.2,1.2
		c-0.3,0.8-0.5,1.5-0.8,2.2v0.4l-0.2,0.2l0.2,0.2h-0.2l-0.4,0.8l-0.4,0.8h0.2l-0.4,0.4l-0.2,0.2c-0.1,0.3-0.3,0.6-0.4,0.9
		c-0.1,0.3-0.3,0.6-0.4,0.9h-0.2h0.2V148l-0.4-0.6l-0.2,0.2l0.2-0.2c0-0.1,0-0.2-0.1-0.2c-0.1,0-0.1-0.1-0.1-0.2l0.6-0.8l-0.2-0.2
		c0-0.3,0-0.4-0.1-0.5c-0.1-0.1,0.2-0.9,0.9-2.5l0.2,0.2c0-0.1,0-0.2,0.1-0.1c0.1,0.1,0.1,0,0.1-0.1h-0.2v-0.4l-0.4,1h-0.4v0.6
		l-0.4,0.8l-0.6,1l-0.4,0.8l-0.2,0.4l-0.4,0.8l-0.4,0.6c-0.1,0.3-0.3,0.5-0.4,0.6l-0.2,0.2h0.2l-0.2,0.2l-0.2,0.2
		c-0.5,0-0.8-0.2-0.8-0.6l0.4-0.8l-0.2-0.4l0.4-0.2l-0.2-0.4l0.4-0.4v-0.8l0.2-1l0.2-0.6l0.2-0.8l0.4-0.4l-0.2-0.2l0.4-1.4
		c0.7-2.1,1.4-4.7,2.2-7.7c0.8-3,1.6-6.1,2.4-9.3c0.8-3.2,1.5-6.3,2.1-9.5c0.6-3.1,1.1-5.9,1.5-8.5c-1.2-2.3-2-4.4-2.4-6.5
		c-0.4-2.1-0.6-3.8-0.6-5.3c0-1.6,0-2.7,0-3.2c0-0.5,0.9-0.8,2.6-0.8c3.1,0,5.3,0.1,6.7,0.4c1.4,0.3,2.3,0.7,2.8,1.4
		c0.5,0.7,0.7,1.5,0.6,2.6c-0.1,1.1,0,2.4,0.1,4c0.1,1.6,0.6,3.5,1.3,5.7c0.7,2.2,2.1,4.7,4.1,7.5c0.9,0.3,1.7,0.7,2.4,1.3
		c0.7,0.6,1.2,1.2,1.7,1.8c0.5,0.6,1,1.3,1.5,2.1c0,0.4-0.1,0.9-0.4,1.4v0.2v0.2v-0.2v0.2c0,0.1,0.1,0.2,0.2,0.2l-0.4,0.2l0.2-0.2
		c0-0.1-0.1-0.2-0.2-0.2c0,1.1-0.5,2.9-1.6,5.4c-1.1,2.5-2,6.2-2.8,11.2c-0.4,2.7-1.1,5.9-2,9.7c-0.9,3.8-1.4,7.5-1.4,11.1
		c0.8-1.1,1.6-2.2,2.3-3.3c0.7-1.1,1.4-2.2,2.1-3.3l0.2-0.4l0.2-0.4v-0.2l0.2-0.2l0.6-1l0.6-1.2h-0.2l0.4-0.4l0.4-0.4
		c0.3-0.4,0.5-0.9,0.7-1.4c0.2-0.5,0.4-0.9,0.7-1.2v0.2l-0.2,0.4l0.2,0.6l0.4-0.8h0.4l-0.2-0.2l-0.4-0.4l0.2-0.2
		c0.1-0.3,0.3-0.4,0.4-0.4l-0.2,0.2h0.4v-0.4v0.2l0.2-0.2v0.6c-0.1,0-0.2,0-0.1-0.1c0.1-0.1,0-0.1-0.1-0.1c-0.1,0-0.3,0.1-0.4,0.2
		c0,0.1,0.1,0.2,0.2,0.2v-0.2c0.1,0,0.2,0.1,0.2,0.2l0.4-0.8l0.6-0.8l0.6-0.6c0.1-0.1,0.3-0.2,0.4-0.2h-0.2l0.2-0.2H232.5z
		 M202.6,145.4h0.2h0.2H202.6z M204.4,143h-0.2l0.2,0.4v-0.2V143z M204.6,141.4l-0.2-0.2v0.2H204.6z M207.4,135.4l0.2-0.4
		L207.4,135.4z"/>
	<path fill="#7B54A2" d="M195.6,83.3c-0.4-0.3-0.8-0.5-1.2-0.6c-0.4-0.1-0.8-0.3-1.2-0.6l0.2,0.2l1-0.2h-0.2h0.4l-0.2-0.2l0.4,0.2
		h0.4c0.3,0,0.7,0.1,1.2,0.3c0.5,0.2,0.9,0.4,1.2,0.5h-0.2h0.2c1.1,0,2.2,0.1,3.4,0.4c1.2,0.3,2.3,0.5,3.2,0.6H204
		c0.1,0,0.2,0,0.2,0.1c0,0.1,0.1,0.1,0.2,0.1l-0.2-0.2h0.4c-2.9-0.5-5.6-1.2-8.1-1.9c-2.5-0.7-3.8-1.7-4.1-2.9
		c-0.1-0.5,0-0.9,0.5-1.2c0.5-0.3,0.8-0.5,1.1-0.8h0.2c0,0.1,0.1,0.2,0.3,0.2c0.2,0,0.4,0.1,0.5,0.2l0.4,0.4h-0.2
		c0.4,0.4,1.5,0.7,3.3,0.8c1.8,0.1,4.2,0.2,7.1,0.2c5.2,0,11.5-0.2,19-0.6c7.5-0.4,15.2-0.9,23.2-1.4c1.5-3.5,2.7-6.2,3.6-8.3
		c0.9-2.1,1.7-3.7,2.4-4.8c0.7-1.1,1.2-1.9,1.6-2.2c0.4-0.3,0.9-0.5,1.4-0.5c1.6,0,3.1,0.6,4.4,1.8c1.3,1.2,2.1,2.1,2.2,2.8
		c0.1,0.9-0.2,2.2-1.1,3.9c-0.9,1.7-1.9,3.8-3.1,6.5c4.2-0.3,7.7-0.4,10.5-0.5c2.7-0.1,5.7-0.1,8.9-0.1c2.3,0,4.5,0,6.9,0.1
		c2.3,0.1,4.5,0.2,6.5,0.5c2,0.3,3.7,0.6,5.2,1.1c1.5,0.5,2.5,1,3.2,1.7l-0.4,0.4l0.6-0.4c0.1,0.1,0.2,0.3,0.2,0.6
		c0.4,0.7,0,1.1-1.2,1.4c-0.7-0.3-1.5-0.5-2.4-0.6c-0.9-0.1-2.1-0.2-3.4-0.2c-2.4,0-5.2,0.2-8.4,0.6l1.2-0.2l-0.4,0.2h0.4h0.2
		l0.4-0.2v0.2h2.8l0.2,0.2l0.6-0.2h2c1.1,0.1,2.2,0.3,3.5,0.5c1.3,0.2,2.1,0.4,2.5,0.5h-0.8h0.2h-0.2h-0.6l-0.4,0.2l-1.2,0.2
		l0.4-0.2h-0.6c-0.1,0.1-0.3,0.3-0.6,0.4v-0.2c-0.3,0-0.4,0-0.4,0.1c0,0.1-0.1,0.1-0.4,0.1l-1.8-0.2l-0.2-0.8l-1,0.6l-0.2,0.4h-1.6
		l0.2-0.2h0.4l0.4-0.2l0.4-0.8l-1.2,0.4l-0.8,0.2l-0.2,0.2c-0.4,0-0.7,0.1-0.8,0.4h-0.8l0.2-0.2l0.2-0.6h-1l-1-0.4l0.2,1l0.2,0.2
		h0.2h-0.6l0.2-0.2l-0.2,0.2l-0.2-0.2l0.2,0.2c0-0.1-0.3-0.1-1,0.1c-0.7,0.2-1.2,0.3-1.6,0.3c-0.3,0-0.5,0-0.7-0.1
		c-0.2-0.1-0.4-0.1-0.5-0.1l-0.2-0.4l0.4,0.2c0,0.1,0.1,0.2,0.2,0.2h0.4h0.4l-0.2-0.2l0.6-0.4l-0.2-0.2l-0.4-0.2l-0.4,0.2l-0.8,0.2
		l-0.2-0.2h-0.8l0.8-0.2h0.4l0.4-0.4c-0.3,0-0.5,0-0.8,0.1c-0.3,0.1-0.5,0.1-0.8,0.1l-0.4,0.8c0,0.1,0.1,0.2,0.2,0.2l0.4,0.2h-2
		c-0.7,0.3-1.3,0.4-2,0.3c-0.7-0.1-1.3,0-2,0.3l-0.2-0.2c-0.7,0.3-1.4,0.4-2.1,0.3c-0.7-0.1-1.4,0-2.1,0.1v-0.2
		c-2.7,0.5-5.3,1.1-7.9,1.6c-2.6,0.5-5,1-7.3,1.4c-0.7,1.6-1.8,4.7-3.5,9.4c-1.7,4.7-3.3,10-5,16c-1.7,6-3.1,12.4-4.4,19
		c-1.3,6.6-1.9,12.8-1.9,18.5c0,1.3,0.2,2.7,0.6,4.1c0.4,1.4,0.7,2.8,1,4.1v0.2l-0.2-0.2v0.2c0.1,0.1,0.3,0.2,0.6,0.2
		c2.1,0,4.3-1.2,6.5-3.6c2.2-2.4,3.8-4.8,4.9-7.4c-0.1-0.4-0.1-0.7,0.2-1v-0.4l0.2-0.2c-0.1-0.1-0.2-0.2-0.2-0.1
		c0,0.1-0.1,0-0.2-0.1l0.6-0.8v-1l0.2-0.4l0.4-0.2h-0.2c0.1-0.4,0.3-0.8,0.4-1.1c0.1-0.3,0.2-0.6,0.2-0.9l0.4,0.2l-0.2,0.2l0.4,0.6
		l0.4-0.4l0.2-0.6V140l0.2-0.2l0.4-0.8l-0.2-0.2l0.4-0.6c0-0.1,0.1-0.3,0.4-0.6l0.2-0.2l-0.2-0.2h0.2c0.8,0,1.3,0.1,1.6,0.4
		l-0.4,0.8c0,0.1,0.1,0.2,0.2,0.2l0.2,0.2c0,0.1-0.1,0.2-0.2,0.2H259l0.4,0.4c0,0.1-0.1,0.2-0.2,0.2c-0.1,0-0.2,0.1-0.2,0.2
		c0,0.1,0,0.2,0.1,0.3c0.1,0.1,0.1,0.2,0.1,0.3v0.2l-0.2,1c0.1,0.3,0.1,0.4,0,0.3c-0.1-0.1-0.1,0,0,0.1l0.2,0.2l-0.2,0.4v0.6
		c-0.3,0-0.4,0.1-0.4,0.2l0.4,0.2v1.4c-0.3,1.1-0.7,2.8-1.2,5.1c-0.5,2.3-1.4,4.7-2.6,7.1c-1.2,2.4-2.8,4.5-4.7,6.3
		c-1.9,1.8-4.4,2.7-7.3,2.7c-2.4,0-4.4-0.6-6.1-1.7c-1.7-1.1-3-2.6-4-4.4c-1-1.8-1.7-3.9-2.1-6.2c-0.4-2.3-0.5-4.7-0.4-7.1
		c0.3-6.8,0.9-13.1,1.9-19.1c1-6,2.2-11.5,3.5-16.6c1.3-5.1,2.7-9.7,4-13.6c1.3-4,2.5-7.3,3.6-10c-0.5,0.1-1.5,0.2-2.8,0.2
		c-3.1,0-6.8-0.3-11.4-0.8c-4.5-0.5-9-0.8-13.5-0.8l-0.6-0.2H215h-0.2l-0.4-0.2c0,0.1-0.3,0.2-0.8,0.2h-0.8H212l-2.2-0.2l-0.4,0.2
		c-0.8,0-1.6,0-2.5-0.1c-0.9-0.1-1.8-0.2-2.7-0.3H204h-1l0.2-0.2h-0.4v0.2h-0.4l-1.6-0.6H200L195.6,83.3z M198.6,83.3v-0.2h-0.2
		L198.6,83.3z M201.6,84.2l-0.2-0.2v0.2H201.6z M205,84.6h-0.2h-0.4l-0.2,0.4h0.6l0.2-0.2V84.6z M208.6,84.6c0,0.1,0.1,0.1,0.2,0
		H208.6z M276.9,82.1h0.4l0.4-0.4c-0.1,0.1-0.4,0.2-0.8,0.2V82.1z M288.1,81.5v0.2l0.2-0.2H288.1z M288.3,80.9h0.2h0.2h-0.2H288.3z"
		/>
	<path fill="#7B54A2" d="M366.4,181.7c-3.1,3.3-6.3,5.7-9.8,7c-3.5,1.3-7,2-10.6,2c-5.1,0-10.1-1-15.3-2.9
		c-5.1-1.9-9.7-4.1-13.7-6.5c-0.7-0.4-1.5-0.9-2.4-1.5c-0.9-0.6-1.9-1.4-2.9-2.3c-1-0.9-1.8-2.1-2.5-3.4c-0.7-1.3-1-2.9-1-4.6
		c0-2.9,0.7-5.1,2.2-6.6c1.5-1.5,3.1-2.5,4.8-3.1c1.7-0.6,3.4-0.9,4.9-0.8c1.5,0.1,2.4,0.1,2.7,0.1c1.1,0,2.1,0.1,3.2,0.2
		c1.1,0.1,2.3,0.3,3.6,0.4c7.4,0.9,14,2.1,19.6,3.5c5.6,1.4,10.6,2.6,15,3.7v-1.8l-0.2-0.2l-0.2-1v0.2v-0.4l-0.2-0.2l-0.6-1.8
		l-0.4-1c-0.8-1.9-2-4-3.7-6.3c-1.7-2.3-3.8-5-6.5-8.1c-2.4-3.5-5.2-7-8.3-10.7c-3.1-3.7-6.2-7.6-9.1-11.9
		c-2.9-4.3-5.4-8.9-7.5-14.1c-2.1-5.1-3.2-10.9-3.3-17.3c0-4.9,0.8-9.8,2.5-14.8c1.7-4.9,4-9.3,7.1-13.2c3.1-3.9,6.8-7,11.2-9.4
		c4.4-2.4,9.3-3.6,14.8-3.6c3.1,0,6.1,0.5,9,1.6c2.9,1.1,5.6,2.6,7.9,4.5c2.3,1.9,4.2,4.2,5.6,6.7c1.4,2.5,2.1,5.3,2.1,8.2
		c0,2.7-0.4,4.8-1.1,6.3c-0.7,1.5-1.2,3-1.5,4.5c0.8-1.6,1.6-3.3,2.4-5c0.8-1.7,1.6-3.4,2.3-4.9c0.7-1.5,1.3-2.9,1.8-4
		c0.5-1.1,0.8-1.9,0.9-2.3c0.4,0,0.9,0.1,1.6,0.4c0.7,0.3,1.3,0.5,2,0.8l2.4,1.2c-0.8,1.6-2.1,3.7-4,6.4c-1.9,2.7-3.7,5.3-5.6,7.8
		c0,0.3-0.1,0.4-0.4,0.4l0.2,0.2l-0.2,0.2l-0.2-0.2v0.4l-0.4,0.4c0,0.1,0.1,0.3,0.2,0.4l-1.2,2.6c-0.3,0.4-0.5,0.8-0.7,1.3
		c-0.2,0.5-0.4,0.8-0.7,1.1l-0.2,0.2h-0.2c0,0.1,0.1,0.2,0.2,0.2l-0.2-0.2v0.2v0.2l-0.2,0.4h0.2h-0.2l-0.4,0.6h0.2
		c-0.1,0.4-0.4,0.8-0.8,1.2l-0.2,0.2l0.2,0.2l-0.2-0.2v0.2v0.2l-0.2-0.2l-0.4,0.8l-0.2,0.2v-0.2l-0.4,0.2l-1,1l0.2-0.2l-0.2-0.6v0.2
		l-0.2-0.4l-0.2-0.2h0.2l0.4-0.4l-0.2-0.2c0,0.1,0,0.1,0.1-0.2c0.1-0.3,0.2-0.4,0.5-0.4l0.4-0.8l0.2,0.2h-0.2l0.2-0.2
		c-0.1,0-0.2,0-0.1-0.1c0.1-0.1,0-0.1-0.1-0.1c0-0.1,0.1-0.3,0.2-0.4l0.4-0.4h0.2l-0.2-0.2c-0.7,0.7-1,1.1-1,1.3
		c0,0.2-0.3,0.3-0.8,0.3c-0.9,0-2.3-0.3-4-0.8c-0.3,0.8-0.5,1.3-0.6,1.4l0.2-0.4l0.2-0.6v-0.6c-2.3,0-4.2-0.5-5.8-1.4
		c-1.6-0.9-2.4-1.6-2.4-2v-0.2c0.8-2.7,1.9-5.8,3.2-9.3c1.3-3.5,2-6.2,2-8.1c0-1.9-1.1-3.5-3.2-5c-2.1-1.5-4.3-2.4-6.6-2.8
		c-1.1,0-2.1,0-3.1,0.1c-1,0.1-1.9,0.2-2.7,0.5l0.2-0.2l-0.8,0.2v-0.2l1.4-0.2l-1-0.2c0,0.1-0.1,0.1-0.2,0c-0.1-0.1-0.3-0.1-0.6,0.2
		h-0.2h0.2l-0.4,0.2V64l0.6-0.2c-0.7,0.7-1.5,1.1-2.6,1.4c-1.1,0.3-2,0.6-2.8,1c0-0.1-0.1-0.2-0.2-0.2c-0.3,0.3-0.5,0.4-0.8,0.5
		c-0.3,0.1-0.4,0.2-0.4,0.3h0.2c-0.9,0.3-2.1,1-3.4,2.2c-1.3,1.2-2.1,2-2.4,2.4v-0.2h-0.2v0.4v0.2c-1.3,1.3-2.5,3-3.5,5.1
		c-1,2.1-1.8,4.3-2.4,6.6c-0.6,2.3-1.1,4.7-1.4,7.2c-0.3,2.5-0.5,4.8-0.5,7.1c0,0.5,0,1.1,0.1,1.6c0.1,0.5,0.1,1.1,0.1,1.6h0.2v1.4
		v0.2v0.2l0.2-0.2v0.8l0.4,0.6v0.6c0.9,3.5,2.3,6.8,4.1,10.1c1.8,3.3,3.6,6.4,5.5,9.5c0.5,0.9,1.4,2.2,2.5,3.9
		c1.1,1.7,2.3,3.3,3.4,5c1.1,1.7,2.2,3.1,3.1,4.3c0.9,1.2,1.5,1.8,1.6,1.8h0.2l0.6,0.8h-0.2c0.1,0,0.3,0.1,0.4,0.4
		c0.1,0.3,0.3,0.4,0.6,0.4l0.8,1.2l0.4,0.6l2.6,3.2l0.4,0.6c0.9,1.1,1.8,2.2,2.5,3.3c0.7,1.1,1.5,2.3,2.3,3.5l0.2,0.4l0.8,1.2h-0.2
		l0.2,0.4l0.2,0.2l0.2,0.4l1.2,2.6l1,2c0,0.1,0.1,0.6,0.4,1.4v0.2v0.2v-0.2l0.2,1.6l0.4,1c0.1,0.5,0.2,1.1,0.2,1.6
		c0,0.5,0,1.1,0,1.6v1.2c2.1,0.5,3.7,0.9,4.8,1.2c1.1,0.3,1.6,1.1,1.6,2.6c0,2.8-0.5,5.4-1.4,7.8c-0.9,2.4-1.5,3.6-1.8,3.6
		c-1.1,0-2.3-0.3-3.7-0.8c-1.4-0.5-2.6-1.1-3.7-1.6V181.7z M323.9,168.9c-0.7-0.1-1.3-0.2-1.8-0.2c-0.5,0-1.1,0-1.6,0
		c-1.9,0-2.8,0.5-2.8,1.4c0.1,0.1,0.2,0.3,0.3,0.4c0.1,0.1,0.2,0.3,0.3,0.4c0.7,0,1.3-0.1,1.8-0.3c0.5-0.2,1.1-0.3,1.8-0.3
		c0.5,0,1,0,1.4,0.1c0.4,0.1,0.9,0.1,1.4,0.1l0.8,0.2c0.1,0,0.3,0.1,0.4,0.2c0.1,0,0.2-0.1,0.2-0.2l0.6,0.2h0.2h0.6l1,0.2l0.8,0.2
		v-0.2l1.6,0.4l0.8,0.2h1.4l-1,0.2h0.2l-1,1l0.2,0.2l0.4,0.2h-0.8l-1.4-0.2c-0.7,0-1.3-0.1-2-0.2c-0.7-0.1-1.3-0.2-2-0.2h-0.6v-0.2
		h-3.2h-1.4l0.2-0.2h-0.4l0.8-0.2l-0.6-0.2l-0.4-0.2l-0.2,0.4l-0.2,0.2h0.4c-0.1,0-0.2,0.1-0.2,0.2c3.6,3.6,8.1,6.5,13.5,8.7
		c5.4,2.2,10.4,3.3,15.1,3.3c3.1,0,5.6-0.3,7.7-1c2.1-0.7,4-1.9,5.7-3.6c-2.9-0.9-6-2-9.2-3.2c-3.2-1.2-6.5-2.4-9.8-3.5
		c-3.3-1.1-6.6-2.1-9.8-2.9C329.9,169.5,326.9,169.1,323.9,168.9z M320.4,172.3l0.8-0.2l-0.6-0.2c-0.1-0.1-0.3-0.2-0.4-0.2l-0.2,0.4
		l-0.2,0.2h0.4H320.4z M320.2,172.7l0.2,0.2l0.2-0.4L320.2,172.7z M322.3,171.7h-0.2h-0.6l0.2,0.6l0.6-0.4V171.7z M322.3,171.9
		l-0.2-0.2h-0.6l0.2,0.6l0.2-0.2L322.3,171.9z M328.7,172.3l0.2-0.4l-0.6-0.2l-0.2,0.4L328.7,172.3z M328.9,171.9l-0.6,0.2h-0.2
		l0.8,0.2V171.9z M331.9,173.3l-0.4-0.2c-0.1,0-0.2-0.1-0.2-0.2l1-1h-0.2l1-0.2l2.2,0.4l-1.4,0.2l0.2,0.2l-0.8,0.2h-1.4h0.8v0.4h0.8
		l0.2-0.2c0.1,0,0.3,0.1,0.4,0.2l0.6,0.2v0.2l-0.6,0.2l-0.4,0.2c-0.1,0-0.3-0.1-0.4-0.2c-0.1,0-0.2-0.1-0.2-0.2l-0.4-0.2l0.2,0.4
		l-0.8-0.4H331.9z M333.9,172.3l0.8-0.2l3,0.8l1,0.2l0.2,0.2h0.2h0.2l1.8,0.6l1.4,0.4l0.2,0.2l0.2-0.2l2.4,0.6
		c1.1,0.4,2.3,0.8,3.6,1.3c1.3,0.5,2.1,0.8,2.4,1.1h-0.6l-0.2-0.2h-0.6h-0.4h-1.4l0.4-0.2l-0.6-0.2c-0.3,0.3-0.5,0.4-0.7,0.3
		c-0.2-0.1-0.4-0.1-0.7-0.1l-2-0.6v-1l-1.2,0.4l-0.6,0.2l-1.4-0.6l0.2,0.2h0.6h0.4l0.8-0.6l-1.6-0.2h-0.8l-0.4,0.2
		c-0.4,0-0.7,0.1-0.8,0.2l-0.8-0.4l0.4-0.4l-1-0.2l-0.8-0.8l-0.2,1l0.2,0.2l0.2,0.2l-0.6-0.2h0.2c-0.1,0-0.2,0-0.2-0.1
		c0-0.1-0.1-0.1-0.2-0.1c0,0.1-0.1,0.2-0.2,0.1c-0.1-0.1-0.3,0-0.4,0.1c-0.3-0.3-0.9-0.4-1.8-0.4v-0.2c-0.1,0-0.2,0-0.3,0.1
		c-0.1,0.1-0.2,0.1-0.3,0.1c-0.1,0-0.5-0.1-1-0.4l-0.2-0.4l0.4,0.2c0,0.1,0.1,0.2,0.2,0.2l0.4,0.2l0.4-0.2l0.6-0.2v-0.2l-0.6-0.2
		c-0.1-0.1-0.3-0.2-0.4-0.2v0.2h-1v-0.4h-0.8h1.4l0.8-0.2L333.9,172.3z M335.1,105.9c0,0.5,0.1,0.9,0.2,1.2h0.2L335.1,105.9z
		 M335.1,105.9c0,0.5,0.1,0.9,0.2,1.2h0.2L335.1,105.9z M336.1,110.5c0-0.3,0-0.5-0.1-0.7c-0.1-0.2-0.1-0.4-0.1-0.7l-0.4-0.8
		C335.6,108.7,335.8,109.4,336.1,110.5z M335.9,109.1l-0.4-0.8c0.1,0.4,0.3,1.1,0.6,2.2c0-0.3,0-0.5-0.1-0.7
		C335.9,109.6,335.9,109.3,335.9,109.1z M336.3,172.9h0.2l-0.2-0.2V172.9z M338.9,174.9h-0.8l-0.6-0.4c-0.1,0-0.2-0.1-0.2-0.2l0.2-1
		l0.8,0.8l1,0.2l-0.4,0.4V174.9z M340.1,119.1c0-0.3-0.1-0.4-0.2-0.4l-0.2-0.6l-0.6-1.6l-0.2,0.6l-0.2-0.6c0,0.1,0,0.1,0-0.1
		c0-0.2-0.1-0.4-0.2-0.7c-0.1-0.3-0.2-0.5-0.2-0.8l-0.2,0.2l-0.6-0.8c0.4,0.9,0.8,1.8,1.3,2.5C339.3,117.5,339.7,118.3,340.1,119.1z
		 M339.7,118.1l-0.6-1.6l-0.2,0.6l-0.2-0.6c0,0.1,0,0.1,0-0.1c0-0.2-0.1-0.4-0.2-0.7c-0.1-0.3-0.2-0.5-0.2-0.8l-0.2,0.2l-0.6-0.8
		c0.4,0.9,0.8,1.8,1.3,2.5c0.5,0.7,0.9,1.5,1.3,2.3c0-0.3-0.1-0.4-0.2-0.4L339.7,118.1z M341.3,175.3v0.4l-2-0.2l0.4-0.4
		c0.1-0.1,0.4-0.2,0.8-0.2h0.4l0.4-0.2l2,0.2l-0.8,0.4l-0.4,0.2h-0.6h-0.2V175.3z M340.7,173.9l0.2,0.2
		C340.9,174,340.9,173.9,340.7,173.9C340.7,174.1,340.7,174,340.7,173.9z M344.5,176.1v0.2l-0.6,1l-0.6-1l-0.2-0.4l1.4-0.6V176.1z
		 M345.3,126.2l-0.6-0.8l-0.4,0.2l1.2,1.8l0.2-0.2l-0.6-0.8L345.3,126.2z M345.7,127.2l-0.6-0.8l0.2-0.2l-0.6-0.8l-0.4,0.2l1.2,1.8
		L345.7,127.2z M345.7,67.4l-0.2,0.2l-0.8,0.8c0.1-0.3,0.3-0.4,0.4-0.5C345.2,67.8,345.4,67.7,345.7,67.4z M345.5,67.6l0.2-0.2
		c-0.3,0.3-0.5,0.4-0.6,0.5c-0.1,0.1-0.3,0.2-0.4,0.5L345.5,67.6z M347.7,129.6l-0.6-1.2l-1-1l0.6,1.2l0.4,0.4L347.7,129.6z
		 M347.7,129.6l-0.6-0.6l-0.4-0.4l-0.6-1.2l0.6,0.8l0.4,0.4L347.7,129.6z M347.7,66.6l0.4-0.2c0.4,0,0.6-0.1,0.6-0.4h0.8l-0.6-0.6
		c0,0.1-0.1,0.2-0.4,0.2c-0.3,0-0.5,0.1-0.8,0.4l-0.2,0.4v0.2H347.7z M347.7,66.2V66c0.3-0.3,0.5-0.4,0.8-0.4c0.3,0,0.4-0.1,0.4-0.2
		l0.6,0.6h-0.8c0,0.3-0.2,0.4-0.6,0.4l-0.6,0.2v-0.2L347.7,66.2z M348.1,177.1l0.4,0.2l-0.8-0.2H348.1z M351.1,177.3h0.2l0.4,0.2
		l0.8,0.8l-1.4-0.2c-0.1,0-0.3-0.1-0.6-0.2l-0.4,0.2l-2-1h1.4h0.4h0.6l0.2,0.2H351.1z M354.1,64.2l1-0.2l-0.6,0.6
		c-0.3,0-0.5,0.1-0.6,0.2h-0.2h-0.4l0.2-0.4L354.1,64.2z M354.9,63.6l1.2-0.2l-1-0.2h-0.4c-0.1,0-0.3,0.1-0.4,0.2h-0.2h0.2l-0.4,0.2
		V64l0.6-0.2l0.2-0.2H354.9z M366.4,158.7c1.5,2.4,2.3,5.6,2.6,9.6c0.3,0,0.5,0.1,0.8,0.2l-0.2-0.2h0.2c0-0.5-0.1-1.3-0.2-2.2
		c-0.1-0.9-0.3-1.7-0.6-2.2h0.2c-0.1-0.1-0.3-0.6-0.6-1.3c-0.3-0.7-0.6-1.6-1-2.6c-0.4-1-0.9-2-1.5-3.1c-0.6-1.1-1.2-2.1-1.9-3
		l0.4,0.2l-0.2-0.2v-0.2v-0.2v0.2c-0.3,0-0.7-0.4-1.2-1.3c-0.5-0.9-0.9-1.4-1.2-1.7v-0.2c-0.4-0.4-0.7-0.8-0.8-1.1
		c-0.1-0.3-0.4-0.8-0.8-1.4s-1-1.5-1.9-2.6c-0.9-1.1-2.2-2.6-4.1-4.5c0.4,0.5,1.1,1.5,2,2.8c0.9,1.3,1.9,2.7,2.8,4
		c0.9,1.3,2.1,3.1,3.4,5.2C363.7,154.4,365,156.4,366.4,158.7z M356.5,63l0.2,0.2l0.2,0.2l0.4-0.2c0.3,0,0.4,0,0.4-0.1
		c0-0.1,0.1-0.1,0.2-0.1H356.5z M356.9,63.2v0.2l0.4-0.2c0.3,0,0.4,0,0.4-0.1c0-0.1,0.1-0.1,0.2-0.1h-1.4l0.2,0.2H356.9z
		 M358.7,145.2h0.2l0.2,0.2v-0.2H358.7z M360.8,147.8c0-0.1-0.1-0.2-0.2-0.3c-0.1-0.1-0.2-0.2-0.2-0.3
		C360.7,147.4,360.8,147.6,360.8,147.8z M360.6,147.8c-0.1-0.1-0.2-0.3-0.2-0.4v0.2L360.6,147.8z M364.2,153l0.2,0.4L364.2,153z
		 M364.4,152.6l0.2,0.2l0.2,0.4l0.6,0.2l-0.8-1L364.4,152.6z M364.6,152.8l0.2,0.4l0.6,0.2l-0.8-1l-0.2,0.2L364.6,152.8z
		 M364.8,153.4h-0.2v-0.2C364.6,153.3,364.7,153.4,364.8,153.4z M366.6,157.2c-0.4-0.7-0.7-1-0.8-1L366.6,157.2z M368.2,160.7v0.4
		c0.1,0,0.2-0.1,0.2-0.4H368.2z M368.6,162.3v-0.4v0.2l-0.2-0.2C368.4,162.1,368.5,162.2,368.6,162.3z M370,163.3l0.2-0.2l0.2,0.4
		l0.2,0.8h-0.2L370,163.3z M373.4,93.5l-0.2,0.6l-1,1l0.6-2c0-0.3,0.1-0.5,0.2-0.8v-0.2v-0.4c0.3,0.1,0.5,0.2,0.8,0.2v0.2l-0.2,0.4
		L373.4,93.5z M378.2,95.7v0.2c-0.3,0-0.4-0.1-0.4-0.2v0.2v-0.2v0.2c-0.1,0-0.2-0.1-0.2-0.2v0.2l-0.2-0.4l0.2,0.2
		c0.1,0,0.2-0.1,0.2-0.2v0.2c-0.1-0.1-0.2-0.3-0.2-0.4l0.4,0.2L378.2,95.7z M378.2,95.5l0.2,0.4l-0.4-0.4l-0.4-0.2l0.2-0.4l0.2,0.2
		l0.2-0.2l0.2,0.6H378.2z M379.4,94.7l0.2,0.2h-0.2l-0.2-0.2H379.4z M380.2,93.1l-0.2-0.4v0.2L380.2,93.1z M380,92.9l0.2,0.2
		l-0.2-0.4V92.9z M382.6,88.1h0.2l-0.2-0.2l-0.2-0.2c0,0.1-0.1,0.3-0.2,0.4l0.4,0.2V88.1z M382.4,87.7c0,0.1-0.1,0.3-0.2,0.4
		l0.4,0.2l0.2-0.2h-0.2L382.4,87.7z M382.6,88.5v-0.2v0.6l0.2-0.2L382.6,88.5z M382.8,88.7l-0.2-0.4v0.6v-0.2H382.8z M385.4,84.1
		h0.2h-0.4H385.4z"/>
	<path fill="#7B54A2" d="M337,83.3c-0.4-0.3-0.8-0.5-1.2-0.6c-0.4-0.1-0.8-0.3-1.2-0.6l0.2,0.2l1-0.2h-0.2h0.4l-0.2-0.2l0.4,0.2h0.4
		c0.3,0,0.7,0.1,1.2,0.3c0.5,0.2,0.9,0.4,1.2,0.5h-0.2h0.2c1.1,0,2.2,0.1,3.4,0.4c1.2,0.3,2.3,0.5,3.2,0.6h-0.2c0.1,0,0.2,0,0.2,0.1
		c0,0.1,0.1,0.1,0.2,0.1l-0.2-0.2h0.4c-2.9-0.5-5.6-1.2-8.1-1.9c-2.5-0.7-3.8-1.7-4.1-2.9c-0.1-0.5,0-0.9,0.5-1.2
		c0.5-0.3,0.8-0.5,1.1-0.8h0.2c0,0.1,0.1,0.2,0.3,0.2c0.2,0,0.4,0.1,0.5,0.2l0.4,0.4h-0.2c0.4,0.4,1.5,0.7,3.3,0.8
		c1.8,0.1,4.2,0.2,7.1,0.2c5.2,0,11.5-0.2,19-0.6c7.5-0.4,15.2-0.9,23.2-1.4c1.5-3.5,2.7-6.2,3.6-8.3c0.9-2.1,1.7-3.7,2.4-4.8
		c0.7-1.1,1.2-1.9,1.6-2.2c0.4-0.3,0.9-0.5,1.4-0.5c1.6,0,3.1,0.6,4.4,1.8c1.3,1.2,2.1,2.1,2.2,2.8c0.1,0.9-0.2,2.2-1.1,3.9
		c-0.9,1.7-1.9,3.8-3.1,6.5c4.2-0.3,7.7-0.4,10.5-0.5c2.7-0.1,5.7-0.1,8.9-0.1c2.3,0,4.5,0,6.9,0.1c2.3,0.1,4.5,0.2,6.5,0.5
		c2,0.3,3.7,0.6,5.2,1.1c1.5,0.5,2.5,1,3.2,1.7l-0.4,0.4l0.6-0.4c0.1,0.1,0.2,0.3,0.2,0.6c0.4,0.7,0,1.1-1.2,1.4
		c-0.7-0.3-1.5-0.5-2.4-0.6c-0.9-0.1-2.1-0.2-3.4-0.2c-2.4,0-5.2,0.2-8.4,0.6l1.2-0.2l-0.4,0.2h0.4h0.2l0.4-0.2v0.2h2.8l0.2,0.2
		l0.6-0.2h2c1.1,0.1,2.2,0.3,3.5,0.5c1.3,0.2,2.1,0.4,2.5,0.5h-0.8h0.2h-0.2h-0.6l-0.4,0.2l-1.2,0.2l0.4-0.2h-0.6
		c-0.1,0.1-0.3,0.3-0.6,0.4v-0.2c-0.3,0-0.4,0-0.4,0.1c0,0.1-0.1,0.1-0.4,0.1l-1.8-0.2l-0.2-0.8l-1,0.6l-0.2,0.4h-1.6l0.2-0.2h0.4
		l0.4-0.2l0.4-0.8l-1.2,0.4l-0.8,0.2l-0.2,0.2c-0.4,0-0.7,0.1-0.8,0.4h-0.8l0.2-0.2l0.2-0.6h-1l-1-0.4l0.2,1l0.2,0.2h0.2h-0.6
		l0.2-0.2l-0.2,0.2l-0.2-0.2l0.2,0.2c0-0.1-0.3-0.1-1,0.1c-0.7,0.2-1.2,0.3-1.6,0.3c-0.3,0-0.5,0-0.7-0.1c-0.2-0.1-0.4-0.1-0.5-0.1
		l-0.2-0.4l0.4,0.2c0,0.1,0.1,0.2,0.2,0.2h0.4h0.4l-0.2-0.2l0.6-0.4l-0.2-0.2l-0.4-0.2l-0.4,0.2l-0.8,0.2l-0.2-0.2h-0.8l0.8-0.2h0.4
		l0.4-0.4c-0.3,0-0.5,0-0.8,0.1c-0.3,0.1-0.5,0.1-0.8,0.1l-0.4,0.8c0,0.1,0.1,0.2,0.2,0.2l0.4,0.2h-2c-0.7,0.3-1.3,0.4-2,0.3
		c-0.7-0.1-1.3,0-2,0.3l-0.2-0.2c-0.7,0.3-1.4,0.4-2.1,0.3c-0.7-0.1-1.4,0-2.1,0.1v-0.2c-2.7,0.5-5.3,1.1-7.9,1.6
		c-2.6,0.5-5,1-7.3,1.4c-0.7,1.6-1.8,4.7-3.5,9.4c-1.7,4.7-3.3,10-5,16c-1.7,6-3.1,12.4-4.4,19c-1.3,6.6-1.9,12.8-1.9,18.5
		c0,1.3,0.2,2.7,0.6,4.1c0.4,1.4,0.7,2.8,1,4.1v0.2l-0.2-0.2v0.2c0.1,0.1,0.3,0.2,0.6,0.2c2.1,0,4.3-1.2,6.5-3.6
		c2.2-2.4,3.8-4.8,4.9-7.4c-0.1-0.4-0.1-0.7,0.2-1v-0.4l0.2-0.2c-0.1-0.1-0.2-0.2-0.2-0.1c0,0.1-0.1,0-0.2-0.1l0.6-0.8v-1l0.2-0.4
		l0.4-0.2h-0.2c0.1-0.4,0.3-0.8,0.4-1.1c0.1-0.3,0.2-0.6,0.2-0.9l0.4,0.2l-0.2,0.2l0.4,0.6l0.4-0.4l0.2-0.6V140l0.2-0.2l0.4-0.8
		l-0.2-0.2l0.4-0.6c0-0.1,0.1-0.3,0.4-0.6l0.2-0.2l-0.2-0.2h0.2c0.8,0,1.3,0.1,1.6,0.4l-0.4,0.8c0,0.1,0.1,0.2,0.2,0.2l0.2,0.2
		c0,0.1-0.1,0.2-0.2,0.2h-0.2l0.4,0.4c0,0.1-0.1,0.2-0.2,0.2c-0.1,0-0.2,0.1-0.2,0.2c0,0.1,0,0.2,0.1,0.3c0.1,0.1,0.1,0.2,0.1,0.3
		v0.2l-0.2,1c0.1,0.3,0.1,0.4,0,0.3c-0.1-0.1-0.1,0,0,0.1l0.2,0.2l-0.2,0.4v0.6c-0.3,0-0.4,0.1-0.4,0.2l0.4,0.2v1.4
		c-0.3,1.1-0.7,2.8-1.2,5.1c-0.5,2.3-1.4,4.7-2.6,7.1c-1.2,2.4-2.8,4.5-4.7,6.3c-1.9,1.8-4.4,2.7-7.3,2.7c-2.4,0-4.4-0.6-6.1-1.7
		c-1.7-1.1-3-2.6-4-4.4c-1-1.8-1.7-3.9-2.1-6.2c-0.4-2.3-0.5-4.7-0.4-7.1c0.3-6.8,0.9-13.1,1.9-19.1c1-6,2.2-11.5,3.5-16.6
		c1.3-5.1,2.7-9.7,4-13.6c1.3-4,2.5-7.3,3.6-10c-0.5,0.1-1.5,0.2-2.8,0.2c-3.1,0-6.8-0.3-11.4-0.8c-4.5-0.5-9-0.8-13.5-0.8l-0.6-0.2
		h-0.4h-0.2l-0.4-0.2c0,0.1-0.3,0.2-0.8,0.2h-0.8h-0.8l-2.2-0.2l-0.4,0.2c-0.8,0-1.6,0-2.5-0.1c-0.9-0.1-1.8-0.2-2.7-0.3h-0.2h-1
		l0.2-0.2h-0.4v0.2h-0.4l-1.6-0.6h-0.8L337,83.3z M340,83.3v-0.2h-0.2L340,83.3z M342.9,84.2l-0.2-0.2v0.2H342.9z M346.3,84.6h-0.2
		h-0.4l-0.2,0.4h0.6l0.2-0.2V84.6z M349.9,84.6c0,0.1,0.1,0.1,0.2,0H349.9z M418.2,82.1h0.4l0.4-0.4c-0.1,0.1-0.4,0.2-0.8,0.2V82.1z
		 M429.4,81.5v0.2l0.2-0.2H429.4z M429.6,80.9h0.2h0.2h-0.2H429.6z"/>
	<path fill="#7B54A2" d="M431.8,131.5c0.3-0.1,0.6-0.1,0.9,0.1c0.3,0.2,0.5,0.4,0.5,0.7c0,0.1-0.1,0.2-0.2,0.3
		c-0.1,0.1-0.3,0.2-0.4,0.5v0.4c0,0.1,0.1,0.2,0.2,0.2c0,0.1-0.1,0.2-0.2,0.2c-0.1,0-0.2,0.1-0.2,0.2c-0.1,0-0.1,0.1,0,0.2
		c0.1,0.1,0.1,0.3,0,0.4c0,0.1-0.1,0.2-0.2,0.2c-0.1,0-0.2,0.1-0.2,0.2c-0.1,0.3-0.1,0.5,0,0.6c0.1,0.1,0.1,0.3,0,0.4l-0.2,0.2v0.4
		l-0.4,1.2c0,0.1-0.1,0.2-0.2,0.2c-0.1,0-0.2,0.1-0.2,0.2c0,0.1,0.1,0.3,0.2,0.4l-0.2,0.6l-0.2,0.8v0.2c-0.1,0.1-0.3,0.2-0.6,0.2
		c0,0.1,0.1,0.2,0.2,0.3c0.1,0.1,0.2,0.2,0.2,0.3l-0.2,0.6L430,143c-0.8,2.7-1.8,5.6-3,9c-0.4,0.8-0.8,1.6-1.2,2.5
		c-0.4,0.9-0.9,1.8-1.6,2.9c-0.4,0.5-0.8,1.1-1.1,1.7c-0.3,0.6-1.2,1.2-2.7,1.7c-0.4,0.4-0.7,0.7-1,0.8v0.2c-0.7,0.3-1.5,0.3-2.6,0
		c0-0.1,0.1-0.2,0.2-0.1c0.1,0.1,0.1,0-0.2-0.1h-0.4c-0.1-0.3-0.2-0.5-0.3-0.6c-0.1-0.1-0.1-0.3-0.1-0.6c-0.9-0.5-1.6-1.2-2-2
		l-0.8-2.4c-0.3-0.7-0.4-1.4-0.4-2.2c0-0.8,0-1.5,0-2.2c-0.9,1.5-2,3.2-3.2,5.3c-1.2,2.1-2.9,3.6-5.2,4.5c-0.8,0.8-1.9,1.2-3.4,1.2
		h0.6l-0.2-0.2h0.4c0.3,0,0.5-0.1,0.8-0.4l0.2,0.2l0.6-0.4c0.1,0,0.2,0,0.2-0.1c0-0.1,0.1-0.1,0.2-0.1h-0.8l-0.2,0.2l0.2-0.2h-0.8
		l0.2,0.2l-0.4,0.2c0-0.1-0.2-0.2-0.6-0.2h-0.4v0.2h-0.4h-0.2l-0.2,0.2l0.2,0.2c0,0.1,0.2,0.2,0.6,0.2h-0.4c-0.5-0.3-1-0.6-1.5-0.9
		c-0.5-0.3-1-0.6-1.5-0.9v-0.2h-0.2c-1.3-0.8-2.3-1.8-2.9-3.1c-0.6-1.3-1-2.4-1.1-3.5c-0.8-3.5-1.1-6.4-1-9c0-5.7,0.6-11.2,1.8-16.3
		c1.2-5.2,2.9-9.9,5.1-14.2c2.2-4.3,4.4-8,6.6-11.2c2.2-3.1,4.2-5.5,6.2-7.3c1.9-1.7,3.3-2.7,4.1-3c0.5-0.3,1.1-0.4,1.6-0.4
		c1.1,0,2.1,0.9,3,2.6c0.8,1.6,1.2,2.8,1.2,3.6c0,0.8-0.3,1.4-0.8,1.8c-0.7,0.7-1.5,1.4-2.5,2.3c-1,0.9-2.2,2.2-3.6,3.9
		c-1.4,1.7-2.9,4-4.6,6.9c-1.7,2.9-3.4,6.7-5.3,11.5c-0.7,1.6-1.3,3.5-1.9,5.6c-0.6,2.1-1.1,4.4-1.6,6.8c-0.5,2.4-0.8,4.8-1,7.3
		c-0.2,2.5-0.2,4.9,0.1,7.3c0.1,1.5,0.4,2.3,0.8,2.6c0.4,0.3,0.6,0.3,0.6,0.2c0.7-0.4,1.4-1.1,2.3-2.2c0.9-1.1,1.6-2.1,2.3-3.2
		c1.5-2.3,2.8-4.5,4-6.8c1.2-2.3,2.3-4.4,3.4-6.4V136c0.1-0.8,0.3-1.6,0.4-2.4c0.1-0.8,0.3-1.6,0.4-2.4c0.8-3.7,1.7-7.2,2.6-10.6
		c0.9-3.3,1.8-6.3,2.7-8.9c0.9-2.6,1.7-4.7,2.4-6.4c0.7-1.7,1.3-2.7,1.7-3.1c0.1-0.4,0.5-0.7,1-0.8c0.4-0.1,0.9-0.2,1.4-0.1
		c0.5,0.1,1.3,0.4,2.4,1.1c2.5,1.9,3.6,3.2,3.2,4c-0.3,0.7-0.6,1.5-0.9,2.5c-0.3,1-0.8,2.3-1.4,4c-0.6,1.7-1.3,3.7-2.1,6.2
		c-0.8,2.5-1.7,5.5-2.6,9.3c-0.7,2.8-1.5,6-2.6,9.8c-1.1,3.7-1.9,7.6-2.6,11.6c0,0.5,0,1-0.1,1.5c-0.1,0.5-0.1,1-0.1,1.5
		c1.1-1.6,2-3.3,2.9-5c0.9-1.7,1.7-3.3,2.5-4.8v-0.2l0.4-0.6l0.2-0.6v-0.2l0.4-0.8c0-0.1,0-0.2,0.1-0.3c0.1-0.1,0.1-0.2,0.1-0.3
		l0.2-0.2l0.2-0.4h0.2l0.2-0.6h-0.2c0.3-0.5,0.5-1.1,0.8-1.6c0.3-0.5,0.5-1,0.8-1.4v0.2h-0.2v0.2v0.2l0.4-0.2
		c0.1-0.1,0.2-0.2,0.1-0.3c-0.1-0.1,0-0.2,0.1-0.3l-0.2-0.2l0.2-0.2c0.1-0.3,0.2-0.4,0.3-0.5c0.1-0.1,0,0-0.1,0.1l0.8-0.8v-0.4
		l0.4-0.4l0.2-0.6c0.1-0.3,0.3-0.5,0.6-0.8c0.1-0.1,0.3-0.2,0.4-0.2h-0.2L431.8,131.5z"/>
	<path fill="#7B54A2" d="M459.1,140.8c0.3,0,0.5,0.1,0.8,0.2c0.3,0.1,0.4,0.3,0.4,0.6c0,0.1-0.1,0.2-0.2,0.3
		c-0.1,0.1-0.3,0.2-0.4,0.5c0,0.1,0,0.2,0.1,0.3c0.1,0.1,0.1,0.2,0.1,0.3l-0.4,0.2v0.4c0,0.1-0.1,0.2-0.3,0.3
		c-0.2,0.1-0.3,0.2-0.3,0.5c0,0.1,0,0.2,0.1,0.3c0.1,0.1,0.1,0.2,0.1,0.3h-0.4l0.2,0.4l-0.4,1c0,0.1-0.1,0.2-0.2,0.2h-0.2
		c0,0.1,0,0.2,0.1,0.3c0.1,0.1,0.1,0.2,0.1,0.3l-0.4,0.4l-0.2,0.8c0,0.1-0.1,0.2-0.2,0.2h-0.2c0,0.1,0.1,0.3,0.2,0.4l-0.6,1.8
		c-0.5,1.1-1,2.2-1.5,3.4c-0.5,1.2-1,2.5-1.7,4c-0.3,0.4-0.5,1-0.8,1.8c-0.3,0.8-0.7,1.6-1.2,2.5c-0.5,0.9-1.2,1.6-2.1,2.2
		c-0.9,0.6-2,0.9-3.5,0.9c-2,0-3.4-0.6-4.3-1.9c-0.9-1.3-1.4-2.7-1.7-4.3c-0.3-1.6-0.3-3.1-0.2-4.6c0.1-1.5,0.2-2.4,0.2-2.8
		c0-3.2,0.2-6.4,0.5-9.8c0.3-3.3,0.8-6.5,1.4-9.6c0.6-3.1,1.2-5.9,1.9-8.5c0.7-2.6,1.3-4.7,2-6.5c-1.5-0.7-3.1-1.9-5-3.6
		c-1.7,5.2-3.1,9.5-4.2,13c-1.1,3.5-2.3,7.3-3.8,11.3l-0.2,0.2l-0.2,0.2h0.2l-0.2,0.2v0.2v0.2l-0.2,0.6h0.2l-0.2,0.2l-0.2,1.2
		c-0.3,0.8-0.5,1.5-0.8,2.2v0.4l-0.2,0.2l0.2,0.2h-0.2l-0.4,0.8l-0.4,0.8h0.2l-0.4,0.4l-0.2,0.2c-0.1,0.3-0.3,0.6-0.4,0.9
		c-0.1,0.3-0.3,0.6-0.4,0.9H429h0.2V148l-0.4-0.6l-0.2,0.2l0.2-0.2c0-0.1,0-0.2-0.1-0.2c-0.1,0-0.1-0.1-0.1-0.2l0.6-0.8L429,146
		c0-0.3,0-0.4-0.1-0.5c-0.1-0.1,0.2-0.9,0.9-2.5l0.2,0.2c0-0.1,0-0.2,0.1-0.1c0.1,0.1,0.1,0,0.1-0.1H430v-0.4l-0.4,1h-0.4v0.6
		l-0.4,0.8l-0.6,1l-0.4,0.8l-0.2,0.4l-0.4,0.8l-0.4,0.6c-0.1,0.3-0.3,0.5-0.4,0.6l-0.2,0.2h0.2l-0.2,0.2l-0.2,0.2
		c-0.5,0-0.8-0.2-0.8-0.6l0.4-0.8l-0.2-0.4l0.4-0.2l-0.2-0.4l0.4-0.4v-0.8l0.2-1l0.2-0.6l0.2-0.8l0.4-0.4l-0.2-0.2l0.4-1.4
		c0.7-2.1,1.4-4.7,2.2-7.7c0.8-3,1.6-6.1,2.4-9.3c0.8-3.2,1.5-6.3,2.1-9.5c0.6-3.1,1.1-5.9,1.5-8.5c-1.2-2.3-2-4.4-2.4-6.5
		c-0.4-2.1-0.6-3.8-0.6-5.3c0-1.6,0-2.7,0-3.2c0-0.5,0.9-0.8,2.6-0.8c3.1,0,5.3,0.1,6.7,0.4c1.4,0.3,2.3,0.7,2.8,1.4
		c0.5,0.7,0.7,1.5,0.6,2.6c-0.1,1.1,0,2.4,0.1,4c0.1,1.6,0.6,3.5,1.3,5.7c0.7,2.2,2.1,4.7,4.1,7.5c0.9,0.3,1.7,0.7,2.4,1.3
		c0.7,0.6,1.2,1.2,1.7,1.8c0.5,0.6,1,1.3,1.5,2.1c0,0.4-0.1,0.9-0.4,1.4v0.2v0.2v-0.2v0.2c0,0.1,0.1,0.2,0.2,0.2l-0.4,0.2l0.2-0.2
		c0-0.1-0.1-0.2-0.2-0.2c0,1.1-0.5,2.9-1.6,5.4c-1.1,2.5-2,6.2-2.8,11.2c-0.4,2.7-1.1,5.9-2,9.7c-0.9,3.8-1.4,7.5-1.4,11.1
		c0.8-1.1,1.6-2.2,2.3-3.3c0.7-1.1,1.4-2.2,2.1-3.3l0.2-0.4l0.2-0.4v-0.2l0.2-0.2l0.6-1l0.6-1.2h-0.2l0.4-0.4l0.4-0.4
		c0.3-0.4,0.5-0.9,0.7-1.4c0.2-0.5,0.4-0.9,0.7-1.2v0.2l-0.2,0.4l0.2,0.6l0.4-0.8h0.4l-0.2-0.2l-0.4-0.4l0.2-0.2
		c0.1-0.3,0.3-0.4,0.4-0.4l-0.2,0.2h0.4v-0.4v0.2l0.2-0.2v0.6c-0.1,0-0.2,0-0.1-0.1c0.1-0.1,0-0.1-0.1-0.1c-0.1,0-0.3,0.1-0.4,0.2
		c0,0.1,0.1,0.2,0.2,0.2v-0.2c0.1,0,0.2,0.1,0.2,0.2l0.4-0.8l0.6-0.8l0.6-0.6c0.1-0.1,0.3-0.2,0.4-0.2h-0.2l0.2-0.2H459.1z
		 M429.2,145.4h0.2h0.2H429.2z M431,143h-0.2l0.2,0.4v-0.2V143z M431.2,141.4l-0.2-0.2v0.2H431.2z M434,135.4l0.2-0.4L434,135.4z"/>
	<path fill="#7B54A2" d="M422.2,83.3c-0.4-0.3-0.8-0.5-1.2-0.6c-0.4-0.1-0.8-0.3-1.2-0.6l0.2,0.2l1-0.2h-0.2h0.4l-0.2-0.2l0.4,0.2
		h0.4c0.3,0,0.7,0.1,1.2,0.3c0.5,0.2,0.9,0.4,1.2,0.5H424h0.2c1.1,0,2.2,0.1,3.4,0.4c1.2,0.3,2.3,0.5,3.2,0.6h-0.2
		c0.1,0,0.2,0,0.2,0.1c0,0.1,0.1,0.1,0.2,0.1l-0.2-0.2h0.4c-2.9-0.5-5.6-1.2-8.1-1.9c-2.5-0.7-3.8-1.7-4.1-2.9
		c-0.1-0.5,0-0.9,0.5-1.2c0.5-0.3,0.8-0.5,1.1-0.8h0.2c0,0.1,0.1,0.2,0.3,0.2c0.2,0,0.4,0.1,0.5,0.2l0.4,0.4h-0.2
		c0.4,0.4,1.5,0.7,3.3,0.8c1.8,0.1,4.2,0.2,7.1,0.2c5.2,0,11.5-0.2,19-0.6c7.5-0.4,15.2-0.9,23.2-1.4c1.5-3.5,2.7-6.2,3.6-8.3
		c0.9-2.1,1.7-3.7,2.4-4.8c0.7-1.1,1.2-1.9,1.6-2.2c0.4-0.3,0.9-0.5,1.4-0.5c1.6,0,3.1,0.6,4.4,1.8c1.3,1.2,2.1,2.1,2.2,2.8
		c0.1,0.9-0.2,2.2-1.1,3.9c-0.9,1.7-1.9,3.8-3.1,6.5c4.2-0.3,7.7-0.4,10.5-0.5c2.7-0.1,5.7-0.1,8.9-0.1c2.3,0,4.5,0,6.9,0.1
		c2.3,0.1,4.5,0.2,6.5,0.5c2,0.3,3.7,0.6,5.2,1.1c1.5,0.5,2.5,1,3.2,1.7l-0.4,0.4l0.6-0.4c0.1,0.1,0.2,0.3,0.2,0.6
		c0.4,0.7,0,1.1-1.2,1.4c-0.7-0.3-1.5-0.5-2.4-0.6c-0.9-0.1-2.1-0.2-3.4-0.2c-2.4,0-5.2,0.2-8.4,0.6l1.2-0.2l-0.4,0.2h0.4h0.2
		l0.4-0.2v0.2h2.8l0.2,0.2l0.6-0.2h2c1.1,0.1,2.2,0.3,3.5,0.5c1.3,0.2,2.1,0.4,2.5,0.5h-0.8h0.2h-0.2h-0.6l-0.4,0.2l-1.2,0.2
		l0.4-0.2H522c-0.1,0.1-0.3,0.3-0.6,0.4v-0.2c-0.3,0-0.4,0-0.4,0.1c0,0.1-0.1,0.1-0.4,0.1l-1.8-0.2l-0.2-0.8l-1,0.6l-0.2,0.4h-1.6
		l0.2-0.2h0.4l0.4-0.2l0.4-0.8l-1.2,0.4l-0.8,0.2l-0.2,0.2c-0.4,0-0.7,0.1-0.8,0.4h-0.8l0.2-0.2l0.2-0.6h-1l-1-0.4l0.2,1l0.2,0.2
		h0.2h-0.6l0.2-0.2l-0.2,0.2l-0.2-0.2l0.2,0.2c0-0.1-0.3-0.1-1,0.1c-0.7,0.2-1.2,0.3-1.6,0.3c-0.3,0-0.5,0-0.7-0.1
		c-0.2-0.1-0.4-0.1-0.5-0.1l-0.2-0.4l0.4,0.2c0,0.1,0.1,0.2,0.2,0.2h0.4h0.4l-0.2-0.2l0.6-0.4l-0.2-0.2l-0.4-0.2l-0.4,0.2l-0.8,0.2
		l-0.2-0.2h-0.8l0.8-0.2h0.4l0.4-0.4c-0.3,0-0.5,0-0.8,0.1c-0.3,0.1-0.5,0.1-0.8,0.1l-0.4,0.8c0,0.1,0.1,0.2,0.2,0.2l0.4,0.2h-2
		c-0.7,0.3-1.3,0.4-2,0.3c-0.7-0.1-1.3,0-2,0.3l-0.2-0.2c-0.7,0.3-1.4,0.4-2.1,0.3c-0.7-0.1-1.4,0-2.1,0.1v-0.2
		c-2.7,0.5-5.3,1.1-7.9,1.6c-2.6,0.5-5,1-7.3,1.4c-0.7,1.6-1.8,4.7-3.5,9.4c-1.7,4.7-3.3,10-5,16c-1.7,6-3.1,12.4-4.4,19
		c-1.3,6.6-1.9,12.8-1.9,18.5c0,1.3,0.2,2.7,0.6,4.1c0.4,1.4,0.7,2.8,1,4.1v0.2l-0.2-0.2v0.2c0.1,0.1,0.3,0.2,0.6,0.2
		c2.1,0,4.3-1.2,6.5-3.6c2.2-2.4,3.8-4.8,4.9-7.4c-0.1-0.4-0.1-0.7,0.2-1v-0.4l0.2-0.2c-0.1-0.1-0.2-0.2-0.2-0.1
		c0,0.1-0.1,0-0.2-0.1l0.6-0.8v-1l0.2-0.4l0.4-0.2h-0.2c0.1-0.4,0.3-0.8,0.4-1.1c0.1-0.3,0.2-0.6,0.2-0.9l0.4,0.2l-0.2,0.2l0.4,0.6
		l0.4-0.4l0.2-0.6V140l0.2-0.2l0.4-0.8l-0.2-0.2l0.4-0.6c0-0.1,0.1-0.3,0.4-0.6l0.2-0.2l-0.2-0.2h0.2c0.8,0,1.3,0.1,1.6,0.4
		l-0.4,0.8c0,0.1,0.1,0.2,0.2,0.2l0.2,0.2c0,0.1-0.1,0.2-0.2,0.2h-0.2l0.4,0.4c0,0.1-0.1,0.2-0.2,0.2c-0.1,0-0.2,0.1-0.2,0.2
		c0,0.1,0,0.2,0.1,0.3c0.1,0.1,0.1,0.2,0.1,0.3v0.2l-0.2,1c0.1,0.3,0.1,0.4,0,0.3c-0.1-0.1-0.1,0,0,0.1l0.2,0.2l-0.2,0.4v0.6
		c-0.3,0-0.4,0.1-0.4,0.2l0.4,0.2v1.4c-0.3,1.1-0.7,2.8-1.2,5.1c-0.5,2.3-1.4,4.7-2.6,7.1c-1.2,2.4-2.8,4.5-4.7,6.3
		c-1.9,1.8-4.4,2.7-7.3,2.7c-2.4,0-4.4-0.6-6.1-1.7c-1.7-1.1-3-2.6-4-4.4c-1-1.8-1.7-3.9-2.1-6.2c-0.4-2.3-0.5-4.7-0.4-7.1
		c0.3-6.8,0.9-13.1,1.9-19.1c1-6,2.2-11.5,3.5-16.6c1.3-5.1,2.7-9.7,4-13.6c1.3-4,2.5-7.3,3.6-10c-0.5,0.1-1.5,0.2-2.8,0.2
		c-3.1,0-6.8-0.3-11.4-0.8c-4.5-0.5-9-0.8-13.5-0.8l-0.6-0.2h-0.4h-0.2l-0.4-0.2c0,0.1-0.3,0.2-0.8,0.2h-0.8h-0.8l-2.2-0.2l-0.4,0.2
		c-0.8,0-1.6,0-2.5-0.1c-0.9-0.1-1.8-0.2-2.7-0.3h-0.2h-1l0.2-0.2h-0.4v0.2H429l-1.6-0.6h-0.8L422.2,83.3z M425.2,83.3v-0.2H425
		L425.2,83.3z M428.2,84.2L428,84v0.2H428.2z M431.6,84.6h-0.2H431l-0.2,0.4h0.6l0.2-0.2V84.6z M435.2,84.6c0,0.1,0.1,0.1,0.2,0
		H435.2z M503.5,82.1h0.4l0.4-0.4c-0.1,0.1-0.4,0.2-0.8,0.2V82.1z M514.6,81.5v0.2l0.2-0.2H514.6z M514.8,80.9h0.2h0.2H515H514.8z"
		/>
</g>
</svg>
