<?xml version="1.0" encoding="utf-8"?>
<!-- Generator: Adobe Illustrator 18.1.1, SVG Export Plug-In . SVG Version: 6.00 Build 0)  -->
<svg version="1.1" id="Layer_1" xmlns="http://www.w3.org/2000/svg" xmlns:xlink="http://www.w3.org/1999/xlink" x="0px" y="0px"
	 viewBox="0 0 360 144" enable-background="new 0 0 360 144" xml:space="preserve">
<g>
	<path d="M143.1,15.9c1.3,0.9,2.5,1.6,3.5,2.3c1,0.7,1.4,1.3,1.4,1.7v0.1c-2.2,2.6-4.4,5.6-6.6,9.1c-2.2,3.5-4.3,7.2-6.3,11.2
		c-2,4-3.9,8.2-5.7,12.6c-1.8,4.4-3.3,8.9-4.7,13.3c0.6-0.4,1.1-0.7,1.5-1c0.4-0.3,0.7-0.4,0.9-0.4c0.3,0,0.8,0.3,1.6,0.9
		c0.8,0.6,1.5,1.4,2.3,2.2c0.8,0.8,1.5,1.6,2.1,2.4c0.6,0.8,0.9,1.3,0.9,1.4c0,0.3-0.3,0.6-0.9,1c-0.6,0.4-1.3,0.8-2,1.2
		c-0.8,0.4-1.6,0.8-2.4,1.2c-0.8,0.4-1.4,0.7-1.8,0.9l-0.1,0.1l-1.2,0.4l0.1-0.1c0.1-0.1,0.2-0.1,0.3-0.1c-0.2,0.1-0.5,0.2-0.9,0.3
		c-0.4,0.1-0.6,0.2-0.6,0.4l-0.6,0.3v-0.1V77l-1.3,0.4l0.1,0.1l0.1,0.1h0.1l-0.4,0.1l0.1-0.3c-0.1,0.1-0.1,0.1-0.1,0.1
		c0,0,0,0-0.1,0.1l-0.3,0.1c-0.3,0-0.6,0.8-0.8,2.5c-0.2,1.7-0.5,3.6-0.7,5.7c-0.2,2.1-0.4,4.1-0.5,6.1c-0.1,1.9-0.2,3.1-0.2,3.6
		l-0.1,0.6V97v0.6c0-0.2,0-0.1,0,0.1c0,0.3,0,0.4,0.1,0.4V99v0.4h-0.1l0.1,0.3h-0.1l0.1,2l-0.1,0.1l0.1,0.3c0.1,0.8,0.1,1.6,0.1,2.4
		c0,0.8,0,1.6,0.1,2.4v0.1l0.1,0.9h-0.1l0.1,0.1l0.1,0.4v1.6l0.1,1.3c0,0.4,0,0.7,0.1,0.9v0.9l0.3,0.4c0.1,1.2,0.3,2.4,0.7,3.6
		l-0.1-0.3l-0.6-0.6v0.1l-0.1-0.3v0.1l-0.1-0.3c-0.2-0.3-0.3-0.7-0.4-1.2c-0.1-0.5-0.2-1-0.3-1.4h0.1c-0.3-0.2-0.5-0.6-0.6-1.3
		c-0.1-0.7-0.1-1.2-0.1-1.4v-0.3c-0.1-0.6-0.2-1.1-0.3-1.7c-0.1-0.5-0.2-1.1-0.3-1.8l0.1,0.3v-0.1V107v-0.1v0.1
		c-0.1,0-0.2-0.3-0.2-0.9c0-0.6-0.1-1.1-0.2-1.4h0.1c-0.1-0.3-0.1-0.9-0.1-1.7l0.1-0.3c-0.1-0.1-0.2-0.4-0.3-1c0-0.2,0-0.4,0-0.7
		c0-0.2,0-0.5,0.1-0.7c-0.1-0.6-0.1-1.2-0.1-1.7c0-0.6,0-1.2,0-1.9c-0.1,1-0.1,1.9-0.1,2.7c0,0.9,0,1.7,0,2.6
		c0,5.5,0.4,9.6,1.2,12.4c0.8,2.8,1.2,4.1,1.2,3.9c0,0.1,0,0.3-0.1,0.5c-0.1,0.2-0.3,0.4-0.7,0.4c-0.7,0-1.3-0.7-1.9-2.1
		c-0.6-1.4-1.1-3.3-1.5-5.6c-0.4-2.4-0.8-5-1.1-8c-0.3-3-0.4-6.1-0.4-9.3c0-2.5,0.1-5,0.2-7.6c0.1-2.6,0.4-5.2,0.8-7.9h-2.2
		l-0.1-0.1h-0.6c-0.5,0-1,0-1.4-0.1c-0.5-0.1-1-0.1-1.4-0.1l0.1-0.1l-0.3-0.1l0.7,0.1l-0.4-0.3c-0.2,0-0.3,0-0.4-0.1l-0.1,0.1
		l-0.1,0.1l0.3,0.1c-0.5,0-1-0.1-1.4-0.4c-0.5-0.3-1.2-0.4-2.2-0.4v0.1c-0.3-0.2-0.6-0.3-1-0.4c-0.4,0-0.7-0.2-0.9-0.4
		c0,0.1,0,0.1-0.1,0.1c0,0-0.1,0-0.1,0.1c-0.2-0.1-0.5-0.2-0.9-0.4c-0.4-0.2-0.6-0.2-0.6-0.1v-0.1c-0.4,0-0.7-0.1-1-0.3
		c-0.3,0.4-0.7,0.9-1.1,1.6c-0.4,0.7-0.8,1.3-1.2,2c-0.4,0.6-0.9,1.4-1.6,2.4c-0.3,0.6-0.7,1.3-1.3,2.1c-0.6,0.8-1.1,1.6-1.6,2.2
		v-0.3C95.1,86,95,86.2,95,86.4c0,0.2-0.1,0.3-0.3,0.3c0,0.1,0,0.1-0.1,0.1c0,0.1,0,0.1,0.1,0.1v-0.1c-0.5,0.8-1,1.6-1.5,2.4
		c-0.5,0.8-1.1,1.6-1.8,2.4l-0.1-0.7c0.3-0.3,0.4-0.5,0.4-0.6c-0.6,0.7-1.1,1.3-1.7,1.9c-0.5,0.6-1.1,1.2-1.7,1.9l-0.3,0.3
		c-0.2,0.1-0.4,0.3-0.7,0.7c-0.3,0.4-0.4,0.7-0.4,0.9l0.1,0.4l1.4-2.2l-0.3,0.1l0.7-0.6c-0.2,0.2-0.1,0.1,0.3-0.2
		c0.4-0.3,0.6-0.7,0.6-0.9l1.6-1l-0.6,0.7c-0.3,0.4-0.5,0.6-0.7,0.6l-0.1,0.3h0.1l-0.3,0.1v0.1l-0.1,0.3l-0.3,0.1l-0.3,0.4l-0.4,0.4
		c-0.2,0.3-0.4,0.6-0.7,0.9c-0.2,0.3-0.5,0.5-0.7,0.7c-1.4,1.9-3.1,3.8-4.8,5.7c-1.8,1.9-3.8,3.6-5.9,5.1c-2.2,1.5-4.5,2.8-6.9,3.8
		c-2.4,1-4.9,1.4-7.5,1.4c-0.7,0-1.3-0.1-1.7-0.2c-0.5-0.1-0.9-0.2-1.2-0.2H59v-0.1h-0.9H58c-0.1,0-0.2,0-0.4-0.1
		c-0.2,0-0.3-0.1-0.4-0.1l-1-0.4l-0.7-0.1l-0.6-0.1c-0.5-0.2-1-0.4-1.4-0.6c-0.5-0.2-1-0.4-1.4-0.7l-0.6-0.3c-1.1-0.5-2.1-1.1-3-2
		c-1-0.8-1.9-1.7-2.7-2.5l-0.3-0.3l-0.9-0.9h0.1l-0.3-0.3l-0.4-0.4v-0.3l-1.4-2c-0.2-0.2-0.5-0.6-0.9-1.2c-0.4-0.6-0.6-1.2-0.6-1.7
		h0.1l-0.4-1.2l-0.4-0.9c-0.1-0.8-0.2-1.6-0.4-2.5c-0.1-0.9-0.2-1.7-0.2-2.5c0-0.6,0-1,0.1-1.3l-0.1,0.6v0.6l0.4,1v-0.1l0.3,0.4
		l-0.1-0.1l0.3,0.4h-0.1c0.2,0.6,0.3,1.2,0.4,2c0.1,0.7,0.3,1.3,0.6,1.8h-0.1c0.2,0.2,0.4,0.5,0.5,0.9c0.1,0.4,0.3,0.7,0.5,0.9
		c0.5,1.4,1.1,2.6,1.9,3.6c0.8,1,1.5,1.8,2.3,2.6h-0.3c0.2,0.1,0.3,0.1,0.2,0.1c0,0,0,0,0.2,0.1h-0.1c0.3,0,0.7,0.3,1.2,0.8
		c0.5,0.5,1,0.9,1.4,1.1v0.1c0.3,0.2,0.7,0.5,1.2,0.9c0.5,0.4,0.9,0.7,1.3,0.9c0.2,0.1,1.2,0.6,3,1.4c1.8,0.8,3.7,1.2,5.7,1.2
		l0.1,0.1c0.2,0,0.4,0,0.7,0.1c0.3,0,0.5,0.1,0.7,0.1c0.8,0,1.5,0,2.3-0.1c0.8-0.1,1.4-0.2,2-0.4v0.3c0.6,0,0.9-0.1,0.9-0.4
		c1.1-0.2,1.9-0.5,2.6-0.8c0.7-0.3,1.3-0.7,2-1.1l-0.1,0.1h0.1c-0.1,0,0-0.1,0.3-0.2c0.3-0.1,0.5-0.3,0.6-0.4l-0.3,0.4l1.6-0.9
		l-0.1-0.1l0.4-0.1l-0.4,0.1v-0.1c0.7-0.4,1.4-0.9,2.2-1.4c0.8-0.6,1.5-1.2,2-1.7c0.1,0,0.1,0,0.1,0.1c0,0,0,0.1,0.1,0.1l0.1-0.1
		v-0.1c0-0.1,0.1-0.3,0.4-0.5c0.3-0.2,0.7-0.5,1.1-0.9c0.4-0.3,0.8-0.7,1.2-0.9c0.3-0.3,0.6-0.5,0.8-0.7l2.2-2.3
		c-2.7,2.8-5.9,5.2-9.7,7.2c-3.8,2-7.3,3-10.6,3.1c-3.8,0-7.1-1-10.1-2.9c-3-1.9-5.3-4-6.8-6.1c-0.8-1.1-1.8-2.4-3-4.1
		c-1.2-1.7-2.3-3.9-3.3-6.7v0.7v-0.3c0-0.1,0-0.2-0.1-0.3l-0.4-0.3c0.2-0.2,0.3-0.4,0.2-0.5c0-0.1-0.1-0.3-0.1-0.5
		c-0.5-1.7-0.9-3.6-1.3-5.6c-0.4-2-0.6-4.1-0.6-6.4c0-3.7,0.6-7.6,1.9-11.9c1.3-4.2,3.2-8.1,5.9-11.7c2.7-3.6,6.1-6.5,10.3-8.9
		c4.2-2.4,9.2-3.5,15.1-3.5c2.6,0,5.2,0.4,7.8,1.2c2.6,0.8,5,2,7.2,3.6c2.2,1.6,3.9,3.6,5.3,5.9c1.3,2.4,2,5.1,2,8.3
		c0,0.5,0,1-0.1,1.4c0,0.5-0.1,1-0.2,1.4c1.1,0.8,2.1,1.5,3.1,2.2c1,0.7,2.1,1.4,3.4,2c2.2-4.6,4.4-9.1,6.6-13.5
		c2.2-4.4,4.4-8.6,6.6-12.5c2-3.8,4.1-7.1,6.2-10.1c2.1-3,4.1-5.5,6-7.6c1.9-2.1,3.5-3.7,4.8-4.8c1.3-1.2,2.3-1.7,2.7-1.7
		c0.5,0,1,0.2,1.6,0.7c0.6,0.4,1.3,1.3,2.2,2.7c0.9-1.3,1.6-2.3,2.1-3.1c0.5-0.8,1.1-1.2,1.7-1.2C140.9,14.7,141.9,15.1,143.1,15.9z
		 M89.4,83.4c1.2-1.6,2.3-3.3,3.4-5.1c1.1-1.8,2.2-3.6,3.3-5.4l-0.9-0.4c-0.3-0.2-0.7-0.5-1.1-0.8c-0.4-0.3-0.9-0.7-1.4-0.9h0.1
		c0-0.1-0.1-0.1-0.2-0.1s-0.2-0.1-0.2-0.3h-0.1c0,0.1,0,0.1,0.1,0.1l-2.2-1.7c-0.3,0.4-0.6,0.7-0.9,1c-0.3,0.3-0.5,0.6-0.7,0.9
		c-0.7,0.8-1.8,1.8-3.3,3c-1.5,1.3-3.9,1.9-7.2,1.9c-1.2,0-2.3-0.1-3.5-0.4c-1.2-0.3-2.3-0.8-3.3-1.4c-1-0.7-1.9-1.6-2.5-2.7
		c-0.7-1.2-1-2.6-1-4.2c0-1.3,0.3-2.6,0.9-3.9c0.6-1.3,1.4-2.4,2.4-3.4c1-1,2.2-1.8,3.5-2.5c1.3-0.6,2.8-0.9,4.5-0.9
		c1.2,0,2.3,0.1,3.3,0.4c1.1,0.2,2,0.6,2.9,0.9c-1.1-3.1-2.9-5.5-5.4-7.3c-2.6-1.8-6.1-2.7-10.8-2.7c-0.4,0-1,0-1.8,0.1
		c-0.8,0.1-1.7,0.2-2.6,0.4c-0.9,0.1-1.8,0.3-2.5,0.5c-0.8,0.2-1.3,0.4-1.4,0.7c-0.2,0.2-0.3,0.3-0.4,0.3v-0.1
		c-0.2,0.2-0.7,0.5-1.4,0.9c-0.7,0.4-1.3,0.7-1.8,0.9l0.1-0.3L56.8,51h-0.1l-0.1,0.1h0.1c-0.5,0.4-1,0.8-1.4,1.2
		c-0.5,0.4-0.9,0.9-1.3,1.4l-0.3-0.4c0.1-0.2,0.2-0.3,0.3-0.4c0.1,0,0.1-0.1,0.1-0.2v-0.1v-0.3l-0.4,0.3c-0.1,0.1-0.1,0.1-0.1,0.1
		c0,0,0,0-0.1,0.2L53.2,53l0.7-0.7l0.1-0.3c-0.4,0.4-0.7,0.6-0.9,0.7L53.1,53l-0.1-0.1c0,0.1,0,0.1-0.1,0.1c0,0-0.1,0-0.1,0.1
		c-2,1.5-3.7,3.4-5.1,5.5c-1.4,2.1-2.5,4.3-3.4,6.7c-0.9,2.3-1.5,4.6-1.9,6.9c-0.4,2.3-0.6,4.3-0.6,6c0,3.4,0.4,6.4,1.1,9.2
		c0.7,2.7,1.7,5.1,3,7c0-0.8-0.3-1.7-0.9-2.8c-0.6-1.1-1-2-1.2-2.7L44,89c-0.1-0.1-0.1-0.1-0.1-0.1c0,0,0-0.1-0.1-0.3v0.1
		c-0.1,0-0.2-0.3-0.4-0.8c-0.1-0.5-0.3-1-0.4-1.5h0.1c-0.2-0.3-0.3-0.9-0.3-1.7v-0.3c-0.3-0.9-0.4-1.9-0.4-3.1c0-1.2,0-2.4,0-3.5
		l0.1-0.1c0-0.8,0-1.5,0.1-2.3c0.1-0.8,0.2-1.4,0.3-2l0.1,0.1c0-0.1,0-0.2,0.1-0.2c0,0,0.1-0.1,0.1-0.2c0-0.1,0-0.2-0.1-0.3
		c0.1-0.3,0.1-0.8,0-1.4c-0.1-0.7,0.2-1.4,1-2.2l0.1-0.6l0.1,0.4l0.3-1l-0.1-0.3l0.1-0.3l-0.3,0.3c0.2-0.8,0.4-1.4,0.7-2
		c0.2-0.6,0.5-1.1,0.7-1.6c0-0.9,0.4-1.9,1.2-3c0.8-1.1,1.4-2,1.9-2.8l0.3,0.3c0.1,0,0.3-0.2,0.7-0.6l0.4-0.6l-0.1-0.1L50,57.1
		l-0.1-0.3l-0.4,0.6l-0.3,0.4l1-1.6c0.1-0.2,0.2-0.4,0.4-0.7c0.1-0.2,0.3-0.5,0.5-0.7c0.2-0.2,0.4-0.3,0.6-0.4
		c0.1-0.2,0.3-0.4,0.5-0.7c0.2-0.2,0.5-0.5,0.7-0.7L52.5,54c-0.2,0-0.4,0.1-0.5,0.4c-0.1,0.3-0.2,0.4-0.2,0.3l-0.4,0.7h-0.3
		l-0.3,0.4l-0.3,0.6l0.1,0.1l0.1,0.4l0.9-1.6h-0.3l0.6-0.3l0.4-0.4c0.2-0.2,0.3-0.3,0.3-0.4l0.3-0.3l1-0.1l-0.4,0.4
		c-0.2,0.2-0.4,0.3-0.6,0.3l-0.1,0.1l-0.1,0.1v0.1v-0.1l-0.3,0.3l-0.1,0.4l-0.3,0.3c-2.2,3.3-4,6.7-5.3,10.3
		c-1.4,3.6-2.2,7.3-2.5,11.1l-0.3,0.6c0,0.4,0,0.6,0.1,0.6l-0.1,0.6c0.1-0.1,0.1,0,0.1,0.2c0,0.2,0,0.4,0.1,0.5v0.9v0.7v-0.1
		l0.1,2.2v0.4c0.1,0.8,0.2,1.6,0.4,2.4c0.1,0.8,0.3,1.6,0.5,2.4l0.1,0.7l0.1,0.4l0.1,0.1l0.1,0.3l-0.1,0.1c0.1,0.4,0.2,0.9,0.4,1.4
		l0.6,1.2c0,0.2,0.1,0.5,0.3,0.9l0.3,0.7l-0.1,0.1l0.4,0.6v-0.1c0.8,1.8,1.6,3.2,2.6,4c1.3,1.3,3.1,2.6,5.3,3.9
		c2.2,1.3,4.4,1.9,6.5,1.9c2.3,0,4.7-0.6,7.2-1.7c2.5-1.2,4.9-2.7,7.2-4.7c2.4-2,4.7-4.3,6.9-6.9C85.3,89,87.4,86.3,89.4,83.4z
		 M41.8,97.4c0.1,0,0.1,0.1,0.1,0.3v-0.1v0.1L41.8,97.4z M42.8,76.5l0.1,0.1v-0.1H42.8z M43.1,82.7v0.1l0.1-0.1H43.1z M43.1,100
		c0,0.1,0,0.1,0.1,0.1v0.1L43.1,100z M44,88.3v0.3v-0.1V88.3z M44.3,88.7l-0.1-0.1v-0.1C44.1,88.5,44.2,88.6,44.3,88.7z M44.3,88.2
		l0.1,0.3l0.3,0.3l-0.3-0.6L44.3,88V88.2z M44.7,91.1c0-0.1,0-0.2-0.1-0.2c0,0-0.1-0.1-0.1-0.2l-0.1-0.1L44.7,91.1z M45.1,68.6
		l0.1-0.4L45,67.9l-0.3,0.7l-0.1,0.7H45l0.3-0.7H45.1z M44.7,70.2v0.1v0.9l0.1-0.7l0.1-0.1v-0.9L44.7,70.2z M45.6,93.4v0.3
		c0.1,0,0.1-0.1,0.1-0.3H45.6z M46,94.2c0-0.1,0-0.1-0.1-0.1v0.1H46z M46.6,105.4l0.1-0.1l-0.3-0.4l-0.6-0.1l0.6,0.6l0.3,0.1H46.6z
		 M46.1,104.5l0.3,0.3v-0.3H46.1z M47.3,61.3l-0.3,1h-0.3l-0.1,0.6c-0.1,0.1-0.1,0.2-0.1,0.4c0,0.2,0,0.3,0.1,0.3l0.3-0.3L47,63
		l0.4-0.9h-0.3l0.3-0.1c0,0.1,0.1,0,0.2-0.2c0.1-0.2,0.3-0.5,0.4-0.7h-0.1v-0.6h-0.3L47.3,61c0,0.2,0,0.3-0.1,0.3v0.1L47.3,61.3z
		 M46.9,104.9c0-0.2-0.1-0.3-0.3-0.3L46.9,104.9z M48.7,98.1l0.3,0.3l0.1,0.1L48.7,98.1z M50.9,108.3c0,0.1,0,0.1,0.1,0.1
		c0.1,0,0.2,0,0.3,0.1C51.3,108.4,51.2,108.3,50.9,108.3z M51.3,108.4v-0.1l-0.1-0.1l0.1,0.1V108.4z M53.2,109.6
		c0,0.1,0,0.1,0.1,0.1v-0.1H53.2z M55.4,51.7l0.1,0.1v-0.1H55.4z M61.9,111.1l-0.1-0.1v0.1H61.9z M71.9,109.3l-1,0.6
		c-0.1,0-0.2,0-0.3,0.1h-0.1l-0.7,0.4l1-0.3l0.4-0.3L71.9,109.3z M72.9,108.7l0.7-0.4l-0.1-0.4l-1.7,1l0.4,0.3l0.9-0.4H72.9z
		 M72.6,63.7c0-0.2,0.1-0.4,0.3-0.6C72.7,63.3,72.6,63.5,72.6,63.7z M72.9,63.2c0.4-0.6,0.8-1,1.3-1.3
		C73.7,62.1,73.3,62.6,72.9,63.2z M77.4,71.2l0.1,0.1l0.3-0.1v0.1c2.6-0.1,4.5-0.8,5.7-2.1c1.2-1.3,2-2.6,2.5-3.8
		c-1.3-0.9-2.6-1.7-4.1-2.4C80.4,62.4,79,62,77.8,62c-1,0-1.8,0.3-2.5,0.9c-0.7,0.6-1.3,1.3-1.8,2.2l-0.3,0.3c0,0.1,0,0.2-0.1,0.2
		c0,0-0.1,0.1-0.1,0.2h0.1L73,66.2v0.1v0.3l0.1,0.6v0.6v-0.1v0.1c0,0.2,0.1,0.4,0.2,0.7c0.1,0.2,0.3,0.5,0.4,0.7l0.1,0.3v-0.1
		c0.9,1,1.8,1.6,2.7,1.9l0.4,0.1H77.4z M74.2,62c0.3-0.1,0.4-0.3,0.4-0.6l-0.4,0.4V62z M75.3,61.1c0.1-0.1,0.2-0.1,0.2-0.1
		c0,0,0.1,0,0.2-0.1C75.8,60.7,75.6,60.8,75.3,61.1z M76.8,61.7h0.1l0.6-0.3h-0.6l-0.6,0.4L76.8,61.7z M84.4,62.7
		c0.1,0.2,0.2,0.3,0.4,0.4c0.2,0,0.4,0.1,0.6,0.2c-1.1-0.8-2.2-1.4-3.4-2c-1.2-0.6-2.5-0.9-3.8-0.9c-0.2,0.1-0.4,0.1-0.7,0.1h0.3
		h0.4l-0.3,0.3h0.7l0.3-0.1l0.1,0.1L79,60.6c0.7,0,1.2,0.1,1.4,0.3c0-0.1,0-0.1,0.1-0.1c0,0,0.1,0,0.1-0.1c0.3,0.2,0.6,0.3,0.8,0.4
		c0.2,0.1,0.5,0.2,0.7,0.3c0,0.1,0,0.1,0.1,0.1c0.1,0,0.1,0,0.1-0.1c0,0,0-0.1,0.1-0.1c0.5,0.2,0.9,0.4,1.2,0.7
		c0.3,0.2,0.6,0.5,0.9,0.7l-0.1-0.1H84l0.1,0.1l-0.7-0.3v-0.3L83,62c-0.1,0-0.2,0-0.2-0.1c0,0-0.1-0.1-0.2-0.1c-0.2,0-0.3,0-0.3,0.1
		l0.3,0.3l0.1,0.1l0.7,0.4v-0.3l0.1,0.1c0,0.2,0.1,0.3,0.3,0.4l0.3,0.1v-0.1l0.4,0.1l0.1-0.3L84.4,62.7z M78.2,61.3l0.4,0.1V61h-1.2
		l0.1,0.3h0.4l0.1,0.1V61.3z M82.3,100.7l-0.1-0.1l-0.3,0.1l-0.4,0.3l-0.4,0.4h0.1l-0.9,1l-0.9,0.6c-0.4,0.4-0.6,0.7-0.6,0.9H79
		c0.1,0,0.2,0,0.3-0.1l0.4-0.3l1.2-1h-0.4l0.4-0.3v0.1c0.2,0,0.4-0.1,0.6-0.4c0.2-0.2,0.4-0.5,0.6-0.7h-0.3l0.4-0.4L82.3,100.7z
		 M86.3,97l-0.1-0.4v-0.1v-0.1L84.4,98l0.3,0.3c0.1,0,0.2,0,0.3-0.1c0.1-0.1,0.2-0.2,0.3-0.2c0.1,0,0.2-0.2,0.4-0.4L86.3,97z
		 M90.8,67.8c-0.2,0.2-0.3,0.3-0.3,0.4c0.1,0.1,0.2,0.1,0.3,0.1l0.3-0.1l-0.3-0.3V67.8z M91,67.6c-0.1,0-0.1,0-0.1,0.1l0.3,0.3
		l0.1,0.1l1,0.4l0.1,0.1c-0.2-0.2-0.4-0.4-0.7-0.6C91.4,68,91.1,67.8,91,67.6z M92.5,69.4l1,1.3l0.7-0.4c-0.1,0-0.1,0-0.1-0.1
		l-0.7-0.3L92.5,69.4z M94.7,71.5c0,0.1,0,0.1,0.1,0.1L94.7,71.5h0.1H94.7z M95.1,72l0.1,0.1V72l-0.1-0.1V72z M95.3,71
		c0,0.1,0,0.1,0.1,0.1L95.3,71z M104.3,76.2c-0.8-0.4-1.4-0.7-1.9-0.9v0.1l0.1,0.1l0.3,0.1l0.3,0.3h0.3l0.1,0.1h0.4l-0.1-0.1h0.1
		C104.1,76.1,104.2,76.2,104.3,76.2z M105.6,76.6l-0.6-0.3c0.1,0.1,0.2,0.1,0.3,0.1C105.4,76.5,105.5,76.5,105.6,76.6z M118.9,65
		c1.3-6.4,3.1-12.5,5.1-18.4c2.1-5.9,4.2-11.2,6.4-15.8c-4.2,4.8-8.2,10.6-12,17.3c-3.8,6.7-7.8,13.6-12,20.7
		c1.3,0.4,2.5,0.7,3.8,0.8c1.3,0.1,2.4,0.2,3.5,0.2c1.3,0,2.3-0.1,3-0.3c0.6-0.2,1.1-0.5,1.3-0.9c0.2-0.4,0.4-0.9,0.4-1.5
		C118.4,66.5,118.6,65.8,118.9,65z M107.4,77.6l-0.3-0.3h-0.3h-0.3l0.1-0.3l0.1-0.1c0.1,0.2,0.2,0.2,0.4,0.1c0.1-0.1,0.2,0,0.2,0.1
		V77.6z M111.9,78.2V78h-0.6v0.3L111.9,78.2h-0.1H111.9z M119,96.3c-0.1-0.1-0.1-0.2-0.1-0.4v0.4H119z M119.1,92.2
		c0.1-0.1,0.1-0.2,0.1-0.3L119.1,92.2z M119.6,102.6v-0.1l-0.1,0.1c0,0.1,0,0.1,0.1,0.1c0,0,0.1,0,0.1,0.1V102.6z M119.9,107
		c0-0.1,0-0.2-0.1-0.3v0.1L119.9,107z M119.7,108.5v0.3c0,0.1,0,0.2,0.1,0.2c0,0,0.1,0.1,0.1,0.2L119.7,108.5z M120.3,86.9l-0.3-0.1
		l-0.1,1.4l0.4-0.1v-0.6V86.9z M120,106.2h-0.1v0.4l0.3,0.3v-0.7H120z M120,110.6l-0.1-0.3v0.1L120,110.6z M120.3,89v-0.9l-0.1,0.9
		l-0.1,0.9l0.3-0.7V89z M120.2,111.6v0.3l0.1-0.3H120.2z M120.3,112.6v-0.1v-0.1V112.6z"/>
	<path d="M151.9,82.9c0.2,0,0.3,0,0.5,0.1c0.2,0.1,0.2,0.2,0.2,0.4c0,0.1,0,0.1-0.1,0.2c-0.1,0-0.2,0.1-0.2,0.3c0,0.1,0,0.1,0.1,0.2
		c0,0,0.1,0.1,0.1,0.2l-0.2,0.1v0.2c0,0.1-0.1,0.1-0.2,0.2c-0.1,0-0.2,0.1-0.2,0.3c0,0.1,0,0.1,0.1,0.2c0,0,0.1,0.1,0.1,0.2h-0.2
		l0.1,0.2l-0.2,0.6c0,0.1,0,0.1-0.1,0.1h-0.1c0,0.1,0,0.1,0.1,0.2c0,0,0.1,0.1,0.1,0.2l-0.2,0.2l-0.1,0.5c0,0.1,0,0.1-0.1,0.1h-0.1
		c0,0.1,0,0.2,0.1,0.2l-0.4,1.1c-0.3,0.7-0.6,1.4-0.9,2.1c-0.3,0.7-0.6,1.6-1,2.5c-0.2,0.2-0.3,0.6-0.5,1.1c-0.2,0.5-0.4,1-0.7,1.5
		c-0.3,0.5-0.8,1-1.3,1.4c-0.5,0.4-1.3,0.6-2.2,0.6c-1.2,0-2.1-0.4-2.7-1.2c-0.5-0.8-0.9-1.7-1-2.7c-0.2-1-0.2-1.9-0.1-2.8
		c0.1-0.9,0.1-1.5,0.1-1.7c0-2,0.1-4,0.3-6c0.2-2.1,0.5-4,0.9-5.9c0.4-1.9,0.8-3.6,1.2-5.2c0.4-1.6,0.8-2.9,1.2-4
		c-0.9-0.4-1.9-1.2-3.1-2.2c-1.1,3.2-1.9,5.9-2.6,8.1c-0.7,2.2-1.4,4.5-2.3,7l-0.1,0.1l-0.1,0.1h0.1l-0.1,0.1v0.1V82l-0.1,0.4h0.1
		l-0.1,0.1l-0.1,0.7c-0.2,0.5-0.3,0.9-0.5,1.4v0.2l-0.1,0.1l0.1,0.1h-0.1l-0.2,0.5l-0.2,0.5h0.1l-0.2,0.2l-0.1,0.1
		c-0.1,0.2-0.2,0.4-0.2,0.6c-0.1,0.2-0.2,0.4-0.2,0.6h-0.1h0.1v-0.2l-0.2-0.4l-0.1,0.1l0.1-0.1c0-0.1,0-0.1-0.1-0.1
		c0,0-0.1,0-0.1-0.1l0.4-0.5l-0.1-0.1c0-0.2,0-0.3-0.1-0.3c0,0,0.1-0.6,0.6-1.5l0.1,0.1c0-0.1,0-0.1,0.1-0.1c0,0,0.1,0,0.1-0.1h-0.1
		V84l-0.2,0.6h-0.2V85l-0.2,0.5l-0.4,0.6l-0.2,0.5l-0.1,0.2l-0.2,0.5l-0.2,0.4c-0.1,0.2-0.2,0.3-0.2,0.4l-0.1,0.1h0.1l-0.1,0.1
		l-0.1,0.1c-0.3,0-0.5-0.1-0.5-0.4l0.2-0.5l-0.1-0.2l0.2-0.1l-0.1-0.2l0.2-0.2v-0.5l0.1-0.6l0.1-0.4l0.1-0.5l0.2-0.2l-0.1-0.1
		l0.2-0.9c0.4-1.3,0.9-2.9,1.4-4.8c0.5-1.9,1-3.8,1.5-5.7c0.5-2,0.9-3.9,1.3-5.9c0.4-1.9,0.7-3.7,0.9-5.2c-0.7-1.4-1.2-2.7-1.5-4
		c-0.2-1.3-0.4-2.4-0.4-3.3c0-1,0-1.6,0-2c0-0.3,0.5-0.5,1.6-0.5c1.9,0,3.3,0.1,4.1,0.2c0.9,0.2,1.4,0.5,1.7,0.9
		c0.3,0.4,0.4,0.9,0.4,1.6c0,0.7,0,1.5,0.1,2.5c0.1,1,0.3,2.2,0.8,3.5c0.5,1.4,1.3,2.9,2.5,4.6c0.6,0.2,1.1,0.4,1.5,0.8
		c0.4,0.4,0.8,0.7,1,1.1c0.3,0.4,0.6,0.8,0.9,1.3c0,0.2-0.1,0.5-0.2,0.9v0.1v0.1v-0.1v0.1c0,0.1,0,0.1,0.1,0.1l-0.2,0.1l0.1-0.1
		c0-0.1,0-0.1-0.1-0.1c0,0.7-0.3,1.8-1,3.3c-0.7,1.6-1.2,3.9-1.7,6.9c-0.2,1.6-0.7,3.6-1.2,6c-0.6,2.3-0.9,4.6-0.9,6.8
		c0.5-0.7,1-1.3,1.4-2c0.5-0.7,0.9-1.4,1.3-2l0.1-0.2l0.1-0.2v-0.1L148,88l0.4-0.6l0.4-0.7h-0.1l0.2-0.2l0.2-0.2
		c0.2-0.2,0.3-0.5,0.4-0.9c0.1-0.3,0.3-0.6,0.4-0.7v0.1l-0.1,0.2l0.1,0.4l0.2-0.5h0.2l-0.1-0.1l-0.2-0.2l0.1-0.1
		c0.1-0.2,0.2-0.2,0.2-0.2l-0.1,0.1h0.2V84v0.1l0.1-0.1v0.4c-0.1,0-0.1,0-0.1-0.1c0,0,0-0.1-0.1-0.1c-0.1,0-0.2,0-0.2,0.1
		c0,0.1,0,0.1,0.1,0.1v-0.1c0.1,0,0.1,0,0.1,0.1l0.2-0.5l0.4-0.5l0.4-0.4c0.1-0.1,0.2-0.1,0.2-0.1h-0.1l0.1-0.1H151.9z M133.4,85.7
		h0.1h0.1H133.4z M134.5,84.2h-0.1l0.1,0.2v-0.1V84.2z M134.7,83.2l-0.1-0.1v0.1H134.7z M136.4,79.5l0.1-0.2L136.4,79.5z"/>
	<path d="M129.1,47.2c-0.2-0.2-0.5-0.3-0.7-0.4c-0.2-0.1-0.5-0.2-0.7-0.4l0.1,0.1l0.6-0.1h-0.1h0.2l-0.1-0.1l0.2,0.1h0.2
		c0.2,0,0.4,0.1,0.7,0.2c0.3,0.1,0.6,0.2,0.7,0.3h-0.1h0.1c0.7,0,1.4,0.1,2.1,0.2c0.7,0.2,1.4,0.3,2,0.4h-0.1c0.1,0,0.1,0,0.1,0.1
		c0,0,0,0.1,0.1,0.1l-0.1-0.1h0.2c-1.8-0.3-3.5-0.7-5-1.2c-1.5-0.5-2.4-1-2.5-1.8c-0.1-0.3,0-0.6,0.3-0.7c0.3-0.2,0.5-0.3,0.7-0.5
		h0.1c0,0.1,0.1,0.1,0.2,0.1c0.1,0,0.2,0,0.3,0.1l0.2,0.2h-0.1c0.2,0.2,0.9,0.4,2,0.5c1.1,0.1,2.6,0.1,4.4,0.1
		c3.2,0,7.1-0.1,11.8-0.4c4.6-0.2,9.4-0.5,14.4-0.9c0.9-2.1,1.6-3.8,2.2-5.1c0.6-1.3,1.1-2.3,1.5-3c0.4-0.7,0.7-1.2,1-1.4
		c0.2-0.2,0.5-0.3,0.9-0.3c1,0,1.9,0.4,2.7,1.1c0.8,0.7,1.3,1.3,1.4,1.7c0.1,0.6-0.1,1.4-0.7,2.4c-0.5,1-1.2,2.4-1.9,4
		c2.6-0.2,4.8-0.3,6.5-0.3c1.7,0,3.5-0.1,5.5-0.1c1.4,0,2.8,0,4.3,0.1c1.4,0,2.8,0.1,4,0.3c1.2,0.2,2.3,0.4,3.2,0.7
		c0.9,0.3,1.6,0.6,2,1l-0.2,0.2l0.4-0.2c0.1,0.1,0.1,0.2,0.1,0.4c0.2,0.4,0,0.7-0.7,0.9c-0.4-0.2-0.9-0.3-1.5-0.4
		c-0.6-0.1-1.3-0.1-2.1-0.1c-1.5,0-3.2,0.1-5.2,0.4l0.7-0.1l-0.2,0.1h0.2h0.1l0.2-0.1v0.1h1.7l0.1,0.1l0.4-0.1h1.2
		c0.7,0.1,1.4,0.2,2.2,0.3c0.8,0.1,1.3,0.2,1.5,0.3h-0.5h0.1h-0.1H192l-0.2,0.1l-0.7,0.1l0.2-0.1h-0.4c-0.1,0.1-0.2,0.2-0.4,0.2
		v-0.1c-0.2,0-0.2,0-0.2,0.1c0,0-0.1,0.1-0.2,0.1l-1.1-0.1l-0.1-0.5l-0.6,0.4l-0.1,0.2h-1l0.1-0.1h0.2l0.2-0.1l0.2-0.5l-0.7,0.2
		l-0.5,0.1l-0.1,0.1c-0.2,0-0.4,0.1-0.5,0.2h-0.5l0.1-0.1l0.1-0.4h-0.6l-0.6-0.2l0.1,0.6l0.1,0.1h0.1h-0.4l0.1-0.1l-0.1,0.1
		l-0.1-0.1l0.1,0.1c0-0.1-0.2-0.1-0.6,0.1c-0.4,0.1-0.7,0.2-1,0.2c-0.2,0-0.3,0-0.4-0.1c-0.1,0-0.2-0.1-0.3-0.1l-0.1-0.2l0.2,0.1
		c0,0.1,0,0.1,0.1,0.1h0.2h0.2l-0.1-0.1l0.4-0.2l-0.1-0.1l-0.2-0.1l-0.2,0.1l-0.5,0.1l-0.1-0.1h-0.5l0.5-0.1h0.2l0.2-0.2
		c-0.2,0-0.3,0-0.5,0.1c-0.2,0-0.3,0.1-0.5,0.1l-0.2,0.5c0,0.1,0,0.1,0.1,0.1l0.2,0.1h-1.2c-0.4,0.2-0.8,0.2-1.2,0.2
		c-0.4,0-0.8,0-1.2,0.2l-0.1-0.1c-0.4,0.2-0.8,0.2-1.3,0.2c-0.5,0-0.9,0-1.3,0.1v-0.1c-1.6,0.3-3.3,0.7-4.9,1
		c-1.6,0.3-3.1,0.6-4.5,0.9c-0.4,1-1.1,2.9-2.2,5.8c-1,2.9-2.1,6.2-3.1,9.9c-1,3.7-1.9,7.7-2.7,11.8c-0.8,4.1-1.2,7.9-1.2,11.5
		c0,0.8,0.1,1.7,0.4,2.5c0.2,0.9,0.5,1.7,0.6,2.5v0.1l-0.1-0.1v0.1c0.1,0.1,0.2,0.1,0.4,0.1c1.3,0,2.7-0.7,4-2.2
		c1.4-1.5,2.4-3,3-4.6c-0.1-0.2,0-0.5,0.1-0.6v-0.2l0.1-0.1c-0.1-0.1-0.1-0.1-0.1-0.1c0,0,0,0-0.1-0.1l0.4-0.5v-0.6l0.1-0.2l0.2-0.1
		h-0.1c0.1-0.2,0.2-0.5,0.2-0.7c0.1-0.2,0.1-0.4,0.1-0.6l0.2,0.1l-0.1,0.1l0.2,0.4l0.2-0.2l0.1-0.4v-0.2l0.1-0.1l0.2-0.5l-0.1-0.1
		l0.2-0.4c0-0.1,0.1-0.2,0.2-0.4l0.1-0.1l-0.1-0.1h0.1c0.5,0,0.8,0.1,1,0.2l-0.2,0.5c0,0.1,0,0.1,0.1,0.1l0.1,0.1
		c0,0.1,0,0.1-0.1,0.1h-0.1l0.2,0.2c0,0.1,0,0.1-0.1,0.1c-0.1,0-0.1,0-0.1,0.1c0,0.1,0,0.1,0.1,0.2c0,0,0.1,0.1,0.1,0.2v0.1
		l-0.1,0.6c0.1,0.2,0.1,0.2,0,0.2c-0.1,0-0.1,0,0,0.1l0.1,0.1l-0.1,0.2v0.4c-0.2,0-0.2,0-0.2,0.1l0.2,0.1v0.9
		c-0.2,0.7-0.4,1.7-0.7,3.1c-0.3,1.4-0.9,2.9-1.6,4.4c-0.7,1.5-1.7,2.8-2.9,3.9c-1.2,1.1-2.7,1.7-4.5,1.7c-1.5,0-2.7-0.4-3.8-1
		c-1-0.7-1.9-1.6-2.5-2.7c-0.6-1.1-1-2.4-1.3-3.8c-0.2-1.4-0.3-2.9-0.2-4.4c0.2-4.2,0.6-8.1,1.2-11.8c0.6-3.7,1.3-7.1,2.2-10.3
		c0.8-3.2,1.6-6,2.5-8.5c0.8-2.5,1.6-4.5,2.2-6.2c-0.3,0.1-0.9,0.1-1.7,0.1c-1.9,0-4.2-0.2-7-0.5c-2.8-0.3-5.6-0.5-8.4-0.5l-0.4-0.1
		h-0.2H141l-0.2-0.1c0,0.1-0.2,0.1-0.5,0.1h-0.5h-0.5l-1.4-0.1l-0.2,0.1c-0.5,0-1,0-1.5-0.1c-0.5,0-1.1-0.1-1.7-0.2h-0.1h-0.6
		l0.1-0.1h-0.2v0.1h-0.2l-1-0.4h-0.5L129.1,47.2z M131,47.2v-0.1h-0.1L131,47.2z M132.8,47.8l-0.1-0.1v0.1H132.8z M134.9,48.1h-0.1
		h-0.2l-0.1,0.2h0.4l0.1-0.1V48.1z M137.1,48.1c0,0.1,0,0.1,0.1,0H137.1z M179.5,46.5h0.2l0.2-0.2c-0.1,0.1-0.2,0.1-0.5,0.1V46.5z
		 M186.4,46.1v0.1l0.1-0.1H186.4z M186.5,45.7h0.1h0.1h-0.1H186.5z"/>
	<path d="M198.1,78.8c-2,0.2-4.3,0.4-7,0.4c-2.7,0-5.5-0.1-8.6-0.4c-0.8-0.1-1.9-0.2-3.2-0.2c-1.3-0.1-2.6-0.1-3.7-0.1l-0.2-0.1
		h-0.2c0,0.1,0,0.1-0.1,0.1c0,0-0.1,0-0.1,0.1h-0.2h-0.2l-0.6,0.1v-0.1l-0.4,0.1h0.1l0.1-0.1v-0.2h-0.1h-0.1l-0.1,0.2l-0.1,0.2h-0.9
		h-0.2h0.1h-0.1H172h-0.1h-0.4h-0.2h-0.2l-0.5,0.1c-0.2,0-0.4,0-0.8,0.1c-0.4,0-0.6,0.1-0.7,0.1l0.4-0.2h-0.1h0.1l0.2-0.2v0.1h0.1
		c0-0.2,0.1-0.4,0.4-0.4h0.4l0.1,0.4l0.4-0.5h-0.1h0.1h-0.1c-1.1,0-1.8,0-2.2-0.1c-0.4,0-0.6-0.2-0.6-0.6c0-0.4,0.1-0.9,0.4-1.4
		c0.3-0.5,0.7-1,1.2-1.5c0.5-0.5,1-0.9,1.5-1.2c0.5-0.3,1-0.5,1.5-0.5c2,0,3.7,0.2,5.3,0.7c1.6,0.5,3.2,0.9,4.8,1.4
		c0.3,0.1,0.7,0.1,1,0.2c0.3,0,0.9,0.1,1.6,0.3c0.7,0.2,1.8,0.4,3.1,0.7c1.4,0.3,3.2,0.7,5.6,1.2h0.1v-0.1l0.1,0.1l0.1-0.1l0.5,0.1
		l0.6,0.1v-0.1v0.1h0.2h0.1c0.2,0,0.3,0,0.6,0.1c0.2,0,0.4,0.1,0.6,0.1h-0.1l-0.1,0.2h0.4h0.1v-0.2l0.1,0.1h-0.1l0.1,0.1l0.1-0.1
		c0,0.1,0,0.1,0.1,0.1l-0.2,0.1c0.2,0,0.3,0,0.4-0.1c0.1,0,0.1,0.1,0.1,0.4c0,0.2,0,0.3-0.1,0.3c0,0-0.1,0.1-0.1,0.2V78.8z
		 M169.1,78.9H169l-0.1-0.2l0.2-0.1l0.1-0.2l0.5,0.1l-0.1,0.2h-0.2l0.1-1.2l-0.2,1.4L169.1,78.9z M170.7,78.5l0.4-0.5h-0.1h-0.4v0.1
		L170.7,78.5z M171.6,78.2h0.1l0.1-0.1h-0.2h-0.2l-0.1,0.1l-0.1,0.4l0.5-0.2V78.2z M171.6,78.2h0.1l0.1-0.1h-0.2h-0.1l-0.2,0.1
		l-0.1,0.4l0.5-0.2V78.2z M172.4,78.4V78h-0.5v0.1h0.2h0.1L172.4,78.4z M172.2,78h-0.2v0.1h0.2h0.1l0.1,0.2V78H172.2z M172.7,78.5
		c0.1,0,0.1,0,0.1,0.1L172.7,78.5z M172.8,78.5c0-0.1,0-0.1,0.1-0.1L172.8,78.5z M173.2,78l0.2,0.1V78H173.2z M173.2,78l0.2,0.1V78
		H173.2z M173.7,78.5l-0.5,0.1l0.2-0.2l0.1-0.2h0.1h0.1v0.2L173.7,78.5z M196.1,77.3v-0.1h0.1v0.1H196.1z M197.3,77.4l0.2-0.1v0.1
		l-0.1,0.2c-0.2,0-0.3,0.2-0.4,0.5l0.1-0.7H197.3z M197.6,77.7v0.1l0.1-0.1H197.6z"/>
	<path d="M234.9,108.2c-1.9,2.1-3.9,3.5-6.1,4.3c-2.1,0.8-4.3,1.2-6.6,1.2c-3.1,0-6.3-0.6-9.5-1.8c-3.2-1.2-6-2.5-8.5-4
		c-0.4-0.2-0.9-0.6-1.5-0.9c-0.6-0.4-1.2-0.8-1.8-1.4c-0.6-0.6-1.1-1.3-1.5-2.1c-0.4-0.8-0.6-1.8-0.6-2.8c0-1.8,0.5-3.2,1.4-4.1
		c0.9-0.9,1.9-1.5,3-1.9c1.1-0.4,2.1-0.5,3-0.5c0.9,0,1.5,0.1,1.7,0.1c0.7,0,1.3,0,2,0.1c0.7,0.1,1.4,0.2,2.2,0.2
		c4.6,0.6,8.7,1.3,12.1,2.2c3.5,0.9,6.6,1.6,9.3,2.3v-1.1l-0.1-0.1l-0.1-0.6v0.1v-0.2l-0.1-0.1l-0.4-1.1l-0.2-0.6
		c-0.5-1.2-1.3-2.5-2.3-3.9c-1-1.4-2.4-3.1-4-5c-1.5-2.1-3.2-4.3-5.1-6.6c-1.9-2.3-3.8-4.7-5.6-7.4c-1.8-2.6-3.4-5.5-4.6-8.7
		c-1.3-3.2-2-6.7-2-10.7c0-3,0.5-6.1,1.5-9.1c1-3,2.5-5.8,4.4-8.2c1.9-2.4,4.2-4.3,6.9-5.8s5.8-2.2,9.1-2.2c1.9,0,3.7,0.3,5.6,1
		c1.8,0.7,3.4,1.6,4.9,2.8c1.4,1.2,2.6,2.6,3.5,4.1c0.9,1.6,1.3,3.3,1.3,5.1c0,1.6-0.2,2.9-0.7,3.9c-0.5,0.9-0.8,1.9-0.9,2.8
		c0.5-1,1-2,1.5-3.1c0.5-1.1,1-2.1,1.4-3c0.5-0.9,0.8-1.8,1.1-2.5c0.3-0.7,0.5-1.2,0.6-1.4c0.2,0,0.6,0.1,1,0.2
		c0.4,0.2,0.8,0.3,1.2,0.5l1.5,0.7c-0.5,1-1.3,2.3-2.5,4c-1.2,1.6-2.3,3.3-3.5,4.8c0,0.2-0.1,0.2-0.2,0.2l0.1,0.1l-0.1,0.1l-0.1-0.1
		v0.2l-0.2,0.2c0,0.1,0,0.2,0.1,0.2l-0.7,1.6c-0.2,0.2-0.3,0.5-0.4,0.8c-0.1,0.3-0.3,0.5-0.4,0.7l-0.1,0.1h-0.1c0,0.1,0,0.1,0.1,0.1
		l-0.1-0.1v0.1v0.1l-0.1,0.2h0.1h-0.1l-0.2,0.4h0.1c-0.1,0.2-0.2,0.5-0.5,0.7l-0.1,0.1l0.1,0.1l-0.1-0.1v0.1v0.1l-0.1-0.1l-0.2,0.5
		l-0.1,0.1v-0.1l-0.2,0.1l-0.6,0.6l0.1-0.1l-0.1-0.4v0.1l-0.1-0.2l-0.1-0.1h0.1l0.2-0.2l-0.1-0.1c0,0.1,0,0,0.1-0.1
		c0-0.2,0.1-0.2,0.3-0.2l0.2-0.5l0.1,0.1h-0.1l0.1-0.1c-0.1,0-0.1,0-0.1-0.1c0,0,0-0.1-0.1-0.1c0-0.1,0-0.2,0.1-0.2l0.2-0.2h0.1
		l-0.1-0.1c-0.4,0.4-0.6,0.7-0.6,0.8c0,0.1-0.2,0.2-0.5,0.2c-0.6,0-1.4-0.2-2.5-0.5c-0.2,0.5-0.3,0.8-0.4,0.9l0.1-0.2l0.1-0.4v-0.4
		c-1.4,0-2.6-0.3-3.6-0.9c-1-0.6-1.5-1-1.5-1.2v-0.1c0.5-1.6,1.2-3.6,2-5.7c0.8-2.2,1.2-3.9,1.2-5c0-1.2-0.7-2.2-2-3.1
		c-1.3-0.9-2.7-1.5-4.1-1.7c-0.7,0-1.3,0-1.9,0.1c-0.6,0-1.2,0.1-1.7,0.3l0.1-0.1l-0.5,0.1V35l0.9-0.1l-0.6-0.1c0,0.1,0,0.1-0.1,0
		c-0.1-0.1-0.2,0-0.4,0.1h-0.1h0.1l-0.2,0.1v0.2l0.4-0.1c-0.4,0.4-0.9,0.7-1.6,0.9c-0.7,0.2-1.2,0.4-1.7,0.6c0-0.1,0-0.1-0.1-0.1
		c-0.2,0.2-0.3,0.3-0.5,0.3c-0.2,0-0.2,0.1-0.2,0.2h0.1c-0.6,0.2-1.3,0.6-2.1,1.4c-0.8,0.7-1.3,1.2-1.5,1.5v-0.1h-0.1V40v0.1
		c-0.8,0.8-1.5,1.9-2.2,3.2c-0.6,1.3-1.1,2.6-1.5,4.1c-0.4,1.4-0.7,2.9-0.9,4.4c-0.2,1.5-0.3,3-0.3,4.4c0,0.3,0,0.7,0.1,1
		c0,0.3,0.1,0.7,0.1,1h0.1V59v0.1v0.1l0.1-0.1v0.5l0.2,0.4v0.4c0.6,2.1,1.4,4.2,2.5,6.2c1.1,2,2.2,4,3.4,5.9
		c0.3,0.6,0.8,1.4,1.5,2.4c0.7,1,1.4,2.1,2.1,3.1c0.7,1,1.3,1.9,1.9,2.7c0.6,0.7,0.9,1.1,1,1.1h0.1l0.4,0.5h-0.1
		c0.1,0,0.2,0.1,0.2,0.2c0.1,0.2,0.2,0.2,0.4,0.2l0.5,0.7l0.2,0.4l1.6,2l0.2,0.4c0.6,0.7,1.1,1.3,1.5,2c0.5,0.7,0.9,1.4,1.4,2.2
		l0.1,0.2l0.5,0.7H235l0.1,0.2l0.1,0.1l0.1,0.2l0.7,1.6l0.6,1.2c0,0.1,0.1,0.4,0.2,0.9v0.1v0.1v-0.1l0.1,1l0.2,0.6
		c0.1,0.3,0.1,0.7,0.1,1c0,0.3,0,0.7,0,1v0.7c1.3,0.3,2.3,0.6,3,0.7c0.7,0.2,1,0.7,1,1.6c0,1.7-0.3,3.3-0.9,4.8
		c-0.6,1.5-0.9,2.2-1.1,2.2c-0.7,0-1.4-0.2-2.3-0.5c-0.9-0.3-1.6-0.7-2.3-1V108.2z M208.6,100.3c-0.4-0.1-0.8-0.1-1.1-0.1
		c-0.3,0-0.7,0-1,0c-1.2,0-1.7,0.3-1.7,0.9c0.1,0.1,0.1,0.2,0.2,0.2c0,0.1,0.1,0.2,0.2,0.2c0.4,0,0.8-0.1,1.1-0.2
		c0.3-0.1,0.7-0.2,1.1-0.2c0.3,0,0.6,0,0.9,0.1c0.2,0,0.5,0.1,0.9,0.1l0.5,0.1c0.1,0,0.2,0,0.2,0.1c0.1,0,0.1,0,0.1-0.1l0.4,0.1h0.1
		h0.4l0.6,0.1l0.5,0.1v-0.1l1,0.2l0.5,0.1h0.9l-0.6,0.1h0.1l-0.6,0.6l0.1,0.1l0.2,0.1H213l-0.9-0.1c-0.4,0-0.8,0-1.2-0.1
		c-0.4-0.1-0.8-0.1-1.2-0.1h-0.4v-0.1h-2h-0.9l0.1-0.1h-0.2l0.5-0.1l-0.4-0.1l-0.2-0.1l-0.1,0.2l-0.1,0.1h0.2c-0.1,0-0.1,0-0.1,0.1
		c2.2,2.2,5,4,8.3,5.4c3.3,1.4,6.4,2,9.3,2c1.9,0,3.5-0.2,4.8-0.6c1.3-0.4,2.5-1.2,3.5-2.2c-1.8-0.6-3.7-1.2-5.7-2
		c-2-0.7-4-1.5-6.1-2.2c-2.1-0.7-4.1-1.3-6.1-1.8C212.3,100.6,210.4,100.3,208.6,100.3z M206.4,102.4l0.5-0.1l-0.4-0.1
		c-0.1-0.1-0.2-0.1-0.2-0.1l-0.1,0.2l-0.1,0.1h0.2H206.4z M206.2,102.6l0.1,0.1l0.1-0.2L206.2,102.6z M207.6,102h-0.1h-0.4l0.1,0.4
		l0.4-0.2V102z M207.6,102.1l-0.1-0.1h-0.4l0.1,0.4l0.1-0.1L207.6,102.1z M211.6,102.4l0.1-0.2l-0.4-0.1l-0.1,0.2L211.6,102.4z
		 M211.7,102.1l-0.4,0.1h-0.1l0.5,0.1V102.1z M213.5,103l-0.2-0.1c-0.1,0-0.1,0-0.1-0.1l0.6-0.6h-0.1l0.6-0.1l1.4,0.2l-0.9,0.1
		l0.1,0.1l-0.5,0.1h-0.9h0.5v0.2h0.5l0.1-0.1c0.1,0,0.2,0,0.2,0.1l0.4,0.1v0.1l-0.4,0.1l-0.2,0.1c-0.1,0-0.2,0-0.2-0.1
		c-0.1,0-0.1,0-0.1-0.1L214,103l0.1,0.2l-0.5-0.2H213.5z M214.8,102.4l0.5-0.1l1.9,0.5l0.6,0.1l0.1,0.1h0.1h0.1l1.1,0.4l0.9,0.2
		l0.1,0.1l0.1-0.1l1.5,0.4c0.7,0.2,1.4,0.5,2.2,0.8c0.8,0.3,1.3,0.5,1.5,0.7h-0.4l-0.1-0.1h-0.4h-0.2h-0.9l0.2-0.1l-0.4-0.1
		c-0.2,0.2-0.3,0.2-0.4,0.2c-0.1,0-0.3-0.1-0.4-0.1l-1.2-0.4v-0.6l-0.7,0.2l-0.4,0.1l-0.9-0.4l0.1,0.1h0.4h0.2l0.5-0.4l-1-0.1h-0.5
		l-0.2,0.1c-0.2,0-0.4,0-0.5,0.1l-0.5-0.2l0.2-0.2l-0.6-0.1L217,103l-0.1,0.6l0.1,0.1l0.1,0.1l-0.4-0.1h0.1c-0.1,0-0.1,0-0.1-0.1
		c0,0,0-0.1-0.1-0.1c0,0.1,0,0.1-0.1,0.1c-0.1,0-0.2,0-0.2,0.1c-0.2-0.2-0.5-0.2-1.1-0.2v-0.1c-0.1,0-0.1,0-0.2,0.1
		c0,0-0.1,0.1-0.2,0.1c-0.1,0-0.3-0.1-0.6-0.2L214,103l0.2,0.1c0,0.1,0,0.1,0.1,0.1l0.2,0.1l0.2-0.1l0.4-0.1V103l-0.4-0.1
		c-0.1-0.1-0.2-0.1-0.2-0.1v0.1H214v-0.2h-0.5h0.9l0.5-0.1L214.8,102.4z M215.5,61.2c0,0.3,0,0.6,0.1,0.7h0.1L215.5,61.2z
		 M215.5,61.2c0,0.3,0,0.6,0.1,0.7h0.1L215.5,61.2z M216.1,64.1c0-0.2,0-0.3-0.1-0.4c0-0.1-0.1-0.3-0.1-0.4l-0.2-0.5
		C215.8,62.9,216,63.4,216.1,64.1z M216,63.2l-0.2-0.5c0.1,0.2,0.2,0.7,0.4,1.4c0-0.2,0-0.3-0.1-0.4C216,63.5,216,63.4,216,63.2z
		 M216.3,102.7h0.1l-0.1-0.1V102.7z M217.9,104h-0.5l-0.4-0.2c-0.1,0-0.1,0-0.1-0.1l0.1-0.6l0.5,0.5l0.6,0.1l-0.2,0.2V104z
		 M218.6,69.4c0-0.2,0-0.2-0.1-0.2l-0.1-0.4l-0.4-1l-0.1,0.4l-0.1-0.4c0,0.1,0,0.1,0-0.1c0-0.1,0-0.3-0.1-0.4
		c-0.1-0.2-0.1-0.3-0.1-0.5l-0.1,0.1l-0.4-0.5c0.2,0.6,0.5,1.1,0.8,1.5C218.1,68.4,218.4,68.9,218.6,69.4z M218.4,68.8l-0.4-1
		l-0.1,0.4l-0.1-0.4c0,0.1,0,0.1,0-0.1c0-0.1,0-0.3-0.1-0.4c-0.1-0.2-0.1-0.3-0.1-0.5l-0.1,0.1l-0.4-0.5c0.2,0.6,0.5,1.1,0.8,1.5
		c0.3,0.5,0.6,0.9,0.8,1.4c0-0.2,0-0.2-0.1-0.2L218.4,68.8z M219.3,104.2v0.2l-1.2-0.1l0.2-0.2c0.1-0.1,0.2-0.1,0.5-0.1h0.2l0.2-0.1
		l1.2,0.1l-0.5,0.2l-0.2,0.1h-0.4h-0.1V104.2z M219,103.4l0.1,0.1C219.1,103.4,219.1,103.4,219,103.4C219,103.5,219,103.4,219,103.4
		z M221.3,104.7v0.1l-0.4,0.6l-0.4-0.6l-0.1-0.2l0.9-0.4V104.7z M221.8,73.8l-0.4-0.5l-0.2,0.1l0.7,1.1l0.1-0.1l-0.4-0.5L221.8,73.8
		z M222.1,74.4l-0.4-0.5l0.1-0.1l-0.4-0.5l-0.2,0.1l0.7,1.1L222.1,74.4z M222.1,37.4l-0.1,0.1l-0.5,0.5c0.1-0.2,0.2-0.3,0.2-0.3
		C221.8,37.6,221.9,37.5,222.1,37.4z M221.9,37.5l0.1-0.1c-0.2,0.2-0.3,0.3-0.4,0.3c-0.1,0-0.2,0.1-0.2,0.3L221.9,37.5z M223.3,75.9
		l-0.4-0.7l-0.6-0.6l0.4,0.7l0.2,0.2L223.3,75.9z M223.3,75.9l-0.4-0.4l-0.2-0.2l-0.4-0.7l0.4,0.5l0.2,0.2L223.3,75.9z M223.3,36.9
		l0.2-0.1c0.2,0,0.4-0.1,0.4-0.2h0.5l-0.4-0.4c0,0.1-0.1,0.1-0.2,0.1c-0.2,0-0.3,0.1-0.5,0.2l-0.1,0.2v0.1H223.3z M223.3,36.6v-0.1
		c0.2-0.2,0.3-0.2,0.5-0.2c0.2,0,0.2,0,0.2-0.1l0.4,0.4h-0.5c0,0.2-0.1,0.2-0.4,0.2l-0.4,0.1v-0.1L223.3,36.6z M223.5,105.3l0.2,0.1
		l-0.5-0.1H223.5z M225.4,105.5h0.1l0.2,0.1l0.5,0.5l-0.9-0.1c-0.1,0-0.2,0-0.4-0.1l-0.2,0.1l-1.2-0.6h0.9h0.2h0.4l0.1,0.1H225.4z
		 M227.3,35.4l0.6-0.1l-0.4,0.4c-0.2,0-0.3,0-0.4,0.1H227h-0.2l0.1-0.2L227.3,35.4z M227.7,35l0.7-0.1l-0.6-0.1h-0.2
		c-0.1,0-0.2,0-0.2,0.1h-0.1h0.1l-0.2,0.1v0.2l0.4-0.1l0.1-0.1H227.7z M234.9,94c0.9,1.5,1.4,3.5,1.6,5.9c0.2,0,0.3,0,0.5,0.1
		l-0.1-0.1h0.1c0-0.3,0-0.8-0.1-1.4c-0.1-0.6-0.2-1-0.4-1.4h0.1c-0.1-0.1-0.2-0.4-0.4-0.8c-0.2-0.5-0.4-1-0.6-1.6
		c-0.2-0.6-0.6-1.3-0.9-1.9c-0.4-0.7-0.8-1.3-1.2-1.9l0.2,0.1l-0.1-0.1v-0.1v-0.1v0.1c-0.2,0-0.4-0.3-0.7-0.8
		c-0.3-0.5-0.6-0.9-0.7-1.1v-0.1c-0.2-0.2-0.4-0.5-0.5-0.7c-0.1-0.2-0.2-0.5-0.5-0.9s-0.6-0.9-1.2-1.6c-0.5-0.7-1.4-1.6-2.5-2.8
		c0.2,0.3,0.7,0.9,1.2,1.7c0.6,0.8,1.2,1.6,1.7,2.5c0.6,0.8,1.3,1.9,2.1,3.2C233.2,91.3,234,92.5,234.9,94z M228.7,34.6l0.1,0.1
		l0.1,0.1l0.2-0.1c0.2,0,0.2,0,0.2-0.1c0,0,0-0.1,0.1-0.1H228.7z M229,34.8v0.1l0.2-0.1c0.2,0,0.2,0,0.2-0.1c0,0,0-0.1,0.1-0.1h-0.9
		l0.1,0.1H229z M230.1,85.6h0.1l0.1,0.1v-0.1H230.1z M231.5,87.2c0-0.1,0-0.1-0.1-0.2c-0.1,0-0.1-0.1-0.1-0.2
		C231.4,87,231.5,87.1,231.5,87.2z M231.3,87.2c-0.1-0.1-0.1-0.2-0.1-0.2V87L231.3,87.2z M233.6,90.4l0.1,0.2L233.6,90.4z
		 M233.7,90.1l0.1,0.1l0.1,0.2l0.4,0.1l-0.5-0.6L233.7,90.1z M233.8,90.3l0.1,0.2l0.4,0.1l-0.5-0.6l-0.1,0.1L233.8,90.3z
		 M233.9,90.6h-0.1v-0.1C233.8,90.6,233.8,90.6,233.9,90.6z M235,93c-0.2-0.4-0.4-0.6-0.5-0.6L235,93z M236,95.2v0.2
		c0.1,0,0.1-0.1,0.1-0.2H236z M236.3,96.2v-0.2v0.1l-0.1-0.1C236.2,96,236.2,96.1,236.3,96.2z M237.1,96.8l0.1-0.1l0.1,0.2l0.1,0.5
		h-0.1L237.1,96.8z M239.2,53.6l-0.1,0.4l-0.6,0.6l0.4-1.2c0-0.2,0-0.3,0.1-0.5v-0.1v-0.2c0.2,0.1,0.3,0.1,0.5,0.1v0.1l-0.1,0.2
		L239.2,53.6z M242.2,54.9V55c-0.2,0-0.2,0-0.2-0.1V55v-0.1V55c-0.1,0-0.1,0-0.1-0.1V55l-0.1-0.2l0.1,0.1c0.1,0,0.1,0,0.1-0.1v0.1
		c-0.1-0.1-0.1-0.2-0.1-0.2l0.2,0.1L242.2,54.9z M242.2,54.8l0.1,0.2l-0.2-0.2l-0.2-0.1l0.1-0.2l0.1,0.1l0.1-0.1l0.1,0.4H242.2z
		 M243,54.3l0.1,0.1H243l-0.1-0.1H243z M243.4,53.3l-0.1-0.2v0.1L243.4,53.3z M243.3,53.2l0.1,0.1l-0.1-0.2V53.2z M244.9,50.2h0.1
		l-0.1-0.1l-0.1-0.1c0,0.1,0,0.2-0.1,0.2l0.2,0.1V50.2z M244.8,50c0,0.1,0,0.2-0.1,0.2l0.2,0.1l0.1-0.1h-0.1L244.8,50z M244.9,50.5
		v-0.1v0.4l0.1-0.1L244.9,50.5z M245.1,50.6l-0.1-0.2v0.4v-0.1H245.1z M246.7,47.7h0.1h-0.2H246.7z"/>
	<path d="M216.7,47.2c-0.2-0.2-0.5-0.3-0.7-0.4c-0.2-0.1-0.5-0.2-0.7-0.4l0.1,0.1l0.6-0.1h-0.1h0.2l-0.1-0.1l0.2,0.1h0.2
		c0.2,0,0.4,0.1,0.7,0.2c0.3,0.1,0.6,0.2,0.7,0.3h-0.1h0.1c0.7,0,1.4,0.1,2.1,0.2c0.7,0.2,1.4,0.3,2,0.4h-0.1c0.1,0,0.1,0,0.1,0.1
		c0,0,0,0.1,0.1,0.1l-0.1-0.1h0.2c-1.8-0.3-3.5-0.7-5-1.2c-1.5-0.5-2.4-1-2.5-1.8c-0.1-0.3,0-0.6,0.3-0.7c0.3-0.2,0.5-0.3,0.7-0.5
		h0.1c0,0.1,0.1,0.1,0.2,0.1c0.1,0,0.2,0,0.3,0.1l0.2,0.2h-0.1c0.2,0.2,0.9,0.4,2,0.5c1.1,0.1,2.6,0.1,4.4,0.1
		c3.2,0,7.1-0.1,11.8-0.4c4.6-0.2,9.4-0.5,14.4-0.9c0.9-2.1,1.6-3.8,2.2-5.1c0.6-1.3,1.1-2.3,1.5-3c0.4-0.7,0.7-1.2,1-1.4
		c0.2-0.2,0.5-0.3,0.9-0.3c1,0,1.9,0.4,2.7,1.1c0.8,0.7,1.3,1.3,1.4,1.7c0.1,0.6-0.1,1.4-0.7,2.4c-0.5,1-1.2,2.4-1.9,4
		c2.6-0.2,4.8-0.3,6.5-0.3c1.7,0,3.5-0.1,5.5-0.1c1.4,0,2.8,0,4.3,0.1c1.4,0,2.8,0.1,4,0.3c1.2,0.2,2.3,0.4,3.2,0.7
		c0.9,0.3,1.6,0.6,2,1l-0.2,0.2l0.4-0.2c0.1,0.1,0.1,0.2,0.1,0.4c0.2,0.4,0,0.7-0.7,0.9c-0.4-0.2-0.9-0.3-1.5-0.4
		c-0.6-0.1-1.3-0.1-2.1-0.1c-1.5,0-3.2,0.1-5.2,0.4l0.7-0.1l-0.2,0.1h0.2h0.1l0.2-0.1v0.1h1.7l0.1,0.1l0.4-0.1h1.2
		c0.7,0.1,1.4,0.2,2.2,0.3c0.8,0.1,1.3,0.2,1.5,0.3H280h0.1H280h-0.4l-0.2,0.1l-0.7,0.1l0.2-0.1h-0.4c-0.1,0.1-0.2,0.2-0.4,0.2v-0.1
		c-0.2,0-0.2,0-0.2,0.1c0,0-0.1,0.1-0.2,0.1l-1.1-0.1l-0.1-0.5l-0.6,0.4l-0.1,0.2h-1l0.1-0.1h0.2l0.2-0.1l0.2-0.5l-0.7,0.2l-0.5,0.1
		l-0.1,0.1c-0.2,0-0.4,0.1-0.5,0.2h-0.5l0.1-0.1l0.1-0.4h-0.6l-0.6-0.2l0.1,0.6l0.1,0.1h0.1h-0.4l0.1-0.1l-0.1,0.1l-0.1-0.1l0.1,0.1
		c0-0.1-0.2-0.1-0.6,0.1c-0.4,0.1-0.7,0.2-1,0.2c-0.2,0-0.3,0-0.4-0.1c-0.1,0-0.2-0.1-0.3-0.1l-0.1-0.2l0.2,0.1c0,0.1,0,0.1,0.1,0.1
		h0.2h0.2l-0.1-0.1l0.4-0.2l-0.1-0.1l-0.2-0.1l-0.2,0.1l-0.5,0.1l-0.1-0.1h-0.5l0.5-0.1h0.2l0.2-0.2c-0.2,0-0.3,0-0.5,0.1
		c-0.2,0-0.3,0.1-0.5,0.1l-0.2,0.5c0,0.1,0,0.1,0.1,0.1l0.2,0.1H268c-0.4,0.2-0.8,0.2-1.2,0.2c-0.4,0-0.8,0-1.2,0.2l-0.1-0.1
		c-0.4,0.2-0.8,0.2-1.3,0.2c-0.5,0-0.9,0-1.3,0.1v-0.1c-1.6,0.3-3.3,0.7-4.9,1c-1.6,0.3-3.1,0.6-4.5,0.9c-0.4,1-1.1,2.9-2.2,5.8
		c-1,2.9-2.1,6.2-3.1,9.9c-1,3.7-1.9,7.7-2.7,11.8c-0.8,4.1-1.2,7.9-1.2,11.5c0,0.8,0.1,1.7,0.4,2.5c0.2,0.9,0.5,1.7,0.6,2.5v0.1
		l-0.1-0.1v0.1c0.1,0.1,0.2,0.1,0.4,0.1c1.3,0,2.7-0.7,4-2.2c1.4-1.5,2.4-3,3-4.6c-0.1-0.2,0-0.5,0.1-0.6v-0.2l0.1-0.1
		c-0.1-0.1-0.1-0.1-0.1-0.1c0,0,0,0-0.1-0.1l0.4-0.5v-0.6l0.1-0.2l0.2-0.1h-0.1c0.1-0.2,0.2-0.5,0.2-0.7c0.1-0.2,0.1-0.4,0.1-0.6
		l0.2,0.1l-0.1,0.1l0.2,0.4l0.2-0.2l0.1-0.4v-0.2l0.1-0.1l0.2-0.5l-0.1-0.1l0.2-0.4c0-0.1,0.1-0.2,0.2-0.4l0.1-0.1l-0.1-0.1h0.1
		c0.5,0,0.8,0.1,1,0.2l-0.2,0.5c0,0.1,0,0.1,0.1,0.1l0.1,0.1c0,0.1,0,0.1-0.1,0.1h-0.1l0.2,0.2c0,0.1,0,0.1-0.1,0.1
		c-0.1,0-0.1,0-0.1,0.1c0,0.1,0,0.1,0.1,0.2c0,0,0.1,0.1,0.1,0.2v0.1l-0.1,0.6c0.1,0.2,0.1,0.2,0,0.2c-0.1,0-0.1,0,0,0.1l0.1,0.1
		l-0.1,0.2v0.4c-0.2,0-0.2,0-0.2,0.1l0.2,0.1v0.9c-0.2,0.7-0.4,1.7-0.7,3.1c-0.3,1.4-0.9,2.9-1.6,4.4c-0.7,1.5-1.7,2.8-2.9,3.9
		c-1.2,1.1-2.7,1.7-4.5,1.7c-1.5,0-2.7-0.4-3.8-1c-1-0.7-1.9-1.6-2.5-2.7c-0.6-1.1-1-2.4-1.3-3.8c-0.2-1.4-0.3-2.9-0.2-4.4
		c0.2-4.2,0.6-8.1,1.2-11.8c0.6-3.7,1.3-7.1,2.2-10.3c0.8-3.2,1.6-6,2.5-8.5c0.8-2.5,1.6-4.5,2.2-6.2c-0.3,0.1-0.9,0.1-1.7,0.1
		c-1.9,0-4.2-0.2-7-0.5c-2.8-0.3-5.6-0.5-8.4-0.5l-0.4-0.1h-0.2h-0.1l-0.2-0.1c0,0.1-0.2,0.1-0.5,0.1h-0.5h-0.5l-1.4-0.1l-0.2,0.1
		c-0.5,0-1,0-1.5-0.1c-0.5,0-1.1-0.1-1.7-0.2h-0.1h-0.6l0.1-0.1h-0.2v0.1h-0.2l-1-0.4h-0.5L216.7,47.2z M218.5,47.2v-0.1h-0.1
		L218.5,47.2z M220.4,47.8l-0.1-0.1v0.1H220.4z M222.5,48.1h-0.1h-0.2l-0.1,0.2h0.4l0.1-0.1V48.1z M224.7,48.1c0,0.1,0,0.1,0.1,0
		H224.7z M267,46.5h0.2l0.2-0.2c-0.1,0.1-0.2,0.1-0.5,0.1V46.5z M273.9,46.1v0.1l0.1-0.1H273.9z M274,45.7h0.1h0.1h-0.1H274z"/>
	<path d="M275.4,77.1c0.2-0.1,0.3-0.1,0.6,0.1c0.2,0.1,0.3,0.3,0.3,0.4c0,0.1,0,0.1-0.1,0.2c-0.1,0-0.2,0.1-0.2,0.3v0.2
		c0,0.1,0,0.1,0.1,0.1c0,0.1,0,0.1-0.1,0.1c-0.1,0-0.1,0-0.1,0.1c-0.1,0-0.1,0,0,0.1c0.1,0.1,0.1,0.2,0,0.2c0,0.1,0,0.1-0.1,0.1
		c-0.1,0-0.1,0-0.1,0.1c-0.1,0.2-0.1,0.3,0,0.4c0.1,0.1,0.1,0.2,0,0.2l-0.1,0.1v0.2l-0.2,0.7c0,0.1,0,0.1-0.1,0.1
		c-0.1,0-0.1,0-0.1,0.1c0,0.1,0,0.2,0.1,0.2l-0.1,0.4l-0.1,0.5v0.1c-0.1,0.1-0.2,0.1-0.4,0.1c0,0.1,0,0.1,0.1,0.2
		c0.1,0,0.1,0.1,0.1,0.2l-0.1,0.4l-0.2,0.9c-0.5,1.6-1.1,3.5-1.9,5.6c-0.2,0.5-0.5,1-0.7,1.5c-0.2,0.5-0.6,1.1-1,1.8
		c-0.2,0.3-0.5,0.7-0.7,1c-0.2,0.4-0.8,0.7-1.7,1c-0.2,0.2-0.5,0.4-0.6,0.5v0.1c-0.4,0.2-0.9,0.2-1.6,0c0-0.1,0-0.1,0.1-0.1
		c0.1,0,0,0-0.1-0.1h-0.2c-0.1-0.2-0.1-0.3-0.2-0.4c0-0.1-0.1-0.2-0.1-0.4c-0.6-0.3-1-0.7-1.2-1.2l-0.5-1.5
		c-0.2-0.4-0.2-0.9-0.2-1.4c0-0.5,0-0.9,0-1.4c-0.6,0.9-1.2,2-2,3.3c-0.7,1.3-1.8,2.2-3.2,2.8c-0.5,0.5-1.2,0.7-2.1,0.7h0.4
		l-0.1-0.1h0.2c0.2,0,0.3-0.1,0.5-0.2l0.1,0.1l0.4-0.2c0.1,0,0.1,0,0.1-0.1c0,0,0-0.1,0.1-0.1h-0.5l-0.1,0.1l0.1-0.1h-0.5l0.1,0.1
		l-0.2,0.1c0-0.1-0.1-0.1-0.4-0.1h-0.2v0.1h-0.2H256l-0.1,0.1l0.1,0.1c0,0.1,0.1,0.1,0.4,0.1h-0.2c-0.3-0.2-0.6-0.4-0.9-0.6
		c-0.3-0.2-0.6-0.4-0.9-0.6v-0.1h-0.1c-0.8-0.5-1.4-1.1-1.8-1.9c-0.4-0.8-0.6-1.5-0.7-2.2c-0.5-2.1-0.7-4-0.6-5.6
		c0-3.5,0.4-6.9,1.1-10.1c0.7-3.2,1.8-6.1,3.1-8.8c1.4-2.7,2.7-5,4.1-6.9c1.4-1.9,2.6-3.4,3.8-4.5c1.2-1.1,2-1.7,2.5-1.9
		c0.3-0.2,0.7-0.2,1-0.2c0.7,0,1.3,0.5,1.9,1.6c0.5,1,0.7,1.7,0.7,2.2c0,0.5-0.2,0.9-0.5,1.1c-0.4,0.4-0.9,0.9-1.5,1.4
		c-0.6,0.5-1.4,1.3-2.2,2.4c-0.9,1.1-1.8,2.5-2.8,4.3c-1,1.8-2.1,4.1-3.3,7.1c-0.4,1-0.8,2.1-1.2,3.5c-0.4,1.3-0.7,2.7-1,4.2
		c-0.3,1.5-0.5,3-0.6,4.5c-0.1,1.5-0.1,3,0.1,4.5c0.1,0.9,0.2,1.4,0.5,1.6c0.2,0.2,0.4,0.2,0.4,0.1c0.4-0.2,0.9-0.7,1.4-1.4
		c0.5-0.7,1-1.3,1.4-2c0.9-1.4,1.7-2.8,2.5-4.2c0.7-1.4,1.4-2.7,2.1-3.9v-0.1c0.1-0.5,0.2-1,0.2-1.5c0.1-0.5,0.2-1,0.2-1.5
		c0.5-2.3,1-4.5,1.6-6.5c0.6-2.1,1.1-3.9,1.7-5.5c0.5-1.6,1-2.9,1.5-3.9c0.5-1,0.8-1.7,1-1.9c0.1-0.2,0.3-0.4,0.6-0.5
		c0.2-0.1,0.5-0.1,0.9-0.1c0.3,0,0.8,0.3,1.5,0.7c1.6,1.2,2.2,2,2,2.5c-0.2,0.4-0.4,0.9-0.6,1.5c-0.2,0.6-0.5,1.4-0.9,2.5
		c-0.4,1-0.8,2.3-1.3,3.8c-0.5,1.5-1,3.4-1.6,5.7c-0.4,1.7-0.9,3.7-1.6,6c-0.7,2.3-1.2,4.7-1.6,7.2c0,0.3,0,0.6-0.1,0.9
		c0,0.3-0.1,0.6-0.1,0.9c0.7-1,1.3-2,1.8-3.1c0.5-1.1,1-2.1,1.5-3v-0.1l0.2-0.4l0.1-0.4v-0.1l0.2-0.5c0-0.1,0-0.1,0.1-0.2
		c0,0,0.1-0.1,0.1-0.2l0.1-0.1l0.1-0.2h0.1l0.1-0.4h-0.1c0.2-0.3,0.3-0.7,0.5-1c0.2-0.3,0.3-0.6,0.5-0.9v0.1h-0.1V80v0.1l0.2-0.1
		c0.1-0.1,0.1-0.1,0.1-0.2c0,0,0-0.1,0.1-0.2l-0.1-0.1l0.1-0.1c0.1-0.2,0.1-0.3,0.2-0.3c0,0,0,0-0.1,0.1l0.5-0.5v-0.2l0.2-0.2
		l0.1-0.4c0.1-0.2,0.2-0.3,0.4-0.5c0.1-0.1,0.2-0.1,0.2-0.1h-0.1L275.4,77.1z"/>
	<path d="M292.3,82.9c0.2,0,0.3,0,0.5,0.1c0.2,0.1,0.2,0.2,0.2,0.4c0,0.1,0,0.1-0.1,0.2c-0.1,0-0.2,0.1-0.2,0.3c0,0.1,0,0.1,0.1,0.2
		c0,0,0.1,0.1,0.1,0.2l-0.2,0.1v0.2c0,0.1-0.1,0.1-0.2,0.2c-0.1,0-0.2,0.1-0.2,0.3c0,0.1,0,0.1,0.1,0.2c0,0,0.1,0.1,0.1,0.2h-0.2
		l0.1,0.2l-0.2,0.6c0,0.1,0,0.1-0.1,0.1h-0.1c0,0.1,0,0.1,0.1,0.2c0,0,0.1,0.1,0.1,0.2l-0.2,0.2l-0.1,0.5c0,0.1,0,0.1-0.1,0.1h-0.1
		c0,0.1,0,0.2,0.1,0.2L291,89c-0.3,0.7-0.6,1.4-0.9,2.1c-0.3,0.7-0.6,1.6-1,2.5c-0.2,0.2-0.3,0.6-0.5,1.1c-0.2,0.5-0.4,1-0.7,1.5
		c-0.3,0.5-0.8,1-1.3,1.4c-0.5,0.4-1.3,0.6-2.2,0.6c-1.2,0-2.1-0.4-2.7-1.2c-0.5-0.8-0.9-1.7-1-2.7c-0.2-1-0.2-1.9-0.1-2.8
		c0.1-0.9,0.1-1.5,0.1-1.7c0-2,0.1-4,0.3-6c0.2-2.1,0.5-4,0.9-5.9c0.4-1.9,0.8-3.6,1.2-5.2c0.4-1.6,0.8-2.9,1.2-4
		c-0.9-0.4-1.9-1.2-3.1-2.2c-1.1,3.2-1.9,5.9-2.6,8.1c-0.7,2.2-1.4,4.5-2.3,7l-0.1,0.1l-0.1,0.1h0.1l-0.1,0.1v0.1V82l-0.1,0.4h0.1
		l-0.1,0.1l-0.1,0.7c-0.2,0.5-0.3,0.9-0.5,1.4v0.2L275,85l0.1,0.1H275l-0.2,0.5l-0.2,0.5h0.1l-0.2,0.2l-0.1,0.1
		c-0.1,0.2-0.2,0.4-0.2,0.6c-0.1,0.2-0.2,0.4-0.2,0.6h-0.1h0.1v-0.2l-0.2-0.4l-0.1,0.1l0.1-0.1c0-0.1,0-0.1-0.1-0.1
		c0,0-0.1,0-0.1-0.1l0.4-0.5l-0.1-0.1c0-0.2,0-0.3-0.1-0.3c0,0,0.1-0.6,0.6-1.5l0.1,0.1c0-0.1,0-0.1,0.1-0.1c0,0,0.1,0,0.1-0.1h-0.1
		V84l-0.2,0.6h-0.2V85l-0.2,0.5l-0.4,0.6l-0.2,0.5l-0.1,0.2l-0.2,0.5l-0.2,0.4c-0.1,0.2-0.2,0.3-0.2,0.4l-0.1,0.1h0.1l-0.1,0.1
		l-0.1,0.1c-0.3,0-0.5-0.1-0.5-0.4l0.2-0.5l-0.1-0.2l0.2-0.1l-0.1-0.2l0.2-0.2v-0.5l0.1-0.6l0.1-0.4l0.1-0.5l0.2-0.2l-0.1-0.1
		l0.2-0.9c0.4-1.3,0.9-2.9,1.4-4.8c0.5-1.9,1-3.8,1.5-5.7c0.5-2,0.9-3.9,1.3-5.9c0.4-1.9,0.7-3.7,0.9-5.2c-0.7-1.4-1.2-2.7-1.5-4
		c-0.2-1.3-0.4-2.4-0.4-3.3c0-1,0-1.6,0-2c0-0.3,0.5-0.5,1.6-0.5c1.9,0,3.3,0.1,4.1,0.2c0.9,0.2,1.4,0.5,1.7,0.9
		c0.3,0.4,0.4,0.9,0.4,1.6c0,0.7,0,1.5,0.1,2.5c0.1,1,0.3,2.2,0.8,3.5c0.5,1.4,1.3,2.9,2.5,4.6c0.6,0.2,1.1,0.4,1.5,0.8
		c0.4,0.4,0.8,0.7,1,1.1c0.3,0.4,0.6,0.8,0.9,1.3c0,0.2-0.1,0.5-0.2,0.9v0.1v0.1v-0.1v0.1c0,0.1,0,0.1,0.1,0.1l-0.2,0.1l0.1-0.1
		c0-0.1,0-0.1-0.1-0.1c0,0.7-0.3,1.8-1,3.3c-0.7,1.6-1.2,3.9-1.7,6.9c-0.2,1.6-0.7,3.6-1.2,6c-0.6,2.3-0.9,4.6-0.9,6.8
		c0.5-0.7,1-1.3,1.4-2c0.5-0.7,0.9-1.4,1.3-2l0.1-0.2l0.1-0.2v-0.1l0.1-0.1l0.4-0.6l0.4-0.7H289l0.2-0.2l0.2-0.2
		c0.2-0.2,0.3-0.5,0.4-0.9c0.1-0.3,0.3-0.6,0.4-0.7v0.1l-0.1,0.2l0.1,0.4l0.2-0.5h0.2l-0.1-0.1l-0.2-0.2l0.1-0.1
		c0.1-0.2,0.2-0.2,0.2-0.2l-0.1,0.1h0.2V84v0.1l0.1-0.1v0.4c-0.1,0-0.1,0-0.1-0.1c0,0,0-0.1-0.1-0.1c-0.1,0-0.2,0-0.2,0.1
		c0,0.1,0,0.1,0.1,0.1v-0.1c0.1,0,0.1,0,0.1,0.1l0.2-0.5l0.4-0.5l0.4-0.4c0.1-0.1,0.2-0.1,0.2-0.1h-0.1l0.1-0.1H292.3z M273.8,85.7
		h0.1h0.1H273.8z M274.9,84.2h-0.1l0.1,0.2v-0.1V84.2z M275,83.2l-0.1-0.1v0.1H275z M276.8,79.5l0.1-0.2L276.8,79.5z"/>
	<path d="M269.5,47.2c-0.2-0.2-0.5-0.3-0.7-0.4c-0.2-0.1-0.5-0.2-0.7-0.4l0.1,0.1l0.6-0.1h-0.1h0.2l-0.1-0.1l0.2,0.1h0.2
		c0.2,0,0.4,0.1,0.7,0.2c0.3,0.1,0.6,0.2,0.7,0.3h-0.1h0.1c0.7,0,1.4,0.1,2.1,0.2c0.7,0.2,1.4,0.3,2,0.4h-0.1c0.1,0,0.1,0,0.1,0.1
		c0,0,0,0.1,0.1,0.1l-0.1-0.1h0.2c-1.8-0.3-3.5-0.7-5-1.2c-1.5-0.5-2.4-1-2.5-1.8c-0.1-0.3,0-0.6,0.3-0.7c0.3-0.2,0.5-0.3,0.7-0.5
		h0.1c0,0.1,0.1,0.1,0.2,0.1c0.1,0,0.2,0,0.3,0.1l0.2,0.2h-0.1c0.2,0.2,0.9,0.4,2,0.5c1.1,0.1,2.6,0.1,4.4,0.1
		c3.2,0,7.1-0.1,11.8-0.4c4.6-0.2,9.4-0.5,14.4-0.9c0.9-2.1,1.6-3.8,2.2-5.1c0.6-1.3,1.1-2.3,1.5-3c0.4-0.7,0.7-1.2,1-1.4
		c0.2-0.2,0.5-0.3,0.9-0.3c1,0,1.9,0.4,2.7,1.1c0.8,0.7,1.3,1.3,1.4,1.7c0.1,0.6-0.1,1.4-0.7,2.4c-0.5,1-1.2,2.4-1.9,4
		c2.6-0.2,4.8-0.3,6.5-0.3c1.7,0,3.5-0.1,5.5-0.1c1.4,0,2.8,0,4.3,0.1c1.4,0,2.8,0.1,4,0.3c1.2,0.2,2.3,0.4,3.2,0.7
		c0.9,0.3,1.6,0.6,2,1l-0.2,0.2l0.4-0.2c0.1,0.1,0.1,0.2,0.1,0.4c0.2,0.4,0,0.7-0.7,0.9c-0.4-0.2-0.9-0.3-1.5-0.4
		c-0.6-0.1-1.3-0.1-2.1-0.1c-1.5,0-3.2,0.1-5.2,0.4l0.7-0.1l-0.2,0.1h0.2h0.1l0.2-0.1v0.1h1.7l0.1,0.1l0.4-0.1h1.2
		c0.7,0.1,1.4,0.2,2.2,0.3c0.8,0.1,1.3,0.2,1.5,0.3h-0.5h0.1h-0.1h-0.4l-0.2,0.1l-0.7,0.1l0.2-0.1h-0.4c-0.1,0.1-0.2,0.2-0.4,0.2
		v-0.1c-0.2,0-0.2,0-0.2,0.1c0,0-0.1,0.1-0.2,0.1l-1.1-0.1l-0.1-0.5l-0.6,0.4l-0.1,0.2h-1l0.1-0.1h0.2l0.2-0.1l0.2-0.5l-0.7,0.2
		l-0.5,0.1l-0.1,0.1c-0.2,0-0.4,0.1-0.5,0.2H326l0.1-0.1l0.1-0.4h-0.6l-0.6-0.2l0.1,0.6l0.1,0.1h0.1H325l0.1-0.1l-0.1,0.1l-0.1-0.1
		l0.1,0.1c0-0.1-0.2-0.1-0.6,0.1c-0.4,0.1-0.7,0.2-1,0.2c-0.2,0-0.3,0-0.4-0.1c-0.1,0-0.2-0.1-0.3-0.1l-0.1-0.2l0.2,0.1
		c0,0.1,0,0.1,0.1,0.1h0.2h0.2l-0.1-0.1l0.4-0.2l-0.1-0.1l-0.2-0.1l-0.2,0.1l-0.5,0.1l-0.1-0.1h-0.5l0.5-0.1h0.2l0.2-0.2
		c-0.2,0-0.3,0-0.5,0.1c-0.2,0-0.3,0.1-0.5,0.1l-0.2,0.5c0,0.1,0,0.1,0.1,0.1l0.2,0.1h-1.2c-0.4,0.2-0.8,0.2-1.2,0.2
		c-0.4,0-0.8,0-1.2,0.2l-0.1-0.1c-0.4,0.2-0.8,0.2-1.3,0.2c-0.5,0-0.9,0-1.3,0.1v-0.1c-1.6,0.3-3.3,0.7-4.9,1
		c-1.6,0.3-3.1,0.6-4.5,0.9c-0.4,1-1.1,2.9-2.2,5.8c-1,2.9-2.1,6.2-3.1,9.9c-1,3.7-1.9,7.7-2.7,11.8c-0.8,4.1-1.2,7.9-1.2,11.5
		c0,0.8,0.1,1.7,0.4,2.5c0.2,0.9,0.5,1.7,0.6,2.5v0.1L298,93v0.1c0.1,0.1,0.2,0.1,0.4,0.1c1.3,0,2.7-0.7,4-2.2c1.4-1.5,2.4-3,3-4.6
		c-0.1-0.2,0-0.5,0.1-0.6v-0.2l0.1-0.1c-0.1-0.1-0.1-0.1-0.1-0.1c0,0,0,0-0.1-0.1l0.4-0.5v-0.6l0.1-0.2l0.2-0.1H306
		c0.1-0.2,0.2-0.5,0.2-0.7c0.1-0.2,0.1-0.4,0.1-0.6l0.2,0.1l-0.1,0.1l0.2,0.4L307,83l0.1-0.4v-0.2l0.1-0.1l0.2-0.5l-0.1-0.1l0.2-0.4
		c0-0.1,0.1-0.2,0.2-0.4l0.1-0.1l-0.1-0.1h0.1c0.5,0,0.8,0.1,1,0.2l-0.2,0.5c0,0.1,0,0.1,0.1,0.1l0.1,0.1c0,0.1,0,0.1-0.1,0.1h-0.1
		L309,82c0,0.1,0,0.1-0.1,0.1c-0.1,0-0.1,0-0.1,0.1c0,0.1,0,0.1,0.1,0.2c0,0,0.1,0.1,0.1,0.2v0.1l-0.1,0.6c0.1,0.2,0.1,0.2,0,0.2
		c-0.1,0-0.1,0,0,0.1l0.1,0.1l-0.1,0.2v0.4c-0.2,0-0.2,0-0.2,0.1l0.2,0.1v0.9c-0.2,0.7-0.4,1.7-0.7,3.1c-0.3,1.4-0.9,2.9-1.6,4.4
		c-0.7,1.5-1.7,2.8-2.9,3.9c-1.2,1.1-2.7,1.7-4.5,1.7c-1.5,0-2.7-0.4-3.8-1c-1-0.7-1.9-1.6-2.5-2.7c-0.6-1.1-1-2.4-1.3-3.8
		c-0.2-1.4-0.3-2.9-0.2-4.4c0.2-4.2,0.6-8.1,1.2-11.8c0.6-3.7,1.3-7.1,2.2-10.3c0.8-3.2,1.6-6,2.5-8.5c0.8-2.5,1.6-4.5,2.2-6.2
		c-0.3,0.1-0.9,0.1-1.7,0.1c-1.9,0-4.2-0.2-7-0.5c-2.8-0.3-5.6-0.5-8.4-0.5l-0.4-0.1h-0.2h-0.1l-0.2-0.1c0,0.1-0.2,0.1-0.5,0.1h-0.5
		h-0.5l-1.4-0.1l-0.2,0.1c-0.5,0-1,0-1.5-0.1c-0.5,0-1.1-0.1-1.7-0.2h-0.1H274l0.1-0.1h-0.2v0.1h-0.2l-1-0.4h-0.5L269.5,47.2z
		 M271.3,47.2v-0.1h-0.1L271.3,47.2z M273.2,47.8l-0.1-0.1v0.1H273.2z M275.3,48.1h-0.1h-0.2l-0.1,0.2h0.4l0.1-0.1V48.1z
		 M277.5,48.1c0,0.1,0,0.1,0.1,0H277.5z M319.8,46.5h0.2l0.2-0.2c-0.1,0.1-0.2,0.1-0.5,0.1V46.5z M326.7,46.1v0.1l0.1-0.1H326.7z
		 M326.9,45.7h0.1h0.1H327H326.9z"/>
</g>
<path fill-rule="evenodd" clip-rule="evenodd" d="M28,115.4c2.5,0.1,6.2,0,9,0c6-0.1,11.3-0.5,16-1.1c1.5-0.2,2.7-0.5,4.2-0.6
	c0.4,0,1,0,1.3-0.1c0.8-0.1,1.6-0.3,2.6-0.5c2.5-0.4,5.1-1,7.3-1.5c6.5-1.5,11.6-3.1,16.6-4.8c1.1-0.4,2.2-0.9,3.6-1.3
	c0.6-0.2,1.8-0.7,2.6-1c-0.1,0,1.1-0.3,0.6-0.3c-0.1,0-1.3,0.4-1.5,0.5c-0.7,0.2-0.8,0.3-1.5,0.5c0,0,0,0-0.1,0c0,0,0,0.1-0.1,0.1
	c-0.1,0-0.1,0.1-0.3,0.1c0,0,0,0-0.1,0c-3.9,1.4-7.9,2.7-12.2,4c0,0,0,0-0.1,0c0,0,0,0-0.1,0c0,0,0,0-0.1,0c0,0,0,0-0.1,0
	c0,0-0.2,0,0,0c0,0,0,0,0.1,0c0,0,0,0,0.1,0c0,0,0,0,0.1,0c0,0,0,0,0.1,0c4.5-1.5,9.4-2.9,13.1-4.5c-1.2,0.3-2.4,0.9-3.6,1.2
	c0,0-0.5,0.1-0.5,0.1c0-0.1,0.9-0.3,1-0.3c0.9-0.3,2.1-0.8,3-1.1c-0.6,0,0.1-0.1,0.3-0.1c0.3-0.1,0.6-0.4-0.1-0.2
	c-1.6,0.5-3.2,1.1-4.6,1.6c-5.4,1.6-9.8,3.4-16.1,4.8c0,0,0,0-0.1,0c-0.3,0.1-0.4,0.2-0.9,0.2c0,0,0,0-0.1,0c0,0,0,0-0.1,0
	c0,0.1-0.8,0.2-0.5,0.1c-0.9,0.1-1.5,0.4-2.2,0.6c-1.1,0.3-2.9,0.6-4.5,0.9c-6.4,1.2-15.1,2.4-25.4,2.5c-1.5,0-3.3,0-5,0
	c-1.8,0.1,2.7,0,3.5,0c3.8,0,7-0.1,10.3-0.3c5.2-0.3,10.3-1,14.6-1.7c0.9-0.2,1.9-0.4,2.4-0.5c0.2,0,0,0.1,0,0.1
	c1.4-0.2,2.4-0.5,3.7-0.7c0.8-0.3,1.2-0.1,0,0c-1.9,0.5-4.4,0.8-6.4,1.3c2.6-0.2-0.9,0.2-1.5,0.3c-2.3,0.3-5.8,0.8-8.4,1
	c-6.1,0.5-10.5,0.7-17.1,0.7c-0.1,0-3-0.1-3.1,0C26.7,115.5,38.1,115.8,28,115.4z M88.2,104.8c0.1,0,0.2,0.1,0.1,0.1
	C88.2,104.9,88.1,104.8,88.2,104.8z M73.7,110c0,0,0,0-0.1,0c-0.1,0-1.5,0.5-1.7,0.4c0,0,1.5-0.5,1.7-0.4
	C73.6,110,73.6,110,73.7,110C73.8,109.9,74.3,110,73.7,110z M84.3,106.4C84.3,106.3,84.5,106.3,84.3,106.4
	C84.3,106.4,84.1,106.4,84.3,106.4z M83.4,106.7c0,0,0,0,0.1,0c0-0.2,0.5,0,0,0C83.5,106.7,83.5,106.7,83.4,106.7
	C83.4,106.7,83.2,106.7,83.4,106.7z M70.6,110.5c0,0,0,0,0.1,0c0,0,0,0,0.1,0c0.9-0.2,1.6-0.5,2.7-0.7c0,0,0,0,0.1,0c0,0,0,0,0.1,0
	c0,0,0,0,0.1,0c0,0,0,0,0.1,0c0,0,0,0,0.1,0c0,0,0,0,0.1,0c2.5-0.8,5-1.5,7.5-2.3c0,0,0,0,0.1,0c0,0,0-0.1,0.1-0.1c0,0,0,0,0.1,0
	c0,0,0,0,0.1,0c0,0,0,0,0.1,0c0,0,0,0,0.1,0c0,0,0-0.1,0.1-0.1c0,0,0,0,0.1,0c0,0,0,0,0.1,0c-0.1-0.1,0.4,0,0,0c0,0,0,0-0.1,0
	c0,0,0,0-0.1,0c0,0,0,0.1-0.1,0.1c0,0,0,0-0.1,0c0,0,0,0-0.1,0c0,0,0,0-0.1,0c0,0,0,0-0.1,0c0,0,0,0.1-0.1,0.1c0,0,0,0-0.1,0
	c-2.2,0.8-4.7,1.6-7.5,2.3c0,0,0,0-0.1,0c0,0,0,0-0.1,0c0,0,0,0-0.1,0c0,0,0,0-0.1,0c0,0,0,0-0.1,0c0,0,0,0-0.1,0
	c-0.9,0.2-1.6,0.5-2.7,0.7c0,0,0,0-0.1,0C70.8,110.5,70.8,110.5,70.6,110.5C70.7,110.5,70.5,110.5,70.6,110.5z M69.9,111
	c0,0,0,0,0.1,0c0,0,0,0,0.1,0c0,0,0,0,0.1,0c0,0,0,0,0.1,0c0,0,0.1-0.1,0.3-0.1c0.1,0,0.2-0.1,0.4-0.1c0,0,0,0,0.1,0c0,0,0,0,0.1,0
	c0,0,0,0,0.1,0c0,0,0,0,0.1,0c0,0,0.2,0,0,0c0,0,0,0-0.1,0c0,0,0,0-0.1,0c0,0,0,0-0.1,0c0,0,0,0-0.1,0c-0.1,0-0.2,0.1-0.4,0.1
	c0,0,0,0.1-0.3,0.1c0,0,0,0-0.1,0c0,0,0,0-0.1,0c0,0,0,0-0.1,0C70,111,70,111,69.9,111C69.9,111,69.7,111,69.9,111z M60.7,113.1
	c-0.1,0.1-0.2,0.1-0.5,0.1c0,0-0.2,0,0,0C60.3,113.1,60.4,113.1,60.7,113.1C60.8,113,61.3,113.1,60.7,113.1z M64.5,112.1
	c0.2-0.1,0.5-0.1,0.9-0.2c0,0,0,0,0.1,0c0.1-0.1,0.2-0.1,0.5-0.1c0,0,0,0,0.1,0c0.1-0.1,0.7,0,0,0c0,0,0,0-0.1,0
	c-0.1,0.1-0.2,0.1-0.5,0.1c0,0,0,0-0.1,0C65.2,112,64.9,112.1,64.5,112.1c-0.2,0.1-0.5,0.1-0.9,0.2C62,112.6,64.1,112.1,64.5,112.1z
	 M60.3,112.9c0.1,0,0.2-0.1,0.4-0.1c0,0,0,0,0.1,0c0,0,0.1,0,0.3,0c0,0,0,0,0.1,0c0,0,0.1,0,0.3,0c0,0,0,0,0.1,0
	c0.1-0.1,0.2-0.1,0.5-0.1c0.1,0,0.2-0.1,0.4-0.1c0,0,0,0,0.1,0c0,0,0.2,0,0,0c0,0,0,0-0.1,0c-0.1,0-0.2,0.1-0.4,0.1
	c0,0.1-0.3,0.1-0.5,0.1c0,0,0,0-0.1,0c0,0-0.1,0-0.3,0c0,0,0,0-0.1,0c0,0-0.1,0-0.3,0c0,0,0,0-0.1,0
	C60.7,112.9,60.6,112.9,60.3,112.9C60.4,113,60.2,113,60.3,112.9z M63.6,112.5c0.4,0-0.8,0.2-1,0.3c-0.3,0.1-0.9,0.3-1.3,0.2
	C60.9,113,63.4,112.5,63.6,112.5z M58.8,113.2c0.3-0.1,0.8-0.2,1-0.2C59.8,113,59,113.3,58.8,113.2
	C58.8,113.3,58.6,113.2,58.8,113.2z M127.8,97.4c-1.5,0-3,0.1-4.4,0.2c-2.9,0.1-5.4,0.5-7.5,0.9c0.1,0,0.3,0,0.4,0
	c0.1,0,0.2-0.1,0.4-0.1c0.2-0.1,0.6-0.1,1-0.2c0,0,0.2,0,0,0c-0.2,0.1-0.6,0.1-1,0.2c-0.1,0-0.2,0.1-0.4,0.1
	c-9.1,1.8-14.6,4.3-21.4,6.7c-0.3,0.1-1.3,0.4-1.3,0.4c-0.1-0.1,1-0.5,1.4-0.6c2.7-1,5.2-2,7.9-2.9c1.1-0.4,2.1-0.8,3.2-1.1
	c0.2,0,0.8-0.1,1-0.2c0.8-0.2,1.5-0.5,2.4-0.8c0.8-0.2,1.9-0.5,2.6-0.6c0.6-0.1,1.3-0.3,2.1-0.5c1.3-0.3-0.5,0-1.3,0.2
	c-0.6,0.1-1.2,0.2-1.7,0.3c-1,0.3-1.9,0.6-2.6,0.7c0,0-0.9,0.1-0.8,0c-1.3,0.3-2.6,0.8-3.9,1.3c-0.7,0.2-1.6,0.4-2.1,0.7
	c-0.1,0.1-0.1,0.2-0.3,0.2c-0.3,0.1-0.6,0.2-0.9,0.3c-1.2,0.5-2.5,1-4,1.5c-0.6,0.2-1.4,0.5-1.8,0.6c0,0-0.3-0.1-0.4,0
	c-0.6,0.1-1.3,0.5-2.1,0.7c-0.6,0.2-0.1-0.1,0.1-0.2c0.5-0.2,1.5-0.5,1.7-0.6c-1.1,0.3-1.2,0.5-2.3,0.8c-1,0.3,0.6-0.4,0.6-0.4
	c0.4-0.2-0.2,0,0-0.2c-0.1,0.1,0.6-0.1,0.1-0.1c-0.1,0-0.9,0.3-1,0.3c-0.5,0.1-0.6,0.2-1,0.3c0.1,0,0.2,0.1,0,0.1c0,0,0,0-0.1,0
	c0,0.1-0.3,0.1-0.5,0.2c0,0-0.1,0-0.1,0c-0.2,0-0.3,0.1-0.4,0.1c0.5,0,0,0.1-0.1,0.1c-0.1,0.1-0.2,0.1-0.4,0.1c0,0,0,0-0.1,0
	c-0.1,0.1-0.3,0.2-0.6,0.2c0,0,0,0-0.1,0c-4.4,1.6-9.2,3.2-14.7,4.5c0,0-0.2,0,0,0c2.3-0.6,4.3-1.3,6.3-1.9c1.1-0.3,2.3-0.7,3.3-1
	c1.4-0.5,2.8-1,4.1-1.4c0.3-0.1,0.5-0.2,0.9-0.2c0,0,0,0,0.1,0c0.1-0.1,0.3-0.2,0.6-0.2c0,0,0,0,0.1,0c0-0.1,0.1-0.1,0.4-0.1
	c0,0,0-0.1,0-0.1c-3.2,0.9-5.7,1.9-8.8,2.9c-1.5,0.5-3.1,0.9-4.6,1.4c-1.5,0.4-3.2,0.8-4.9,1.3c-0.2,0.1-0.4,0.2-0.6,0.2
	c-0.3,0.1-0.7,0.1-0.9,0.2c-0.2,0.1-0.3,0.2-0.5,0.2c-0.4,0.1-1.1,0.2-1.7,0.3c-7.9,1.6-17.4,3.1-30.3,3.4c-0.1,0-2.1,0-1.9,0.1
	c0.2,0,1.7,0,2.2,0c4.1-0.1,8.9-0.4,12.1-0.6c0.4-0.1,1.5-0.1,1.5-0.1c-0.1,0.1-0.9,0.1-1.5,0.1c-4.3,0.4-9.1,0.6-14,0.7
	c-1.3,0-2.1,0-1,0c1.3,0,2.6,0,3.9,0c4.4-0.1,9.2-0.4,13.4-0.8c4.2-0.4,7.9-1,10.9-1.5c0,0,0.2,0,0,0c-2,0.4-5,0.9-7.7,1.2
	c-3.7,0.4-7.8,0.8-12.1,0.9c-3.2,0.1-6.6,0.3-10.4,0.2c-0.7,0-1.7,0-0.9,0c-0.6,0-0.8,0-0.1,0.1c0.1,0,4.1,0,4,0.1
	c0,0-2.2,0.1-2.2,0.1c0.2,0,6.3,0,3.2,0.1c-1.7,0-4.5,0-7.5-0.1c-0.8,0-2.3,0-0.6,0.1c0.6,0,2.9,0.1,3.7,0.1c1.3,0-1.1,0-1.7,0.1
	c-1.2,0,0.9,0.1,1.8,0.1c0.4,0,1.2,0,2.1,0c0.4,0,0.1,0.1,0.6,0.1c2.3,0.1,6.4,0,7.9,0c0.5,0,1.2-0.1,1.5,0c-0.1,0-0.4,0-0.4,0
	c0.5,0,0.9,0,1.7,0c2.6-0.1,6.7-0.4,9.5-0.6c1.1-0.1-1.2,0.1-1.8,0.2c-0.6,0.1-1.3,0.2-2.1,0.2c-1.7,0.1-5.3,0.2-7.3,0.3
	c-2,0.1-3.5,0.1-6.2,0.1c-0.5,0-2.4,0-2.4,0c-0.3,0.1,1.7,0.1,0.8,0.1c0.2,0,2.7,0,2.6,0.1c-0.1,0.1-2.3,0-2.4,0
	c-0.5,0-3.5,0-1.7,0.1c0.2,0,1.9,0.1,1.7,0.1c-0.2,0.1-1.5,0-1.4,0c-1.9,0-4.1-0.2-6.2-0.2c-1.3-0.1-0.2,0.1,0.4,0.1
	c2.5,0.1,5.9,0.4,9.3,0.4c1.7,0,2,0,3.7,0c2.1,0,0.5,0.1-0.5,0.1c-1.5,0-2.5,0-3.5,0c-0.7,0-1.4,0-1.9,0c-1.2,0-2.2-0.1-3.6-0.1
	c-0.7,0-1.7-0.1-2.7-0.1c-0.1,0-0.7-0.1-0.6,0c0,0,2.2,0.1,2.3,0.1c2.4,0.1,5.5,0.2,8.1,0.3c1.5,0,2.8,0.2,4.5,0.1
	c1.5,0,4.4-0.1,6.2-0.1c1,0-1.1,0.1-1.5,0.1c-1.3,0-2.9,0-4.1,0c-0.9,0-0.4,0,0.6,0c0.5,0,1.4,0,2.4,0c0.2,0,0.1,0.1,0.3,0.1
	c0.4,0.1,0.5-0.1,0.8,0c0.3,0.1-0.3,0.1,0.3,0.1c0.9,0.1,2.3,0,2.8,0c1.2,0,3.1-0.1,3.3,0c0,0-0.5,0.1-0.4,0.1c0,0,1,0,0.9,0
	c-0.2,0.1-0.9,0-1.5,0.1c-0.9,0-2.3,0.2-3,0.2c-0.5,0-0.9,0-1.2,0c0.3-0.1,1.5,0.1,0.3,0.1c-1.3,0-4.2,0-5.3,0c-0.4,0-1.1,0-1.7,0
	c-2.5,0-5.3-0.2-7.2-0.3c-0.2,0-1.9,0-1.7,0.1c0.1,0,3.3,0.2,3.7,0.2c2.5,0.1,5.1,0.1,7.6,0.2c1.9,0,3.1,0,5,0c1.5,0-1.3,0-1.5,0.1
	c-0.4,0.1,4,0,4.9,0c4.8-0.1,8.6-0.3,12.4-0.6c1.1-0.1,2.2-0.2,3.3-0.3c-0.1,0,0.1,0.1,0.3,0.1c0.4,0,1.5-0.2,2.1-0.2
	c8.6-1,16.3-2.7,23-4.3c0.3-0.1,1.3-0.4,1.9-0.6c1.3-0.3-0.1,0.2-0.8,0.4c-1.8,0.5-2.8,0.7-4.8,1.3c1.1-0.2,1.8-0.5,3-0.7
	c0,0,0,0,0.1,0c0.3-0.1,0.7-0.2,1.2-0.3c0,0,0.2,0,0,0c-0.2,0.1-0.6,0.3-1.2,0.3c0,0,0,0-0.1,0c0,0,0,0,0,0.1c5-1.2,9.9-2.9,14-4.3
	c3.9-1.3,7.3-2.6,11.1-4c0.5-0.2,1.5-0.6,1.7-0.5c0.4-0.1,1.1-0.4,1.5-0.5c0.7-0.3,2.1-0.6,3-1c2-0.7,4.4-1.3,7.2-1.9
	c0.5-0.1,1-0.2,1.5-0.3c1.1-0.2,2.3-0.4,3.5-0.5c0.2,0,0.4,0,0.6,0c0.6,0,1.2-0.2,1.9-0.2c1.6-0.1,3.7-0.2,5.5-0.1
	c1.7,0.1,3.9,0,5,0.3c0,0-0.4,0.1-0.3,0.1c0.2,0.1,0.8,0.1,1.2,0.1c0.1,0,0.4,0.1,0.6,0.2c0.6,0.1,1.4,0.3,1.9,0.5
	c0.9,0.3,1.5,0.6,2.4,0.9c0.3,0.1,0.9,0.2,1,0.3c0,0-0.2,0.1-0.1,0.1c0.5,0.2,1.5,0.5,2.3,0.8c0.5,0.2,1.9,0.6,2.1,0.8
	c0,0-0.2,0.1-0.1,0.1c0.3,0.2,1.1,0.4,1.5,0.7c0.8,0.3,1.4,0.6,2.2,1c0.2,0.1,0.5,0.2,0.8,0.3c0.5,0.2,0.7,0.5,1.2,0.7
	c1,0.6,2.7,1.4,4,2.1c0.3,0.2,1.6,1,0.8,0.6c-0.6-0.3-1.3-0.9-1.9-1.1c-0.4-0.1-0.1,0.1-0.5-0.1c-1.3-0.5-2.2-1.3-3.5-1.9
	c-0.3-0.1-0.7-0.2-1-0.4c-3.8-1.8-7.6-3.4-12.5-5c-0.5-0.2-0.9-0.3-1.7-0.5c0,0-0.4-0.2-0.6-0.1c-0.1,0,0.8,0.2,0.9,0.3
	c0.9,0.3,1.8,0.6,2.6,0.8c1.4,0.5,2.1,0.8,3.1,1.2c1.1,0.4,2.2,0.8,3.2,1.2c0.6,0.3,1.4,0.6,2.1,1c0.4,0.2,0.7,0.5,0,0.1
	c-0.3-0.1-0.8-0.3-1-0.5c-0.6-0.2-0.9-0.5-1.4-0.6c-0.2-0.1-0.3,0-0.5,0c-0.3-0.1-1.1-0.5-1.4-0.6c-1.3-0.5-2.6-1-4.2-1.5
	c-0.9-0.3,0.8,0.4,1,0.5c1.6,0.6,2.7,1.1,4,1.7c1,0.2,0.4,0.3,0,0c-0.4,0-0.4-0.2-0.8-0.2c0.9,0.5,2.3,0.9,3.2,1.4
	c1.4,0.8,3.2,1.6,4.8,2.5c3.5,1.9,6.5,4,9.1,6.1c0.5,0.4,1.2,0.9,1.5,1.3c0.1,0.1,0.2,0.6,0.5,0.9c0,0,0.4,0.2,0.1,0.2
	c-0.2,0-0.7-0.6-0.8-0.7c-0.1,0-0.1-0.1-0.1-0.1c-2.4-2.2-5.4-4.3-8.8-6.3c-3.3-2-6.8-3.9-11.3-5.6c1.3,0.7,3.1,1.3,4.4,2.1
	c0.1,0,0.1,0,0.1,0.1c0.4,0-0.1,0.1,0,0c-0.1,0-0.1,0-0.1-0.1c-3.2-1.4-6.2-2.8-9.9-4c1.5,0.8,3.8,1.5,5.4,2.3
	c0.2,0.1,0.3,0.3,0.5,0.4c0.6,0.3,1.5,0.7,2.2,1c0.3,0.2,0.5,0.4,0.8,0.6c0.3,0.2,0.7,0.3,1,0.5c1.3,0.7,2.3,1.5,3.6,2.2
	c0.4,0-0.1,0.1,0,0c-0.8-0.1-1-0.4-1.5-0.7c-0.9-0.5-1.7-0.9-2.8-1.5c-0.3-0.2-0.6-0.5-1.4-0.6c0,0-0.2-0.1-0.3-0.1
	c0,0,1,0.7,0.1,0.3c-0.1,0-0.1-0.1-0.3-0.1c0,0.2,0.5,0.3,0.6,0.5c0.1,0,0.1,0,0.1,0.1c0.1,0,0.2,0,0.1,0.1c0.4,0-0.1,0.1,0,0
	c-0.1,0-0.1,0-0.1-0.1c-0.1,0-0.1,0-0.1-0.1c-1.6-0.6-2.3-1.2-3.9-1.9c-0.1,0-0.6-0.2-0.6-0.1c0,0.1,1.1,0.5,1.2,0.5
	c2.3,1.1,4.2,2,6.1,3.3c-0.1,0,1,0.6,0.6,0.6c0,0-0.8-0.5-0.9-0.5c-2.1-1.3-4-2.3-6.6-3.4c0.6,0.4,1.5,0.8,2.2,1.2
	c0.1,0,0.1,0,0.1,0.1c0.1,0,0.2,0,0.1,0.1c0.1,0,0.2,0,0.1,0.1c0.4,0-0.1,0.1,0,0c-0.1,0-0.1,0-0.1-0.1c-0.1,0-0.1,0-0.1-0.1
	c-0.1,0-0.1,0-0.1-0.1c0,0-0.1,0-0.1,0c0,0,0,0.1,0,0.1c0.1,0,0.1,0,0.1,0.1c0.4,0-0.1,0.1,0,0c-0.1,0-0.1,0-0.1-0.1
	c-0.6-0.3-1.7-0.7-2.3-1.1c-0.3-0.2,0.4,0.4,0.5,0.4c0.4,0.2,0.7,0.3,0.8,0.5c0.1,0,0.1,0,0.1,0.1c0.4,0-0.1,0.1,0,0
	c-0.1,0-0.2,0-0.1-0.1c-0.5-0.2-0.9-0.4-1.4-0.7c-0.5-0.2-1-0.6-1.5-0.7c0,0,0,0.1,0,0.1c0.1,0,0.1,0,0,0c0.7,0.6,2.2,1,3,1.6
	c0.2,0.2,0.2,0.4,0.5,0.6c0.5,0.4,1.6,0.8,2.3,1.3c0.2,0.1,0.3,0.3,0.5,0.5c0.3,0.2,0.8,0.4,1,0.6c0.1,0.1-0.1,0.1,0,0.2
	c0.3,0.3,1,0.6,1.4,0.9c0.3,0.2,0.7,0.4,0.9,0.7c0.2,0.2,0.3,0.4,0.6,0.7c2.4,1.8,4.4,3.9,6.7,5.8c0.2,0.2,0.6,0.4,0.8,0.7
	c0.1,0.1,0.2,0.2,0,0.2c0.1,0-0.4-0.2-0.5-0.2c-0.5-0.2-0.6-0.6-1-0.8c-0.1-0.1-0.3,0-0.4-0.1c-0.5-0.2-0.7-0.6-1.2-0.9
	c-0.8-0.7-1.2-1.1-2.1-1.9c-0.3-0.3-0.6-0.5-0.9-0.7c-0.8-0.6,0.3,0.6,0.6,0.9c2.3,2,4,4.1,8,5.7c0.7,0.3,1.3,0.6,2.1,0.7
	c0.1,0,0.4,0,0.6,0c0.5,0.1,1.2,0.4,2.1,0.4c0.2,0-0.4-0.1-0.3-0.2c0.2,0,1.5,0.4,1.8,0.2c-0.4,0,0.1-0.1,0,0c1,0,1.4,0.4,2.3,0.5
	c0.6,0.1,0.4-0.1,1,0c0.8,0,0.8,0.2,1.3,0.2c0.7,0-0.8-0.2-0.3-0.2c0.3,0,1.4,0.5,1.7,0.5c0.3,0,0.7-0.1,1,0c-0.2-0.2,0.1-0.1,0.4,0
	c0.1,0-0.8-0.3-0.6-0.3c0.5,0,1.7,0.6,2.3,0.7c0.3,0-0.2-0.1,0.1-0.1c0.6,0,0.9,0.4,1.7,0.5c0.4,0,0.4-0.1,0.9-0.1
	c0.3-0.2,0.8,0.2,1.5,0.4c0,0,1.5,0.3,1.4,0.3c0,0,0.1-0.2,0.4-0.2c0.5,0-0.2,0.1,0,0.2c0.2,0.1,0.9,0.1,0.9,0.1
	c0.4,0-0.6-0.1-0.7-0.2c-0.1,0-0.1,0,0,0c0,0-0.1,0,0,0c0.1,0,0.5-0.1,0.8,0c0.1,0,0.1,0.1,0.3,0.1c0.2,0,0.5,0,0.6,0
	c0.3,0.1,0.4,0.2,0.8,0.3c0.2,0,0.5,0,0.6,0c0.1,0-0.1,0.1,0,0.1c0.2,0,0.5-0.1,0.9,0c-0.1,0-0.1,0.1,0.1,0.1c0.8,0,0.2,0,0.3,0.1
	c0,0.1,0.5,0.1,0.9,0c0.7-0.3-0.1,0,0.4,0.1c0.5,0.1,0.8-0.1,0.4,0.1c-0.6,0.3,1.6-0.1,2.1,0c0.2,0.1-0.3,0.2,0,0.2
	c0.5,0.1,0.2-0.2,0.9-0.1c0.7,0.1-0.4,0.2,0.3,0.1c0.2,0,1-0.3,0.4,0c-0.2,0.1,0.2,0.2,0.9,0.2c0.1,0,1.2-0.4,1.3-0.1
	c0,0.1-0.4,0.1-0.3,0.2c0.1,0,0.9-0.2,0.6,0c0.4,0.2,0.6-0.2,0.8,0.1c0-0.1,0.1,0.1,0.1,0.1c0.3,0,1.3,0.1,1.2,0.1
	c0.1,0,0.5-0.1,0.6-0.1c0.2,0,0,0.1,0.1,0.1c0.3,0.1,1-0.1,0.8,0.1c0,0-0.2,0.1-0.1,0.1c0.1,0,0.7-0.2,0.9-0.1c0.1,0,0,0.1,0,0.1
	c0,0,0.1,0,0.3-0.1c0.1,0,0.2,0,0.2-0.1c-0.1,0-0.1,0,0.1,0c0,0-0.1,0-0.1,0c0.1,0,0.5,0.1,0.5,0.1c0.1,0,0.4-0.2,0.6-0.3
	c3-1.5,6.1-3.8,7.5-5.6c-0.1-0.2,0.4,0,0,0c0,0.1,0,0.2,0,0.3c0.7-0.6,1.4-1.7,1.8-2.5c1.2-2.2,2.5-4.9,1.8-7.4
	c-0.1-0.5-0.5-0.9-1-1.3c-0.5-0.4-0.7-0.6-1.3-0.8c-0.6-0.3-0.7-0.2-1.9-0.3c-1.2-0.1-2.1-0.1-3.1-0.3c-0.8-0.1-0.2,0.1-1,0.1
	c-0.5,0-0.5-0.2-1-0.2c-0.4,0-0.1,0.1-0.4,0.1c-0.2,0-0.5-0.2-0.8-0.2c-0.2,0-0.7,0.1-0.6,0.2c0,0.1,0.4,0.1,0.3,0.2
	c0,0-0.5-0.1-0.5-0.1c-0.1,0,0.2,0.2-0.1,0.2c0,0,0-0.1-0.1-0.1c-0.3,0-0.1,0-0.4-0.1c-0.1-0.1-0.1-0.2-0.4-0.2c0,0,0,0.1,0,0.1
	c-0.2,0.1-0.7-0.2-1,0c-0.1,0.1-0.5,0.1-0.6,0.2c-0.2,0.1,0.2,0.2-0.1,0.2c-0.4,0-0.1-0.3-0.5-0.4c-0.1,0-0.3,0.2-0.5,0.2
	c-0.2,0-0.2-0.4-0.3-0.4c0,0-0.3-0.1-0.5-0.1c-0.9,0.1,0.4,0.6,0.5,0.8c0,0.1-0.2,0.1-0.4,0c-0.6-0.4,0.5,1-0.5,0.2
	c0,0-0.2-0.3-0.4-0.2c-0.3,0.1,1.1,1.1,1.2,1.3c0.1,0.4-0.3-0.1-0.4-0.2c-0.1-0.1-0.1-0.2-0.4-0.3c0.8,0.7,0.6,1.3,0.5,2.1
	c0,0.1,0.1,0.5-0.1,0.2c-0.3-0.4,0-1.4-0.4-1.9c-0.3-0.4-0.1,0.2-0.1,0.6c0,0.5,0.1,0.7-0.3,1.1c-0.3,0.2,0,0,0-0.1
	c0-0.1-0.2-0.6-0.4-0.7c0,0,0,0.2-0.1,0.2c-0.3-0.1,0.1-0.1-0.1-0.2c-0.1,0-0.2,0-0.3,0c-0.1-0.1,0-0.1-0.1-0.2
	c-0.2-0.1,0,0.3-0.3,0.2c-0.1,0,0.1-0.4,0-0.5c0,0-0.3-0.1-0.4-0.1c-0.2-0.1-0.3-0.4-0.6-0.6c-0.3-0.2,0.3,0.4,0.4,0.5
	c0,0.1-0.1,1.2-0.3,0.8c-0.1-0.3,0.2,0.7-0.3,0.3c0,0-0.3-0.2-0.4-0.2c0.1,0-0.2,0.5-0.3,0.5c-0.1,0.2-0.2,1.8-0.4,0.8
	c0-0.1,0-0.3-0.1-0.1c-0.2,0.3,0,0.5-0.1,0.8c-0.3,1-1.2,2.8-1.8,3.7c-0.1,0.1-0.3,0.5-0.4,0.1c-0.4,0,0.1,0.2-0.3,0.1
	c0,0.6-1.2-0.1-1.3-0.4c-0.1-0.3,0.3-0.6,0.5-1c0.2-0.4,0.2-0.8,0.4-1c0.4-0.7-0.3,1.2,0.3,0.3c0.1-0.1,0.5-0.6,0.5-0.6
	c0.3-0.6,0.9-1.6,0.9-2.5c0,0-0.2-1-0.4-0.5c-0.1,0.2-0.1,0.5-0.1,0.7c0,0.1-0.1,0.3-0.1,0.4c-0.2-0.1,0.1-1.1,0-1.2
	c-0.3-0.2-0.3,0.2-0.4,0.4c-0.3,1.3-0.6,2.8-1.3,4.1c-0.2,0.4,0,0.7-0.8,0.7c-0.1,0.1,0.2,0.1,0.1,0.2c0.2,0,0.1,0.1,0,0
	c-0.2,0-0.3-0.1-0.3-0.2c-0.1,0-0.1-0.1-0.1-0.1c-0.2,0-0.1-0.1-0.1-0.1c-3.9-2.8-8.6-5.4-13.9-7.8c-0.2,0-0.3,0-0.3-0.1
	c-0.3,0-0.3-0.1-0.4-0.2c-0.1,0-0.2,0-0.1,0c-0.1,0-0.1,0-0.1-0.1c-0.2,0-0.1-0.1,0,0c0.1,0,0.1,0,0.1,0.1c0.1,0,0.2,0,0.1,0
	c0,0,0.1,0,0.1,0c0-0.1-0.2-0.2-0.5-0.2c0,0-0.1,0-0.1,0c-0.3-0.1-0.5-0.2-0.6-0.3c-0.2,0-0.3,0-0.3-0.1c-0.1,0-0.2,0-0.1,0
	c-0.4,0,0.1-0.1,0,0c0.1,0,0.2,0,0.1,0c0.1,0,0.2,0,0.3,0c-1.8-0.9-4.4-1.6-6.7-2.5c-4.8-1.8-11.4-3.4-19.2-4.3
	c-3-0.4-5.9-0.7-9.3-1c-1.2-0.1-1.9-0.2-3.1-0.3c-2-0.2-4.3-0.4-6.4-0.6C135.4,97.6,132.4,97.4,127.8,97.4z M51.5,114.9
	c-0.6,0,1.2-0.2,1.2-0.2C52.8,114.8,51.6,114.9,51.5,114.9z M57,114.3C57.1,114.2,56.9,114.3,57,114.3L57,114.3z M58,114.1
	C57.9,114.2,57.4,114.1,58,114.1C58,114.1,58.2,114.1,58,114.1z M58.7,114c-0.1,0-0.1,0-0.3,0C57.9,114.1,59.9,113.9,58.7,114z
	 M59.4,113.9C59.4,114,58.9,113.8,59.4,113.9C59.6,113.7,60.1,113.9,59.4,113.9z M56.2,115.9C56.2,115.9,56.3,115.9,56.2,115.9
	L56.2,115.9z M66.5,114.7c-2.1,0.4-4.6,0.7-6.8,0.9c-0.2,0.1-0.7,0,0,0c1.7-0.3,3.8-0.5,5.5-0.8C66.1,114.6,68.1,114.4,66.5,114.7z
	 M60.3,114.4C60.3,114.4,60.4,114.4,60.3,114.4L60.3,114.4z M63.4,113.9c-0.3,0.1-1.2,0.3-1.8,0.3c-0.2,0-0.9,0.1-1,0.1
	c-0.3,0,1.5-0.3,1.7-0.3c0.2,0,1-0.2,1.4-0.2c0,0,0.5-0.1,0.4-0.1C64.7,113.7,63.4,113.9,63.4,113.9z M63.2,113.4
	C63.2,113.4,63,113.4,63.2,113.4C63.2,113.4,63.4,113.4,63.2,113.4z M63.7,113.3C63.8,113.3,63.6,113.3,63.7,113.3L63.7,113.3z
	 M160.5,107.9C160.1,107.9,160.7,107.8,160.5,107.9C160.7,107.9,160.6,108,160.5,107.9z M156.7,107.1c0,0-0.2-0.1-0.1-0.1
	C156.7,106.9,156.9,107.2,156.7,107.1z M157.3,107.4c-0.1,0-0.1,0-0.1-0.1c-0.4,0,0.1-0.1,0,0C157.3,107.3,157.3,107.3,157.3,107.4
	C157.5,107.4,157.4,107.4,157.3,107.4z M165,109.8c-0.1,0-0.1-0.1-0.1-0.1c-0.4,0,0.1-0.1,0,0C165.1,109.7,165,109.8,165,109.8
	C165.2,109.8,165.1,109.9,165,109.8z M166.3,113.6c0.1,0,0.2,0.1,0.1,0.1C166.4,113.7,166.3,113.6,166.3,113.6z M209.7,108.1
	c0.1,0,0.2,0.1,0.1,0.1C209.8,108.2,209.7,108.1,209.7,108.1z M206.1,109.9c0,0.1,0.2,0.8,0,0.8C205.9,110.8,206.1,109,206.1,109.9z
	 M204.3,112c0,0,0,0.1,0,0.1C204.1,112.1,204.3,111.7,204.3,112z M205.7,117.6C205.9,117.8,205.3,117.7,205.7,117.6
	C205.6,117.4,206.1,117.5,205.7,117.6z M206,117.4c-0.1,0-0.2-0.1-0.1-0.1C205.9,117.3,206.1,117.4,206,117.4z M206.6,116.3
	c0.1,0,0.1,0,0.1,0.1c-0.1,0.2-0.5,0.6-0.6,0.8c0.1,0.2-0.4,0.1,0,0C206.2,117,206.4,116.3,206.6,116.3z M202.1,111.7
	c0.1,0,0.2,0.1,0.1,0.1C202.2,111.8,202.1,111.7,202.1,111.7z M176.4,112.6c0.2,0.1,1.2,1,0.4,0.5c-0.4-0.3-1-0.5-1.3-0.9
	C175.1,111.7,176.2,112.5,176.4,112.6z M184.7,109.9c-0.1,0-0.2-0.1-0.1-0.1C184.7,109.7,184.8,109.8,184.7,109.9z M159.9,103
	c-0.1,0-0.2-0.1-0.1-0.1C159.8,103,159.9,103,159.9,103z M157.4,102.2c0.3,0.1,1,0.2,1.4,0.4c0.2,0.1,0.9,0.4,0.1,0.2
	C158.5,102.6,157.6,102.4,157.4,102.2C157.3,102.2,157.4,102.2,157.4,102.2z M101.4,103c0-0.1,0.1-0.1,0.3-0.1c0,0,0,0,0.1,0
	c0,0,0-0.1,0.1-0.1c0,0,0,0,0.1,0c-0.1-0.1,0.4,0,0,0c0,0,0,0-0.1,0c0,0,0,0.1-0.1,0.1c0,0,0,0-0.1,0C101.7,103,101.6,103,101.4,103
	C101.4,103.1,101.2,103,101.4,103z M95.6,105.2c1.4-0.7,3.9-1.4,5.3-2c0,0,0.2,0,0,0c0,0,0,0.1,0,0.1c0.3,0.1-0.2,0.2-0.4,0.2
	c-0.4,0.3-0.8,0.5-1.4,0.7c-0.1,0-0.4,0-0.5,0c-0.3,0.1-0.4,0.2-0.5,0.3c-0.5,0.2-1.5,0.5-2.1,0.6C95.6,105.3,95.2,105.4,95.6,105.2
	z M99.9,104.3c0,0.1-0.1,0.1-0.3,0.1c0,0.2-0.5,0,0,0C99.6,104.3,99.7,104.3,99.9,104.3C99.9,104.3,100.1,104.3,99.9,104.3z
	 M99.1,104.7c-0.2,0.1-0.6,0.1-0.8,0.2c0,0-0.2,0,0,0C98.6,104.6,99.6,104.5,99.1,104.7z M78,112.4C78,112.5,77.8,112.4,78,112.4
	C78,112.3,78.6,112.4,78,112.4z M113.9,100.7c-1.7,0.6-3.4,1-4.8,1.5c-0.3,0.1-0.7,0.2-1,0.3c-2.6,0.9-5.1,2-7.6,2.9
	c-0.7,0.2-1.5,0.4-2.2,0.7c-0.4,0.1-0.6,0.3-1,0.5c-1.2,0.4-2.6,0.9-3.9,1.2c0,0,0,0-0.1,0c0,0.1-0.1,0.1-0.3,0.1
	c-3.8,1.3-7.9,2.7-12.5,3.9c-0.6,0.2-2.9,0.7-1.9,0.3c0.7-0.2,1.8-0.5,2.4-0.6c4.3-1.1,8.3-2.4,12-3.6c0-0.1,0.1-0.1,0.3-0.1
	c0,0,0,0,0.1,0c2-0.8,4.5-1.5,6.4-2.3c-0.4,0.1-1.2,0.3-0.6,0.1c0.3-0.1,1-0.4,1.2-0.4c1-0.4,2.1-0.7,3.1-1c0.5-0.2,1.1-0.3,1.5-0.5
	c2.3-0.9,4.7-1.8,7.5-2.6C113.4,100.8,114.9,100.3,113.9,100.7z M120.2,99.1c-0.2,0.1-0.7,0.2-1.2,0.2c-0.1,0-0.2,0.1-0.4,0.1
	c0,0-0.2,0,0,0c0-0.1,0.1-0.1,0.4-0.1C119.4,99.2,119.8,99.1,120.2,99.1C120.2,99,120.4,99.1,120.2,99.1z M118.3,98.2
	C118.3,98.3,117.8,98.2,118.3,98.2C118.3,98.2,118.5,98.2,118.3,98.2z M121.4,97.9c-0.1,0-0.2,0-0.3,0
	C120.6,97.9,121.9,97.8,121.4,97.9z M208.3,125.8C208.3,125.9,208.4,125.8,208.3,125.8C208.3,125.8,208.3,125.8,208.3,125.8z
	 M31.1,114.5c-0.3,0-1.1,0-1,0C30.7,114.6,31.2,114.5,31.1,114.5z M30.2,115.7c-0.1,0,0.1,0.1,0.1,0.1
	C31,115.9,30.5,115.7,30.2,115.7z M31.4,115.8C31.3,115.8,31.5,115.7,31.4,115.8L31.4,115.8z M32.4,114.4c-0.2,0-1,0-0.8,0
	C32.2,114.5,32.5,114.4,32.4,114.4z M33.7,114.4C32.4,114.4,32.6,114.5,33.7,114.4L33.7,114.4z M33.7,114.4
	c5.8-0.2,10.8-0.5,14.9-1.2C44.2,113.8,39.3,114.2,33.7,114.4z M36.4,118.3c-0.2,0-0.5,0-0.3,0C36.3,118.3,36.6,118.3,36.4,118.3z
	 M37,114.6C37.8,114.6,36.5,114.6,37,114.6L37,114.6z M44.6,114.1C44,114.1,44.5,114.2,44.6,114.1L44.6,114.1z M46.1,114
	c-0.6,0-1.1,0.1-1.4,0.1C45.2,114.1,45.7,114,46.1,114z M48.9,119c-0.8-0.1-2.4,0.1-3,0C46.9,119.1,48.7,119,48.9,119z M46.1,114
	c0.2,0,0.4,0,0.4,0C46.3,113.9,46.1,113.9,46.1,114z M46.4,113.9c0.3,0,0.5,0,0.6-0.1C46.8,113.8,46.5,113.9,46.4,113.9z
	 M47.1,113.8c0.1,0,0.2,0,0.3,0C47.2,113.8,47.1,113.8,47.1,113.8z M47.3,113.8c0.2,0,0.4,0,0.4,0C47.5,113.8,47.4,113.8,47.3,113.8
	z M47.7,113.8C48.3,113.8,47.8,113.7,47.7,113.8L47.7,113.8z M48.9,113.6C48.4,113.6,48.9,113.7,48.9,113.6L48.9,113.6z M48.9,113.2
	c-0.1,0-0.2,0-0.3,0C48.8,113.3,48.9,113.2,48.9,113.2z M49.1,113.6c-0.1,0-0.2,0-0.3,0C49,113.6,49.1,113.6,49.1,113.6z
	 M49.1,113.2c-0.1,0-0.2,0-0.3,0C49,113.2,49.1,113.2,49.1,113.2z M49.4,113.6c-0.1,0-0.2,0-0.3,0C49.3,113.6,49.4,113.6,49.4,113.6
	z M49.4,113.1c-0.1,0-0.2,0-0.3,0C49.3,113.2,49.4,113.2,49.4,113.1z M49.4,113.6C50.2,113.6,49.7,113.4,49.4,113.6L49.4,113.6z
	 M49.4,113.1C49.6,113.1,49.4,113.1,49.4,113.1L49.4,113.1z M50.6,113C50.6,113,50.5,113,50.6,113L50.6,113z M51.3,112.9
	C51.1,112.9,51.3,112.9,51.3,112.9L51.3,112.9z M51.3,112.9C51.5,112.8,51.3,112.8,51.3,112.9L51.3,112.9z M51.7,112.8
	C51.7,112.8,51.8,112.8,51.7,112.8L51.7,112.8z M52.9,112.7C52.8,112.7,53,112.6,52.9,112.7L52.9,112.7z M53.1,112.6
	C52.9,112.6,53.2,112.6,53.1,112.6L53.1,112.6z M53.1,112.6C53.3,112.6,53.1,112.5,53.1,112.6L53.1,112.6z M53.5,112.5
	C53.3,112.5,53.5,112.6,53.5,112.5L53.5,112.5z M54.2,112.4c-0.3,0-0.6,0-0.6,0.1C53.8,112.5,54.1,112.5,54.2,112.4z M54.6,112.3
	c-0.2,0-0.3,0-0.4,0.1C54.4,112.4,54.5,112.4,54.6,112.3z M54.8,112.8C54.3,112.7,54.8,112.9,54.8,112.8L54.8,112.8z M55.6,112.2
	c-0.5,0-0.8,0.1-1,0.2C55,112.3,55.3,112.3,55.6,112.2z M55.2,112.7c-0.2,0-0.3,0-0.4,0.1C55,112.8,55.1,112.7,55.2,112.7z
	 M55.5,112.7c-0.1,0-0.2,0-0.3,0C55.3,112.7,55.4,112.7,55.5,112.7z M55.8,112.6c-0.2,0-0.3,0-0.4,0.1
	C55.7,112.7,55.8,112.6,55.8,112.6z M55.8,112.4C55.3,112.4,55.8,112.6,55.8,112.4L55.8,112.4z M56.5,112c-0.4,0-0.7,0.1-0.9,0.2
	C56,112.1,56.3,112.1,56.5,112z M56.2,112.5c-0.2,0-0.3,0-0.4,0.1C56.1,112.6,56.2,112.6,56.2,112.5z M55.8,112.4c0.1,0,0.1,0,0.1,0
	C55.9,112.4,55.8,112.4,55.8,112.4z M56,112.4c0.1,0,0.2,0,0.3,0C56.1,112.4,56,112.4,56,112.4z M56.6,112.4c-0.2,0-0.3,0-0.4,0.1
	C56.4,112.5,56.6,112.5,56.6,112.4z M56.2,112.4c0.1,0,0.1,0,0.1,0C56.2,112.3,56.2,112.4,56.2,112.4z M56.4,112.3
	c0.2,0,0.2,0,0.3,0C56.5,112.3,56.4,112.3,56.4,112.3z M56.9,111.9c-0.2,0-0.3,0-0.4,0.1C56.7,112,56.8,112,56.9,111.9z M56.9,112.4
	c-0.2,0-0.2,0-0.3,0C56.8,112.5,56.8,112.4,56.9,112.4z M56.6,112.3c0.1,0,0.1,0,0.1,0C56.6,112.3,56.6,112.3,56.6,112.3z
	 M56.9,113.5C56.7,113.5,56.9,113.5,56.9,113.5L56.9,113.5z M56.7,112.3c0.1,0,0.2,0,0.3,0C56.8,112.2,56.8,112.2,56.7,112.3z
	 M56.9,113.5c0.2,0,0.3,0,0.4-0.1C57,113.4,56.9,113.4,56.9,113.5z M57,112.4c-0.1,0-0.1,0-0.1,0C57,112.4,57,112.4,57,112.4z
	 M57.3,111.9c-0.2,0-0.3,0-0.4,0.1C57.1,111.9,57.2,111.9,57.3,111.9z M57.3,112.3c-0.2,0-0.2,0-0.3,0
	C57.1,112.4,57.2,112.4,57.3,112.3z M57,112.2c0.1,0,0.1,0,0.1,0C57,112.2,57,112.2,57,112.2z M57.1,112.2c0.1,0,0.2,0,0.3,0
	C57.2,112.2,57.2,112.2,57.1,112.2z M57.3,113.4c0.1,0,0.2,0,0.3,0C57.4,113.4,57.3,113.4,57.3,113.4z M57.4,112.3
	c-0.1,0-0.1,0-0.1,0C57.4,112.4,57.4,112.3,57.4,112.3z M58.2,111.7c-0.4,0-0.7,0.1-0.9,0.2C57.7,111.8,58,111.8,58.2,111.7z
	 M57.6,112.3c-0.2,0-0.2,0-0.3,0C57.5,112.3,57.6,112.3,57.6,112.3z M57.4,112.2c0.1,0,0.1,0,0.1,0
	C57.4,112.1,57.4,112.1,57.4,112.2z M57.6,113.2C57.5,113.2,57.7,113.2,57.6,113.2L57.6,113.2z M57.5,112.1c0.2,0,0.2,0,0.3,0
	C57.6,112.1,57.5,112.1,57.5,112.1z M57.6,113.2c0.2,0,0.3,0,0.4-0.1C57.8,113.1,57.7,113.1,57.6,113.2z M57.8,112.2
	c-0.1,0-0.1,0-0.1,0C57.8,112.3,57.8,112.3,57.8,112.2z M58,112.2c-0.1,0-0.2,0-0.3,0C57.9,112.2,58,112.2,58,112.2z M57.8,112.1
	c10.9-1.9,18.9-4.6,26.5-7.3C76.4,107.5,68.3,110.1,57.8,112.1z M58,113.1c0.1,0,0.2,0,0.3,0C58.1,113.1,58.1,113.1,58,113.1z
	 M58,112.2C58.2,112.2,58,112.2,58,112.2L58,112.2z M58.5,111.6c-0.2,0-0.3,0-0.4,0.1C58.4,111.7,58.5,111.7,58.5,111.6z
	 M58.3,113.1c0.1,0,0.1,0,0.1,0C58.3,113,58.3,113.1,58.3,113.1z M58.4,113c0.1,0,0.2,0,0.3,0C58.5,113,58.4,113,58.4,113z
	 M58.7,111.6c-0.1,0-0.1,0-0.1,0C58.7,111.6,58.7,111.6,58.7,111.6z M58.7,113c0.1,0,0.1,0,0.1,0C58.7,113,58.7,113,58.7,113z
	 M59.1,111.5c-0.2,0-0.3,0-0.4,0.1C58.9,111.6,59,111.5,59.1,111.5z M58.8,113c0.1,0,0.2,0,0.3,0C58.9,112.9,58.8,112.9,58.8,113z
	 M59.1,112.9c0.2,0,0.3,0,0.4-0.1C59.2,112.9,59.1,112.9,59.1,112.9z M59.6,111.4c-0.3,0-0.4,0.1-0.5,0.1
	C59.4,111.5,59.5,111.5,59.6,111.4z M59.4,112.6C59.4,112.6,59.5,112.5,59.4,112.6L59.4,112.6z M59.4,111.6
	C59.3,111.6,59.5,111.7,59.4,111.6L59.4,111.6z M59.4,112.9c0.2,0,0.3,0,0.4-0.1C59.6,112.8,59.5,112.8,59.4,112.9z M59.4,111.6
	c0.1,0,0.1,0,0.1,0C59.5,111.6,59.5,111.6,59.4,111.6z M60.1,111.5c-0.3,0-0.4,0.1-0.5,0.1C59.9,111.6,60,111.5,60.1,111.5z
	 M60.1,111.3c-0.3,0-0.4,0.1-0.5,0.1C59.9,111.4,60,111.3,60.1,111.3z M59.8,112.8c0.2,0,0.3,0,0.4-0.1
	C60,112.7,59.9,112.8,59.8,112.8z M60.1,111.5C60.8,111.4,60.3,111.3,60.1,111.5L60.1,111.5z M71.5,108.5c-3.5,1-7.4,1.9-11.5,2.8
	C64.4,110.5,68.3,109.6,71.5,108.5z M60.6,112.1C60.4,112.2,60.6,112.2,60.6,112.1L60.6,112.1z M60.6,112.1c0.1,0,0.1,0,0.1,0
	C60.6,112.1,60.6,112.1,60.6,112.1z M60.7,112.1c0.2,0,0.3,0,0.4-0.1C60.9,112,60.8,112.1,60.7,112.1z M61.1,112.2
	C61.2,112.2,61.1,112.3,61.1,112.2L61.1,112.2z M61.1,112c0.1,0,0.1,0,0.1,0C61.1,112,61.1,112,61.1,112z M61.2,112
	c1.8-0.3,3.5-0.7,4.9-1.1C64.5,111.3,62.8,111.6,61.2,112z M61.8,111.1C61.1,111.1,61.6,111.3,61.8,111.1L61.8,111.1z M61.8,111.1
	c0.1,0,0.1,0,0.1,0C61.8,111.1,61.8,111.1,61.8,111.1z M62.4,111c-0.3,0-0.4,0.1-0.5,0.1C62.2,111.1,62.3,111,62.4,111z M63.1,110.8
	c-0.4,0-0.5,0.1-0.6,0.1C62.8,111,62.9,110.9,63.1,110.8z M63.2,110.8c-0.1,0-0.1,0-0.1,0C63.2,110.8,63.2,110.8,63.2,110.8z
	 M63.3,111.7C63.1,111.8,63.3,111.8,63.3,111.7L63.3,111.7z M64,110.6c-0.4,0-0.6,0.1-0.8,0.2C63.6,110.8,63.7,110.7,64,110.6z
	 M63.3,111.7C63.5,111.7,63.3,111.7,63.3,111.7L63.3,111.7z M63.8,111.6C63.6,111.7,63.8,111.7,63.8,111.6L63.8,111.6z M63.8,111.6
	C64,111.6,63.8,111.6,63.8,111.6L63.8,111.6z M64.9,110.4c-0.5,0-0.6,0.1-0.9,0.2C64.4,110.6,64.6,110.5,64.9,110.4z M64.3,111.5
	C64.2,111.6,64.4,111.6,64.3,111.5L64.3,111.5z M64.3,111.5C64.5,111.5,64.3,111.5,64.3,111.5L64.3,111.5z M75.2,107.6
	c3.2-1,6.3-2,9.1-3.1c-6.1,2.1-12.2,4.2-19.4,5.9C68.8,109.6,72,108.6,75.2,107.6z M74.1,108.8c-2.6,0.7-5.2,1.4-8,2.1
	C69.1,110.3,71.8,109.6,74.1,108.8z M66.5,111.1C66.7,111,66.5,111,66.5,111.1L66.5,111.1z M67.2,110.9
	C67.2,110.9,67.2,110.9,67.2,110.9c-0.3-0.1-0.6,0.1-0.1,0C67,111,67.1,110.9,67.2,110.9z M67.3,110.9c-0.1,0-0.1,0-0.1,0
	C67.2,110.9,67.3,110.9,67.3,110.9C67.3,110.9,67.3,110.9,67.3,110.9z M67.4,110.8c-0.1,0-0.1,0-0.1,0
	C67.4,110.9,67.4,110.9,67.4,110.8z M67.6,110.8c-0.1,0-0.1,0-0.1,0C67.5,110.8,67.6,110.8,67.6,110.8z M67.6,110.1
	C67.4,110.2,67.6,110.2,67.6,110.1L67.6,110.1z M67.7,110.8c-0.1,0-0.1,0-0.1,0C67.7,110.8,67.7,110.8,67.7,110.8z M67.6,110.1
	C68.1,110.1,67.6,110,67.6,110.1L67.6,110.1z M67.8,110.7c-0.1,0-0.1,0-0.1,0C67.8,110.8,67.8,110.8,67.8,110.7z M67.9,110.7
	c-0.1,0-0.1,0-0.1,0C67.9,110.7,67.9,110.7,67.9,110.7z M68.3,110.7c0.2-0.1,0.6-0.1,0.8-0.2c-0.6,0-0.8,0.2-1.2,0.3
	c0.1,0,0.2,0,0.3,0C68.2,110.7,68.2,110.7,68.3,110.7z M68.8,109.8C68.7,109.8,68.9,109.9,68.8,109.8L68.8,109.8z M68.8,109.8
	c0.1,0,0.1,0,0.1,0C68.9,109.8,68.9,109.8,68.8,109.8z M69.1,109.8c-0.1,0-0.1,0-0.1,0C69.1,109.8,69.1,109.8,69.1,109.8z
	 M69.2,110.4c-0.1,0-0.1,0-0.1,0C69.2,110.4,69.2,110.4,69.2,110.4z M69.2,109.7c-0.1,0-0.1,0-0.1,0
	C69.2,109.8,69.2,109.7,69.2,109.7z M69.4,110.4c-0.1,0-0.1,0-0.1,0C69.3,110.4,69.4,110.4,69.4,110.4z M69.4,109.7
	c-0.1,0-0.1,0-0.1,0C69.3,109.7,69.4,109.7,69.4,109.7z M69.5,110.3c-0.1,0-0.1,0-0.1,0C69.5,110.4,69.5,110.3,69.5,110.3z
	 M69.5,109.7c-0.1,0-0.1,0-0.1,0C69.5,109.7,69.5,109.7,69.5,109.7z M69.6,110.3c-0.1,0-0.1,0-0.1,0
	C69.6,110.3,69.6,110.3,69.6,110.3z M69.6,109.6c-0.1,0-0.1,0-0.1,0C69.6,109.7,69.6,109.6,69.6,109.6z M69.6,110.3
	C69.8,110.3,69.6,110.2,69.6,110.3L69.6,110.3z M69.7,109.6c-0.1,0-0.1,0-0.1,0C69.7,109.6,69.7,109.6,69.7,109.6z M69.9,109.5
	c-0.1,0-0.1,0-0.1,0C69.9,109.6,69.9,109.6,69.9,109.5z M70,110.2C69.8,110.2,70,110.2,70,110.2L70,110.2z M70,109.5
	c-0.1,0-0.1,0-0.1,0C70,109.6,70,109.5,70,109.5z M70,110.2c0.1,0,0.1,0,0.1,0C70,110.1,70,110.2,70,110.2z M70.1,109.5
	c-0.1,0-0.1,0-0.1,0C70.1,109.5,70.1,109.5,70.1,109.5z M70.1,110.1c0.1,0,0.1,0,0.1,0C70.2,110.1,70.1,110.1,70.1,110.1z
	 M70.3,109.4c-0.1,0-0.1,0-0.1,0C70.2,109.5,70.3,109.5,70.3,109.4z M70.3,110.1c0.1,0,0.1,0,0.1,0
	C70.3,110.1,70.3,110.1,70.3,110.1z M70.4,109.4c-0.1,0-0.1,0-0.1,0C70.4,109.4,70.4,109.4,70.4,109.4z M80.6,107
	c-3.3,1.1-6.7,2.1-10.2,3.1C74.1,109.1,77.5,108.1,80.6,107z M70.5,109.4c-0.1,0-0.1,0-0.1,0C70.5,109.4,70.5,109.4,70.5,109.4z
	 M70.6,109.3c-0.1,0-0.1,0-0.1,0C70.6,109.4,70.6,109.4,70.6,109.3z M70.8,109.3c-0.1,0-0.1,0-0.1,0
	C70.8,109.3,70.8,109.3,70.8,109.3z M70.9,109.3c-0.1,0-0.1,0-0.1,0C70.9,109.3,70.9,109.3,70.9,109.3z M71,109.2
	c-0.1,0-0.1,0-0.1,0C71,109.3,71,109.3,71,109.2z M71.2,109.2c-0.1,0-0.1,0-0.1,0C71.1,109.2,71.2,109.2,71.2,109.2z M71.3,109.2
	c-0.1,0-0.1,0-0.1,0C71.3,109.2,71.3,109.2,71.3,109.2z M71.4,109.1c-0.1,0-0.1,0-0.1,0C71.4,109.2,71.4,109.1,71.4,109.1z
	 M71.5,109.1c-0.1,0-0.1,0-0.1,0C71.5,109.1,71.5,109.1,71.5,109.1z M71.7,109.1c-0.1,0-0.1,0-0.1,0
	C71.7,109.1,71.7,109.1,71.7,109.1z M71.7,108.4c-0.1,0-0.1,0-0.1,0C71.7,108.5,71.7,108.4,71.7,108.4z M71.8,109
	c-0.1,0-0.1,0-0.1,0C71.8,109.1,71.8,109,71.8,109z M71.8,108.4c-0.1,0-0.1,0-0.1,0C71.8,108.4,71.8,108.4,71.8,108.4z M71.9,109
	c-0.1,0-0.1,0-0.1,0C71.9,109,71.9,109,71.9,109z M71.9,108.4c-0.1,0-0.1,0-0.1,0C71.9,108.4,71.9,108.4,71.9,108.4z M72.1,109
	c-0.1,0-0.1,0-0.1,0C72,109,72.1,109,72.1,109z M72.1,108.3c-0.1,0-0.1,0-0.1,0C72,108.4,72.1,108.3,72.1,108.3z M72.2,108.9
	c-0.1,0-0.1,0-0.1,0C72.2,109,72.2,108.9,72.2,108.9z M73,108c-0.3,0.1-0.8,0.1-0.9,0.3C72.4,108.2,72.8,108.2,73,108z M72.3,108.9
	c-0.1,0-0.1,0-0.1,0C72.3,108.9,72.3,108.9,72.3,108.9z M72.5,108.8c-0.1,0-0.1,0-0.1,0C72.4,108.9,72.4,108.9,72.5,108.8z
	 M72.5,108.8C72.6,108.8,72.4,108.8,72.5,108.8L72.5,108.8z M72.7,108.7C72.5,108.8,72.7,108.8,72.7,108.7L72.7,108.7z M72.7,108.7
	c0.1,0,0.1,0,0.1,0C72.7,108.7,72.7,108.7,72.7,108.7z M73,108.7c-0.1,0-0.1,0-0.1,0C72.9,108.7,73,108.7,73,108.7z M73.1,108.6
	c-0.1,0-0.1,0-0.1,0C73.1,108.7,73.1,108.7,73.1,108.6z M73.1,108c-0.1,0-0.1,0-0.1,0C73.1,108,73.1,108,73.1,108z M73.2,108.6
	c-0.1,0-0.1,0-0.1,0C73.2,108.6,73.2,108.6,73.2,108.6z M73.2,108c-0.1,0-0.1,0-0.1,0C73.2,108,73.2,108,73.2,108z M73.4,108.6
	c-0.1,0-0.1,0-0.1,0C73.3,108.6,73.3,108.6,73.4,108.6z M74,107.7c-0.3,0.1-0.7,0.1-0.8,0.2C73.5,107.9,73.9,107.9,74,107.7z
	 M73.5,108.5c-0.1,0-0.1,0-0.1,0C73.5,108.6,73.5,108.6,73.5,108.5z M73.6,108.5c-0.1,0-0.1,0-0.1,0
	C73.6,108.5,73.6,108.5,73.6,108.5z M73.7,108.5c-0.1,0-0.1,0-0.1,0C73.7,108.5,73.7,108.5,73.7,108.5z M73.9,108.4
	c-0.1,0-0.1,0-0.1,0C73.8,108.5,73.9,108.4,73.9,108.4z M74,108.4c-0.1,0-0.1,0-0.1,0C74,108.4,74,108.4,74,108.4z M74.1,108.3
	c-0.1,0-0.1,0-0.1,0.1C74.1,108.4,74.1,108.4,74.1,108.3z M76.4,107c-0.9,0.2-1.8,0.5-2.4,0.8C74.9,107.5,75.7,107.2,76.4,107z
	 M75,108.5c-0.3,0.1-0.8,0.1-0.9,0.3C74.5,108.7,74.9,108.6,75,108.5z M74.3,108.3c-0.1,0-0.1,0-0.1,0
	C74.2,108.3,74.2,108.3,74.3,108.3z M74.4,108.3c-0.1,0-0.1,0-0.1,0C74.4,108.3,74.4,108.3,74.4,108.3z M74.5,108.2
	c-0.1,0-0.1,0-0.1,0C74.5,108.3,74.5,108.2,74.5,108.2z M74.6,108.2c-0.1,0-0.1,0-0.1,0C74.6,108.2,74.6,108.2,74.6,108.2z
	 M74.8,108.1c-0.1,0-0.1,0-0.1,0C74.7,108.2,74.8,108.2,74.8,108.1z M74.9,108.1c-0.1,0-0.1,0-0.1,0
	C74.9,108.2,74.9,108.1,74.9,108.1z M75,108.1c-0.1,0-0.1,0-0.1,0C75,108.1,75,108.1,75,108.1z M75.9,108.2
	c-0.3,0.1-0.8,0.1-0.9,0.3C75.4,108.4,75.8,108.4,75.9,108.2z M75.2,108c-0.1,0-0.1,0-0.1,0C75.1,108.1,75.1,108.1,75.2,108z
	 M75.3,108c-0.1,0-0.1,0-0.1,0.1C75.3,108,75.3,108,75.3,108z M75.4,107.9c-0.1,0-0.1,0-0.1,0C75.4,108,75.4,108,75.4,107.9z
	 M75.5,107.9c-0.1,0-0.1,0-0.1,0C75.5,107.9,75.5,107.9,75.5,107.9z M75.7,107.9c-0.1,0-0.1,0-0.1,0
	C75.7,107.9,75.7,107.9,75.7,107.9z M75.8,107.8c-0.1,0-0.1,0-0.1,0C75.8,107.9,75.8,107.9,75.8,107.8z M75.9,107.8
	c-0.1,0-0.1,0-0.1,0C75.9,107.8,75.9,107.8,75.9,107.8z M76.1,108.2c-0.1,0-0.1,0-0.1,0C76,108.2,76,108.2,76.1,108.2z M76.2,107.7
	c-0.2,0-0.3,0-0.3,0.1C76.1,107.8,76.2,107.8,76.2,107.7z M76.7,108c-0.3,0.1-0.6,0.1-0.6,0.2C76.3,108.1,76.7,108.1,76.7,108z
	 M76.3,107.7c-0.1,0-0.1,0-0.1,0C76.3,107.7,76.3,107.7,76.3,107.7z M76.4,107.6c-0.1,0-0.1,0-0.1,0
	C76.4,107.7,76.4,107.6,76.4,107.6z M76.6,107.6c-0.1,0-0.1,0-0.1,0C76.6,107.6,76.6,107.6,76.6,107.6z M77.1,106.8
	c-0.3,0.1-0.6,0.1-0.6,0.2C76.7,106.9,77,106.9,77.1,106.8z M77,107.4c-0.2,0-0.4,0.1-0.4,0.1C76.8,107.6,77,107.5,77,107.4z
	 M76.8,107.9c-0.1,0-0.1,0-0.1,0C76.8,108,76.8,108,76.8,107.9z M77.3,107.8c-0.2,0-0.5,0.1-0.5,0.2C77,107.9,77.3,107.9,77.3,107.8
	z M77.1,107.4c-0.1,0-0.1,0-0.1,0C77.1,107.5,77.1,107.4,77.1,107.4z M77.2,107.4c-0.1,0-0.1,0-0.1,0
	C77.2,107.4,77.2,107.4,77.2,107.4z M78,106.4c-0.4,0.1-0.7,0.2-0.9,0.3C77.5,106.7,77.8,106.6,78,106.4z M77.3,107.3
	c-0.1,0-0.1,0-0.1,0C77.3,107.4,77.3,107.4,77.3,107.3z M77.5,107.7c-0.1,0-0.1,0-0.1,0C77.5,107.8,77.5,107.7,77.5,107.7z
	 M77.7,107.2c-0.2,0-0.4,0.1-0.4,0.1C77.5,107.3,77.8,107.3,77.7,107.2z M78,107.6c-0.2,0-0.5,0.1-0.5,0.2
	C77.7,107.7,78,107.7,78,107.6z M77.9,107.2c-0.1,0-0.1,0-0.1,0C77.8,107.2,77.9,107.2,77.9,107.2z M78,107.1c-0.1,0-0.1,0-0.1,0
	C78,107.2,78,107.2,78,107.1z M78.1,107.5c-0.1,0-0.1,0-0.1,0C78.1,107.6,78.1,107.5,78.1,107.5z M78.4,107c-0.2,0-0.4,0.1-0.4,0.1
	C78.2,107.1,78.4,107.1,78.4,107z M78,106.4C78.2,106.4,78,106.4,78,106.4L78,106.4z M78.6,107.3c-0.2,0-0.5,0.1-0.5,0.2
	C78.3,107.5,78.6,107.4,78.6,107.3z M78.5,107c-0.1,0-0.1,0-0.1,0C78.5,107,78.5,107,78.5,107z M78.6,106.9c-0.1,0-0.1,0-0.1,0
	C78.6,107,78.6,106.9,78.6,106.9z M79.1,107.2c-0.2,0-0.5,0.1-0.5,0.2C78.9,107.3,79.1,107.3,79.1,107.2z M82.2,105.8
	c0.9-0.4-0.8,0.1-1.2,0.2c-0.9,0.3-1.6,0.5-2.4,0.8C79.5,106.7,81.3,106.2,82.2,105.8z M79.1,106.1C79,106.1,79.2,106.1,79.1,106.1
	L79.1,106.1z M79.3,107.1c-0.1,0-0.1,0-0.1,0C79.3,107.2,79.3,107.2,79.3,107.1z M81.6,105.2c-0.9,0.2-1.6,0.5-2.4,0.8
	C80.2,105.8,80.9,105.5,81.6,105.2z M79.8,107c-0.2,0-0.5,0.1-0.5,0.2C79.5,107.1,79.8,107.1,79.8,107z M79.9,106.9
	c-0.1,0-0.1,0-0.1,0C79.9,107,79.9,106.9,79.9,106.9z M80,106.9c-0.1,0-0.1,0-0.1,0C80,106.9,80,106.9,80,106.9z M80,106.9
	C80.2,106.9,80,106.8,80,106.9L80,106.9z M80.6,107c0.2,0,0.5-0.1,0.5-0.2C80.9,106.9,80.6,106.9,80.6,107z M86,105.1
	c-1.8,0.5-3.3,1.1-4.9,1.7C82.8,106.3,84.4,105.7,86,105.1z M81.6,105.2c0.7-0.2,1.3-0.4,1.8-0.6C82.7,104.8,82.1,105,81.6,105.2z
	 M82.5,116.6C82.3,116.7,82.5,116.7,82.5,116.6L82.5,116.6z M82.5,116.6C82.7,116.6,82.5,116.6,82.5,116.6L82.5,116.6z M82.9,116.6
	C82.7,116.6,82.9,116.6,82.9,116.6L82.9,116.6z M83.1,116.5c-0.1,0-0.2,0-0.3,0C83,116.6,83.1,116.6,83.1,116.5z M83.1,116.5
	C83.3,116.5,83.1,116.5,83.1,116.5L83.1,116.5z M83.9,104.4c-0.2,0-0.5,0.1-0.5,0.2C83.6,104.6,83.9,104.5,83.9,104.4z M84.3,104.3
	c-0.2,0-0.4,0.1-0.4,0.1C84.1,104.4,84.3,104.4,84.3,104.3z M84.3,104.8c0.2,0,0.4-0.1,0.4-0.1C84.5,104.6,84.3,104.7,84.3,104.8z
	 M84.7,104.4c-0.2,0-0.4,0.1-0.4,0.1C84.5,104.5,84.7,104.5,84.7,104.4z M84.7,104.2c-0.2,0-0.4,0.1-0.4,0.1
	C84.5,104.3,84.7,104.2,84.7,104.2z M84.4,104.1C84.2,104.1,84.4,104.1,84.4,104.1L84.4,104.1z M84.6,104.1c-0.1,0-0.1,0-0.1,0
	C84.5,104.1,84.5,104.1,84.6,104.1z M84.7,104c-0.1,0-0.1,0-0.1,0.1C84.7,104.1,84.7,104,84.7,104z M84.7,104.6
	c0.2,0,0.4-0.1,0.4-0.1C84.9,104.5,84.7,104.5,84.7,104.6z M85.1,104.2c-0.2,0-0.4,0.1-0.4,0.1C84.9,104.3,85.1,104.3,85.1,104.2z
	 M84.8,104.1c-0.1,0-0.1,0-0.1,0C84.8,104.2,84.8,104.1,84.8,104.1z M84.8,104c-0.1,0-0.1,0-0.1,0C84.8,104,84.8,104,84.8,104z
	 M84.8,104.1C85.2,104.1,84.7,104,84.8,104.1L84.8,104.1z M85.1,103.8c-0.2,0-0.3,0-0.3,0.1C85,103.9,85.1,103.9,85.1,103.8z
	 M85.1,104.5c0.2,0,0.3,0,0.3-0.1C85.2,104.4,85.1,104.4,85.1,104.5z M85.2,104.2c-0.1,0-0.1,0-0.1,0
	C85.2,104.2,85.2,104.2,85.2,104.2z M85.2,103.8c-0.1,0-0.1,0-0.1,0C85.2,103.9,85.2,103.8,85.2,103.8z M85.5,104.1
	c-0.2,0-0.3,0-0.3,0.1C85.4,104.2,85.5,104.2,85.5,104.1z M85.2,103.8C85.4,103.8,85.2,103.8,85.2,103.8L85.2,103.8z M85.5,116.1
	C85.3,116.1,85.5,116.1,85.5,116.1L85.5,116.1z M85.3,104.4c0.1,0,0.1,0,0.1,0C85.3,104.3,85.3,104.4,85.3,104.4z M85.5,116.1
	C85.6,116.1,85.4,116,85.5,116.1L85.5,116.1z M85.5,104.3c0.2,0,0.3,0,0.3-0.1C85.6,104.2,85.4,104.3,85.5,104.3z M85.6,104.1
	c-0.1,0-0.1,0-0.1,0C85.6,104.1,85.6,104.1,85.6,104.1z M85.6,104.1C85.8,104,85.6,104,85.6,104.1L85.6,104.1z M85.8,104.4
	C85.7,104.5,85.9,104.5,85.8,104.4L85.8,104.4z M85.7,104.2c0.1,0,0.1,0,0.1,0C85.7,104.2,85.7,104.2,85.7,104.2z M85.8,104.4
	C86,104.4,85.8,104.4,85.8,104.4L85.8,104.4z M85.8,104.2c0.2,0,0.3,0,0.3-0.1C85.9,104.1,85.8,104.1,85.8,104.2z M86.1,105.1
	c-0.1,0-0.1,0-0.1,0C86.1,105.1,86.1,105.1,86.1,105.1z M86.1,104.3C85.9,104.4,86.1,104.4,86.1,104.3L86.1,104.3z M86.1,105.1
	C86.3,105.1,86.1,105.1,86.1,105.1L86.1,105.1z M86.1,104.3c0.1,0,0.1,0,0.1,0C86.1,104.3,86.1,104.3,86.1,104.3z M86.1,104.1
	c0.1,0,0.1,0,0.1,0C86.1,104.1,86.1,104.1,86.1,104.1z M86.2,104.3c0.2,0,0.3,0,0.3-0.1C86.3,104.2,86.2,104.2,86.2,104.3z
	 M86.2,104.1c0.2,0,0.3,0,0.3-0.1C86.3,104,86.2,104,86.2,104.1z M86.5,104.2c0.1,0,0.1,0,0.1,0C86.5,104.2,86.5,104.2,86.5,104.2z
	 M86.5,104c0.2,0,0.3,0,0.3-0.1C86.6,103.9,86.5,103.9,86.5,104z M86.6,104.2c0.2,0,0.4-0.1,0.4-0.1
	C86.8,104.1,86.6,104.1,86.6,104.2z M86.7,103.8c0.1,0,0.1,0,0.1,0C86.8,103.8,86.8,103.8,86.7,103.8z M87,103.7
	c-0.1,0-0.1,0-0.1,0.1C87,103.8,87,103.8,87,103.7z M87,104c0.2,0,0.3,0,0.3-0.1C87.1,103.9,87,104,87,104z M87.1,103.7
	c-0.1,0-0.1,0-0.1,0C87.1,103.7,87.1,103.7,87.1,103.7z M87.1,103.7C87.3,103.7,87.1,103.7,87.1,103.7L87.1,103.7z M87.4,103.9
	c-0.1,0-0.1,0-0.1,0C87.4,103.9,87.4,103.9,87.4,103.9z M87.4,103.9C87.9,103.9,87.4,103.7,87.4,103.9L87.4,103.9z M88.2,105.4
	C88.2,105.4,88.2,105.4,88.2,105.4C88,105.4,88.1,105.4,88.2,105.4z M88.2,105.4c0,0,0.1,0,0.1,0C88.3,105.3,88.2,105.4,88.2,105.4z
	 M88.5,105.3C88.5,105.3,88.5,105.3,88.5,105.3C88.3,105.2,88.1,105.3,88.5,105.3z M88.7,105.2c-0.1,0-0.1,0-0.1,0
	C88.6,105.2,88.6,105.2,88.7,105.2C88.7,105.2,88.7,105.2,88.7,105.2z M88.7,105.2c0,0,0.1,0,0.1,0
	C88.8,105.2,88.7,105.2,88.7,105.2z M88.9,104.7C89.1,104.6,88.9,104.6,88.9,104.7L88.9,104.7z M89.1,104.8
	C89.3,104.8,89,104.8,89.1,104.8L89.1,104.8z M89.7,105.7c-0.1,0-0.1,0-0.1,0C89.7,105.7,89.7,105.7,89.7,105.7z M90.2,115.1
	C90,115.1,90.2,115.1,90.2,115.1L90.2,115.1z M90.1,105.6c0,0,0.1,0,0.1,0C90.2,105.5,90.1,105.5,90.1,105.6z M90.2,115.1
	C90.4,115,90.2,115,90.2,115.1L90.2,115.1z M90.3,105.5C90.2,105.5,90.4,105.5,90.3,105.5L90.3,105.5z M90.3,105.5
	C90.5,105.4,90.3,105.4,90.3,105.5L90.3,105.5z M90.9,105.4C90.9,105.3,90.9,105.3,90.9,105.4c-0.2-0.1-0.4,0-0.1,0
	C90.7,105.4,90.8,105.3,90.9,105.4z M90.9,114.9C90.7,115,90.9,115,90.9,114.9L90.9,114.9z M90.9,114.9c0.1,0,0.1,0,0.1,0
	C90.9,114.9,90.9,114.9,90.9,114.9z M91.1,114.9c-0.1,0-0.1,0-0.1,0C91.1,114.9,91.1,114.9,91.1,114.9z M91.1,114.9
	C91.7,114.9,91.2,114.7,91.1,114.9L91.1,114.9z M91.6,114.6C91.5,114.6,91.7,114.7,91.6,114.6L91.6,114.6z M91.9,114.7
	C91.7,114.7,91.9,114.7,91.9,114.7L91.9,114.7z M91.9,114.7c1.1-0.1,1.8-0.4,2.6-0.6C93.5,114.2,92.8,114.5,91.9,114.7z M94.5,114.1
	c0.1,0,0.1,0,0.1,0C94.5,114,94.5,114,94.5,114.1z M94.9,104.5c-0.2,0-0.4,0.1-0.4,0.1C94.7,104.6,94.9,104.6,94.9,104.5z
	 M95.2,104.3c-0.2,0-0.4,0.1-0.4,0.1C95,104.4,95.3,104.4,95.2,104.3z M96.3,104c-0.5,0.1-0.8,0.2-1,0.3
	C95.7,104.3,96.1,104.1,96.3,104z M96.5,103.9c-0.2,0-0.3,0-0.3,0.1C96.4,104,96.5,103.9,96.5,103.9z M96.8,103.8
	c-0.2,0-0.3,0-0.3,0.1C96.7,103.9,96.8,103.8,96.8,103.8z M96.9,103.7c-0.1,0-0.1,0-0.1,0C96.9,103.8,96.9,103.8,96.9,103.7z
	 M97,103.7c-0.1,0-0.1,0-0.1,0.1C97,103.7,97,103.7,97,103.7z M97.2,103.6c-0.1,0-0.1,0-0.1,0C97.2,103.7,97.2,103.7,97.2,103.6z
	 M97.4,103.5c-0.2,0-0.3,0-0.3,0.1C97.3,103.6,97.4,103.6,97.4,103.5z M97.6,103.5c-0.1,0-0.1,0-0.1,0
	C97.5,103.5,97.6,103.5,97.6,103.5z M97.7,103.4c-0.1,0-0.1,0-0.1,0.1C97.7,103.5,97.7,103.5,97.7,103.4z M97.8,103.4
	c-0.1,0-0.1,0-0.1,0C97.8,103.4,97.8,103.4,97.8,103.4z M97.8,103.4C98,103.4,97.8,103.4,97.8,103.4L97.8,103.4z M98.1,103.3
	C97.9,103.3,98.1,103.3,98.1,103.3L98.1,103.3z M98.2,103.3c-0.1,0-0.1,0-0.1,0C98.2,103.3,98.2,103.3,98.2,103.3z M98.3,103.2
	c-0.1,0-0.1,0-0.1,0.1C98.3,103.3,98.3,103.2,98.3,103.2z M98.5,103.1c-0.1,0-0.1,0-0.1,0C98.4,103.2,98.5,103.2,98.5,103.1z
	 M98.5,103.1C98.6,103.1,98.4,103.1,98.5,103.1L98.5,103.1z M98.7,103C98.5,103.1,98.7,103.1,98.7,103L98.7,103z M98.7,103
	C98.9,103,98.7,103,98.7,103L98.7,103z M99.2,102.9C99.2,102.9,99.3,102.9,99.2,102.9L99.2,102.9z M100.1,105.4
	c-0.2,0-0.3,0-0.3,0.1C100,105.5,100.1,105.4,100.1,105.4z M100.4,105.3c-0.2,0-0.3,0-0.3,0.1C100.3,105.4,100.4,105.3,100.4,105.3z
	 M100.3,103.5C100.1,103.6,100.3,103.6,100.3,103.5L100.3,103.5z M100.3,103.5c0.1,0,0.1,0,0.1,0
	C100.3,103.5,100.3,103.5,100.3,103.5z M100.5,105.2c-0.1,0-0.1,0-0.1,0C100.5,105.3,100.5,105.3,100.5,105.2z M100.4,103.5
	c0,0,0.1,0,0.1,0c0,0,0,0,0-0.1C100.4,103.4,100.4,103.5,100.4,103.5z M100.8,105.1c-0.2,0-0.3,0-0.3,0.1
	C100.7,105.2,100.8,105.2,100.8,105.1z M100.8,103.3c-0.2,0-0.3,0-0.3,0.1C100.7,103.4,100.8,103.4,100.8,103.3z M100.9,105.1
	c-0.1,0-0.1,0-0.1,0C100.9,105.1,100.9,105.1,100.9,105.1z M100.8,103.3c0.1,0,0.1,0,0.1,0C100.8,103.3,100.8,103.3,100.8,103.3z
	 M100.9,105.1C101.1,105.1,100.9,105.1,100.9,105.1L100.9,105.1z M101.2,105C101,105,101.2,105,101.2,105L101.2,105z M101.2,105
	c0.1,0,0.1,0,0.1,0C101.2,105,101.2,105,101.2,105z M101.3,105c0.1,0,0.1,0,0.1-0.1C101.3,104.9,101.3,104.9,101.3,105z
	 M101.4,104.9c0.1,0,0.1,0,0.1,0C101.4,104.9,101.4,104.9,101.4,104.9z M101.6,104.9c0.2,0,0.3,0,0.3-0.1
	C101.7,104.8,101.5,104.8,101.6,104.9z M101.8,104.8c0.1,0,0.1,0,0.1,0C101.8,104.7,101.8,104.7,101.8,104.8z M101.9,104.7
	c0.1,0,0.1,0,0.1-0.1C101.9,104.7,102,104.7,101.9,104.7z M102.1,104.7C102.3,104.6,102.1,104.6,102.1,104.7L102.1,104.7z
	 M108.1,100.1c-0.1,0-0.1,0-0.1,0C108.1,100.1,108.1,100.1,108.1,100.1z M108.2,100.1c-0.1,0-0.1,0-0.1,0
	C108.2,100.1,108.2,100.1,108.2,100.1z M108.9,99.9c-0.3,0.1-0.6,0.1-0.6,0.2C108.5,100,108.8,100,108.9,99.9z M108.9,99.9
	C109.1,99.8,108.9,99.8,108.9,99.9L108.9,99.9z M109.3,99.8C109.1,99.8,109.3,99.8,109.3,99.8L109.3,99.8z M109.4,99.7
	c-0.1,0-0.1,0-0.1,0C109.4,99.8,109.4,99.7,109.4,99.7z M109.5,99.7c-0.1,0-0.1,0-0.1,0C109.5,99.7,109.5,99.7,109.5,99.7z
	 M109.7,99.7c-0.1,0-0.1,0-0.1,0C109.6,99.7,109.7,99.7,109.7,99.7z M109.7,99.7C109.9,99.6,109.7,99.6,109.7,99.7L109.7,99.7z
	 M110.3,99.5C110.1,99.5,110.3,99.5,110.3,99.5L110.3,99.5z M110.3,99.5C110.5,99.5,110.3,99.4,110.3,99.5L110.3,99.5z M111.9,99.1
	C110.9,99.2,111.5,99.3,111.9,99.1L111.9,99.1z M112,99.1c-0.1,0-0.1,0-0.1,0C112,99.1,112,99.1,112,99.1z M112.1,99
	c-0.1,0-0.1,0-0.1,0C112.1,99.1,112.1,99,112.1,99z M112.2,99c-0.1,0-0.1,0-0.1,0C112.2,99,112.2,99,112.2,99z M112.4,99
	c-0.1,0-0.1,0-0.1,0C112.4,99,112.4,99,112.4,99z M112.9,98.8c-0.3,0-0.4,0.1-0.5,0.1C112.7,99,112.8,98.9,112.9,98.8z M113,98.8
	c-0.1,0-0.1,0-0.1,0C113,98.9,113,98.8,113,98.8z M113.1,98.8c-0.1,0-0.1,0-0.1,0C113.1,98.8,113.1,98.8,113.1,98.8z M113.1,98.8
	C113.3,98.8,113.1,98.7,113.1,98.8L113.1,98.8z M113.7,98.7C113.1,98.7,113.6,98.8,113.7,98.7L113.7,98.7z M113.8,98.6
	c-0.1,0-0.1,0-0.1,0C113.8,98.7,113.8,98.7,113.8,98.6z M114.2,98.6c-0.2,0-0.3,0-0.4,0.1C114,98.6,114.1,98.6,114.2,98.6z
	 M114.3,98.5c-0.1,0-0.1,0-0.1,0C114.3,98.6,114.3,98.6,114.3,98.5z M114.8,98.4c-0.3,0-0.4,0.1-0.5,0.1
	C114.6,98.5,114.7,98.5,114.8,98.4z M114.9,98.4c-0.1,0-0.1,0-0.1,0C114.9,98.4,114.9,98.4,114.9,98.4z M115.1,98.7
	C114.9,98.7,115.1,98.7,115.1,98.7L115.1,98.7z M115.2,98.4c-0.2,0-0.2,0-0.3,0C115.1,98.4,115.2,98.4,115.2,98.4z M115.1,98.7
	C115.3,98.7,115.1,98.7,115.1,98.7L115.1,98.7z M115.3,98.3c-0.1,0-0.1,0-0.1,0C115.3,98.4,115.3,98.3,115.3,98.3z M115.6,98.3
	c-0.2,0-0.2,0-0.3,0C115.5,98.3,115.6,98.3,115.6,98.3z M115.7,98.3c-0.1,0-0.1,0-0.1,0C115.7,98.3,115.7,98.3,115.7,98.3z
	 M116,98.2c-0.1,0-0.2,0-0.3,0C115.9,98.3,115.9,98.2,116,98.2z M116,98.5C115.8,98.6,116,98.6,116,98.5L116,98.5z M116.1,107.2
	C115.9,107.3,116.1,107.3,116.1,107.2L116.1,107.2z M116.1,98.2c-0.1,0-0.1,0-0.1,0C116.1,98.2,116.1,98.2,116.1,98.2z M116.1,107.2
	c0.1,0,0.1,0,0.1,0C116.1,107.2,116.1,107.2,116.1,107.2z M116.4,98.1c-0.1,0-0.2,0-0.3,0C116.3,98.2,116.3,98.2,116.4,98.1z
	 M116.2,107.2C116.4,107.2,116.2,107.2,116.2,107.2L116.2,107.2z M116.5,98.1c-0.1,0-0.1,0-0.1,0C116.5,98.2,116.5,98.1,116.5,98.1z
	 M116.7,98.1c-0.1,0-0.2,0-0.3,0C116.6,98.1,116.7,98.1,116.7,98.1z M116.9,98c-0.1,0-0.1,0-0.1,0C116.9,98.1,116.9,98.1,116.9,98z
	 M116.9,98C117.4,98.1,116.9,97.9,116.9,98L116.9,98z M117.1,106.9C116.9,106.9,117.1,106.9,117.1,106.9L117.1,106.9z M117.1,106.9
	C117.3,106.8,117.1,106.8,117.1,106.9L117.1,106.9z M117.5,106.8C117.6,106.7,117.5,106.8,117.5,106.8L117.5,106.8z M120.4,105.6
	C120.2,105.7,120.4,105.7,120.4,105.6L120.4,105.6z M120.4,105.6C120.5,105.6,120.3,105.6,120.4,105.6L120.4,105.6z M120.7,105.5
	C120.6,105.5,120.8,105.5,120.7,105.5L120.7,105.5z M120.7,105.5c0.1,0,0.1,0,0.1,0C120.8,105.4,120.7,105.5,120.7,105.5z
	 M120.9,105.5c0.1,0,0.1,0,0.1-0.1C120.9,105.4,120.9,105.4,120.9,105.5z M121,105.4c0.1,0,0.1,0,0.1,0
	C121,105.3,121,105.4,121,105.4z M121.1,105.4c0.2,0,0.3,0,0.3-0.1C121.2,105.3,121.1,105.3,121.1,105.4z M149.3,101.9
	c-0.3,0-0.3,0,0,0.1c0.2,0.1,1.1,0.3,1.5,0.5C150.5,102.3,150,102,149.3,101.9z M150.2,104.2C150.3,104.2,150.2,104.2,150.2,104.2
	L150.2,104.2z M150.6,104.4C150.5,104.3,150.5,104.4,150.6,104.4L150.6,104.4z M150.6,104.4C150.7,104.4,150.8,104.4,150.6,104.4
	L150.6,104.4z M150.9,104.5C150.8,104.4,150.7,104.5,150.9,104.5L150.9,104.5z M150.9,104.5c0,0,0,0.1,0.1,0.1
	C151,104.5,151,104.5,150.9,104.5z M150.9,102.4c0,0.1,0.2,0.1,0.4,0.1C151.3,102.5,151.1,102.4,150.9,102.4z M151,104.5
	c0,0,0.1,0,0.1,0C151.2,104.6,151.1,104.5,151,104.5z M151.1,104.6c0,0,0,0.1,0.1,0.1C151.3,104.6,151.2,104.6,151.1,104.6z
	 M151.3,104.7C151.3,104.7,151.4,104.6,151.3,104.7L151.3,104.7z M151.4,104C151.3,104,151.2,104,151.4,104L151.4,104z M151.5,104.8
	C151.4,104.7,151.4,104.8,151.5,104.8L151.5,104.8z M151.4,104c0,0,0,0.1,0.1,0.1C151.5,104.1,151.5,104,151.4,104z M151.5,104.8
	c0,0,0,0.1,0.1,0.1C151.7,104.8,151.6,104.8,151.5,104.8z M151.5,104.1c0,0,0,0,0.1,0C151.7,104.1,151.6,104.1,151.5,104.1z
	 M151.6,104.8C151.7,104.9,151.8,104.8,151.6,104.8L151.6,104.8z M151.6,104.1c0,0,0,0.1,0.1,0.1
	C151.8,104.2,151.7,104.1,151.6,104.1z M151.9,104.9C151.8,104.9,151.7,104.9,151.9,104.9L151.9,104.9z M151.8,104.2c0,0,0,0,0.1,0
	C151.9,104.2,151.9,104.2,151.8,104.2z M151.9,104.9c0,0,0,0.1,0.1,0.1C152.1,105,152,104.9,151.9,104.9z M151.9,104.2
	c0,0,0,0.1,0.1,0.1C152.1,104.3,152,104.2,151.9,104.2z M152,105C152.1,105.1,152.2,105,152,105L152,105z M152,104.3
	c0,0,0.1,0,0.1,0C152.2,104.3,152.1,104.3,152,104.3z M152.3,105.1C152.2,105.1,152.1,105.1,152.3,105.1L152.3,105.1z M152.2,104.3
	c0,0,0,0.1,0.1,0.1C152.3,104.4,152.3,104.3,152.2,104.3z M152.3,105.1c0,0,0,0.1,0.1,0.1C152.4,105.1,152.4,105.1,152.3,105.1z
	 M152.3,104.4c0,0,0,0.1,0.1,0.1C152.4,104.4,152.4,104.4,152.3,104.4z M152.4,105.2C152.5,105.2,152.6,105.2,152.4,105.2
	L152.4,105.2z M152.4,104.5c0,0,0,0,0.1,0C152.6,104.5,152.5,104.5,152.4,104.5z M152.7,105.3C152.6,105.2,152.5,105.3,152.7,105.3
	L152.7,105.3z M152.5,104.5c0,0,0,0.1,0.1,0.1C152.7,104.5,152.6,104.5,152.5,104.5z M152.7,105.3c0,0,0,0.1,0.1,0.1
	C152.8,105.3,152.8,105.3,152.7,105.3z M152.7,104.6c0,0,0.1,0,0.1,0C152.8,104.6,152.8,104.6,152.7,104.6z M152.8,105.4
	c0,0,0,0.1,0.1,0.1C153,105.4,152.9,105.4,152.8,105.4z M152.8,104.6c0,0,0,0.1,0.1,0.1C153,104.6,152.9,104.6,152.8,104.6z
	 M152.9,105.4C153,105.5,153.1,105.4,152.9,105.4L152.9,105.4z M152.9,104.7c0,0,0,0.1,0.1,0.1C153.1,104.7,153,104.7,152.9,104.7z
	 M153.1,103C153,102.9,152.9,103,153.1,103L153.1,103z M153.2,105.5C153.2,105.5,153.2,105.5,153.2,105.5
	C153,105.5,153.1,105.5,153.2,105.5z M153.1,104.8c0,0.1,0.1,0.1,0.3,0.1C153.3,104.8,153.2,104.8,153.1,104.8z M153.1,103
	c0,0,0,0,0.1,0C153.2,103,153.1,103,153.1,103z M153.2,103c0,0,0,0.1,0.1,0.1C153.3,103,153.3,103,153.2,103z M153.3,104.9
	c0,0,0,0.1,0.1,0.1C153.5,104.9,153.4,104.9,153.3,104.9z M153.3,103.1c0,0,0,0,0.1,0C153.5,103.1,153.4,103.1,153.3,103.1z
	 M153.4,104.9c0,0.1,0.1,0.1,0.3,0.1C153.7,105,153.6,104.9,153.4,104.9z M153.4,103.1c0,0.1,0.1,0.1,0.3,0.1
	C153.7,103.2,153.6,103.1,153.4,103.1z M153.7,105c0,0,0,0.1,0.1,0.1C153.9,105.1,153.8,105,153.7,105z M153.7,103.2
	c0,0.1,0.1,0.1,0.3,0.1C154,103.3,153.9,103.2,153.7,103.2z M153.8,105.1c0,0.1,0.1,0.1,0.3,0.1C154.1,105.2,154,105.1,153.8,105.1z
	 M154,103.3c0,0,0,0,0.1,0C154.1,103.3,154,103.3,154,103.3z M154.1,105.2c0,0,0,0.1,0.1,0.1C154.2,105.2,154.2,105.2,154.1,105.2z
	 M154.1,103.4c0,0,0,0.1,0.1,0.1C154.2,103.4,154.2,103.4,154.1,103.4z M154.2,105.3c0,0.1,0.1,0.1,0.3,0.1
	C154.5,105.3,154.4,105.3,154.2,105.3z M154.2,103.4c0,0.1,0.2,0.1,0.4,0.1C154.6,103.5,154.4,103.5,154.2,103.4z M154.5,105.4
	c0,0,0,0.1,0.1,0.1C154.6,105.4,154.6,105.4,154.5,105.4z M154.6,105.5c0.1,0.1,0.2,0.2,0.5,0.2C155,105.6,154.9,105.5,154.6,105.5z
	 M154.6,103.6c0,0.1,0.1,0.1,0.3,0.1C154.9,103.6,154.8,103.6,154.6,103.6z M154.9,103.7c0,0.1,0.1,0.1,0.3,0.1
	C155.1,103.7,155,103.7,154.9,103.7z M155.1,103.8c0,0.1,0.1,0.1,0.3,0.1C155.4,103.8,155.3,103.8,155.1,103.8z M156.3,104.3
	c-0.2-0.2-0.5-0.3-0.9-0.4C155.6,104,155.9,104.2,156.3,104.3z M155.8,105.5C155.7,105.5,155.8,105.4,155.8,105.5L155.8,105.5z
	 M155.9,105.5C155.8,105.5,155.7,105.5,155.9,105.5L155.9,105.5z M156,105.6c0,0,0-0.1-0.1-0.1C155.9,105.6,155.9,105.6,156,105.6z
	 M156,105.6C156.1,105.6,156.2,105.6,156,105.6L156,105.6z M156.3,105.7C156.2,105.7,156.1,105.7,156.3,105.7L156.3,105.7z
	 M156.3,105.7c0,0,0,0.1,0.1,0.1C156.4,105.7,156.4,105.7,156.3,105.7z M156.3,104.3c0,0.1,0.1,0.1,0.3,0.1
	C156.5,104.3,156.4,104.3,156.3,104.3z M156.4,105.8c0,0,0.1,0,0.1,0C156.6,105.8,156.5,105.8,156.4,105.8z M156.5,105.8
	c0,0,0,0.1,0.1,0.1C156.7,105.8,156.6,105.8,156.5,105.8z M156.5,104.4c0,0.1,0.1,0.1,0.3,0.1C156.8,104.4,156.7,104.4,156.5,104.4z
	 M156.7,105.9c0,0,0,0.1,0.1,0.1C156.8,105.9,156.8,105.9,156.7,105.9z M156.8,105.9c0,0,0,0,0.1,0
	C156.9,106,156.9,105.9,156.8,105.9z M156.9,106c0,0,0,0.1,0.1,0.1C157.1,106,157,106,156.9,106z M157.2,106.9
	C157.1,106.8,157,106.9,157.2,106.9L157.2,106.9z M157.1,106.1c0,0,0,0.1,0.1,0.1C157.2,106.1,157.2,106.1,157.1,106.1z
	 M157.2,106.1c0,0,0,0.1,0.1,0.1C157.3,106.1,157.3,106.1,157.2,106.1z M157.3,106.2c0,0,0.1,0,0.1,0
	C157.5,106.2,157.4,106.2,157.3,106.2z M157.4,106.2c0,0,0,0.1,0.1,0.1C157.6,106.3,157.5,106.2,157.4,106.2z M157.6,104.2
	C157.5,104.2,157.4,104.2,157.6,104.2L157.6,104.2z M157.6,106.3c0,0,0,0.1,0.1,0.1C157.7,106.3,157.7,106.3,157.6,106.3z
	 M157.6,104.2c0,0,0,0.1,0.1,0.1C157.7,104.3,157.7,104.2,157.6,104.2z M157.7,106.4c0,0.1,0.1,0.1,0.3,0.1
	C158,106.4,157.9,106.4,157.7,106.4z M157.7,104.3c0,0,0.1,0,0.1,0C157.8,104.3,157.8,104.3,157.7,104.3z M157.8,103.8
	C157.7,103.8,157.7,103.8,157.8,103.8L157.8,103.8z M157.8,104.3c0,0,0,0.1,0.1,0.1C158,104.4,157.9,104.3,157.8,104.3z
	 M158.1,103.9c0-0.1-0.1-0.1-0.3-0.1C157.8,103.9,157.9,103.9,158.1,103.9z M158,106.5c0,0,0,0.1,0.1,0.1
	C158.1,106.5,158.1,106.5,158,106.5z M158,104.4c0,0,0.1,0,0.1,0C158.1,104.4,158,104.4,158,104.4z M158.1,106.5c0,0,0,0.1,0.1,0.1
	C158.2,106.6,158.2,106.5,158.1,106.5z M158.1,104.4c0,0,0,0.1,0.1,0.1C158.2,104.5,158.2,104.4,158.1,104.4z M158.3,104
	c0-0.1-0.1-0.1-0.3-0.1C158.1,104,158.2,104,158.3,104z M158.2,106.6c0,0,0,0.1,0.1,0.1C158.4,106.6,158.3,106.6,158.2,106.6z
	 M158.2,104.5c0,0.1,0.1,0.1,0.3,0.1C158.5,104.6,158.4,104.5,158.2,104.5z M158.3,106.7c0,0,0.1,0,0.1,0
	C158.5,106.7,158.4,106.7,158.3,106.7z M158.6,104.1c0-0.1-0.1-0.1-0.3-0.1C158.3,104.1,158.4,104.1,158.6,104.1z M158.5,106.7
	c0,0,0,0.1,0.1,0.1C158.6,106.7,158.6,106.7,158.5,106.7z M158.6,104.1C158.7,104.2,158.8,104.1,158.6,104.1L158.6,104.1z
	 M159,104.3C159,104.1,158.4,104.3,159,104.3L159,104.3z M159.2,104.4c0-0.1-0.1-0.1-0.3-0.1C159,104.4,159.1,104.4,159.2,104.4z
	 M159.5,104.5c0-0.1-0.1-0.1-0.3-0.1C159.2,104.5,159.3,104.5,159.5,104.5z M159.8,104.6c0-0.1-0.1-0.1-0.3-0.1
	C159.5,104.6,159.6,104.6,159.8,104.6z M159.9,104.7c0,0-0.1,0-0.1,0C159.7,104.6,159.8,104.6,159.9,104.7z M160,104.7
	c0,0,0-0.1-0.1-0.1C159.9,104.7,159.9,104.7,160,104.7z M160,104.7C160.1,104.8,160.2,104.7,160,104.7L160,104.7z M169.3,118.9
	C169.2,118.8,169.1,118.9,169.3,118.9L169.3,118.9z M169.3,118.9c0,0,0,0.1,0.1,0.1C169.4,118.9,169.4,118.9,169.3,118.9z
	 M169.4,119c0,0,0,0.1,0.1,0.1C169.6,119,169.6,119,169.4,119z M174.7,121.6c-2.1-0.6-3.9-1.6-5.2-2.5c1.1,1,2.8,2,5.4,2.7
	C175.9,122,175.1,121.7,174.7,121.6z M176.9,116.3C177.3,116.3,176.8,116.1,176.9,116.3L176.9,116.3z M177,116.4
	C177.2,116.4,177,116.4,177,116.4L177,116.4z M183.8,106.7c0,0,0-0.1-0.1-0.1c0,0,0,0,0,0.1C183.7,106.7,183.8,106.7,183.8,106.7z
	 M184,106.7c0,0-0.1,0-0.1,0C183.8,106.7,183.9,106.7,184,106.7z M184.1,106.8c0,0,0-0.1-0.1-0.1C183.9,106.8,184,106.8,184.1,106.8
	z M184.1,106.8C184.2,106.8,184.2,106.8,184.1,106.8L184.1,106.8z M184.4,106.9C184.3,106.8,184.2,106.9,184.4,106.9L184.4,106.9z
	 M184.4,106.9C184.4,106.9,184.4,106.9,184.4,106.9c0,0.1,0.1,0.1,0.1,0.1C184.5,106.9,184.5,106.9,184.4,106.9z M185.1,107.2
	c0,0-0.1,0-0.1,0C185,107.2,185,107.2,185.1,107.2z M185.3,107.3c0,0,0-0.1-0.1-0.1C185.1,107.2,185.2,107.3,185.3,107.3z
	 M185.5,107.4c0-0.1-0.1-0.1-0.3-0.1c0,0,0,0,0,0.1C185.4,107.4,185.4,107.4,185.5,107.4z M185.8,107.5c0-0.1-0.1-0.1-0.3-0.1
	c0,0,0,0,0,0.1C185.6,107.5,185.6,107.5,185.8,107.5z M185.9,107.6c0,0,0-0.1-0.1-0.1C185.7,107.5,185.8,107.5,185.9,107.6z
	 M186,107.6c0,0-0.1,0-0.1,0C185.9,107.6,185.9,107.6,186,107.6z M186.2,107.7c0,0,0-0.1-0.1-0.1C186,107.6,186.1,107.7,186.2,107.7
	z M186.4,107.8c0-0.1-0.1-0.1-0.3-0.1C186.1,107.7,186.2,107.7,186.4,107.8z M186.5,107.8c0,0,0-0.1-0.1-0.1
	C186.4,107.8,186.4,107.8,186.5,107.8z M186.8,107.9c0-0.1-0.1-0.1-0.3-0.1C186.5,107.9,186.6,107.9,186.8,107.9z M186.9,108
	c0,0,0-0.1-0.1-0.1C186.8,108,186.8,108,186.9,108z M186.9,123C187,123.1,187.1,123,186.9,123L186.9,123z M187.2,108.1
	c0-0.1-0.1-0.1-0.3-0.1C186.9,108.1,187,108.1,187.2,108.1z M187.3,108.2c0,0,0-0.1-0.1-0.1C187.2,108.2,187.2,108.2,187.3,108.2z
	 M187.4,123c0,0,0,0-0.1,0C187.3,123,187.4,123,187.4,123z M187.6,108.3c0-0.1-0.1-0.1-0.3-0.1C187.3,108.2,187.4,108.3,187.6,108.3
	z M187.6,123.1c0,0,0,0-0.1,0C187.4,123.1,187.5,123.1,187.6,123.1z M187.6,123.1C187.6,123.1,187.7,123.1,187.6,123.1L187.6,123.1z
	 M187.7,108.4c0,0,0-0.1-0.1-0.1C187.5,108.3,187.6,108.4,187.7,108.4z M187.8,108.4c0,0,0-0.1-0.1-0.1
	C187.7,108.4,187.7,108.4,187.8,108.4z M188,108.5c0,0-0.1,0-0.1,0C187.8,108.5,187.9,108.5,188,108.5z M188.1,108.5
	c0,0,0-0.1-0.1-0.1C187.9,108.5,188,108.5,188.1,108.5z M188.2,108.6c0,0,0-0.1-0.1-0.1C188.1,108.6,188.1,108.6,188.2,108.6z
	 M188.5,108.7c0-0.1-0.1-0.1-0.3-0.1C188.2,108.7,188.3,108.7,188.5,108.7z M188.6,108.8c0,0,0-0.1-0.1-0.1
	C188.5,108.7,188.5,108.8,188.6,108.8z M188.7,108.8c0,0,0-0.1-0.1-0.1C188.6,108.8,188.6,108.8,188.7,108.8z M188.9,108.9
	c0,0,0-0.1-0.1-0.1C188.7,108.9,188.8,108.9,188.9,108.9z M189,109c0,0-0.1,0-0.1,0C188.8,108.9,188.9,109,189,109z M189.1,109
	c0,0,0-0.1-0.1-0.1C189,109,189,109,189.1,109z M189.2,109.1c0,0,0-0.1-0.1-0.1C189.1,109.1,189.1,109.1,189.2,109.1z M189.2,109.1
	C189.3,109.1,189.4,109.1,189.2,109.1L189.2,109.1z M192.6,123.9c0.3-0.1-0.7-0.3-0.9-0.3C191.6,123.8,192.3,124,192.6,123.9z
	 M198,112.5C197.6,112.7,198.2,112.8,198,112.5L198,112.5z M198,112.5c0.3-0.2,0.1-0.6,0-0.2C198,112.3,198,112.4,198,112.5z
	 M198.3,112.1c0.1,0,0-0.3,0-0.3C198.1,111.5,198.1,112.1,198.3,112.1z M198.4,111.6c0.1,0,0-0.4,0-0.4
	C198.3,110.8,198.2,111.7,198.4,111.6z M198.5,111.1c0.3-0.1-0.2-0.6-0.1-0.6C198.1,110.5,198.5,111.1,198.5,111.1z M199.4,115.3
	C199.8,115.3,199.3,115.1,199.4,115.3L199.4,115.3z M199.5,115.4c0,0,0.1,0,0.1,0C199.7,115.3,199.5,115.3,199.5,115.4z
	 M199.8,115.5c0,0,0-0.1-0.1-0.1c0,0,0,0.1,0,0.1C199.7,115.5,199.8,115.5,199.8,115.5z M201.6,116.2
	C201.5,116.1,201.4,116.2,201.6,116.2L201.6,116.2z M201.9,116C202.3,115.9,201.7,115.8,201.9,116L201.9,116z M202.9,125.2
	c0,0,0.2,0,0.3,0C203.6,125.1,202.2,125.1,202.9,125.2z M204.1,107.9c0.1,0-0.1-0.1-0.1-0.1C203.9,107.9,204,108,204.1,107.9z
	 M204.7,108.1c0,0-0.1-0.1-0.1-0.1C204.5,108,204.6,108.1,204.7,108.1z M207.4,108.2c-0.1,0,0.2,0.5,0.5,0.5
	C207.6,108.5,208,108.2,207.4,108.2z M207.5,125.6C207.3,125.7,207.5,125.7,207.5,125.6L207.5,125.6z M207.9,108.7
	c0,0.1,0.1,0.2,0.3,0.2C208.2,108.8,208.1,108.7,207.9,108.7z M208.3,108.3c0,0-0.1-0.1-0.1-0.1
	C208.1,108.2,208.2,108.3,208.3,108.3z M208.6,126C208.6,126,208.5,126,208.6,126L208.6,126z M210.4,107.6c0,0,0.1,0,0.1,0
	C211,107.4,209.6,107.6,210.4,107.6z M212,107.3c0,0-0.1-0.1-0.1-0.1C211.9,107.3,212,107.4,212,107.3z M213.7,107.4
	c0.1,0-0.1-0.2-0.1-0.1C213.5,107.3,213.6,107.4,213.7,107.4z M221,120.4C220.7,120.4,221.2,120.6,221,120.4L221,120.4z"/>
</svg>
