<?xml version="1.0" encoding="utf-8"?>
<!-- Generator: Adobe Illustrator 18.1.1, SVG Export Plug-In . SVG Version: 6.00 Build 0)  -->
<svg version="1.1" id="Layer_1" xmlns="http://www.w3.org/2000/svg" xmlns:xlink="http://www.w3.org/1999/xlink" x="0px" y="0px"
	 viewBox="0 0 80 79.7" enable-background="new 0 0 80 79.7" xml:space="preserve">
<path d="M42.2,26.5L57.7,41l-2.7,2.9L39.3,29.3L23.7,43.9L21,41l15.4-14.4L21,12.1l2.7-2.9l15.6,14.6L54.9,9.1l2.7,2.9L42.2,26.5z
	 M19.8,67.1c0.1,0,0.2,0,0.3,0.1l0.8,0.9c-0.6,0.7-1.3,1.3-2.2,1.6c-0.9,0.4-1.9,0.6-3.1,0.6c-1.1,0-2-0.2-2.9-0.6s-1.6-0.9-2.2-1.6
	c-0.6-0.7-1.1-1.5-1.4-2.4c-0.3-0.9-0.5-2-0.5-3.1c0-1.1,0.2-2.1,0.5-3.1c0.4-0.9,0.9-1.7,1.5-2.4c0.7-0.7,1.4-1.2,2.4-1.6
	c0.9-0.4,1.9-0.6,3-0.6c1.1,0,2,0.2,2.8,0.5c0.8,0.3,1.5,0.8,2.1,1.4l-0.7,0.9c0,0.1-0.1,0.1-0.2,0.2c-0.1,0-0.2,0.1-0.3,0.1
	c-0.1,0-0.2,0-0.3-0.1c-0.1-0.1-0.2-0.1-0.4-0.2c-0.1-0.1-0.3-0.2-0.5-0.3c-0.2-0.1-0.4-0.2-0.7-0.3s-0.6-0.2-0.9-0.2
	c-0.3-0.1-0.7-0.1-1.2-0.1c-0.8,0-1.5,0.1-2.2,0.4c-0.7,0.3-1.2,0.7-1.7,1.2c-0.5,0.5-0.8,1.1-1.1,1.8c-0.3,0.7-0.4,1.5-0.4,2.4
	c0,0.9,0.1,1.8,0.4,2.5c0.3,0.7,0.6,1.3,1.1,1.8c0.5,0.5,1,0.9,1.6,1.1s1.3,0.4,2,0.4c0.4,0,0.8,0,1.2-0.1c0.4-0.1,0.7-0.1,1-0.2
	s0.6-0.3,0.8-0.4c0.3-0.2,0.5-0.4,0.8-0.6C19.6,67.1,19.7,67.1,19.8,67.1z M26,68.3h6v2h-8v-15h2V68.3z M47.1,62.7
	c0,1.1-0.2,2.1-0.5,3.1s-0.9,1.7-1.5,2.4c-0.6,0.7-1.4,1.2-2.3,1.6c-0.9,0.4-1.9,0.6-3,0.6c-1.1,0-2.1-0.2-3-0.6
	c-0.9-0.4-1.7-0.9-2.3-1.6c-0.6-0.7-1.1-1.5-1.5-2.4s-0.5-2-0.5-3.1c0-1.1,0.2-2.1,0.5-3.1s0.9-1.7,1.5-2.4s1.4-1.2,2.3-1.6
	c0.9-0.4,1.9-0.6,3-0.6c1.1,0,2.1,0.2,3,0.6c0.9,0.4,1.7,0.9,2.3,1.6s1.1,1.5,1.5,2.4S47.1,61.6,47.1,62.7z M45.1,62.7
	c0-0.9-0.1-1.7-0.4-2.5c-0.2-0.7-0.6-1.3-1.1-1.8c-0.5-0.5-1-0.9-1.7-1.2s-1.4-0.4-2.2-0.4c-0.8,0-1.5,0.1-2.2,0.4s-1.2,0.7-1.7,1.2
	c-0.5,0.5-0.8,1.1-1.1,1.8s-0.4,1.5-0.4,2.5s0.1,1.7,0.4,2.5c0.2,0.7,0.6,1.3,1.1,1.8s1,0.9,1.7,1.2c0.6,0.3,1.4,0.4,2.2,0.4
	c0.8,0,1.5-0.1,2.2-0.4c0.6-0.3,1.2-0.6,1.7-1.2c0.5-0.5,0.8-1.1,1.1-1.8C45,64.4,45.1,63.6,45.1,62.7z M57.5,57.6
	c-0.1,0.1-0.1,0.2-0.2,0.2c-0.1,0.1-0.2,0.1-0.3,0.1c-0.1,0-0.3-0.1-0.4-0.2c-0.2-0.1-0.4-0.2-0.6-0.4s-0.5-0.3-0.9-0.4
	s-0.7-0.2-1.2-0.2c-0.4,0-0.8,0.1-1.2,0.2c-0.3,0.1-0.6,0.3-0.9,0.5c-0.2,0.2-0.4,0.5-0.5,0.7c-0.1,0.3-0.2,0.6-0.2,0.9
	c0,0.4,0.1,0.8,0.3,1c0.2,0.3,0.5,0.5,0.8,0.7s0.7,0.4,1.1,0.5s0.9,0.3,1.3,0.4c0.4,0.2,0.9,0.3,1.3,0.5c0.4,0.2,0.8,0.4,1.1,0.7
	c0.3,0.3,0.6,0.6,0.8,1.1c0.2,0.4,0.3,0.9,0.3,1.6c0,0.6-0.1,1.3-0.3,1.8c-0.2,0.6-0.5,1.1-1,1.5c-0.4,0.4-0.9,0.8-1.6,1
	c-0.6,0.2-1.3,0.4-2.1,0.4c-1,0-1.8-0.2-2.6-0.5c-0.8-0.3-1.5-0.8-2-1.4l0.6-1c0.1-0.1,0.1-0.1,0.2-0.2c0.1-0.1,0.2-0.1,0.3-0.1
	c0.1,0,0.3,0.1,0.5,0.2c0.2,0.2,0.4,0.3,0.7,0.5s0.6,0.4,1,0.5s0.9,0.2,1.5,0.2c0.5,0,0.9-0.1,1.3-0.2s0.7-0.3,0.9-0.6
	c0.3-0.2,0.5-0.5,0.6-0.9c0.1-0.3,0.2-0.7,0.2-1.1c0-0.4-0.1-0.8-0.3-1.1c-0.2-0.3-0.5-0.5-0.8-0.7c-0.3-0.2-0.7-0.4-1.1-0.5
	c-0.4-0.1-0.9-0.3-1.3-0.4c-0.4-0.1-0.9-0.3-1.3-0.5c-0.4-0.2-0.8-0.4-1.1-0.7c-0.3-0.3-0.6-0.7-0.8-1.1c-0.2-0.4-0.3-1-0.3-1.7
	c0-0.5,0.1-1,0.3-1.5c0.2-0.5,0.5-0.9,0.9-1.3c0.4-0.4,0.9-0.7,1.4-0.9c0.6-0.2,1.2-0.3,2-0.3c0.8,0,1.6,0.1,2.3,0.4
	c0.7,0.3,1.3,0.6,1.8,1.1L57.5,57.6z M70,55.3v2h-7v5h6v1h-6v5h7v2h-9v-15H70z"/>
</svg>
