<?xml version="1.0" encoding="utf-8"?>
<!-- Generator: Adobe Illustrator 18.1.1, SVG Export Plug-In . SVG Version: 6.00 Build 0)  -->
<svg version="1.1" id="Layer_1" xmlns="http://www.w3.org/2000/svg" xmlns:xlink="http://www.w3.org/1999/xlink" x="0px" y="0px"
	 viewBox="0 0 80 79.7" enable-background="new 0 0 80 79.7" xml:space="preserve">
<path d="M55.1,17.7h-34v-7.1h34V17.7z M55.1,23h-34v7.1h34V23z M55.1,35.3h-34v7.1h34V35.3z M17,65l-5.5-9.8
	c-0.1-0.2-0.2-0.3-0.3-0.3c-0.1,0-0.3-0.1-0.4-0.1H9.1v15.9H11V59c0-0.2,0-0.3,0-0.5c0-0.2,0-0.4,0-0.6l5.6,10
	c0.2,0.3,0.4,0.5,0.8,0.5h0.3c0.3,0,0.6-0.2,0.8-0.5l5.5-10c0,0.2,0,0.4,0,0.5c0,0.2,0,0.3,0,0.5v11.7h1.9V54.8h-1.6
	c-0.2,0-0.3,0-0.4,0.1c-0.1,0-0.2,0.1-0.3,0.3L18,65c-0.1,0.2-0.2,0.4-0.3,0.6c-0.1,0.2-0.2,0.4-0.2,0.6c-0.1-0.2-0.1-0.4-0.2-0.6
	C17.1,65.3,17.1,65.1,17,65z M29.6,54.8v15.9h9.8V69h-7.7v-5.4h6.2v-1.7h-6.2v-5.3h7.7v-1.8H29.6z M43.6,54.8h-1.1v15.9h1.9V59.4
	c0-0.1,0-0.3,0-0.5c0-0.2,0-0.4,0-0.5l9.2,12c0.1,0.1,0.2,0.2,0.3,0.3c0.1,0.1,0.3,0.1,0.4,0.1h1.1V54.8h-1.9v11.3
	c0,0.2,0,0.3,0,0.5c0,0.2,0,0.4,0,0.6l-9.2-12c-0.1-0.1-0.2-0.2-0.3-0.3C43.9,54.8,43.8,54.8,43.6,54.8z M63.7,68.7
	c-0.5-0.2-1-0.5-1.3-0.9c-0.4-0.4-0.6-0.9-0.8-1.4s-0.3-1.2-0.3-1.8v-9.7h-2.1v9.7c0,0.9,0.1,1.8,0.4,2.6c0.3,0.8,0.7,1.5,1.3,2
	c0.6,0.6,1.2,1,2,1.4c0.8,0.3,1.7,0.5,2.6,0.5c1,0,1.9-0.2,2.6-0.5c0.8-0.3,1.5-0.8,2-1.4s1-1.3,1.3-2c0.3-0.8,0.4-1.6,0.4-2.6v-9.7
	h-2.1v9.7c0,0.7-0.1,1.3-0.3,1.8c-0.2,0.6-0.5,1-0.8,1.4c-0.4,0.4-0.8,0.7-1.3,0.9c-0.5,0.2-1.1,0.3-1.8,0.3
	C64.8,69,64.2,68.9,63.7,68.7z"/>
</svg>
