<?xml version="1.0" encoding="utf-8"?>
<!-- Generator: Adobe Illustrator 18.1.1, SVG Export Plug-In . SVG Version: 6.00 Build 0)  -->
<svg version="1.1" id="Layer_1" xmlns="http://www.w3.org/2000/svg" xmlns:xlink="http://www.w3.org/1999/xlink" x="0px" y="0px"
	 viewBox="17.5 106.5 40 40" enable-background="new 17.5 106.5 40 40" xml:space="preserve">
<g>
	<rect x="24" y="110.9" fill="#E1B62B" width="26.8" height="5"/>
	<rect x="24" y="119.2" fill="#E1B62B" width="26.8" height="5"/>
	<rect x="24" y="127.1" fill="#E1B62B" width="26.8" height="5"/>
	<g>
		<path fill="#E1B62B" d="M27.5,139.8c0.1,0.1,0.1,0.2,0.1,0.3c0-0.1,0.1-0.2,0.1-0.3s0.1-0.1,0.1-0.3l2.3-4.2
			c0.1-0.1,0.1-0.1,0.1-0.1c0.1,0,0.1,0,0.2,0h0.7v6.9h-0.8v-5c0-0.1,0-0.1,0-0.2s0-0.1,0-0.3l-2.3,4.2c-0.1,0.1-0.2,0.2-0.3,0.2
			h-0.1c-0.1,0-0.3-0.1-0.3-0.2l-2.4-4.3c0,0.1,0,0.2,0,0.3s0,0.1,0,0.2v5H24v-6.8h0.7c0.1,0,0.1,0,0.2,0c0.1,0,0.1,0.1,0.1,0.1
			l2.4,4.2C27.4,139.6,27.5,139.6,27.5,139.8z"/>
		<path fill="#E1B62B" d="M37,135.1v0.8h-3.3v2.3h2.7v0.7h-2.7v2.3H37v0.8h-4.2v-6.9H37z"/>
		<path fill="#E1B62B" d="M39,135.2c0.1,0,0.1,0.1,0.1,0.1l4,5.2c0-0.1,0-0.1,0-0.3c0-0.1,0-0.1,0-0.2v-4.8h0.8v6.9h-0.5
			c-0.1,0-0.1,0-0.2-0.1c-0.1,0-0.1-0.1-0.1-0.1l-4-5.2c0,0.1,0,0.1,0,0.3c0,0.1,0,0.1,0,0.2v4.8h-0.8v-6.8h0.5
			C38.9,135.1,39,135.1,39,135.2z"/>
		<path fill="#E1B62B" d="M48.2,141.2c0.3,0,0.5-0.1,0.8-0.1c0.2-0.1,0.4-0.3,0.6-0.4c0.1-0.2,0.3-0.4,0.3-0.6
			c0.1-0.2,0.1-0.5,0.1-0.8v-4.2H51v4.2c0,0.4-0.1,0.8-0.2,1.1c-0.1,0.3-0.3,0.7-0.5,0.8c-0.3,0.3-0.5,0.5-0.8,0.6
			c-0.3,0.1-0.7,0.2-1.1,0.2c-0.4,0-0.8-0.1-1.1-0.2c-0.3-0.1-0.7-0.3-0.8-0.6c-0.3-0.3-0.4-0.5-0.5-0.8c-0.1-0.3-0.2-0.7-0.2-1.1
			v-4.2h0.9v4.1c0,0.3,0.1,0.5,0.1,0.8c0.1,0.3,0.2,0.5,0.3,0.6c0.1,0.2,0.3,0.3,0.6,0.4C47.7,141.2,48,141.2,48.2,141.2z"/>
	</g>
</g>
</svg>
