<?xml version="1.0" encoding="utf-8"?>
<!-- Generator: Adobe Illustrator 18.1.1, SVG Export Plug-In . SVG Version: 6.00 Build 0)  -->
<svg version="1.1" id="Layer_1" xmlns="http://www.w3.org/2000/svg" xmlns:xlink="http://www.w3.org/1999/xlink" x="0px" y="0px"
	 width="109px" height="109px" viewBox="0 0 109 109" enable-background="new 0 0 109 109" xml:space="preserve">
<g>
	<rect x="33.9" y="30.7" fill="#FFFFFF" width="41" height="7.7"/>
	<rect x="33.9" y="43.4" fill="#FFFFFF" width="41" height="7.7"/>
	<rect x="33.9" y="55.4" fill="#FFFFFF" width="41" height="7.7"/>
	<g>
		<path fill="#FFFFFF" d="M39.2,74.8c0.1,0.1,0.1,0.3,0.1,0.4c0-0.1,0.1-0.3,0.2-0.4c0.1-0.1,0.1-0.2,0.2-0.4l3.5-6.4
			c0.1-0.1,0.1-0.2,0.2-0.2c0.1,0,0.2,0,0.3,0h1v10.5h-1.2v-7.7c0-0.1,0-0.2,0-0.3c0-0.1,0-0.2,0-0.4L40,76.3
			c-0.1,0.2-0.3,0.3-0.5,0.3h-0.2c-0.2,0-0.4-0.1-0.5-0.3l-3.7-6.6c0,0.1,0,0.3,0,0.4c0,0.1,0,0.2,0,0.3v7.7h-1.2V67.7h1
			c0.1,0,0.2,0,0.3,0c0.1,0,0.1,0.1,0.2,0.2l3.6,6.4C39.1,74.5,39.2,74.6,39.2,74.8z"/>
		<path fill="#FFFFFF" d="M53.8,67.7v1.2h-5v3.5h4.1v1.1h-4.1V77h5v1.2h-6.4V67.7H53.8z"/>
		<path fill="#FFFFFF" d="M56.8,67.8c0.1,0,0.1,0.1,0.2,0.2l6.1,7.9c0-0.1,0-0.2,0-0.4c0-0.1,0-0.2,0-0.3v-7.4h1.2v10.5h-0.7
			c-0.1,0-0.2,0-0.3-0.1c-0.1,0-0.1-0.1-0.2-0.2L57,70c0,0.1,0,0.2,0,0.4c0,0.1,0,0.2,0,0.3v7.4h-1.2V67.7h0.7
			C56.7,67.7,56.8,67.7,56.8,67.8z"/>
		<path fill="#FFFFFF" d="M70.9,77c0.4,0,0.8-0.1,1.2-0.2c0.3-0.1,0.6-0.4,0.9-0.6c0.2-0.3,0.4-0.6,0.5-0.9s0.2-0.8,0.2-1.2v-6.4
			h1.4v6.4c0,0.6-0.1,1.2-0.3,1.7c-0.2,0.5-0.5,1-0.8,1.3c-0.4,0.4-0.8,0.7-1.3,0.9c-0.5,0.2-1.1,0.3-1.7,0.3
			c-0.6,0-1.2-0.1-1.7-0.3c-0.5-0.2-1-0.5-1.3-0.9c-0.4-0.4-0.6-0.8-0.8-1.3c-0.2-0.5-0.3-1.1-0.3-1.7v-6.4h1.4v6.3
			c0,0.4,0.1,0.8,0.2,1.2c0.1,0.4,0.3,0.7,0.5,0.9c0.2,0.3,0.5,0.5,0.9,0.6C70.1,77,70.5,77,70.9,77z"/>
	</g>
</g>
</svg>
